<svg viewBox="0 0 50 50">
    <path id="ellipse960"
        d="M 25 9.5 A 15.5 15.5 0 0 0 9.5 25 A 15.5 15.5 0 0 0 25 40.5 A 15.5 15.5 0 0 0 40.5 25 A 15.5 15.5 0 0 0 25 9.5 z M 25 11 A 14 14 0 0 1 39 25 A 14 14 0 0 1 25 39 A 14 14 0 0 1 11 25 A 14 14 0 0 1 25 11 z " />
    <path id="ellipse964"
        d="M 25 14 A 11 11 0 0 0 14 25 A 11 11 0 0 0 25 36 A 11 11 0 0 0 36 25 A 11 11 0 0 0 25 14 z M 25 17 A 8 8 0 0 1 33 25 A 8 8 0 0 1 25 33 A 8 8 0 0 1 17 25 A 8 8 0 0 1 25 17 z " />
    <path id="ellipse970"
        d="M 25 20.5 A 4.5 4.5 0 0 0 20.5 25 A 4.5 4.5 0 0 0 25 29.5 A 4.5 4.5 0 0 0 29.5 25 A 4.5 4.5 0 0 0 25 20.5 z M 25 22 A 3 3 0 0 1 28 25 A 3 3 0 0 1 25 28 A 3 3 0 0 1 22 25 A 3 3 0 0 1 25 22 z " />
</svg>