<svg viewBox="0 0 147 147"><title>Artboard 39</title><g id="_39_fill" data-name="39 fill"><path class="cls-1" d="M70.86,89c17.54,0,46.16,3.38,56,6.33-19-40.53-56-49-56-49s-37,8.44-56,49C24.71,92.4,53.18,89,70.86,89Z"/></g><g id="_39_stroke" data-name="39 stroke"><path class="cls-2" d="M70.86,89c17.54,0,46.16,3.38,56,6.33-19-40.53-56-49-56-49s-37,8.44-56,49C24.71,92.4,53.18,89,70.86,89Z"/><path class="cls-2" d="M112.82,92.38c-11.27-26.72-42-36-42-36s-30.68,9.26-42,36"/><path class="cls-2" d="M91.06,90c.11-6.74.32-15.35-6.17-15.62-7.55-.39-6.95,8.3-6.94,14.78,0-12.83.4-21.79-7.08-21.79s-7.08,9-7.08,21.79c0-6.48.61-15.17-6.94-14.78-6.49.27-6.28,8.88-6.17,15.62"/></g></svg>