<?xml version="1.0" encoding="utf-8"?>
<!-- Generator: Adobe Illustrator 21.0.0, SVG Export Plug-In . SVG Version: 6.00 Build 0)  -->
<svg version="1.1" id="Ebene_1" xmlns="http://www.w3.org/2000/svg" xmlns:xlink="http://www.w3.org/1999/xlink" x="0px" y="0px"
	 viewBox="0 0 17.6 17.6" style="enable-background:new 0 0 17.6 17.6;" xml:space="preserve">
<style type="text/css">
	.st0{fill:current;}
</style>
<g id="Grau6">
</g>
<g id="Ebene_1_1_">
	<g id="Grau5">
		<path class="st0" d="M8.8,16.6C4.5,16.6,1,13.1,1,8.8S4.5,1,8.8,1s7.8,3.5,7.8,7.8l0,0C16.6,13.1,13.1,16.6,8.8,16.6z M8.8,2.5
			c-3.5,0-6.3,2.8-6.3,6.3s2.8,6.3,6.3,6.3s6.3-2.8,6.3-6.3l0,0C15.1,5.3,12.3,2.5,8.8,2.5L8.8,2.5z"/>
		<path class="st0" d="M8.8,9.6c0.4,0,0.8-0.3,0.8-0.8S9.3,8,8.8,8S8,8.3,8,8.8S8.4,9.6,8.8,9.6"/>
	</g>
</g>
</svg>
