<svg viewBox=svg viewBox="0 0 140 140"><title>Artboard 4</title><g id="_4_fill" data-name="4 fill"><path class="cls-1" d="M105.44,68.62a17.63,17.63,0,0,0-5.34-2.7h0c19.56-20.34-25.83-39.48-29.24-46.84-3.41,7.35-48.8,26.49-29.23,46.84h0a17.63,17.63,0,0,0-5.34,2.7c-14,11.08-6,25.05,3.88,29.27h0c7,3.4,12,9.62,10.27,17.28h0a21.65,21.65,0,0,0-1.33,7.48H92.6a21.65,21.65,0,0,0-1.33-7.47h0c-1.71-7.66,3.23-13.88,10.27-17.28h0C111.41,93.67,119.46,79.7,105.44,68.62Z"/></g><g id="_4_stroke" data-name="4 stroke"><path class="cls-2" d="M64.56,116.06a9.86,9.86,0,0,1-3.39-6.73,9.27,9.27,0,0,1,4.88,5.58"/><path class="cls-2" d="M62.51,119c-2-1.55-4.56-2.77-6.8-2.59A12.49,12.49,0,0,0,61.9,121"/><path class="cls-2" d="M50.45,115.17c1.71-7.66-3.23-13.88-10.27-17.28"/><path class="cls-2" d="M62.83,58.77A11.78,11.78,0,0,0,56,51.08c.84,3.3-4.48,7.79-2.82,15.36"/><path class="cls-2" d="M100.1,65.92c19.56-20.34-25.83-39.48-29.24-46.84-3.41,7.35-48.8,26.49-29.24,46.84"/><path class="cls-2" d="M92.6,122.65a21.74,21.74,0,0,0-43.48,0Z"/><path class="cls-2" d="M74.06,114.11c1.36-4.58.6-10.42-3.2-13.2-3.79,2.78-4.56,8.62-3.2,13.2"/><path class="cls-2" d="M74.22,113.53c1.37-4.38,5.51-8.11,9.42-8.47,1,4.24-1.1,8.8-5.26,12.44,3.91-3.38,8.7-4.51,12.37-3.64-1,4.72-5.53,7.32-10.77,8.8a9.12,9.12,0,0,0-18.23,0c-5.24-1.47-9.81-4.07-10.77-8.8,3.66-.87,8.45.26,12.37,3.64-4.15-3.64-6.26-8.2-5.26-12.44,3.91.36,8,4.09,9.42,8.47"/><path class="cls-2" d="M77.17,116.06a9.86,9.86,0,0,0,3.39-6.73,9.27,9.27,0,0,0-4.88,5.58"/><path class="cls-2" d="M79.22,119c2-1.55,4.56-2.77,6.8-2.59A12.49,12.49,0,0,1,79.83,121"/><path class="cls-2" d="M72.13,113.62a10,10,0,0,0-1.27-8.28,10,10,0,0,0-1.27,8.28"/><path class="cls-2" d="M82.64,104.37C77.55,86,84,73.31,95.76,73.31,110.13,74,106.2,92,96.19,94c-5.5.91-7.21-6.32-5.22-10.06,1.2-2.18,5.08-.86,3.57,3.07,6.4-4.53-3.31-12.37-7.51-3.27C86,86,84.48,94.49,91.34,98.15c11.64,5.75,33.07-14.54,14.1-29.53C92.12,58.8,70.86,70.2,70.86,100.91c0-30.71-21.25-42.11-34.57-32.29-19,15,2.46,35.28,14.1,29.53C57.25,94.49,55.72,86,54.7,83.74c-4.2-9.1-13.9-1.26-7.51,3.27-1.51-3.93,2.37-5.25,3.57-3.07,2,3.74.28,11-5.22,10.06-10-2-13.94-20,.43-20.7,11.78,0,18.2,12.65,13.12,31.06"/><path class="cls-2" d="M91.28,115.17c-1.71-7.66,3.23-13.88,10.27-17.28"/><path class="cls-2" d="M79.13,73.53c2.34-14.38-3-25-8.26-32.08-5.27,7.11-10.61,17.69-8.26,32.08"/><path class="cls-2" d="M78.9,58.77a11.78,11.78,0,0,1,6.87-7.68c-.84,3.3,4.48,7.79,2.82,15.36"/><path class="cls-2" d="M75.35,79.45c1.46-12.45-.07-22.18-4.48-27.14-4.41,5-5.94,14.69-4.48,27.14"/><path class="cls-2" d="M93.11,65.31C101.23,48,77.58,38.51,70.86,29.74,64.15,38.51,40.5,48,48.62,65.31"/></g></svg>