<svg viewBox="0 0 147 147"><title>Artboard 30</title><g id="_30_fill" data-name="30 fill"><path class="cls-1" d="M70.86,23.37C94.45,23.37,116.64,38,116.64,66v52.35H25.09V66c0-28,22.19-42.65,45.77-42.65"/></g><g id="_30_stroke" data-name="30 stroke"><path class="cls-2" d="M60,36.19c.9,4.94.49,11.49,4.83,10.52,3.63-.84,1.34-7.53,1.15-11.55"/><path class="cls-2" d="M38.14,81.59c4.63-.11,10.18.77,10.51-3-.14-3.77-6.38-3.23-10.51-3.29"/><path class="cls-2" d="M38.16,98c4.63-.11,10.85.75,11.18-3-.14-3.77-7.06-3.23-11.19-3.29"/><path class="cls-2" d="M38.16,113.76c4.63-.11,10.42,1.08,10.75-2.71-.14-3.77-6.63-3.56-10.76-3.62"/><path class="cls-2" d="M38.18,64.61c4,1.09,8.91,2.69,10.08-.64.9-3.67-5.47-4.83-9.31-5.94"/><path class="cls-2" d="M44.06,46.52c2.75,3.07,6.88,8.61,9.67,6.45,2.75-2.6-2.58-8.14-5.2-11.15"/><path class="cls-2" d="M38.15,70.86c5.25-1,15.47-.28,16.36,7.31.34,6.44-6.84,9.92-16.36,9.33"/><path class="cls-2" d="M40.67,52.52c6.06,2.78,14.67,6.24,13.25,12.86-.62,3.33-3.05,5.12-6.37,5.8"/><path class="cls-2" d="M58.18,48.34c2.41,7-2.28,12.12-7.86,9.34"/><path class="cls-2" d="M43.09,87.43c4.83.76,10.6-.15,11.59,7.4.5,7.38-9.19,8.58-16.53,8.06"/><path class="cls-2" d="M43.06,102.95c7.35-.67,11,1.95,11.45,7.45.31,4.41-2.5,6.32-5.64,8"/><path class="cls-2" d="M103.56,118.37s.07-51.14,0-53c0-12.82-7.29-30.42-32.69-30.42S38.17,52.52,38.17,65.34c-.07,1.88,0,53,0,53"/><path class="cls-2" d="M70.86,23.37C94.45,23.37,116.64,38,116.64,66v52.35H25.09V66c0-28,22.19-42.65,45.77-42.65"/><path class="cls-2" d="M86.12,37.64c-1,11.95-5.29,15.93-9.64,14.45C70.2,49.8,71,43.78,70.86,34.93c-.09,8.86.66,14.88-5.62,17.16-4.34,1.48-8.67-2.5-9.64-14.45"/><path class="cls-2" d="M81.72,36.19c-.9,4.94-.49,11.49-4.83,10.52-3.62-.84-1.34-7.53-1.15-11.55"/><path class="cls-2" d="M103.59,81.59c-4.63-.11-10.18.77-10.51-3,.14-3.77,6.38-3.23,10.51-3.29"/><path class="cls-2" d="M103.57,98c-4.63-.11-10.85.75-11.18-3,.14-3.77,7.06-3.23,11.19-3.29"/><path class="cls-2" d="M103.57,113.76c-4.63-.11-10.42,1.08-10.75-2.71.14-3.77,6.63-3.56,10.76-3.62"/><path class="cls-2" d="M103.55,64.61c-4,1.09-8.91,2.69-10.08-.64-.9-3.67,5.47-4.83,9.31-5.94"/><path class="cls-2" d="M97.67,46.52C94.92,49.59,90.79,55.13,88,53c-2.75-2.6,2.58-8.14,5.2-11.15"/><path class="cls-2" d="M103.58,70.86c-5.25-1-15.47-.28-16.36,7.31-.34,6.44,6.84,9.92,16.36,9.33"/><path class="cls-2" d="M101.06,52.52C95,55.3,86.39,58.76,87.81,65.39c.62,3.33,3.05,5.12,6.37,5.8"/><path class="cls-2" d="M83.55,48.34c-2.41,7,2.28,12.12,7.86,9.34"/><path class="cls-2" d="M98.64,87.43c-4.83.76-10.6-.15-11.59,7.4-.5,7.38,9.19,8.58,16.53,8.06"/><path class="cls-2" d="M98.67,102.95c-7.35-.67-11,1.95-11.45,7.45-.31,4.41,2.5,6.32,5.64,8"/></g></svg>