<?xml version="1.0" encoding="utf-8"?>
<!-- Generator: Adobe Illustrator 21.0.0, SVG Export Plug-In . SVG Version: 6.00 Build 0)  -->
<svg version="1.1" id="Ebene_1" xmlns="http://www.w3.org/2000/svg" xmlns:xlink="http://www.w3.org/1999/xlink" x="0px" y="0px"
	 viewBox="0 0 17.6 17.6" style="enable-background:new 0 0 17.6 17.6;" xml:space="preserve">
<style type="text/css">
	.st0{fill:current;}
</style>
<g id="Grau6">
	<g>
		<path class="st0" d="M8.8,9.6c0.4,0,0.8-0.3,0.8-0.8C9.6,8.4,9.3,8,8.8,8C8.4,8,8,8.3,8,8.8C8,9.2,8.4,9.6,8.8,9.6"/>
		<path class="st0" d="M8.8,17.6C4,17.6,0,13.7,0,8.8S3.9,0,8.8,0s8.8,3.9,8.8,8.8C17.5,13.6,13.6,17.5,8.8,17.6z M8.8,1.6
			c-4,0-7.2,3.2-7.2,7.2S4.8,16,8.8,16S16,12.8,16,8.8S12.8,1.6,8.8,1.6z"/>
	</g>
</g>
<g id="Ebene_1_1_">
</g>
</svg>
