<svg viewBox=svg viewBox="0 0 140 140"><title>Artboard 3</title><g id="_3_fill" data-name="3 fill"><path class="cls-1" d="M70.86,120.87c39.29-30,41.44-63.14,0-100C29.42,57.72,31.58,90.87,70.86,120.87Z"/></g><g id="_3_stroke" data-name="3 stroke"><path class="cls-2" d="M70.86,120.87c39.29-30,41.44-63.14,0-100C29.42,57.72,31.58,90.87,70.86,120.87Z"/><path class="cls-2" d="M70.86,20.87c26.52,37.63,28.59,69.72,0,100C42.27,90.59,44.34,58.49,70.86,20.87Z"/><path class="cls-2" d="M70.86,20.87c15.6,35.62,16.13,69,0,100C54.74,89.9,55.26,56.49,70.86,20.87Z"/><path class="cls-2" d="M70.86,20.87a333,333,0,0,1,0,100A333,333,0,0,1,70.86,20.87Z"/></g></svg>