<svg viewBox="0 0 150 150">
        <path class="cls-1" d="M125.75,138.25c10.37-67.5-31.5-97.5-55-118.75C50,37.25,9.75,66.75,20.12,138.25Z" />
        <path class="cls-2" d="M80,86.25c26.25-9.12-2.12-45.75-7-57.5C48.88,41.5,22.75,77.38,49,86.25" />
        <path class="cls-2" d="M91.5,110c12.5-9.87,20.25,4.25,31.5,13.12A45.63,45.63,0,0,1,110.5,138.25" />
        <path class="cls-2" d="M104.38,107.75c11.12-2.87,7-13.87,10.5-26.25C100.25,88.5,97.5,100,86.5,95.12" />
        <path class="cls-2" d="M95.25,66.75c.45-1.75-.87-6.87-.87-6.87s-4.25,1.12-5.25,1.87" />
        <path class="cls-2" d="M110.62,101.38c1.87,1.12,4,4.37,4,4.37s-3,4.12-4.87,4.37" />
        <path class="cls-2" d="M76,78.75c11.37-7.12,0-19-2.75-27.5C72.25,59.5,61.38,71.12,73.75,78.75" />
        <path class="cls-2" d="M83.5,89.12c4.62-9.37,11.87-5.12,22-5.87,0,0-4.5,14.62-18.25,12.75" />
        <path class="cls-2" d="M93.12,115.25c9.62-4.62,12.75,2.5,18.25,6.25,0,0-11.62,8.37-18.37,2.87" />
        <path class="cls-2" d="M55.25,110C43,100.37,35.5,114.12,25,122.75A45.63,45.63,0,0,0,11.75,138.25" />
        <path class="cls-2" d="M42.12,107.75C31.5,105,35.25,94.37,31.75,82.5C40,87.62,42.5,99,53.5,94.12" />
        <path class="cls-2" d="M51.12,66.75c-.45-1.75.87-6.87.87-6.87s4.25,1.12,5.25,1.87" />
        <path class="cls-2" d="M35.75,101.38c-1.87,1.12-4,4.37-4,4.37s3,4.12,4.87,4.37" />
        <path class="cls-2" d="M62.25,89.12c-4.62-9.37-11.87-5.12-22-5.87,0,0,4.5,14.62,18.25,12.75" />
        <path class="cls-2" d="M51.87,115.25c-9.62-4.62-12.75,2.5-18.25,6.25,0,0,11.62,8.37,18.37,2.87" />
        <path class="cls-2" d="M90.12,138.25c11-26-17.5-56.25-17.5-56.25s-28.5,30-17.5,56.25" />
        <path class="cls-2" d="M79.5,138.25c7.62-15.25-3.75-24.25-6.75-32.5-3,8-14.25,17-6.75,32.5" />
</svg>