<?xml version="1.0" encoding="UTF-8" standalone="no"?>
<!-- Created with Inkscape (http://www.inkscape.org/) -->

<svg
   width="150mm"
   height="150mm"
   viewBox="0 0 150 150"
   version="1.1"
   id="svg5"
   inkscape:version="1.2 (dc2aedaf03, 2022-05-15)"
   sodipodi:docname="103.svg"
   xmlns:inkscape="http://www.inkscape.org/namespaces/inkscape"
   xmlns:sodipodi="http://sodipodi.sourceforge.net/DTD/sodipodi-0.dtd"
   xmlns="http://www.w3.org/2000/svg"
   xmlns:svg="http://www.w3.org/2000/svg">
  <sodipodi:namedview
     id="namedview7"
     pagecolor="#ffffff"
     bordercolor="#000000"
     borderopacity="0.25"
     inkscape:showpageshadow="2"
     inkscape:pageopacity="0.0"
     inkscape:pagecheckerboard="0"
     inkscape:deskcolor="#d1d1d1"
     inkscape:document-units="mm"
     showgrid="true"
     inkscape:zoom="1.5910634"
     inkscape:cx="335.62458"
     inkscape:cy="343.16671"
     inkscape:window-width="1920"
     inkscape:window-height="1051"
     inkscape:window-x="-9"
     inkscape:window-y="1341"
     inkscape:window-maximized="1"
     inkscape:current-layer="layer1">
    <inkscape:grid
       type="xygrid"
       id="grid9"
       originx="74.999999"
       originy="74.999999"
       units="mm"
       spacingx="5"
       spacingy="5"
       empspacing="15" />
    <inkscape:grid
       type="xygrid"
       id="grid11"
       dotted="false"
       color="#db00e5"
       opacity="0.14901961"
       empcolor="#cb00e5"
       empopacity="0.30196078"
       spacingx="15"
       spacingy="15"
       empspacing="15"
       visible="true"
       units="mm" />
  </sodipodi:namedview>
  <defs
     id="defs2">











































	


	


	


	




















	

	




	




	

















































































	


	






























		
		
	
	
	
	
	
	
	
	
	
		
		
	</defs>
  <g
     inkscape:label="Warstwa 1"
     inkscape:groupmode="layer"
     id="layer1">
    <path
       fill="none"
       stroke="current"
       stroke-width="0.89735"
       stroke-miterlimit="10"
       d="M 74.775701,27.989794 C 102.9718,27.908754 126.6836,59.370808 135,85.430049 c 3.45797,10.835455 -17.27103,14.551531 -26.57944,20.933781 -2.13084,1.4041 -4.37383,2.68055 -6.50467,3.957 C 93.280374,100.10922 87.902543,81.512233 75,81.600699 62.00874,81.689769 56.831777,100.36451 48.196263,110.57612 c -2.242991,-1.27645 -4.373832,-2.5529 -6.616823,-3.957 C 32.383179,100.49216 11.658451,96.852162 15.000002,86.068274 23.112003,59.88914 46.678116,28.070551 74.775701,27.989794 Z"
       id="path43095"
       style="fill:none;stroke:#000000;stroke-opacity:1"
       sodipodi:nodetypes="ssccsccss" />
    <path
       fill="none"
       stroke="current"
       stroke-width="0.89735"
       stroke-miterlimit="10"
       d="m 75,91.939944 c 9.960284,0 13.906542,14.423886 20.523364,22.210236 -6.728971,3.82935 -13.570093,7.27576 -20.411214,10.46689 -6.953271,-3.06348 -13.794392,-6.5099 -20.523364,-10.2116 C 61.205608,106.49148 65.118955,91.939944 75,91.939944 Z"
       id="path43097"
       style="fill:none;stroke:#000000;stroke-opacity:1"
       sodipodi:nodetypes="scccs" />
    <path
       style="fill:none;fill-opacity:1;fill-rule:evenodd;stroke:#000000;stroke-width:0.264999;stroke-dasharray:none;stroke-opacity:1"
       id="path45335"
       sodipodi:type="arc"
       sodipodi:cx="75"
       sodipodi:cy="54.999996"
       sodipodi:rx="15"
       sodipodi:ry="20"
       sodipodi:start="0.26410896"
       sodipodi:end="0.26408266"
       sodipodi:open="true"
       sodipodi:arc-type="arc"
       d="M 89.479882,60.220981 A 15,20 0 0 1 71.084357,74.30654 15,20 0 0 1 60.520066,49.779266 15,20 0 0 1 78.915453,35.693383 15,20 0 0 1 89.479985,60.220473" />
    <path
       style="fill:none;fill-opacity:1;fill-rule:evenodd;stroke:#000000;stroke-width:0.264999;stroke-dasharray:none;stroke-opacity:1"
       id="path45337"
       sodipodi:type="arc"
       sodipodi:cx="42.499996"
       sodipodi:cy="75"
       sodipodi:rx="7.5"
       sodipodi:ry="15"
       sodipodi:start="0.26410896"
       sodipodi:end="0.26408266"
       sodipodi:open="true"
       sodipodi:arc-type="arc"
       d="M 49.739937,78.915738 A 7.5,15 0 0 1 40.542175,89.479908 7.5,15 0 0 1 35.260029,71.084452 7.5,15 0 0 1 44.457723,60.52004 7.5,15 0 0 1 49.739989,78.915358" />
    <path
       style="fill:none;fill-opacity:1;fill-rule:evenodd;stroke:#000000;stroke-width:0.264999;stroke-dasharray:none;stroke-opacity:1"
       id="path45339"
       sodipodi:type="arc"
       sodipodi:cx="107.49999"
       sodipodi:cy="75"
       sodipodi:rx="7.5"
       sodipodi:ry="15"
       sodipodi:start="0.26410896"
       sodipodi:end="0.26408266"
       sodipodi:open="true"
       sodipodi:arc-type="arc"
       d="m 114.73993,78.915738 a 7.5,15 0 0 1 -9.19776,10.56417 7.5,15 0 0 1 -5.28214,-18.395456 7.5,15 0 0 1 9.19769,-10.564412 7.5,15 0 0 1 5.28227,18.395318" />
    <path
       style="fill:none;fill-opacity:1;fill-rule:evenodd;stroke:#000000;stroke-width:0.264999;stroke-dasharray:none;stroke-opacity:1"
       id="path45341"
       sodipodi:type="arc"
       sodipodi:cx="75"
       sodipodi:cy="54.999996"
       sodipodi:rx="5"
       sodipodi:ry="15"
       sodipodi:start="0.26410896"
       sodipodi:end="0.26408266"
       sodipodi:open="true"
       sodipodi:arc-type="arc"
       d="M 79.826627,58.915735 A 5,15 0 0 1 73.694786,69.479904 5,15 0 0 1 70.173355,51.084448 5,15 0 0 1 76.305151,40.520037 5,15 0 0 1 79.826662,58.915354" />
  </g>
</svg>
