<svg xmlns="http://www.w3.org/2000/svg" viewBox="0 0 141.73 141.73"><defs><style>.cls-1{fill:current;}.cls-2{fill:none;fill:current;stroke-linecap:round;stroke-linejoin:round;stroke-width:0.75px;}</style></defs><title>Artboard 7</title><g id="_7_fill" data-name="7 fill"><path class="cls-1" d="M70.86,99.62c12.53,0,32.26,15.8,38.79,26.38,20.2-37.26-9.5-67.25-38.79-110.26-29.29,43-59,73-38.79,110.26C38.61,115.42,58.33,99.62,70.86,99.62Z"/></g><g id="_7_stroke" data-name="7 stroke"><line class="cls-2" x1="39.76" y1="92.2" x2="60.73" y2="101.94"/><line class="cls-2" x1="39.27" y1="106.2" x2="47.57" y2="110.06"/><path class="cls-2" d="M70.86,99.62c12.53,0,32.26,15.8,38.79,26.38,20.2-37.26-9.5-67.25-38.79-110.26-29.29,43-59,73-38.79,110.26C38.61,115.42,58.33,99.62,70.86,99.62Z"/><path class="cls-2" d="M99.83,114.77c11.48-25-11.62-51.12-29-79.2-17.34,28.08-40.45,54.16-29,79.2"/><polyline class="cls-2" points="79.21 48.51 70.86 52.39 62.52 48.51"/><polyline class="cls-2" points="86.14 59.09 70.86 66.19 55.59 59.09"/><polyline class="cls-2" points="92.44 69.37 70.86 79.4 49.29 69.37"/><polyline class="cls-2" points="97.9 80.04 70.86 92.61 43.83 80.04"/><line class="cls-2" x1="101.97" y1="92.2" x2="81" y2="101.94"/><line class="cls-2" x1="102.46" y1="106.2" x2="94.16" y2="110.06"/><line class="cls-2" x1="70.87" y1="99.62" x2="70.87" y2="35.58"/></g></svg>