<?xml version="1.0" encoding="UTF-8" standalone="no"?>
<!-- Created with Inkscape (http://www.inkscape.org/) -->

<svg
   width="150mm"
   height="150mm"
   viewBox="0 0 150 150"
   version="1.1"
   id="svg5"
   inkscape:version="1.2 (dc2aedaf03, 2022-05-15)"
   sodipodi:docname="104.svg"
   xmlns:inkscape="http://www.inkscape.org/namespaces/inkscape"
   xmlns:sodipodi="http://sodipodi.sourceforge.net/DTD/sodipodi-0.dtd"
   xmlns="http://www.w3.org/2000/svg"
   xmlns:svg="http://www.w3.org/2000/svg">
  <sodipodi:namedview
     id="namedview7"
     pagecolor="#ffffff"
     bordercolor="#000000"
     borderopacity="0.25"
     inkscape:showpageshadow="2"
     inkscape:pageopacity="0.0"
     inkscape:pagecheckerboard="0"
     inkscape:deskcolor="#d1d1d1"
     inkscape:document-units="mm"
     showgrid="true"
     inkscape:zoom="0.79553172"
     inkscape:cx="647.36576"
     inkscape:cy="258.31779"
     inkscape:window-width="1920"
     inkscape:window-height="1051"
     inkscape:window-x="-9"
     inkscape:window-y="1341"
     inkscape:window-maximized="1"
     inkscape:current-layer="layer1">
    <inkscape:grid
       type="xygrid"
       id="grid9"
       originx="74.999999"
       originy="74.999999"
       units="mm"
       spacingx="5"
       spacingy="5"
       empspacing="15" />
    <inkscape:grid
       type="xygrid"
       id="grid11"
       dotted="false"
       color="#db00e5"
       opacity="0.14901961"
       empcolor="#cb00e5"
       empopacity="0.30196078"
       spacingx="15"
       spacingy="15"
       empspacing="15"
       visible="true"
       units="mm" />
  </sodipodi:namedview>
  <defs
     id="defs2" />
  <g
     inkscape:label="Warstwa 1"
     inkscape:groupmode="layer"
     id="layer1">
    <g
       id="_x31_.1_Fill"
       transform="matrix(1.1214953,0,0,1.2764501,-4.6261659,-14.388349)">
</g>
    <g
       id="_x31_.1_Stroke"
       transform="matrix(1.1214953,0,0,1.2764501,-4.6261659,-14.388349)">
</g>
    <g
       id="_x31_.2_Fll"
       transform="matrix(1.1214953,0,0,1.2764501,-4.6261659,-14.388349)">
</g>
    <g
       id="_x31_.2_Stroke"
       transform="matrix(1.1214953,0,0,1.2764501,-4.6261659,-14.388349)">
</g>
    <g
       id="_x31_.3_Fill"
       transform="matrix(1.1214953,0,0,1.2764501,-4.6261659,-14.388349)">
</g>
    <g
       id="_x31_.3_Stroke"
       transform="matrix(1.1214953,0,0,1.2764501,-4.6261659,-14.388349)">
</g>
    <g
       id="_x32_.1_fill"
       transform="matrix(1.1214953,0,0,1.2764501,-4.6261659,-14.388349)">
</g>
    <g
       id="_x32_.1_kontur"
       transform="matrix(1.1214953,0,0,1.2764501,-4.6261659,-14.388349)">
</g>
    <g
       id="_x32_.2_fill"
       transform="matrix(1.1214953,0,0,1.2764501,-4.6261659,-14.388349)">
</g>
    <g
       id="_x32_.2_kontur"
       transform="matrix(1.1214953,0,0,1.2764501,-4.6261659,-14.388349)">
</g>
    <g
       id="_x32_.3_fill"
       transform="matrix(1.1214953,0,0,1.2764501,-4.6261659,-14.388349)">
</g>
    <g
       id="_x32_.3_kontur"
       transform="matrix(1.1214953,0,0,1.2764501,-4.6261659,-14.388349)">
</g>
    <g
       id="_x32_.4_fill"
       transform="matrix(1.1214953,0,0,1.2764501,-4.6261659,-14.388349)">
</g>
    <g
       id="_x32_.4_kontur"
       transform="matrix(1.1214953,0,0,1.2764501,-4.6261659,-14.388349)">
</g>
    <g
       id="_x32_.5_fill"
       transform="matrix(1.1214953,0,0,1.2764501,-4.6261659,-14.388349)">
</g>
    <g
       id="_x32_.5_kontur"
       transform="matrix(1.1214953,0,0,1.2764501,-4.6261659,-14.388349)">
</g>
    <g
       id="_x33_.1_fill"
       transform="matrix(1.1214953,0,0,1.2764501,-4.6261659,-14.388349)">
</g>
    <g
       id="_x33_.1_kontur"
       transform="matrix(1.1214953,0,0,1.2764501,-4.6261659,-14.388349)">
</g>
    <g
       id="_x33_.2_fil"
       transform="matrix(1.1214953,0,0,1.2764501,-4.6261659,-14.388349)">
</g>
    <g
       id="_x33_.2_kontur"
       transform="matrix(1.1214953,0,0,1.2764501,-4.6261659,-14.388349)">
</g>
    <g
       id="_x33_.3_fill"
       transform="matrix(1.1214953,0,0,1.2764501,-4.6261659,-14.388349)">
</g>
    <g
       id="_x33_.3_kontur"
       transform="matrix(1.1214953,0,0,1.2764501,-4.6261659,-14.388349)">
</g>
    <g
       id="_x33_.4_fill"
       transform="matrix(1.1214953,0,0,1.2764501,-4.6261659,-14.388349)">
</g>
    <g
       id="_x33_.4_kontur"
       transform="matrix(1.1214953,0,0,1.2764501,-4.6261659,-14.388349)">
</g>
    <g
       id="_x33_.5_fill"
       transform="matrix(1.1214953,0,0,1.2764501,-4.6261659,-14.388349)">
</g>
    <g
       id="_x33_.5_kontur"
       transform="matrix(1.1214953,0,0,1.2764501,-4.6261659,-14.388349)">
</g>
    <g
       id="_x34_.1_Fill"
       transform="matrix(1.1214953,0,0,1.2764501,-4.6261659,-14.388349)">
</g>
    <g
       id="_x34_.1_Stroke"
       transform="matrix(1.1214953,0,0,1.2764501,-4.6261659,-14.388349)">
</g>
    <g
       id="_x34_.2_Fll"
       transform="matrix(1.1214953,0,0,1.2764501,-4.6261659,-14.388349)">
</g>
    <g
       id="_x34_.2_Stroke"
       transform="matrix(1.1214953,0,0,1.2764501,-4.6261659,-14.388349)">
</g>
    <g
       id="_x34_.3_Fill"
       transform="matrix(1.1214953,0,0,1.2764501,-4.6261659,-14.388349)">
</g>
    <g
       id="_x34_.3_Stroke"
       transform="matrix(1.1214953,0,0,1.2764501,-4.6261659,-14.388349)">
</g>
    <g
       id="_x35_.1_fill"
       transform="matrix(1.1214953,0,0,1.2764501,-4.6261659,-14.388349)">
</g>
    <g
       id="_x35_.1_kontur"
       transform="matrix(1.1214953,0,0,1.2764501,-4.6261659,-14.388349)">
</g>
    <g
       id="_x35_.2_fill"
       transform="matrix(1.1214953,0,0,1.2764501,-4.6261659,-14.388349)">
</g>
    <g
       id="_x35_.2_kontur"
       transform="matrix(1.1214953,0,0,1.2764501,-4.6261659,-14.388349)">
</g>
    <g
       id="_x35_.3_fill"
       transform="matrix(1.1214953,0,0,1.2764501,-4.6261659,-14.388349)">
</g>
    <g
       id="_x35_.3_kontur"
       transform="matrix(1.1214953,0,0,1.2764501,-4.6261659,-14.388349)">
</g>
    <g
       id="_x35_.4_fill"
       transform="matrix(1.1214953,0,0,1.2764501,-4.6261659,-14.388349)">
</g>
    <g
       id="_x35_.4_kontur"
       transform="matrix(1.1214953,0,0,1.2764501,-4.6261659,-14.388349)">
</g>
    <g
       id="_x35_.5_fill"
       transform="matrix(1.1214953,0,0,1.2764501,-4.6261659,-14.388349)">
</g>
    <g
       id="_x35_.5_kontur"
       transform="matrix(1.1214953,0,0,1.2764501,-4.6261659,-14.388349)">
</g>
    <g
       id="_x35_.6_fill"
       transform="matrix(1.1214953,0,0,1.2764501,-4.6261659,-14.388349)">
</g>
    <g
       id="_x35_.6_kontur"
       transform="matrix(1.1214953,0,0,1.2764501,-4.6261659,-14.388349)">
</g>
    <g
       id="_x35_.7_fill"
       transform="matrix(1.1214953,0,0,1.2764501,-4.6261659,-14.388349)">
</g>
    <g
       id="_x35_.7_kontur"
       transform="matrix(1.1214953,0,0,1.2764501,-4.6261659,-14.388349)">
</g>
    <g
       id="_x35_.8_fill"
       transform="matrix(1.1214953,0,0,1.2764501,-4.6261659,-14.388349)">
</g>
    <g
       id="_x35_.8_kontur"
       transform="matrix(1.1214953,0,0,1.2764501,-4.6261659,-14.388349)">
</g>
    <g
       id="_x36_.1_fill"
       transform="matrix(1.1214953,0,0,1.2764501,-4.6261659,-14.388349)">
</g>
    <g
       id="_x36_.1_kontur"
       transform="matrix(1.1214953,0,0,1.2764501,-4.6261659,-14.388349)">
</g>
    <g
       id="_x36_.2_fill"
       transform="matrix(1.1214953,0,0,1.2764501,-4.6261659,-14.388349)">
</g>
    <g
       id="_x36_.2_kontur"
       transform="matrix(1.1214953,0,0,1.2764501,-4.6261659,-14.388349)">
</g>
    <g
       id="_x36_.3_Fill"
       transform="matrix(1.1214953,0,0,1.2764501,-4.6261659,-14.388349)">
</g>
    <g
       id="_x36_.3_kontur"
       transform="matrix(1.1214953,0,0,1.2764501,-4.6261659,-14.388349)">
</g>
    <g
       id="_x36_.4_fill"
       transform="matrix(1.1214953,0,0,1.2764501,-4.6261659,-14.388349)">
</g>
    <g
       id="_x36_.4_kontur"
       transform="matrix(1.1214953,0,0,1.2764501,-4.6261659,-14.388349)">
</g>
    <g
       id="_x36_.5_fill"
       transform="matrix(1.1214953,0,0,1.2764501,-4.6261659,-14.388349)">
</g>
    <g
       id="_x36_.5_kontur"
       transform="matrix(1.1214953,0,0,1.2764501,-4.6261659,-14.388349)">
</g>
    <g
       id="_x37_.1_fill"
       transform="matrix(1.1214953,0,0,1.2764501,-4.6261659,-14.388349)">
</g>
    <g
       id="_x37_.1_kontur"
       transform="matrix(1.1214953,0,0,1.2764501,-4.6261659,-14.388349)">
</g>
    <g
       id="_x37_.2_fill"
       transform="matrix(1.1214953,0,0,1.2764501,-4.6261659,-14.388349)">
</g>
    <g
       id="_x37_.2_kontur"
       transform="matrix(1.1214953,0,0,1.2764501,-4.6261659,-14.388349)">
</g>
    <g
       id="_x38_.1_fill"
       transform="matrix(1.1214953,0,0,1.2764501,-4.6261659,-14.388349)">
</g>
    <g
       id="_x38_.1_kontur"
       transform="matrix(1.1214953,0,0,1.2764501,-4.6261659,-14.388349)">
</g>
    <g
       id="_x38_.2_fill"
       transform="matrix(1.1214953,0,0,1.2764501,-4.6261659,-14.388349)">
</g>
    <g
       id="_x38_.2_kontur"
       transform="matrix(1.1214953,0,0,1.2764501,-4.6261659,-14.388349)">
</g>
    <g
       id="_x38_.3_fill"
       transform="matrix(1.1214953,0,0,1.2764501,-4.6261659,-14.388349)">
</g>
    <g
       id="_x38_.3_kontur"
       transform="matrix(1.1214953,0,0,1.2764501,-4.6261659,-14.388349)">
</g>
    <g
       id="_x38_.4_fill"
       transform="matrix(1.1214953,0,0,1.2764501,-4.6261659,-14.388349)">
</g>
    <g
       id="_x38_.4_kontur"
       transform="matrix(1.1214953,0,0,1.2764501,-4.6261659,-14.388349)">
</g>
    <g
       id="_x38_.5_fill"
       transform="matrix(1.1214953,0,0,1.2764501,-4.6261659,-14.388349)">
</g>
    <g
       id="_x38_.5_kontur"
       transform="matrix(1.1214953,0,0,1.2764501,-4.6261659,-14.388349)">
</g>
    <g
       id="_x39_.1_fill"
       transform="matrix(1.1214953,0,0,1.2764501,-4.6261659,-14.388349)">
</g>
    <g
       id="_x39_.1_kontur"
       transform="matrix(1.1214953,0,0,1.2764501,-4.6261659,-14.388349)">
</g>
    <g
       id="_x39_.2_fill"
       transform="matrix(1.1214953,0,0,1.2764501,-4.6261659,-14.388349)">
</g>
    <g
       id="_x39_.2_kontur"
       transform="matrix(1.1214953,0,0,1.2764501,-4.6261659,-14.388349)">
</g>
    <g
       id="_x39_.3_fill"
       transform="matrix(1.1214953,0,0,1.2764501,-4.6261659,-14.388349)">
</g>
    <g
       id="_x39_.3_kontur"
       transform="matrix(1.1214953,0,0,1.2764501,-4.6261659,-14.388349)">
</g>
    <g
       id="_x39_.4_fill"
       transform="matrix(1.1214953,0,0,1.2764501,-4.6261659,-14.388349)">
</g>
    <g
       id="_x39_.4_kontur"
       transform="matrix(1.1214953,0,0,1.2764501,-4.6261659,-14.388349)">
</g>
    <g
       id="_x39_.5_fill"
       transform="matrix(1.1214953,0,0,1.2764501,-4.6261659,-14.388349)">
</g>
    <g
       id="_x39_.5_kontur"
       transform="matrix(1.1214953,0,0,1.2764501,-4.6261659,-14.388349)">
</g>
    <g
       id="_x31_0.1_fill"
       transform="matrix(1.1214953,0,0,1.2764501,-4.6261659,-14.388349)">
</g>
    <g
       id="_x31_0.1_kontur"
       transform="matrix(1.1214953,0,0,1.2764501,-4.6261659,-14.388349)">
</g>
    <g
       id="_x31_0.2_fill"
       transform="matrix(1.1214953,0,0,1.2764501,-4.6261659,-14.388349)">
	<g
   id="g43092">
		<path
   fill="current"
   d="m 70.8,33.5 c 19.9,13.5 38,28.6 53.7,45 -7.6,5.9 -15.4,11.4 -23.7,16.4 C 99,96 97,97 95.1,98 87.4,90 79.4,82.5 71.1,75.5 62.8,82.6 54.9,90.2 47.2,98.2 c -2,-1 -3.9,-2 -5.9,-3.1 C 33,90.3 25.1,84.8 17.5,79 33,62.4 51.1,47.1 70.8,33.5 Z"
   id="path43088" />

		<path
   fill="current"
   d="m 71,83.6 c 6.3,5.5 12.4,11.3 18.3,17.4 -6,3 -12.1,5.7 -18.2,8.2 -6.2,-2.4 -12.3,-5.1 -18.3,-8 C 58.7,95 64.8,89.1 71,83.6 Z"
   id="path43090" />

	</g>

</g>
    <g
       id="_x31_0.2_kontur"
       transform="matrix(1.1214953,0,0,1.2764501,-4.6261659,-14.388349)">
	<g
   id="g43099">
		<path
   fill="none"
   stroke="current"
   stroke-width="0.75"
   stroke-miterlimit="10"
   d="m 70.8,33.2 c 19.9,13.5 38,28.6 53.7,45 -7.6,5.9 -15.4,11.4 -23.7,16.4 -1.9,1.1 -3.9,2.1 -5.8,3.1 -7.7,-8 -15.7,-15.5 -24,-22.5 -8.3,7.1 -16.2,14.7 -23.9,22.7 -2,-1 -3.9,-2 -5.9,-3.1 C 33,90 25.1,84.5 17.5,78.7 33,62.1 51.1,46.8 70.8,33.2 Z"
   id="path43095" />

		<path
   fill="none"
   stroke="current"
   stroke-width="0.75"
   stroke-miterlimit="10"
   d="m 71,83.3 c 6.3,5.5 12.4,11.3 18.3,17.4 -6,3 -12.1,5.7 -18.2,8.2 -6.2,-2.4 -12.3,-5.1 -18.3,-8 5.9,-6.2 12,-12.1 18.2,-17.6 z"
   id="path43097" />

	</g>

</g>
    <g
       id="_x31_0.3_fill"
       transform="matrix(1.1214953,0,0,1.2764501,-4.6261659,-14.388349)">
</g>
    <g
       id="_x31_0.3_kontur"
       transform="matrix(1.1214953,0,0,1.2764501,-4.6261659,-14.388349)">
</g>
    <g
       id="_x31_0.4_fill"
       transform="matrix(1.1214953,0,0,1.2764501,-4.6261659,-14.388349)">
</g>
    <g
       id="_x31_0.4_kontur"
       transform="matrix(1.1214953,0,0,1.2764501,-4.6261659,-14.388349)">
</g>
    <g
       id="_x31_1.1_fill"
       transform="matrix(1.1214953,0,0,1.2764501,-4.6261659,-14.388349)">
</g>
    <g
       id="_x31_1.1_kontur"
       transform="matrix(1.1214953,0,0,1.2764501,-4.6261659,-14.388349)">
</g>
    <g
       id="_x31_1.2_fill"
       transform="matrix(1.1214953,0,0,1.2764501,-4.6261659,-14.388349)">
</g>
    <g
       id="_x31_1.2_kontur"
       transform="matrix(1.1214953,0,0,1.2764501,-4.6261659,-14.388349)">
</g>
    <g
       id="_x31_1.3_fill"
       transform="matrix(1.1214953,0,0,1.2764501,-4.6261659,-14.388349)">
</g>
    <g
       id="_x31_1.3_kontur"
       transform="matrix(1.1214953,0,0,1.2764501,-4.6261659,-14.388349)">
</g>
    <g
       id="_x31_1.4_fill"
       transform="matrix(1.1214953,0,0,1.2764501,-4.6261659,-14.388349)">
</g>
    <g
       id="_x31_1.4_kontur"
       transform="matrix(1.1214953,0,0,1.2764501,-4.6261659,-14.388349)">
</g>
    <g
       id="_x31_1.5_fill"
       transform="matrix(1.1214953,0,0,1.2764501,-4.6261659,-14.388349)">
</g>
    <g
       id="_x31_1.5_kontur"
       transform="matrix(1.1214953,0,0,1.2764501,-4.6261659,-14.388349)">
</g>
    <g
       id="_x31_2.1_fill"
       transform="matrix(1.1214953,0,0,1.2764501,-4.6261659,-14.388349)">
</g>
    <g
       id="_x31_2.1_kontur"
       transform="matrix(1.1214953,0,0,1.2764501,-4.6261659,-14.388349)">
</g>
    <g
       id="_x31_2.2_fill"
       transform="matrix(1.1214953,0,0,1.2764501,-4.6261659,-14.388349)">
</g>
    <g
       id="_x31_2.2_kontur"
       transform="matrix(1.1214953,0,0,1.2764501,-4.6261659,-14.388349)">
</g>
    <g
       id="_x31_2.3_fill"
       transform="matrix(1.1214953,0,0,1.2764501,-4.6261659,-14.388349)">
</g>
    <g
       id="_x31_2.3_kontur"
       transform="matrix(1.1214953,0,0,1.2764501,-4.6261659,-14.388349)">
</g>
    <g
       id="_x31_2.4_fill"
       transform="matrix(1.1214953,0,0,1.2764501,-4.6261659,-14.388349)">
</g>
    <g
       id="_x31_2.4_kontur"
       transform="matrix(1.1214953,0,0,1.2764501,-4.6261659,-14.388349)">
</g>
    <g
       id="_x31_3.1_fill"
       transform="matrix(1.1214953,0,0,1.2764501,-4.6261659,-14.388349)">
</g>
    <g
       id="_x31_3.1_kontur"
       transform="matrix(1.1214953,0,0,1.2764501,-4.6261659,-14.388349)">
</g>
    <g
       id="_x31_3.2_fill"
       transform="matrix(1.1214953,0,0,1.2764501,-4.6261659,-14.388349)">
</g>
    <g
       id="_x31_3.2_kontur"
       transform="matrix(1.1214953,0,0,1.2764501,-4.6261659,-14.388349)">
</g>
    <g
       id="_x31_3.3_fill"
       transform="matrix(1.1214953,0,0,1.2764501,-4.6261659,-14.388349)">
</g>
    <g
       id="_x31_3.3_kontur"
       transform="matrix(1.1214953,0,0,1.2764501,-4.6261659,-14.388349)">
</g>
    <g
       id="_x31_3.4_fill"
       transform="matrix(1.1214953,0,0,1.2764501,-4.6261659,-14.388349)">
</g>
    <g
       id="_x31_3.4_kontur"
       transform="matrix(1.1214953,0,0,1.2764501,-4.6261659,-14.388349)">
</g>
    <g
       id="_x31_3.5_fill"
       transform="matrix(1.1214953,0,0,1.2764501,-4.6261659,-14.388349)">
</g>
    <g
       id="_x31_3.5_kontur"
       transform="matrix(1.1214953,0,0,1.2764501,-4.6261659,-14.388349)">
</g>
    <g
       id="_x31_4.1_fill"
       transform="matrix(1.1214953,0,0,1.2764501,-4.6261659,-14.388349)">
</g>
    <g
       id="_x31_4.1_kontur"
       transform="matrix(1.1214953,0,0,1.2764501,-4.6261659,-14.388349)">
</g>
    <g
       id="_x31_4.2_fil"
       transform="matrix(1.1214953,0,0,1.2764501,-4.6261659,-14.388349)">
</g>
    <g
       id="_x31_4.2_kontur"
       transform="matrix(1.1214953,0,0,1.2764501,-4.6261659,-14.388349)">
</g>
    <g
       id="_x31_4.3_fill"
       transform="matrix(1.1214953,0,0,1.2764501,-4.6261659,-14.388349)">
</g>
    <g
       id="_x31_4.3_kontur"
       transform="matrix(1.1214953,0,0,1.2764501,-4.6261659,-14.388349)">
</g>
    <g
       id="_x31_4.4_fill"
       transform="matrix(1.1214953,0,0,1.2764501,-4.6261659,-14.388349)">
</g>
    <g
       id="_x31_4.4_kontur"
       transform="matrix(1.1214953,0,0,1.2764501,-4.6261659,-14.388349)">
</g>
    <g
       id="_x31_4.5_fill"
       transform="matrix(1.1214953,0,0,1.2764501,-4.6261659,-14.388349)">
</g>
    <g
       id="_x31_4.5_kontur"
       transform="matrix(1.1214953,0,0,1.2764501,-4.6261659,-14.388349)">
</g>
    <g
       id="_x31_4.6_fill"
       transform="matrix(1.1214953,0,0,1.2764501,-4.6261659,-14.388349)">
</g>
    <g
       id="_x31_4.6_kontur"
       transform="matrix(1.1214953,0,0,1.2764501,-4.6261659,-14.388349)">
</g>
    <g
       id="_x31_4.7_fill"
       transform="matrix(1.1214953,0,0,1.2764501,-4.6261659,-14.388349)">
</g>
    <g
       id="_x31_4.7_kontur"
       transform="matrix(1.1214953,0,0,1.2764501,-4.6261659,-14.388349)">
</g>
    <g
       id="_x31_4.8_fill"
       transform="matrix(1.1214953,0,0,1.2764501,-4.6261659,-14.388349)">
</g>
    <g
       id="_x31_4.8_kontur"
       transform="matrix(1.1214953,0,0,1.2764501,-4.6261659,-14.388349)">
</g>
    <g
       id="_x31_5.1_fill"
       transform="matrix(1.1214953,0,0,1.2764501,-4.6261659,-14.388349)">
</g>
    <g
       id="_x31_5.1_kontur"
       transform="matrix(1.1214953,0,0,1.2764501,-4.6261659,-14.388349)">
</g>
    <g
       id="_x31_5.2_kontur"
       transform="matrix(1.1214953,0,0,1.2764501,-4.6261659,-14.388349)">
</g>
    <g
       id="_x31_5.3_fill"
       transform="matrix(1.1214953,0,0,1.2764501,-4.6261659,-14.388349)">
</g>
    <g
       id="_x31_5.3_kontur"
       transform="matrix(1.1214953,0,0,1.2764501,-4.6261659,-14.388349)">
</g>
    <g
       id="_x31_6.1_Fill"
       transform="matrix(1.1214953,0,0,1.2764501,-4.6261659,-14.388349)">
</g>
    <g
       id="_x31_6.1_Stroke"
       transform="matrix(1.1214953,0,0,1.2764501,-4.6261659,-14.388349)">
</g>
    <g
       id="_x31_6.2_Fll"
       transform="matrix(1.1214953,0,0,1.2764501,-4.6261659,-14.388349)">
</g>
    <g
       id="_x31_6.2_Stroke"
       transform="matrix(1.1214953,0,0,1.2764501,-4.6261659,-14.388349)">
	<g
   id="_x31_.2_Fll_copy">
	</g>

</g>
    <g
       id="_x31_6.3_Fill"
       transform="matrix(1.1214953,0,0,1.2764501,-4.6261659,-14.388349)">
</g>
    <g
       id="_x31_6.3_Stroke"
       transform="matrix(1.1214953,0,0,1.2764501,-4.6261659,-14.388349)">
	<g
   id="_x31_.3_Fill_copy">
	</g>

</g>
    <g
       id="_x31_7.1_Fill"
       transform="matrix(1.1214953,0,0,1.2764501,-4.6261659,-14.388349)">
</g>
    <g
       id="_x31_78.1_Stroke"
       transform="matrix(1.1214953,0,0,1.2764501,-4.6261659,-14.388349)">
</g>
    <g
       id="_x31_7.2_Fll"
       transform="matrix(1.1214953,0,0,1.2764501,-4.6261659,-14.388349)">
</g>
    <g
       id="_x31_7.2_Stroke"
       transform="matrix(1.1214953,0,0,1.2764501,-4.6261659,-14.388349)">
	<g
   id="_x31_7.2_Fll_copy">
	</g>

</g>
    <g
       id="_x31_7.3_Fill"
       transform="matrix(1.1214953,0,0,1.2764501,-4.6261659,-14.388349)">
</g>
    <g
       id="_x31_7.3_Stroke"
       transform="matrix(1.1214953,0,0,1.2764501,-4.6261659,-14.388349)">
	<g
   id="_x31_7.3_Fill_copy">
	</g>

</g>
    <g
       id="_x31_9.1_fill"
       transform="matrix(1.1214953,0,0,1.2764501,-4.6261659,-14.388349)">
</g>
    <g
       id="_x31_9.1_kontur"
       transform="matrix(1.1214953,0,0,1.2764501,-4.6261659,-14.388349)">
</g>
    <g
       id="_x31_9.2_fill"
       transform="matrix(1.1214953,0,0,1.2764501,-4.6261659,-14.388349)">
</g>
    <g
       id="_x31_9.2_kontur"
       transform="matrix(1.1214953,0,0,1.2764501,-4.6261659,-14.388349)">
</g>
    <g
       id="_x31_9.3_fill"
       transform="matrix(1.1214953,0,0,1.2764501,-4.6261659,-14.388349)">
</g>
    <g
       id="_x31_9.3_kontur"
       transform="matrix(1.1214953,0,0,1.2764501,-4.6261659,-14.388349)">
</g>
    <g
       id="_x31_9.4_fill"
       transform="matrix(1.1214953,0,0,1.2764501,-4.6261659,-14.388349)">
</g>
    <g
       id="_x31_9.4_kontur"
       transform="matrix(1.1214953,0,0,1.2764501,-4.6261659,-14.388349)">
</g>
    <g
       id="_x32_0.1_fill"
       transform="matrix(1.1214953,0,0,1.2764501,-4.6261659,-14.388349)">
</g>
    <g
       id="_x32_0.1_kontur"
       transform="matrix(1.1214953,0,0,1.2764501,-4.6261659,-14.388349)">
</g>
    <g
       id="_x32_0.2_fill"
       transform="matrix(1.1214953,0,0,1.2764501,-4.6261659,-14.388349)">
</g>
    <g
       id="_x32_0.2_kontur"
       transform="matrix(1.1214953,0,0,1.2764501,-4.6261659,-14.388349)">
</g>
    <g
       id="_x32_0.3_fill"
       transform="matrix(1.1214953,0,0,1.2764501,-4.6261659,-14.388349)">
</g>
    <g
       id="_x32_0.3_kontur"
       transform="matrix(1.1214953,0,0,1.2764501,-4.6261659,-14.388349)">
</g>
    <g
       id="_x32_0.4_fill"
       transform="matrix(1.1214953,0,0,1.2764501,-4.6261659,-14.388349)">
</g>
    <g
       id="_x32_0.4_kontur"
       transform="matrix(1.1214953,0,0,1.2764501,-4.6261659,-14.388349)">
</g>
    <g
       id="_x31_8.1_Fill"
       transform="matrix(1.1214953,0,0,1.2764501,-4.6261659,-14.388349)">
</g>
    <g
       id="_x31_8.1_Stroke"
       transform="matrix(1.1214953,0,0,1.2764501,-4.6261659,-14.388349)">
</g>
    <g
       id="_x31_8.2_Fll"
       transform="matrix(1.1214953,0,0,1.2764501,-4.6261659,-14.388349)">
</g>
    <g
       id="_x31_8.2_Stroke"
       transform="matrix(1.1214953,0,0,1.2764501,-4.6261659,-14.388349)">
	<g
   id="_x31_.2_Fll_copy_1_">
	</g>

</g>
    <g
       id="_x31_8.3_Fill"
       transform="matrix(1.1214953,0,0,1.2764501,-4.6261659,-14.388349)">
</g>
    <g
       id="_x31_8.3_Stroke"
       transform="matrix(1.1214953,0,0,1.2764501,-4.6261659,-14.388349)">
	<g
   id="_x31_.3_Fill_copy_1_">
	</g>

</g>
    <g
       id="_x32_2.1_Fill"
       transform="matrix(1.1214953,0,0,1.2764501,-4.6261659,-14.388349)">
</g>
    <g
       id="_x32_2.1_Stroke"
       transform="matrix(1.1214953,0,0,1.2764501,-4.6261659,-14.388349)">
	<g
   id="_x31_8.1_Fill_copy">
	</g>

</g>
    <g
       id="_x32_2.2_Fll"
       transform="matrix(1.1214953,0,0,1.2764501,-4.6261659,-14.388349)">
</g>
    <g
       id="_x32_2.2_Stroke"
       transform="matrix(1.1214953,0,0,1.2764501,-4.6261659,-14.388349)">
</g>
    <g
       id="_x32_2.3_Fill"
       transform="matrix(1.1214953,0,0,1.2764501,-4.6261659,-14.388349)">
</g>
    <g
       id="_x32_2.3_Stroke"
       transform="matrix(1.1214953,0,0,1.2764501,-4.6261659,-14.388349)">
</g>
    <g
       id="_x32_2.4_Fill_copy"
       transform="matrix(1.1214953,0,0,1.2764501,-4.6261659,-14.388349)">
</g>
    <g
       id="_x32_2.4_Stroke_copy"
       transform="matrix(1.1214953,0,0,1.2764501,-4.6261659,-14.388349)">
</g>
    <g
       id="_x32_3.1_fill"
       transform="matrix(1.1214953,0,0,1.2764501,-4.6261659,-14.388349)">
</g>
    <g
       id="_x32_3.1_kontur"
       transform="matrix(1.1214953,0,0,1.2764501,-4.6261659,-14.388349)">
</g>
    <g
       id="_x32_3.2_fill"
       transform="matrix(1.1214953,0,0,1.2764501,-4.6261659,-14.388349)">
</g>
    <g
       id="_x32_3.2_kontur"
       transform="matrix(1.1214953,0,0,1.2764501,-4.6261659,-14.388349)">
</g>
    <g
       id="_x32_3.3_fill"
       transform="matrix(1.1214953,0,0,1.2764501,-4.6261659,-14.388349)">
</g>
    <g
       id="_x32_3.3_kontur"
       transform="matrix(1.1214953,0,0,1.2764501,-4.6261659,-14.388349)">
</g>
    <g
       id="_x32_3.4_fill"
       transform="matrix(1.1214953,0,0,1.2764501,-4.6261659,-14.388349)">
</g>
    <g
       id="_x32_3.4_kontur"
       transform="matrix(1.1214953,0,0,1.2764501,-4.6261659,-14.388349)">
</g>
    <g
       id="_x32_3.2_Fll_copy_2"
       transform="matrix(1.1214953,0,0,1.2764501,-4.6261659,-14.388349)">
</g>
    <g
       id="_x32_3.2_Stroke_copy"
       transform="matrix(1.1214953,0,0,1.2764501,-4.6261659,-14.388349)">
	<g
   id="_x31_7.2_Fll_copy_3">
	</g>

</g>
  </g>
</svg>
