<svg viewBox="0 0 140 140"><title>Artboard 35</title><g id="_36_fill" data-name="36 fill"><path class="cls-1" d="M70.86,124.52C74.34,95.78,94.55,59.19,100.34,55,84.46,43.49,77,33.38,70.86,17.21,64.73,33.38,57.27,43.49,41.39,55,47.18,59.19,67.39,95.78,70.86,124.52Z"/></g><g id="_36_stroke" data-name="36 stroke"><path class="cls-2" d="M70.86,124.52C74.34,95.78,94.55,59.19,100.34,55,84.46,43.49,77,33.38,70.86,17.21,64.73,33.38,57.27,43.49,41.39,55,47.18,59.19,67.39,95.78,70.86,124.52Z"/><path class="cls-2" d="M94.74,62.06c-10.6-8-19.28-16.85-23.87-27.31C66.27,45.22,57.59,54,47,62.06"/><path class="cls-2" d="M70.86,124.52C74.3,95.38,79,73.6,77,62.06c-1-5.73-3.08-8.83-6.13-8.82s-5.13,3.09-6.13,8.82C62.72,73.6,67.43,95.38,70.86,124.52Z"/></g></svg>