<?xml version="1.0" encoding="UTF-8" standalone="no"?>
<!-- Created with Inkscape (http://www.inkscape.org/) -->

<svg
   width="150mm"
   height="150mm"
   viewBox="0 0 150 150"
   version="1.1"
   id="svg5"
   inkscape:version="1.2 (dc2aedaf03, 2022-05-15)"
   sodipodi:docname="105.svg"
   xmlns:inkscape="http://www.inkscape.org/namespaces/inkscape"
   xmlns:sodipodi="http://sodipodi.sourceforge.net/DTD/sodipodi-0.dtd"
   xmlns="http://www.w3.org/2000/svg"
   xmlns:svg="http://www.w3.org/2000/svg">
  <sodipodi:namedview
     id="namedview7"
     pagecolor="#ffffff"
     bordercolor="#000000"
     borderopacity="0.25"
     inkscape:showpageshadow="2"
     inkscape:pageopacity="0.0"
     inkscape:pagecheckerboard="0"
     inkscape:deskcolor="#d1d1d1"
     inkscape:document-units="mm"
     showgrid="true"
     inkscape:zoom="1.5910634"
     inkscape:cx="514.75006"
     inkscape:cy="311.42693"
     inkscape:window-width="1920"
     inkscape:window-height="1051"
     inkscape:window-x="-9"
     inkscape:window-y="1341"
     inkscape:window-maximized="1"
     inkscape:current-layer="layer1">
    <inkscape:grid
       type="xygrid"
       id="grid9"
       originx="74.999999"
       originy="74.999999"
       units="mm"
       spacingx="5"
       spacingy="5"
       empspacing="15" />
    <inkscape:grid
       type="xygrid"
       id="grid11"
       dotted="false"
       color="#db00e5"
       opacity="0.14901961"
       empcolor="#cb00e5"
       empopacity="0.30196078"
       spacingx="15"
       spacingy="15"
       empspacing="15"
       visible="true"
       units="mm" />
  </sodipodi:namedview>
  <defs
     id="defs2" />
  <g
     inkscape:label="Warstwa 1"
     inkscape:groupmode="layer"
     id="layer1">
    <path
       class="cls-1"
       d="M 74.993216,135 C 79.715863,102.86134 107.1425,61.944366 115,57.258876 93.449534,44.387755 83.325698,33.082194 74.993216,15 66.674301,33.082194 56.550465,44.387755 35,57.258876 42.857509,61.944366 70.284142,102.86134 74.993216,135 Z"
       id="path35577"
       style="stroke-width:1.2319;fill:none;fill-opacity:1;stroke:#000000;stroke-opacity:1" />
    <path
       class="cls-2"
       d="M 74.993216,135 C 79.715863,102.86134 107.1425,61.944366 115,57.258876 93.449534,44.387755 83.325698,33.082194 74.993216,15 66.674301,33.082194 56.550465,44.387755 35,57.258876 42.857509,61.944366 70.284142,102.86134 74.993216,135 Z"
       id="path35580"
       style="stroke-width:1.2319;fill:none;fill-opacity:1;stroke:#000000;stroke-opacity:1" />
    <path
       class="cls-2"
       d="M 107.40034,65.153758 C 93.015266,56.207717 81.235793,46.311153 75.006788,34.614204 68.764206,46.322337 56.984733,56.140621 42.613234,65.153758"
       id="path35582"
       style="stroke-width:1.2319;fill:none;fill-opacity:1;stroke:#000000;stroke-opacity:1" />
    <path
       class="cls-2"
       d="M 100.13383,75.441646 C 85.748756,66.495605 81.235793,61.157394 75.006788,49.460445 68.764206,61.168578 64.236959,66.428509 49.86546,75.441646"
       id="path37576"
       style="fill:none;fill-opacity:1;stroke:#000000;stroke-width:1.2319;stroke-opacity:1"
       sodipodi:nodetypes="ccc" />
    <path
       class="cls-2"
       d="M 107.43538,52.489298 C 93.050306,61.435339 81.235793,73.337137 75.006788,85.034086 68.764206,73.325953 57.81196,60.911689 43.440461,51.898552"
       id="path37578"
       style="fill:none;fill-opacity:1;stroke:#000000;stroke-width:1.2319;stroke-opacity:1"
       sodipodi:nodetypes="ccc" />
    <path
       style="fill:none;fill-opacity:1;fill-rule:evenodd;stroke:#000000;stroke-width:0.264999;stroke-dasharray:none;stroke-opacity:1"
       d="M 75.006786,85.034085 74.993213,135"
       id="path37643" />
    <path
       style="fill:none;fill-opacity:1;fill-rule:evenodd;stroke:#000000;stroke-width:0.264999;stroke-dasharray:none;stroke-opacity:1"
       id="path37645"
       sodipodi:type="arc"
       sodipodi:cx="74.852669"
       sodipodi:cy="67.28421"
       sodipodi:rx="5.7996292"
       sodipodi:ry="7.5533566"
       sodipodi:start="0.26410896"
       sodipodi:end="0.26408266"
       sodipodi:open="true"
       sodipodi:arc-type="arc"
       d="m 80.451199,69.256008 a 5.7996292,7.5533566 0 0 1 -7.112482,5.319663 5.7996292,7.5533566 0 0 1 -4.084598,-9.263163 5.7996292,7.5533566 0 0 1 7.112428,-5.319784 5.7996292,7.5533566 0 0 1 4.084691,9.263092" />
  </g>
</svg>
