<svg viewBox="0 0 147 147"><title>Artboard 36</title><g id="_33_fill" data-name="33 fill"><path class="cls-1" d="M70.86,123.73c4.86-44.31,15.76-65.48,31.52-77.48C97.51,27.38,84.26,18,70.86,18S44.22,27.38,39.34,46.25C55.1,58.25,66,79.42,70.86,123.73Z"/></g><g id="_33_stroke" data-name="33 stroke"><path class="cls-2" d="M70.86,123.73c4.86-44.31,15.76-65.48,31.52-77.48C97.51,27.38,84.26,18,70.86,18S44.22,27.38,39.34,46.25C55.1,58.25,66,79.42,70.86,123.73Z"/><path class="cls-2" d="M91.92,27C77.14,45.13,70.86,64.29,70.86,123.73c0-59.43-6.27-78.6-21.05-96.76"/></g></svg>