<?xml version="1.0" encoding="UTF-8" standalone="no"?>
<!-- Created with Inkscape (http://www.inkscape.org/) -->

<svg
   width="150mm"
   height="150mm"
   viewBox="0 0 150 150"
   version="1.1"
   id="svg5"
   inkscape:version="1.2 (dc2aedaf03, 2022-05-15)"
   sodipodi:docname="106.svg"
   xmlns:inkscape="http://www.inkscape.org/namespaces/inkscape"
   xmlns:sodipodi="http://sodipodi.sourceforge.net/DTD/sodipodi-0.dtd"
   xmlns="http://www.w3.org/2000/svg"
   xmlns:svg="http://www.w3.org/2000/svg">
  <sodipodi:namedview
     id="namedview7"
     pagecolor="#ffffff"
     bordercolor="#000000"
     borderopacity="0.25"
     inkscape:showpageshadow="2"
     inkscape:pageopacity="0.0"
     inkscape:pagecheckerboard="0"
     inkscape:deskcolor="#d1d1d1"
     inkscape:document-units="mm"
     showgrid="true"
     inkscape:zoom="0.28126294"
     inkscape:cx="1361.7151"
     inkscape:cy="154.65955"
     inkscape:window-width="1920"
     inkscape:window-height="1051"
     inkscape:window-x="-9"
     inkscape:window-y="1341"
     inkscape:window-maximized="1"
     inkscape:current-layer="layer1">
    <inkscape:grid
       type="xygrid"
       id="grid9"
       originx="74.999999"
       originy="74.999999"
       units="mm"
       spacingx="5"
       spacingy="5"
       empspacing="15" />
    <inkscape:grid
       type="xygrid"
       id="grid11"
       dotted="false"
       color="#db00e5"
       opacity="0.14901961"
       empcolor="#cb00e5"
       empopacity="0.30196078"
       spacingx="15"
       spacingy="15"
       empspacing="15"
       visible="true"
       units="mm" />
  </sodipodi:namedview>
  <defs
     id="defs2" />
  <g
     inkscape:label="Warstwa 1"
     inkscape:groupmode="layer"
     id="layer1">
    <path
       class="cls-1"
       d="M 74.999999,135 C 80.165803,84.709636 91.751661,60.682397 108.50332,47.0628 103.32689,25.645984 89.243163,15 74.999999,15 60.756835,15 46.683738,25.645984 41.496676,47.0628 58.248337,60.682397 69.834195,84.709636 74.999999,135 Z"
       id="path32482"
       style="fill:none;stroke:#000000;stroke-width:1.09835;stroke-opacity:1"
       sodipodi:nodetypes="ccscc" />
    <path
       class="cls-2"
       d="M 74.999999,135 C 80.165803,84.709636 91.751661,60.682397 108.50332,47.0628 103.32689,25.645984 89.243163,15 74.999999,15 60.756835,15 46.683738,25.645984 41.496676,47.0628 58.248337,60.682397 69.834195,84.709636 74.999999,135 Z"
       id="path32485"
       style="fill:none;stroke:#000000;stroke-width:1.09835;stroke-opacity:1"
       sodipodi:nodetypes="ccscc" />
    <path
       class="cls-1"
       d="m 74.99997,134.99083 c 3.019798,-43.828583 10.207434,-73.121208 20.000029,-84.990831 -5,-25 -34.999999,-25 -40,0 9.792596,11.869623 16.980172,41.162248 19.999971,84.990831 z"
       id="path34473"
       style="fill:none;stroke:#000000;stroke-width:0.783966;stroke-opacity:1"
       sodipodi:nodetypes="cccc" />
  </g>
</svg>
