<svg viewBox=svg viewBox="0 0 140 140"><title>Artboard 3</title><g id="_3_fill" data-name="3 fill"><path class="cls-1" d="M125.81,70.86C114.67,97,96.06,115,70.86,126.11,45.67,115,27.06,97,15.92,70.86,27.06,44.78,45.67,26.68,70.86,15.62,96.06,26.68,114.67,44.78,125.81,70.86Z"/></g><g id="_3_stroke" data-name="3 stroke"><line class="cls-2" x1="42.98" y1="39.56" x2="54.13" y2="50.71"/><line class="cls-2" x1="34.17" y1="54.37" x2="44.99" y2="62.21"/><line class="cls-2" x1="55.49" y1="32.15" x2="63.33" y2="42.97"/><line class="cls-2" x1="98.75" y1="39.56" x2="87.6" y2="50.71"/><line class="cls-2" x1="107.56" y1="54.37" x2="96.74" y2="62.21"/><line class="cls-2" x1="86.24" y1="32.15" x2="78.4" y2="42.97"/><line class="cls-2" x1="42.98" y1="102.17" x2="54.13" y2="91.02"/><line class="cls-2" x1="34.17" y1="87.36" x2="44.99" y2="79.52"/><line class="cls-2" x1="55.49" y1="109.58" x2="63.33" y2="98.76"/><line class="cls-2" x1="98.75" y1="102.17" x2="87.6" y2="91.02"/><line class="cls-2" x1="107.56" y1="87.36" x2="96.74" y2="79.52"/><line class="cls-2" x1="86.24" y1="109.58" x2="78.4" y2="98.76"/><path class="cls-2" d="M67.33,67.41c-.9-5.83-2.76-11.08-8.19-10.32C57.16,62.21,61.85,65.21,67.33,67.41Z"/><path class="cls-2" d="M70.92,65.94c2.89-5.14,5.21-17.56-.08-18.6C65.43,48.58,68,60.83,70.92,65.94Z"/><path class="cls-2" d="M70.92,75.79c2.89,5.14,5.21,17.56-.08,18.6C65.43,93.15,68,80.89,70.92,75.79Z"/><path class="cls-2" d="M74.79,70.92c5.14,2.89,17.56,5.21,18.6-.08C92.15,65.43,79.9,68,74.79,70.92Z"/><path class="cls-2" d="M66.94,70.92c-5.14,2.89-17.56,5.21-18.6-.08C49.58,65.43,61.83,68,66.94,70.92Z"/><path class="cls-2" d="M59.95,45.53s-6.31-11.78-14.22-10a9.05,9.05,0,0,0-6.51,6.33C37.36,49.94,49,56.57,49,56.57"/><path class="cls-2" d="M39.84,47.31c-4.05,0-15,5.12-10.09,17.34"/><path class="cls-2" d="M64.46,28.29c-3.86-3.29-13-1-14.34,7.53"/><path class="cls-2" d="M75,40.81c6.24-14.81-2-21.63-4.12-21.63S60.51,26,66.75,40.81"/><path class="cls-2" d="M74.4,67.41c.9-5.83,2.76-11.08,8.19-10.32C84.57,62.21,79.88,65.21,74.4,67.41Z"/><path class="cls-2" d="M81.78,45.53s6.31-11.78,14.22-10a9.05,9.05,0,0,1,6.51,6.33c1.85,8.12-9.74,14.76-9.74,14.76"/><path class="cls-2" d="M101.89,47.31c4.05,0,15,5.12,10.09,17.34"/><path class="cls-2" d="M77.27,28.29c3.86-3.29,13-1,14.34,7.53"/><path class="cls-2" d="M42.37,75c-14.81,6.24-21.63-2-21.63-4.12s6.82-10.35,21.63-4.12"/><path class="cls-2" d="M67.33,74.32c-.9,5.83-2.76,11.08-8.19,10.32C57.16,79.52,61.85,76.52,67.33,74.32Z"/><path class="cls-2" d="M59.95,96.2s-6.31,11.78-14.22,10a9.05,9.05,0,0,1-6.51-6.33C37.36,91.79,49,85.16,49,85.16"/><path class="cls-2" d="M39.84,94.42c-4.05,0-15-5.12-10.09-17.34"/><path class="cls-2" d="M64.46,113.44c-3.86,3.29-13,1-14.34-7.53"/><path class="cls-2" d="M125.81,70.86C114.67,97,96.06,115,70.86,126.11,45.67,115,27.06,97,15.92,70.86,27.06,44.78,45.67,26.68,70.86,15.62,96.06,26.68,114.67,44.78,125.81,70.86Z"/><path class="cls-2" d="M101.44,70.86C95,84.8,85.1,95.83,70.86,103.23,56.63,95.83,46.74,84.8,40.29,70.86c6.44-13.93,16.34-25,30.57-32.37C85.1,45.9,95,56.93,101.44,70.86Z"/><path class="cls-2" d="M96.46,70.86A62.36,62.36,0,0,1,70.86,99,62.36,62.36,0,0,1,45.27,70.86,62.36,62.36,0,0,1,70.86,42.73,62.36,62.36,0,0,1,96.46,70.86Z"/><path class="cls-2" d="M75,100.92c6.24,14.81-2,21.63-4.12,21.63s-10.35-6.82-4.12-21.63"/><path class="cls-2" d="M99.36,75c14.81,6.24,21.63-2,21.63-4.12s-6.82-10.35-21.63-4.12"/><path class="cls-2" d="M74.4,74.32c.9,5.83,2.76,11.08,8.19,10.32C84.57,79.52,79.88,76.52,74.4,74.32Z"/><path class="cls-2" d="M81.78,96.2S88.09,108,96,106.24a9.05,9.05,0,0,0,6.51-6.33c1.85-8.12-9.74-14.76-9.74-14.76"/><path class="cls-2" d="M101.89,94.42c4.05,0,15-5.12,10.09-17.34"/><path class="cls-2" d="M77.27,113.44c3.86,3.29,13,1,14.34-7.53"/></g></svg>