<?xml version="1.0" encoding="UTF-8" standalone="no"?>
<!-- Created with Inkscape (http://www.inkscape.org/) -->

<svg
   width="150mm"
   height="150mm"
   viewBox="0 0 150 150"
   version="1.1"
   id="svg5"
   inkscape:version="1.2 (dc2aedaf03, 2022-05-15)"
   sodipodi:docname="107.svg"
   xmlns:inkscape="http://www.inkscape.org/namespaces/inkscape"
   xmlns:sodipodi="http://sodipodi.sourceforge.net/DTD/sodipodi-0.dtd"
   xmlns="http://www.w3.org/2000/svg"
   xmlns:svg="http://www.w3.org/2000/svg">
  <sodipodi:namedview
     id="namedview7"
     pagecolor="#ffffff"
     bordercolor="#000000"
     borderopacity="0.25"
     inkscape:showpageshadow="2"
     inkscape:pageopacity="0.0"
     inkscape:pagecheckerboard="0"
     inkscape:deskcolor="#d1d1d1"
     inkscape:document-units="mm"
     showgrid="true"
     inkscape:zoom="1.1250518"
     inkscape:cx="525.30917"
     inkscape:cy="220.87873"
     inkscape:window-width="1920"
     inkscape:window-height="1051"
     inkscape:window-x="-9"
     inkscape:window-y="1341"
     inkscape:window-maximized="1"
     inkscape:current-layer="layer1">
    <inkscape:grid
       type="xygrid"
       id="grid9"
       originx="74.999999"
       originy="74.999999"
       units="mm"
       spacingx="5"
       spacingy="5"
       empspacing="15" />
    <inkscape:grid
       type="xygrid"
       id="grid11"
       dotted="false"
       color="#db00e5"
       opacity="0.14901961"
       empcolor="#cb00e5"
       empopacity="0.30196078"
       spacingx="15"
       spacingy="15"
       empspacing="15"
       visible="true"
       units="mm" />
  </sodipodi:namedview>
  <defs
     id="defs2" />
  <g
     inkscape:label="Warstwa 1"
     inkscape:groupmode="layer"
     id="layer1">
    <path
       class="cls-1"
       d="M 134.41853,75.291336 C 122.37218,103.54083 102.24808,122.99342 74.997813,134.99999 47.758362,122.99342 27.634258,103.54083 15.587911,75.291336 27.634258,47.106687 47.758362,27.546023 74.997813,15.593484 102.24808,27.546023 122.37218,47.106687 134.41853,75.291336 Z"
       id="path28685"
       style="fill:none;stroke:#000000;stroke-width:1.08103;stroke-opacity:1" />
    <path
       class="cls-2"
       d="M 79.474642,42.81631 C 86.222327,26.811147 77.311923,19.440775 75.01944,19.440775 c -2.292483,0 -11.2137,7.370372 -4.466016,23.375535"
       id="path28728"
       style="fill:none;stroke:#000000;stroke-width:1.08103;stroke-opacity:1" />
    <path
       class="cls-2"
       d="M 134.41853,75.291336 C 122.37218,103.54083 102.24808,122.99342 74.997813,134.99999 47.758362,122.99342 27.634258,103.54083 15.587911,75.291336 27.634258,47.106687 47.758362,27.546023 74.997813,15.593484 102.24808,27.546023 122.37218,47.106687 134.41853,75.291336 Z"
       id="path28748"
       style="fill:none;stroke:#000000;stroke-width:1.08103;stroke-opacity:1" />
    <path
       class="cls-2"
       d="M 108.06579,75.291336 C 101.10184,90.356289 90.396375,102.27641 74.997813,110.27358 59.610064,102.27641 48.915417,90.356289 41.940647,75.291336 48.904603,60.237189 59.610064,48.273843 74.997813,40.309086 c 15.398562,8.007985 26.104027,19.928103 33.067977,34.98225 z"
       id="path28750"
       style="fill:none;stroke:#000000;stroke-width:1.08103;stroke-opacity:1" />
    <path
       class="cls-2"
       d="m 79.474642,107.77717 c 6.747685,16.00516 -2.162719,23.37553 -4.455202,23.37553 -2.292483,0 -11.192073,-7.37037 -4.455202,-23.37553"
       id="path28754"
       style="fill:none;stroke:#000000;stroke-width:1.08103;stroke-opacity:1" />
    <path
       style="fill:none;fill-rule:evenodd;stroke:#000000;stroke-width:0.264999;stroke-dasharray:none;stroke-opacity:1"
       id="path30761"
       sodipodi:type="arc"
       sodipodi:cx="75"
       sodipodi:cy="75"
       sodipodi:rx="10"
       sodipodi:ry="10"
       sodipodi:start="0.26410896"
       sodipodi:end="0.26408266"
       sodipodi:open="true"
       sodipodi:arc-type="arc"
       d="m 84.653255,77.610492 a 10,10 0 0 1 -12.263684,7.04278 10,10 0 0 1 -7.04286,-12.263637 10,10 0 0 1 12.263591,-7.042941 10,10 0 0 1 7.043022,12.263544" />
    <path
       style="fill:none;fill-rule:evenodd;stroke:#000000;stroke-width:0.264999;stroke-dasharray:none;stroke-opacity:1"
       id="path30771"
       sodipodi:type="arc"
       sodipodi:cx="47.5"
       sodipodi:cy="102.5"
       sodipodi:rx="2.5"
       sodipodi:ry="2.5000005"
       sodipodi:start="0.26410896"
       sodipodi:end="0.26408266"
       sodipodi:open="true"
       sodipodi:arc-type="arc"
       d="m 49.913314,103.15262 a 2.5,2.5000005 0 0 1 -3.065921,1.7607 2.5,2.5000005 0 0 1 -1.760715,-3.06591 2.5,2.5000005 0 0 1 3.065897,-1.76074 2.5,2.5000005 0 0 1 1.760756,3.06589" />
    <path
       style="fill:none;fill-rule:evenodd;stroke:#000000;stroke-width:0.264999;stroke-dasharray:none;stroke-opacity:1"
       id="path30773"
       sodipodi:type="arc"
       sodipodi:cx="102.5"
       sodipodi:cy="47.5"
       sodipodi:rx="2.5"
       sodipodi:ry="2.4999995"
       sodipodi:start="0.26410896"
       sodipodi:end="0.26408266"
       sodipodi:open="true"
       sodipodi:arc-type="arc"
       d="m 104.91331,48.152623 a 2.5,2.4999995 0 0 1 -3.06592,1.760695 2.5,2.4999995 0 0 1 -1.76071,-3.065909 2.5,2.4999995 0 0 1 3.0659,-1.760735 2.5,2.4999995 0 0 1 1.76075,3.065885" />
    <path
       style="fill:none;fill-rule:evenodd;stroke:#000000;stroke-width:0.264999;stroke-dasharray:none;stroke-opacity:1"
       id="path30775"
       sodipodi:type="arc"
       sodipodi:cx="102.5"
       sodipodi:cy="102.5"
       sodipodi:rx="2.5"
       sodipodi:ry="2.5"
       sodipodi:start="0.26410896"
       sodipodi:end="0.26408266"
       sodipodi:open="true"
       sodipodi:arc-type="arc"
       d="m 104.91331,103.15262 a 2.5,2.5 0 0 1 -3.06592,1.7607 2.5,2.5 0 0 1 -1.76071,-3.06591 2.5,2.5 0 0 1 3.0659,-1.76074 2.5,2.5 0 0 1 1.76075,3.06589" />
    <path
       style="fill:none;fill-rule:evenodd;stroke:#000000;stroke-width:0.264999;stroke-dasharray:none;stroke-opacity:1"
       id="path30777"
       sodipodi:type="arc"
       sodipodi:cx="47.5"
       sodipodi:cy="47.5"
       sodipodi:rx="2.4999995"
       sodipodi:ry="2.4999995"
       sodipodi:start="0.26410896"
       sodipodi:end="0.26408266"
       sodipodi:open="true"
       sodipodi:arc-type="arc"
       d="m 49.913313,48.152623 a 2.4999995,2.4999995 0 0 1 -3.06592,1.760695 2.4999995,2.4999995 0 0 1 -1.760715,-3.065909 2.4999995,2.4999995 0 0 1 3.065897,-1.760735 2.4999995,2.4999995 0 0 1 1.760755,3.065885" />
    <path
       style="fill:none;fill-rule:evenodd;stroke:#000000;stroke-width:0.264999;stroke-dasharray:none;stroke-opacity:1"
       id="path30779"
       sodipodi:type="arc"
       sodipodi:cx="57.5"
       sodipodi:cy="42.499996"
       sodipodi:rx="2.5000005"
       sodipodi:ry="2.5"
       sodipodi:start="0.26410896"
       sodipodi:end="0.26408266"
       sodipodi:open="true"
       sodipodi:arc-type="arc"
       d="m 59.913314,43.152619 a 2.5000005,2.5 0 0 1 -3.065921,1.760695 2.5000005,2.5 0 0 1 -1.760716,-3.065909 2.5000005,2.5 0 0 1 3.065899,-1.760735 2.5000005,2.5 0 0 1 1.760755,3.065886" />
    <path
       style="fill:none;fill-rule:evenodd;stroke:#000000;stroke-width:0.264999;stroke-dasharray:none;stroke-opacity:1"
       id="path30781"
       sodipodi:type="arc"
       sodipodi:cx="42.499996"
       sodipodi:cy="57.5"
       sodipodi:rx="2.5000005"
       sodipodi:ry="2.5"
       sodipodi:start="0.26410896"
       sodipodi:end="0.26408266"
       sodipodi:open="true"
       sodipodi:arc-type="arc"
       d="m 44.91331,58.152623 a 2.5000005,2.5 0 0 1 -3.065921,1.760695 2.5000005,2.5 0 0 1 -1.760716,-3.065909 2.5000005,2.5 0 0 1 3.065899,-1.760736 2.5000005,2.5 0 0 1 1.760756,3.065887" />
    <path
       style="fill:none;fill-rule:evenodd;stroke:#000000;stroke-width:0.264999;stroke-dasharray:none;stroke-opacity:1"
       id="path30783"
       sodipodi:type="arc"
       sodipodi:cx="42.499996"
       sodipodi:cy="92.5"
       sodipodi:rx="2.5"
       sodipodi:ry="2.5"
       sodipodi:start="0.26410896"
       sodipodi:end="0.26408266"
       sodipodi:open="true"
       sodipodi:arc-type="arc"
       d="m 44.91331,93.152623 a 2.5,2.5 0 0 1 -3.065921,1.760695 2.5,2.5 0 0 1 -1.760715,-3.065909 2.5,2.5 0 0 1 3.065898,-1.760736 2.5,2.5 0 0 1 1.760755,3.065887" />
    <path
       style="fill:none;fill-rule:evenodd;stroke:#000000;stroke-width:0.264999;stroke-dasharray:none;stroke-opacity:1"
       id="path30785"
       sodipodi:type="arc"
       sodipodi:cx="107.5"
       sodipodi:cy="92.5"
       sodipodi:rx="2.4999995"
       sodipodi:ry="2.4999995"
       sodipodi:start="0.26410896"
       sodipodi:end="0.26408266"
       sodipodi:open="true"
       sodipodi:arc-type="arc"
       d="m 109.91331,93.152623 a 2.4999995,2.4999995 0 0 1 -3.06592,1.760695 2.4999995,2.4999995 0 0 1 -1.76071,-3.065909 2.4999995,2.4999995 0 0 1 3.0659,-1.760735 2.4999995,2.4999995 0 0 1 1.76075,3.065885" />
    <path
       style="fill:none;fill-rule:evenodd;stroke:#000000;stroke-width:0.264999;stroke-dasharray:none;stroke-opacity:1"
       id="path30787"
       sodipodi:type="arc"
       sodipodi:cx="92.5"
       sodipodi:cy="107.49999"
       sodipodi:rx="2.4999995"
       sodipodi:ry="2.5"
       sodipodi:start="0.26410896"
       sodipodi:end="0.26408266"
       sodipodi:open="true"
       sodipodi:arc-type="arc"
       d="m 94.913313,108.15262 a 2.4999995,2.5 0 0 1 -3.06592,1.76069 2.4999995,2.5 0 0 1 -1.760715,-3.06591 2.4999995,2.5 0 0 1 3.065897,-1.76073 2.4999995,2.5 0 0 1 1.760755,3.06588" />
    <path
       style="fill:none;fill-rule:evenodd;stroke:#000000;stroke-width:0.264999;stroke-dasharray:none;stroke-opacity:1"
       id="path30789"
       sodipodi:type="arc"
       sodipodi:cx="57.5"
       sodipodi:cy="107.5"
       sodipodi:rx="2.5"
       sodipodi:ry="2.4999995"
       sodipodi:start="0.26410896"
       sodipodi:end="0.26408266"
       sodipodi:open="true"
       sodipodi:arc-type="arc"
       d="m 59.913314,108.15262 a 2.5,2.4999995 0 0 1 -3.065921,1.7607 2.5,2.4999995 0 0 1 -1.760715,-3.06591 2.5,2.4999995 0 0 1 3.065897,-1.76074 2.5,2.4999995 0 0 1 1.760756,3.06589" />
    <path
       style="fill:none;fill-rule:evenodd;stroke:#000000;stroke-width:0.264999;stroke-dasharray:none;stroke-opacity:1"
       id="path30791"
       sodipodi:type="arc"
       sodipodi:cx="107.5"
       sodipodi:cy="57.5"
       sodipodi:rx="2.4999995"
       sodipodi:ry="2.5"
       sodipodi:start="0.26410896"
       sodipodi:end="0.26408266"
       sodipodi:open="true"
       sodipodi:arc-type="arc"
       d="m 109.91331,58.152623 a 2.4999995,2.5 0 0 1 -3.06592,1.760695 2.4999995,2.5 0 0 1 -1.76071,-3.065909 2.4999995,2.5 0 0 1 3.0659,-1.760736 2.4999995,2.5 0 0 1 1.76075,3.065887" />
    <path
       style="fill:none;fill-rule:evenodd;stroke:#000000;stroke-width:0.264999;stroke-dasharray:none;stroke-opacity:1"
       id="path30793"
       sodipodi:type="arc"
       sodipodi:cx="92.5"
       sodipodi:cy="42.499996"
       sodipodi:rx="2.4999995"
       sodipodi:ry="2.5"
       sodipodi:start="0.26410896"
       sodipodi:end="0.26408266"
       sodipodi:open="true"
       sodipodi:arc-type="arc"
       d="m 94.913313,43.152619 a 2.4999995,2.5 0 0 1 -3.06592,1.760695 2.4999995,2.5 0 0 1 -1.760715,-3.065909 2.4999995,2.5 0 0 1 3.065897,-1.760735 2.4999995,2.5 0 0 1 1.760755,3.065886" />
    <path
       style="fill:none;fill-rule:evenodd;stroke:#000000;stroke-width:0.264999;stroke-dasharray:none;stroke-opacity:1"
       id="path30795"
       sodipodi:type="arc"
       sodipodi:cx="62.5"
       sodipodi:cy="62.5"
       sodipodi:rx="2.4999995"
       sodipodi:ry="2.4999995"
       sodipodi:start="0.26410896"
       sodipodi:end="0.26408266"
       sodipodi:open="true"
       sodipodi:arc-type="arc"
       d="m 64.913313,63.152623 a 2.4999995,2.4999995 0 0 1 -3.06592,1.760695 2.4999995,2.4999995 0 0 1 -1.760715,-3.065909 2.4999995,2.4999995 0 0 1 3.065897,-1.760735 2.4999995,2.4999995 0 0 1 1.760755,3.065885" />
    <path
       style="fill:none;fill-rule:evenodd;stroke:#000000;stroke-width:0.264999;stroke-dasharray:none;stroke-opacity:1"
       id="path30797"
       sodipodi:type="arc"
       sodipodi:cx="87.499992"
       sodipodi:cy="87.499992"
       sodipodi:rx="2.5000005"
       sodipodi:ry="2.5"
       sodipodi:start="0.26410896"
       sodipodi:end="0.26408266"
       sodipodi:open="true"
       sodipodi:arc-type="arc"
       d="m 89.913307,88.152615 a 2.5000005,2.5 0 0 1 -3.065922,1.760695 2.5000005,2.5 0 0 1 -1.760715,-3.065909 2.5000005,2.5 0 0 1 3.065898,-1.760735 2.5000005,2.5 0 0 1 1.760756,3.065886" />
    <path
       style="fill:none;fill-rule:evenodd;stroke:#000000;stroke-width:0.264999;stroke-dasharray:none;stroke-opacity:1"
       id="path30799"
       sodipodi:type="arc"
       sodipodi:cx="87.499992"
       sodipodi:cy="62.5"
       sodipodi:rx="2.5"
       sodipodi:ry="2.4999995"
       sodipodi:start="0.26410896"
       sodipodi:end="0.26408266"
       sodipodi:open="true"
       sodipodi:arc-type="arc"
       d="m 89.913306,63.152623 a 2.5,2.4999995 0 0 1 -3.065921,1.760695 2.5,2.4999995 0 0 1 -1.760715,-3.065909 2.5,2.4999995 0 0 1 3.065898,-1.760735 2.5,2.4999995 0 0 1 1.760755,3.065885" />
    <path
       style="fill:none;fill-rule:evenodd;stroke:#000000;stroke-width:0.264999;stroke-dasharray:none;stroke-opacity:1"
       id="path30801"
       sodipodi:type="arc"
       sodipodi:cx="62.5"
       sodipodi:cy="87.499992"
       sodipodi:rx="2.5"
       sodipodi:ry="2.5000005"
       sodipodi:start="0.26410896"
       sodipodi:end="0.26408266"
       sodipodi:open="true"
       sodipodi:arc-type="arc"
       d="m 64.913314,88.152616 a 2.5,2.5000005 0 0 1 -3.065921,1.760695 2.5,2.5000005 0 0 1 -1.760715,-3.06591 2.5,2.5000005 0 0 1 3.065897,-1.760736 2.5,2.5000005 0 0 1 1.760756,3.065887" />
    <path
       style="fill:none;fill-rule:evenodd;stroke:#000000;stroke-width:0.264999;stroke-dasharray:none;stroke-opacity:1"
       id="path30803"
       sodipodi:type="arc"
       sodipodi:cx="82.499992"
       sodipodi:cy="52.499996"
       sodipodi:rx="2.5"
       sodipodi:ry="2.5"
       sodipodi:start="0.26410896"
       sodipodi:end="0.26408266"
       sodipodi:open="true"
       sodipodi:arc-type="arc"
       d="m 84.913306,53.152619 a 2.5,2.5 0 0 1 -3.065921,1.760695 2.5,2.5 0 0 1 -1.760715,-3.065909 2.5,2.5 0 0 1 3.065898,-1.760735 2.5,2.5 0 0 1 1.760755,3.065886" />
    <path
       style="fill:none;fill-rule:evenodd;stroke:#000000;stroke-width:0.264999;stroke-dasharray:none;stroke-opacity:1"
       id="path30805"
       sodipodi:type="arc"
       sodipodi:cx="67.5"
       sodipodi:cy="52.499996"
       sodipodi:rx="2.5"
       sodipodi:ry="2.5"
       sodipodi:start="0.26410896"
       sodipodi:end="0.26408266"
       sodipodi:open="true"
       sodipodi:arc-type="arc"
       d="m 69.913314,53.152619 a 2.5,2.5 0 0 1 -3.065921,1.760695 2.5,2.5 0 0 1 -1.760715,-3.065909 2.5,2.5 0 0 1 3.065897,-1.760735 2.5,2.5 0 0 1 1.760756,3.065886" />
    <path
       style="fill:none;fill-rule:evenodd;stroke:#000000;stroke-width:0.264999;stroke-dasharray:none;stroke-opacity:1"
       id="path30807"
       sodipodi:type="arc"
       sodipodi:cx="52.499996"
       sodipodi:cy="67.5"
       sodipodi:rx="2.5"
       sodipodi:ry="2.5"
       sodipodi:start="0.26410896"
       sodipodi:end="0.26408266"
       sodipodi:open="true"
       sodipodi:arc-type="arc"
       d="m 54.91331,68.152623 a 2.5,2.5 0 0 1 -3.065921,1.760695 2.5,2.5 0 0 1 -1.760715,-3.065909 2.5,2.5 0 0 1 3.065898,-1.760736 2.5,2.5 0 0 1 1.760755,3.065887" />
    <path
       style="fill:none;fill-rule:evenodd;stroke:#000000;stroke-width:0.264999;stroke-dasharray:none;stroke-opacity:1"
       id="path30809"
       sodipodi:type="arc"
       sodipodi:cx="52.499996"
       sodipodi:cy="82.499992"
       sodipodi:rx="2.5"
       sodipodi:ry="2.5"
       sodipodi:start="0.26410896"
       sodipodi:end="0.26408266"
       sodipodi:open="true"
       sodipodi:arc-type="arc"
       d="m 54.91331,83.152615 a 2.5,2.5 0 0 1 -3.065921,1.760695 2.5,2.5 0 0 1 -1.760715,-3.065909 2.5,2.5 0 0 1 3.065898,-1.760735 2.5,2.5 0 0 1 1.760755,3.065886" />
    <path
       style="fill:none;fill-rule:evenodd;stroke:#000000;stroke-width:0.264999;stroke-dasharray:none;stroke-opacity:1"
       id="path30811"
       sodipodi:type="arc"
       sodipodi:cx="67.5"
       sodipodi:cy="97.5"
       sodipodi:rx="2.5"
       sodipodi:ry="2.5"
       sodipodi:start="0.26410896"
       sodipodi:end="0.26408266"
       sodipodi:open="true"
       sodipodi:arc-type="arc"
       d="m 69.913314,98.152623 a 2.5,2.5 0 0 1 -3.065921,1.760695 2.5,2.5 0 0 1 -1.760715,-3.065909 2.5,2.5 0 0 1 3.065897,-1.760736 2.5,2.5 0 0 1 1.760756,3.065887" />
    <path
       style="fill:none;fill-rule:evenodd;stroke:#000000;stroke-width:0.264999;stroke-dasharray:none;stroke-opacity:1"
       id="path30813"
       sodipodi:type="arc"
       sodipodi:cx="82.499992"
       sodipodi:cy="97.5"
       sodipodi:rx="2.5"
       sodipodi:ry="2.5"
       sodipodi:start="0.26410896"
       sodipodi:end="0.26408266"
       sodipodi:open="true"
       sodipodi:arc-type="arc"
       d="m 84.913306,98.152623 a 2.5,2.5 0 0 1 -3.065921,1.760695 2.5,2.5 0 0 1 -1.760715,-3.065909 2.5,2.5 0 0 1 3.065898,-1.760736 2.5,2.5 0 0 1 1.760755,3.065887" />
    <path
       style="fill:none;fill-rule:evenodd;stroke:#000000;stroke-width:0.264999;stroke-dasharray:none;stroke-opacity:1"
       id="path30815"
       sodipodi:type="arc"
       sodipodi:cx="97.5"
       sodipodi:cy="67.5"
       sodipodi:rx="2.5"
       sodipodi:ry="2.5"
       sodipodi:start="0.26410896"
       sodipodi:end="0.26408266"
       sodipodi:open="true"
       sodipodi:arc-type="arc"
       d="m 99.913314,68.152623 a 2.5,2.5 0 0 1 -3.065921,1.760695 2.5,2.5 0 0 1 -1.760715,-3.065909 2.5,2.5 0 0 1 3.065897,-1.760736 2.5,2.5 0 0 1 1.760756,3.065887" />
    <path
       style="fill:none;fill-rule:evenodd;stroke:#000000;stroke-width:0.264999;stroke-dasharray:none;stroke-opacity:1"
       id="path30817"
       sodipodi:type="arc"
       sodipodi:cx="97.5"
       sodipodi:cy="82.499992"
       sodipodi:rx="2.5"
       sodipodi:ry="2.5"
       sodipodi:start="0.26410896"
       sodipodi:end="0.26408266"
       sodipodi:open="true"
       sodipodi:arc-type="arc"
       d="m 99.913314,83.152615 a 2.5,2.5 0 0 1 -3.065921,1.760695 2.5,2.5 0 0 1 -1.760715,-3.065909 2.5,2.5 0 0 1 3.065897,-1.760735 2.5,2.5 0 0 1 1.760756,3.065886" />
    <path
       class="cls-2"
       d="M 124.48295,75.291338 C 114.45102,103.52896 97.692126,122.97337 74.998717,134.9749 52.314316,122.97337 35.555416,103.52896 25.52349,75.291338 35.555416,47.118535 52.314316,27.566092 74.998717,15.618577 97.692126,27.566092 114.45102,47.118535 124.48295,75.291338 Z"
       id="path30819"
       style="fill:none;stroke:#000000;stroke-width:0.986304;stroke-opacity:1" />
  </g>
</svg>
