<?xml version="1.0" encoding="UTF-8" standalone="no"?>
<!-- Created with Inkscape (http://www.inkscape.org/) -->

<svg
   width="150mm"
   height="150mm"
   viewBox="0 0 150 150"
   version="1.1"
   id="svg5"
   inkscape:version="1.2 (dc2aedaf03, 2022-05-15)"
   sodipodi:docname="108.svg"
   xmlns:inkscape="http://www.inkscape.org/namespaces/inkscape"
   xmlns:sodipodi="http://sodipodi.sourceforge.net/DTD/sodipodi-0.dtd"
   xmlns="http://www.w3.org/2000/svg"
   xmlns:svg="http://www.w3.org/2000/svg">
  <sodipodi:namedview
     id="namedview7"
     pagecolor="#ffffff"
     bordercolor="#000000"
     borderopacity="0.25"
     inkscape:showpageshadow="2"
     inkscape:pageopacity="0.0"
     inkscape:pagecheckerboard="0"
     inkscape:deskcolor="#d1d1d1"
     inkscape:document-units="mm"
     showgrid="true"
     inkscape:zoom="1.1250518"
     inkscape:cx="525.30917"
     inkscape:cy="78.663048"
     inkscape:window-width="1920"
     inkscape:window-height="1051"
     inkscape:window-x="-9"
     inkscape:window-y="1341"
     inkscape:window-maximized="1"
     inkscape:current-layer="layer1">
    <inkscape:grid
       type="xygrid"
       id="grid9"
       originx="74.999999"
       originy="74.999999"
       units="mm"
       spacingx="5"
       spacingy="5"
       empspacing="15" />
    <inkscape:grid
       type="xygrid"
       id="grid11"
       dotted="false"
       color="#db00e5"
       opacity="0.14901961"
       empcolor="#cb00e5"
       empopacity="0.30196078"
       spacingx="15"
       spacingy="15"
       empspacing="15"
       visible="true"
       units="mm" />
  </sodipodi:namedview>
  <defs
     id="defs2" />
  <g
     inkscape:label="Warstwa 1"
     inkscape:groupmode="layer"
     id="layer1">
    <path
       d="m 74.989529,135 c 5.601241,0 0.682307,-6.87942 2.035816,-10.72043 0.694883,-1.75864 1.76785,-3.32767 3.136285,-4.58628 6.32751,-6.15708 23.65945,0.52743 36.31451,-8.48461 6.43757,-4.66654 9.57381,-11.03001 8.20928,-18.505641 -1.39756,-6.409325 -6.9548,-8.668066 -13.84355,-9.023504 -11.004378,-0.52742 -20.083038,9.929295 -22.426963,2.476591 -1.738688,-9.413337 18.707493,-12.612264 25.090023,-23.14924 2.92716,-5.125169 2.83917,-13.380471 -0.88036,-18.024076 -2.86112,-3.531436 -9.5518,-3.497036 -14.646838,0.321025 -4.962981,3.43971 -8.693481,8.255302 -12.677066,4.093256 -2.090842,-2.7747 0.462205,-7.429772 2.49798,-12.612269 C 90.923909,28.862025 89.361278,15 75.00055,15 60.639822,15 59.066169,28.758837 62.202454,36.784822 c 2.035817,5.159565 4.588822,9.826103 2.49798,12.612269 C 60.705828,53.559137 56.99737,48.709149 52.023368,45.303835 46.928336,41.48576 40.237649,41.451361 37.376534,44.98281 c -3.719521,4.655072 -3.807529,12.898907 -0.880366,18.024076 6.382537,10.559904 26.828713,13.758836 25.090026,23.14924 -2.343926,7.452704 -11.422585,-3.004011 -22.426968,-2.476591 -6.93275,0.389841 -12.434962,2.660044 -13.854519,9.057904 -1.364574,7.475631 1.771711,13.839091 8.209273,18.505631 12.655064,9.01204 29.986957,2.29314 36.31451,8.48462 1.36842,1.25862 2.441372,2.82765 3.136243,4.58628 C 74.307263,128.16644 69.399308,135 74.989529,135 Z"
       id="path27019"
       style="fill:none;stroke:#000000;stroke-width:1.12326;stroke-opacity:1"
       sodipodi:nodetypes="scccccccccccscccccccccccs" />
    <path
       d="m 74.989529,135 c 5.601241,0 0.682307,-6.87942 2.035816,-10.72043 0.694883,-1.75864 1.76785,-3.32767 3.136285,-4.58628 6.32751,-6.15708 23.65945,0.52743 36.31451,-8.48461 6.43757,-4.66654 9.57381,-11.03001 8.20928,-18.505641 -1.39756,-6.409325 -6.9548,-8.668066 -13.84355,-9.023504 -11.004378,-0.52742 -20.083038,9.929295 -22.426963,2.476591 -1.738688,-9.413337 18.707493,-12.612264 25.090023,-23.14924 2.92716,-5.125169 2.83917,-13.380471 -0.88036,-18.024076 -2.86112,-3.531436 -9.5518,-3.497036 -14.646838,0.321025 -4.962981,3.43971 -8.693481,8.255302 -12.677066,4.093256 -2.090842,-2.7747 0.462205,-7.429772 2.49798,-12.612269 C 90.923909,28.862025 89.361278,15 75.00055,15 60.639822,15 59.066169,28.758837 62.202454,36.784822 c 2.035817,5.159565 4.588822,9.826103 2.49798,12.612269 C 60.705828,53.559137 56.99737,48.709149 52.023368,45.303835 46.928336,41.48576 40.237649,41.451361 37.376534,44.98281 c -3.719521,4.655072 -3.807529,12.898907 -0.880366,18.024076 6.382537,10.559904 26.828713,13.758836 25.090026,23.14924 -2.343926,7.452704 -11.422585,-3.004011 -22.426968,-2.476591 -6.93275,0.389841 -12.434962,2.660044 -13.854519,9.057904 -1.364574,7.475631 1.771711,13.839091 8.209273,18.505631 12.655064,9.01204 29.986957,2.29314 36.31451,8.48462 1.36842,1.25862 2.441372,2.82765 3.136243,4.58628 C 74.307263,128.16644 69.399308,135 74.989529,135 Z"
       id="path27021"
       style="fill:none;stroke:#000000;stroke-width:1.12326;stroke-opacity:1"
       sodipodi:nodetypes="scccccccccccscccccccccccs" />
    <path
       d="m 110.88858,99.451083 c -4.03861,4.861457 -29.340459,1.117427 -35.888071,12.101567 -6.602638,-10.98414 -31.84211,-7.25158 -35.88072,-12.101567"
       id="path27023"
       style="fill:none;stroke:#000000;stroke-width:1.12326;stroke-opacity:1"
       sodipodi:nodetypes="ccc" />
    <path
       d="M 106.95675,54.963743 C 105.09703,61.097887 81.746262,68.705336 74.989529,81.030961 68.254838,68.705336 45.115334,61.035527 43.266595,54.912845"
       id="path27025"
       style="fill:none;stroke:#000000;stroke-width:1.12326;stroke-opacity:1"
       sodipodi:nodetypes="ccc" />
    <path
       style="fill:none;fill-rule:evenodd;stroke:#000000;stroke-width:0.264999;stroke-dasharray:none;stroke-opacity:1"
       d="M 74.999997,135 75,30"
       id="path27564" />
    <path
       style="fill:none;fill-rule:evenodd;stroke:#000000;stroke-width:0.264999;stroke-dasharray:none;stroke-opacity:1"
       id="path27566"
       sodipodi:type="arc"
       sodipodi:cx="42.499996"
       sodipodi:cy="52.499996"
       sodipodi:rx="2.5"
       sodipodi:ry="2.5"
       sodipodi:start="0.26410896"
       sodipodi:end="0.26408266"
       sodipodi:open="true"
       sodipodi:arc-type="arc"
       d="m 44.91331,53.152619 a 2.5,2.5 0 0 1 -3.065921,1.760695 2.5,2.5 0 0 1 -1.760715,-3.065909 2.5,2.5 0 0 1 3.065898,-1.760735 2.5,2.5 0 0 1 1.760755,3.065886" />
    <path
       style="fill:none;fill-rule:evenodd;stroke:#000000;stroke-width:0.264999;stroke-dasharray:none;stroke-opacity:1"
       id="path27568"
       sodipodi:type="arc"
       sodipodi:cx="107.5"
       sodipodi:cy="52.499996"
       sodipodi:rx="2.4999995"
       sodipodi:ry="2.5"
       sodipodi:start="0.26410896"
       sodipodi:end="0.26408266"
       sodipodi:open="true"
       sodipodi:arc-type="arc"
       d="m 109.91331,53.152619 a 2.4999995,2.5 0 0 1 -3.06592,1.760695 2.4999995,2.5 0 0 1 -1.76071,-3.065909 2.4999995,2.5 0 0 1 3.0659,-1.760735 2.4999995,2.5 0 0 1 1.76075,3.065886" />
    <path
       style="fill:none;fill-rule:evenodd;stroke:#000000;stroke-width:0.264999;stroke-dasharray:none;stroke-opacity:1"
       id="path27570"
       sodipodi:type="arc"
       sodipodi:cx="37.5"
       sodipodi:cy="97.5"
       sodipodi:rx="2.5"
       sodipodi:ry="2.5"
       sodipodi:start="0.26410896"
       sodipodi:end="0.26408266"
       sodipodi:open="true"
       sodipodi:arc-type="arc"
       d="m 39.913314,98.152623 a 2.5,2.5 0 0 1 -3.065921,1.760695 2.5,2.5 0 0 1 -1.760715,-3.065909 2.5,2.5 0 0 1 3.065897,-1.760736 2.5,2.5 0 0 1 1.760756,3.065887" />
    <path
       style="fill:none;fill-rule:evenodd;stroke:#000000;stroke-width:0.264999;stroke-dasharray:none;stroke-opacity:1"
       id="path27574"
       sodipodi:type="arc"
       sodipodi:cx="112.49999"
       sodipodi:cy="97.5"
       sodipodi:rx="2.5"
       sodipodi:ry="2.5"
       sodipodi:start="0.26410896"
       sodipodi:end="0.26408266"
       sodipodi:open="true"
       sodipodi:arc-type="arc"
       d="m 114.91331,98.152623 a 2.5,2.5 0 0 1 -3.06592,1.760695 2.5,2.5 0 0 1 -1.76072,-3.065909 2.5,2.5 0 0 1 3.0659,-1.760736 2.5,2.5 0 0 1 1.76075,3.065887" />
    <path
       style="fill:none;fill-rule:evenodd;stroke:#000000;stroke-width:0.264999;stroke-dasharray:none;stroke-opacity:1"
       id="path27576"
       sodipodi:type="arc"
       sodipodi:cx="74.991501"
       sodipodi:cy="27.492647"
       sodipodi:rx="2.5"
       sodipodi:ry="2.5000005"
       sodipodi:start="0.26410896"
       sodipodi:end="0.26408266"
       sodipodi:open="true"
       sodipodi:arc-type="arc"
       d="m 77.404815,28.14527 a 2.5,2.5000005 0 0 1 -3.065921,1.760696 2.5,2.5000005 0 0 1 -1.760715,-3.06591 2.5,2.5000005 0 0 1 3.065897,-1.760736 2.5,2.5000005 0 0 1 1.760756,3.065887" />
  </g>
</svg>
