<svg viewBox=svg viewBox="0 0 140 140"><title>@liam_draws123_2</title><g id="_2_fill" data-name="2 fill"><path class="cls-1" d="M121.89,112.43c-4.6-35.5-22.45-62.68-51-83.12-28.58,20.44-46.43,47.62-51,83.13Z"/></g><g id="_2_stroke" data-name="2 stroke"><line class="cls-2" x1="56.42" y1="102.44" x2="70.86" y2="112.43"/><path class="cls-2" d="M121.89,112.43c-4.6-35.5-22.45-62.68-51-83.12-28.58,20.44-46.43,47.62-51,83.12Z"/><path class="cls-2" d="M109.48,112.43c-6.06-29.19-19-50.5-38.62-69.13C51.25,61.93,38.31,83.24,32.25,112.43"/><path class="cls-2" d="M99.75,112.43A113.28,113.28,0,0,0,70.86,56.77,113.28,113.28,0,0,0,42,112.43"/><path class="cls-2" d="M88.24,112.43A112.55,112.55,0,0,0,70.86,74.19a112.55,112.55,0,0,0-17.38,38.23"/><line class="cls-2" x1="85.31" y1="102.44" x2="70.87" y2="112.43"/><path class="cls-2" d="M70.87,112.43l5.58-29.51s-1.65-1.33-5.58-1.33-5.58,1.33-5.58,1.33Z"/><polyline class="cls-2" points="121.89 112.43 96.97 101.56 114.6 83.57 88.59 81.34 100.81 58.48 77.41 64.34 82.93 38.91 70.86 43.3 58.8 38.91 64.32 64.34 40.92 58.48 53.14 81.34 27.13 83.57 44.76 101.56 19.84 112.43"/><polyline class="cls-2" points="83.54 72.83 108.28 70.16 85.31 102.44 99.75 112.43 119.16 97.9 78.68 87.01 83.54 72.83 92.1 47.89 70.86 56.77 49.63 47.89 58.19 72.83 63.05 87.01 22.57 97.9 41.98 112.43 56.42 102.44 33.45 70.16 58.19 72.83"/><path class="cls-2" d="M83.54,72.83,70.86,74.19l6.54-9.86a10.65,10.65,0,0,0-13.08,0l6.54,9.86L58.19,72.83"/><path class="cls-2" d="M79.94,52.66c-.56-.63-3.87-2.89-9.08-2.89S62.35,52,61.79,52.66"/><path class="cls-2" d="M82.93,38.91a19.91,19.91,0,0,0-24.13,0"/></g></svg>