<svg viewBox="0 0 147 147"><title>Artboard 3</title><g id="_3_fill" data-name="3 fill"><path class="cls-1" d="M70.86,97.48c13.57,26.14,30.66,23.28,41.63,12.78,15.15-14.32,5.15-44.28-8.48-33,12.88-30.5-30.13-31.12-33.15-53.37-3,22.25-46,22.88-33.15,53.38-13.62-11.25-23.62,18.71-8.48,33C40.21,120.77,57.29,123.62,70.86,97.48Z"/></g><g id="_3_stroke" data-name="3 stroke"><circle class="cls-2" cx="50.72" cy="75.42" r="4.56"/><circle class="cls-2" cx="56.42" cy="62.1" r="3.31"/><path class="cls-2" d="M63.24,108.91c-25-3.95-23.49-21.8-23.49-21.8S49.56,100,70,99.14"/><path class="cls-2" d="M70.86,97.48c13.57,26.14,30.66,23.28,41.63,12.78,15.15-14.32,5.15-44.28-8.48-33,12.88-30.5-30.13-31.12-33.15-53.37-3,22.25-46,22.88-33.15,53.38-13.63-11.25-23.63,18.71-8.48,33C40.21,120.77,57.29,123.62,70.86,97.48Z"/><path class="cls-2" d="M83.29,113.4a26.45,26.45,0,0,0,18.9-5.36c13.9-10.48,11.2-31.35-5.11-25.18C110,57.11,73.51,52.23,70.86,35.73c-2.65,16.5-39.09,21.38-26.21,47.13-16.31-6.17-19,14.7-5.11,25.18a26.45,26.45,0,0,0,18.9,5.36"/><path class="cls-2" d="M70.86,97.48c8.53-2.39,12-9.13,12.46-16.87C84.14,66,72.64,65.94,70.86,50.44,69.09,65.94,57.59,66,58.4,80.61,58.82,88.35,62.34,95.09,70.86,97.48Z"/><circle class="cls-2" cx="91.01" cy="75.42" r="4.56"/><circle class="cls-2" cx="85.31" cy="62.1" r="3.31"/><path class="cls-2" d="M78.49,108.91C103.5,105,102,87.11,102,87.11s-9.8,12.87-30.22,12"/><path class="cls-2" d="M70.86,97.48c3.65-7.12,4.94-22.84,0-22.84S67.22,90.36,70.86,97.48Z"/></g></svg>