<svg xmlns="http://www.w3.org/2000/svg" viewBox="0 0 141.73 141.73"><defs><style>.cls-1{fill:current;}.cls-2{fill:none;fill:current;stroke-linecap:round;stroke-linejoin:round;stroke-width:0.75px;}</style></defs><title>Artboard 17</title><g id="_17_fill" data-name="17 fill"><path class="cls-1" d="M122.12,107.93V56.05c0-10.58-5.37-22.25-16.25-22.25-5.5,0-10.81,5.44-18.62,13.25-4,4-7.1,9-16.37,10.25-5.5.54-8.21.67-16.37-6.87-7.81-7.81-13.12-13.25-18.62-13.25-8.25,0-16.25,8.29-16.25,20.46v50.29Z"/></g><g id="_17_stroke" data-name="17 stroke"><path class="cls-2" d="M39.8,107.93c-3.7-3.36-6.15-31.71-5-37a11.18,11.18,0,1,1,3.61.6c-1.27,10.14,1.79,32.93,6,36.44"/><circle class="cls-2" cx="54.98" cy="88.52" r="1.88"/><circle class="cls-2" cx="54.95" cy="96.81" r="3.67"/><circle class="cls-2" cx="27.28" cy="87.13" r="1.88"/><circle class="cls-2" cx="27.25" cy="96.36" r="3.67"/><path class="cls-2" d="M122.12,107.93V56.05c0-10.58-5.37-22.25-16.25-22.25-5.5,0-10.81,5.44-18.62,13.25-4,4-7.1,9-16.37,10.25-5.5.54-8.21.67-16.37-6.87-7.81-7.81-13.12-13.25-18.62-13.25-8.25,0-16.25,8.29-16.25,20.46v50.29Z"/><path class="cls-2" d="M100.87,107.93c3.7-3.36,7.75-27.56,6.05-39.81a11.18,11.18,0,1,0-3.61.6c1.06,9.82-3.86,35.71-8.07,39.21"/><circle class="cls-2" cx="84.84" cy="88.52" r="1.88"/><circle class="cls-2" cx="85.42" cy="96.36" r="3.67"/><circle class="cls-2" cx="114.45" cy="87.13" r="1.88"/><circle class="cls-2" cx="114.48" cy="96.36" r="3.67"/><path class="cls-2" d="M72.4,107.93c1.55-4.79,1.71-18.54,1.05-23.33a10.22,10.22,0,1,0-3.27-.08S71.36,98,67.82,107.93"/></g></svg>