<svg viewBox="0 0 140 140"><title>Artboard 32</title><g id="_32_fill" data-name="32 fill"><path class="cls-1" d="M70.86,118C77.22,95.2,119.09,97.2,119.09,72.2c.19-16.88-15.19-34.41-48.23-48.5-33,14.1-48.42,31.62-48.23,48.5C22.64,97.2,64.51,95.2,70.86,118Z"/></g><g id="_32_stroke" data-name="32 stroke"><path class="cls-2" d="M70.86,118C77.22,95.2,119.09,97.2,119.09,72.2c.19-16.88-15.19-34.41-48.23-48.5-33,14.1-48.42,31.62-48.23,48.5C22.64,97.2,64.51,95.2,70.86,118Z"/><path class="cls-2" d="M119.09,72.2S85,89.37,70.86,109.87C56.72,89.37,22.64,72.2,22.64,72.2"/><path class="cls-2" d="M111.22,76.53C116.39,61.87,96.89,41.2,70.86,30.7c-26,10.5-45.52,31.17-40.36,45.84"/><path class="cls-2" d="M93.88,43.86a40.05,40.05,0,0,1-46,0"/><path class="cls-2" d="M87.54,39.35c-3.27,3.27-10.36,5-16.68,5s-13.4-1.75-16.68-5"/><path class="cls-2" d="M79.2,50.22C95,67.53,75.31,74.38,70.86,87.55c-4.44-13.17-24.11-20-8.34-37.33"/><path class="cls-2" d="M85.23,48.45c16.6,19.19-5.53,26.62-14.37,47.94C62,75.07,39.9,67.64,56.5,48.45"/></g></svg>