<?xml version="1.0" encoding="UTF-8" standalone="no"?>
<!-- Created with Inkscape (http://www.inkscape.org/) -->

<svg
   width="150mm"
   height="150mm"
   viewBox="0 0 150 150"
   version="1.1"
   id="svg5"
   inkscape:version="1.2 (dc2aedaf03, 2022-05-15)"
   sodipodi:docname="112.svg"
   xmlns:inkscape="http://www.inkscape.org/namespaces/inkscape"
   xmlns:sodipodi="http://sodipodi.sourceforge.net/DTD/sodipodi-0.dtd"
   xmlns="http://www.w3.org/2000/svg"
   xmlns:svg="http://www.w3.org/2000/svg">
  <sodipodi:namedview
     id="namedview7"
     pagecolor="#ffffff"
     bordercolor="#000000"
     borderopacity="0.25"
     inkscape:showpageshadow="2"
     inkscape:pageopacity="0.0"
     inkscape:pagecheckerboard="0"
     inkscape:deskcolor="#d1d1d1"
     inkscape:document-units="mm"
     showgrid="true"
     inkscape:zoom="0.56252588"
     inkscape:cx="858.62717"
     inkscape:cy="352.87266"
     inkscape:window-width="1920"
     inkscape:window-height="1051"
     inkscape:window-x="-9"
     inkscape:window-y="1341"
     inkscape:window-maximized="1"
     inkscape:current-layer="layer1">
    <inkscape:grid
       type="xygrid"
       id="grid9"
       originx="74.999999"
       originy="74.999999"
       units="mm"
       spacingx="5"
       spacingy="5"
       empspacing="15" />
    <inkscape:grid
       type="xygrid"
       id="grid11"
       dotted="false"
       color="#db00e5"
       opacity="0.14901961"
       empcolor="#cb00e5"
       empopacity="0.30196078"
       spacingx="15"
       spacingy="15"
       empspacing="15"
       visible="true"
       units="mm" />
  </sodipodi:namedview>
  <defs
     id="defs2" />
  <g
     inkscape:label="Warstwa 1"
     inkscape:groupmode="layer"
     id="layer1">
    <path
       class="cls-2"
       d="m 57.729266,73.828641 c 0,0 -0.104592,-8.396778 -24.219012,-16.531156 1.452676,11.104738 -4.265056,29.472689 9.878196,36.463007"
       id="path18547"
       style="display:inline;fill:none;stroke:#000000;stroke-width:1.10444;stroke-opacity:1" />
    <path
       class="cls-2"
       d="m 56.35794,91.493362 c 0,0 -11.911942,-4.460788 -8.809026,-7.431148 3.102916,-2.97036 8.809026,7.431148 8.809026,7.431148 z"
       id="path18549"
       style="display:inline;fill:none;stroke:#000000;stroke-width:1.10444;stroke-opacity:1" />
    <path
       class="cls-2"
       d="m 20.912649,104.00456 c 0,0 20.174763,20.46715 45.439701,10.6744 -4.857748,-27.730354 -30.622407,-12.44822 -45.439701,-10.6744 z"
       id="path18563"
       style="display:inline;fill:none;stroke:#000000;stroke-width:1.10444;stroke-opacity:1" />
    <path
       class="cls-2"
       d="m 74.998677,117.04056 c 38.931713,-41.060245 0,-89.740563 0,-89.740563 0,0 -38.920092,48.690814 0,89.740563 z"
       id="path18585"
       style="display:inline;fill:none;stroke:#000000;stroke-width:1.10444;stroke-opacity:1" />
    <path
       class="cls-2"
       d="m 74.998677,111.08934 c 27.217333,-39.96866 0,-76.179763 0,-76.179763 0,0 -27.217335,36.211103 0,76.179763 z"
       id="path18587"
       style="display:inline;fill:none;stroke:#000000;stroke-width:1.10444;stroke-opacity:1" />
    <path
       class="cls-2"
       d="M 74.998677,117.04056 C 69.687981,111.56 65.610171,105.39954 62.540529,98.683103 45.875431,85.437186 15.008974,102.53512 15.008974,102.53512 c 0,0 23.53335,32.08619 59.989703,14.49494 C 111.46665,134.61081 135,102.53512 135,102.53512 c 0,0 -30.85483,-17.087438 -47.531553,-3.852017 -3.167167,7.138727 -7.50052,13.075727 -12.46977,18.357457 z"
       id="path18589"
       style="display:inline;fill:none;stroke:#000000;stroke-width:1.10444;stroke-opacity:1"
       sodipodi:nodetypes="ccccccc" />
    <path
       class="cls-2"
       d="m 92.27971,73.828641 c 0,0 0.104592,-8.396778 24.21901,-16.531156 -1.45267,11.104738 4.26506,29.472689 -9.87819,36.463007"
       id="path18591"
       style="display:inline;fill:none;stroke:#000000;stroke-width:1.10444;stroke-opacity:1" />
    <path
       class="cls-2"
       d="m 93.651036,91.493362 c 0,0 11.911944,-4.460788 8.809024,-7.431148 -3.102914,-2.97036 -8.809024,7.431148 -8.809024,7.431148 z"
       id="path18593"
       style="display:inline;fill:none;stroke:#000000;stroke-width:1.10444;stroke-opacity:1" />
    <path
       class="cls-2"
       d="m 129.09633,104.00456 c 0,0 -20.17477,20.46715 -45.439704,10.6744 4.857748,-27.730354 30.622404,-12.44822 45.439704,-10.6744 z"
       id="path18607"
       style="display:inline;fill:none;stroke:#000000;stroke-width:1.10444;stroke-opacity:1" />
    <path
       class="cls-2"
       d="m 74.998677,101.56721 c 17.204358,-29.968712 0,-57.119987 0,-57.119987 0,0 -17.204359,27.151275 0,57.119987 z"
       id="path20633"
       style="display:inline;fill:none;stroke:#000000;stroke-width:0.760349;stroke-opacity:1" />
    <path
       class="cls-2"
       d="m 28.287935,105.7617 c 0,0 13.543679,10.92214 30.504484,5.69631 -3.261093,-14.798082 -20.55737,-6.64289 -30.504484,-5.69631 z"
       id="path20635"
       style="display:inline;fill:none;stroke:#000000;stroke-width:0.661045;stroke-opacity:1" />
    <path
       class="cls-2"
       d="m 37.200173,107.00012 c 0,0 6.46494,4.19449 14.56101,2.18758 -1.55665,-5.68299 -9.812855,-2.5511 -14.56101,-2.18758 z"
       id="path20637"
       style="display:inline;fill:none;stroke:#000000;stroke-width:0.283029;stroke-opacity:1" />
    <path
       class="cls-2"
       d="m 120.25417,105.7617 c 0,0 -13.54375,10.92214 -30.504593,5.69631 3.261093,-14.798082 20.557423,-6.64289 30.504593,-5.69631 z"
       id="path20639"
       style="display:inline;fill:none;stroke:#000000;stroke-width:0.661045;stroke-opacity:1" />
    <path
       class="cls-2"
       d="m 111.34189,107.00012 c 0,0 -6.46498,4.19449 -14.561077,2.18758 1.55665,-5.68299 9.812887,-2.5511 14.561077,-2.18758 z"
       id="path20641"
       style="display:inline;fill:none;stroke:#000000;stroke-width:0.283029;stroke-opacity:1" />
    <path
       class="cls-2"
       d="m 74.998677,92.706433 c 8.909923,-20.662191 0,-39.381876 0,-39.381876 0,0 -8.909923,18.719685 0,39.381876 z"
       id="path20643"
       style="display:inline;fill:none;stroke:#000000;stroke-width:0.454344;stroke-opacity:1" />
    <path
       class="cls-2"
       d="m 54.889424,81.727408 c 0,0 -11.911942,-4.460788 -8.809026,-7.431148 3.102916,-2.97036 8.809026,7.431148 8.809026,7.431148 z"
       id="path20645"
       style="display:inline;fill:none;stroke:#000000;stroke-width:1.10444;stroke-opacity:1" />
    <path
       class="cls-2"
       d="m 95.113086,80.185411 c 0,0 11.911944,-4.460788 8.809024,-7.431148 -3.10291,-2.97036 -8.809024,7.431148 -8.809024,7.431148 z"
       id="path20647"
       style="display:inline;fill:none;stroke:#000000;stroke-width:1.10444;stroke-opacity:1" />
    <path
       class="cls-2"
       d="m 102.31902,81.37519 c 0,0 11.91195,-4.460788 8.80903,-7.431148 -3.10292,-2.97036 -8.80903,7.431148 -8.80903,7.431148 z"
       id="path20649"
       style="display:inline;fill:none;stroke:#000000;stroke-width:1.10444;stroke-opacity:1" />
    <path
       class="cls-2"
       d="m 103.78107,70.067239 c 0,0 11.91195,-4.460788 8.80903,-7.431148 -3.10291,-2.97036 -8.80903,7.431148 -8.80903,7.431148 z"
       id="path20651"
       style="display:inline;fill:none;stroke:#000000;stroke-width:1.10444;stroke-opacity:1" />
    <path
       class="cls-2"
       d="m 46.648467,81.727408 c 0,0 -11.911942,-4.460788 -8.809026,-7.431148 3.102916,-2.97036 8.809026,7.431148 8.809026,7.431148 z"
       id="path20653"
       style="display:inline;fill:none;stroke:#000000;stroke-width:1.10444;stroke-opacity:1" />
    <path
       class="cls-2"
       d="m 47.296619,71.432287 c 0,0 -11.911942,-4.460788 -8.809026,-7.431148 3.102916,-2.97036 8.809026,7.431148 8.809026,7.431148 z"
       id="path20655"
       style="display:inline;fill:none;stroke:#000000;stroke-width:1.10444;stroke-opacity:1" />
  </g>
</svg>
