<svg viewBox="0 0 147 147"><title>Artboard 12</title><g id="_12_fill" data-name="12 fill"><path class="cls-1" d="M98.06,88.93h0c12.17-6.65,7.25-24.15,8.5-34.74C85.82,61.94,85.73,69.94,85.73,69.94l0,.09C85.14,45.4,70.87,25.61,70.87,25.61S56.59,45.41,56,70l0-.11s-.09-8-20.84-15.75c1.25,10.58-3.67,28.08,8.5,34.74h0c-12.3.93-24.43,8.36-24.43,8.36s20.25,30.56,51.63,13.81c31.37,16.75,51.63-13.81,51.63-13.81S110.35,89.86,98.06,88.93Z"/></g><g id="_12_stroke" data-name="12 stroke"><path class="cls-2" d="M56,69.94s-.09-8-20.84-15.75c1.25,10.58-3.67,28.08,8.5,34.74"/><path class="cls-2" d="M54.82,86.77s-10.25-4.25-7.58-7.08S54.82,86.77,54.82,86.77Z"/><path class="cls-2" d="M51.67,81.64c-.86-4.37.16-7.47-.53-10.08C49.53,65.52,45.91,63,39,60.44c1.5,6.5-2.33,26.33,11.48,24.12"/><path class="cls-2" d="M39.48,67.53a9.26,9.26,0,0,0,4.87-4.71"/><path class="cls-2" d="M39.56,70a9.74,9.74,0,0,0,6.85,3.6c.28-2.78,1.25-6.78,0-9.38"/><path class="cls-2" d="M40.24,76.44a6.39,6.39,0,0,0,3.05-3.66"/><path class="cls-2" d="M46.74,71s2.88.15,3.56-1.81"/><path class="cls-2" d="M41.77,80.87s3.15-1.36,3.29-4.43c0,0,3.27.33,3.94-2.33a3.66,3.66,0,0,0,2.41,0"/><path class="cls-2" d="M24.32,98.69s17.36,19.5,39.1,10.17C59.24,82.44,37.07,97,24.32,98.69Z"/><path class="cls-2" d="M30.59,97.25s2.83,2.9-.43,6.54"/><path class="cls-2" d="M34.13,96.19a7.6,7.6,0,0,1-.92,9.65"/><path class="cls-2" d="M42.37,93.95c0,.58,0,6.4-6.92,7.07,0,0,8.73,1.35,7.84,9.26"/><path class="cls-2" d="M41.12,103.79a6.41,6.41,0,0,0,3.93-1.68s-2.73-3.1-4.81-3"/><path class="cls-2" d="M47.91,96.19a15.68,15.68,0,0,0-6.14.7c3.33.4,6.26,4.55,8.14,5.39-1.67.19-4,3.82-7,4.2a12.66,12.66,0,0,0,4.84,1.59"/><path class="cls-2" d="M52,93.48s1.71,5.61-2.13,8.81c0,0,4.74,2.13,1.49,9.1"/><path class="cls-2" d="M58.46,96.93s-.89,4.35-3.14,4.93c0,0,3.76,3.15,1.57,9"/><path class="cls-2" d="M62.62,105s-3.08,1.09-1.69,4.76"/><path class="cls-2" d="M67.32,56.8s-2.83,4.32-6.54,6.27"/><path class="cls-2" d="M62.7,66.83a15.55,15.55,0,0,1-.54,4"/><path class="cls-2" d="M70.86,111.11c33.5-39.12,0-85.5,0-85.5S37.37,72,70.86,111.11Z"/><path class="cls-2" d="M70.86,105.44c23.42-38.08,0-72.58,0-72.58S47.44,67.36,70.86,105.44Z"/><path class="cls-2" d="M81.59,93.62c14.35-12.61,40.9,3.67,40.9,3.67s-20.25,30.56-51.63,13.81C39.49,127.86,19.24,97.29,19.24,97.29S45.8,81,60.14,93.62"/><path class="cls-2" d="M85.73,69.94s.09-8,20.84-15.75c-1.25,10.58,3.67,28.08-8.5,34.74"/><path class="cls-2" d="M86.91,86.77s10.25-4.25,7.58-7.08S86.91,86.77,86.91,86.77Z"/><path class="cls-2" d="M90.06,81.64c.86-4.37-.16-7.47.53-10.08,1.61-6,5.23-8.56,12.15-11.12-1.5,6.5,2.33,26.33-11.48,24.12"/><path class="cls-2" d="M102.25,67.53a9.26,9.26,0,0,1-4.87-4.71"/><path class="cls-2" d="M102.17,70a9.74,9.74,0,0,1-6.85,3.6c-.28-2.78-1.25-6.78,0-9.38"/><path class="cls-2" d="M101.49,76.44a6.39,6.39,0,0,1-3.05-3.66"/><path class="cls-2" d="M95,71s-2.88.15-3.56-1.81"/><path class="cls-2" d="M100,80.87s-3.15-1.36-3.29-4.43c0,0-3.27.33-3.94-2.33a3.66,3.66,0,0,1-2.41,0"/><path class="cls-2" d="M117.41,98.69s-17.36,19.5-39.1,10.17C82.49,82.44,104.66,97,117.41,98.69Z"/><path class="cls-2" d="M111.14,97.25s-2.83,2.9.43,6.54"/><path class="cls-2" d="M107.6,96.19a7.6,7.6,0,0,0,.92,9.65"/><path class="cls-2" d="M99.36,93.95c0,.58,0,6.4,6.92,7.07,0,0-8.73,1.35-7.84,9.26"/><path class="cls-2" d="M100.61,103.79a6.41,6.41,0,0,1-3.93-1.68s2.73-3.1,4.81-3"/><path class="cls-2" d="M93.82,96.19a15.68,15.68,0,0,1,6.14.7c-3.33.4-6.26,4.55-8.14,5.39,1.67.19,4,3.82,7,4.2A12.66,12.66,0,0,1,94,108.07"/><path class="cls-2" d="M89.7,93.48s-1.71,5.61,2.13,8.81c0,0-4.74,2.13-1.49,9.1"/><path class="cls-2" d="M83.27,96.93s.89,4.35,3.14,4.93c0,0-3.76,3.15-1.57,9"/><path class="cls-2" d="M79.11,105s3.08,1.09,1.69,4.76"/><path class="cls-2" d="M75.53,41.9a9.95,9.95,0,0,1-9.34,0"/><path class="cls-2" d="M77.34,46.64c-2.54,1.91-6.49,1.73-6.49,1.73s-3.94.19-6.48-1.73"/><path class="cls-2" d="M73.22,48.23c.69,3.59-1.39,4.08-2.35,7.13-1-3-3-3.53-2.35-7.12"/><path class="cls-2" d="M77.34,46.64c1,9.07-4.77,11-6.48,14-1.71-3-7.47-5-6.49-14"/><path class="cls-2" d="M74.41,56.8s2.83,4.32,6.54,6.27"/><path class="cls-2" d="M81.26,68.36a29,29,0,0,1-6.52-5.53,4.89,4.89,0,0,1-7.75,0,29,29,0,0,1-6.52,5.53"/><path class="cls-2" d="M81.09,74.7c-6,2.13-6.33-5.66-6.35-11.87.2,10.55-1.54,11.95-3.88,11.95S66.79,73.37,67,62.82c0,6.21-.39,14-6.35,11.87"/><path class="cls-2" d="M79,66.83a15.55,15.55,0,0,0,.54,4"/><path class="cls-2" d="M80.41,80.33A10.86,10.86,0,0,1,79,75c.27,7.46-6.86,8.87-8.17,10.65C69.55,83.92,62.43,82.51,62.7,75a10.86,10.86,0,0,1-1.38,5.28"/><path class="cls-2" d="M73.34,73.55c2.81,3.77-1.43,5.34-2.48,6.78-1-1.43-5.29-3-2.48-6.78"/><path class="cls-2" d="M75.68,82.39c1.23,6.55-3.8,11.08-4.82,14.93-1-3.85-6.08-8.41-4.85-15"/><line class="cls-2" x1="70.87" y1="68.86" x2="70.87" y2="64.73"/><line class="cls-2" x1="70.86" y1="90.26" x2="70.86" y2="85.7"/></g></svg>