<svg xmlns="http://www.w3.org/2000/svg" viewBox="0 0 141.73 141.73"><defs><style>.cls-1{fill:current;}.cls-2{fill:none;fill:current;stroke-linecap:round;stroke-linejoin:round;stroke-width:0.75px;}</style></defs><title>Artboard 19</title><g id="_19_fill" data-name="19 fill"><path class="cls-1" d="M70.86,104.05c26.14,0,49,9.88,49,9.88,8-48.12-41.87-76.62-49-86.12-7.12,9.5-57,38-49,86.13C21.87,113.93,44.73,104.05,70.86,104.05Z"/></g><g id="_19_stroke" data-name="19 stroke"><path class="cls-2" d="M60.84,55.86C47.59,66.76,56,75.84,63,70.47"/><path class="cls-2" d="M58.81,65.53s2.85-5.39,4.85-7.3"/><path class="cls-2" d="M44.43,57.72c-1.3,3,3.25,10,9.94,6.38"/><path class="cls-2" d="M50.57,58.76a67.08,67.08,0,0,1,6-6.33"/><path class="cls-2" d="M49.66,74c-8.46,8.72.67,19.76.67,25,0,0,8.59-.54,10.29-7.83"/><path class="cls-2" d="M47.08,88.66c-5.33,7.15-14.3,7.77-14.3,7.77-.77-2.42-4.62-5.08-5.72-8"/><path class="cls-2" d="M57.48,96.14a17,17,0,0,1,2.89,3,28.61,28.61,0,0,1,3.59-3"/><path class="cls-2" d="M49,93.91c-1.56.4-4,2.52-4,2.52s-1.62-3.32-2.21-3.66"/><path class="cls-2" d="M57.91,104.81c-3.87.18-7.58-5.88-7.58-5.88-9.88,5-17.35-2.29-17.54-2.5,0,0-2.63,2.55-7.55,1.24"/><path class="cls-2" d="M37.51,99.48s-1.86,5.88.27,9.18"/><path class="cls-2" d="M34.22,97.62s-1.87,7.5.39,11.93"/><path class="cls-2" d="M26.38,97.91s-2.26,7.74,7.11,5.67"/><path class="cls-2" d="M29,111.27c-1.9-.37-4.56-5.09-.32-7.6"/><path class="cls-2" d="M40.31,108c-1.05-1.75-.41-4.54-.41-4.54A15,15,0,0,0,49,103s1.24,2.24,2.59,2.73"/><path class="cls-2" d="M42.53,68.79c-5,2.27-5,5.89-5.26,14.85,0,0,8.74-6.12,8.1-13.18"/><path class="cls-2" d="M52.84,76.69c-2.26,3.77.2,8,.74,12.77a15.55,15.55,0,0,0,3.53-11.61"/><path class="cls-2" d="M70.86,104.05c26.14,0,49,9.88,49,9.88,8-48.12-41.87-76.62-49-86.12-7.12,9.5-57,38-49,86.13C21.87,113.93,44.73,104.05,70.86,104.05Z"/><path class="cls-2" d="M116.5,112.45c5.13-44.12-36.52-70-45.64-79.15-9.11,9.13-50.76,35-45.64,79.15"/><path class="cls-2" d="M89.3,49.4c-6.12,4-18.44,15.15-18.44,15.15S58.55,53.38,52.43,49.4"/><path class="cls-2" d="M82.87,43.57c-3.37,2.2-8,6.35-12,9.85-4.06-3.5-8.64-7.66-12-9.85"/><path class="cls-2" d="M80.09,41.2a110.69,110.69,0,0,0-9.23,7.47,110.69,110.69,0,0,0-9.23-7.47"/><path class="cls-2" d="M75.62,60.34c7.87,13.54-1,16.54-4.76,16.54s-12.62-3-4.76-16.54"/><path class="cls-2" d="M80.89,55.86c13.26,10.89,4.81,20-2.15,14.61"/><path class="cls-2" d="M82.92,65.53s-2.85-5.39-4.85-7.3"/><path class="cls-2" d="M97.3,57.72c1.3,3-3.25,10-9.94,6.38"/><path class="cls-2" d="M91.16,58.76a67.08,67.08,0,0,0-6-6.33"/><path class="cls-2" d="M102,63.49c-.9,6.31-6.79,7.56-8.63,7.6-1.73,6.39-8,7-11.46,6.84-4,6.33-9.75,5.08-11,5.08s-7,1.25-11-5.08c-3.5.16-9.72-.45-11.46-6.84-1.83,0-7.72-1.29-8.63-7.6"/><path class="cls-2" d="M80.27,80c6.9,10.9-6.49,19.22-9.4,23.43C67.95,99.26,54.56,90.95,61.46,80"/><path class="cls-2" d="M92.07,74c8.46,8.72-.67,19.76-.67,25,0,0-8.59-.54-10.29-7.83"/><path class="cls-2" d="M94.65,88.66c5.33,7.15,14.3,7.77,14.3,7.77.77-2.42,4.62-5.08,5.72-8"/><path class="cls-2" d="M84.25,96.14a17,17,0,0,0-2.89,3,28.61,28.61,0,0,0-3.59-3"/><path class="cls-2" d="M92.75,93.91c1.56.4,4,2.52,4,2.52s1.62-3.32,2.21-3.66"/><path class="cls-2" d="M83.82,104.81c3.87.18,7.58-5.88,7.58-5.88,9.88,5,17.35-2.29,17.54-2.5,0,0,2.63,2.55,7.55,1.24"/><path class="cls-2" d="M104.22,99.48s1.86,5.88-.27,9.18"/><path class="cls-2" d="M107.51,97.62s1.87,7.5-.39,11.93"/><path class="cls-2" d="M115.35,97.91s2.26,7.74-7.11,5.67"/><path class="cls-2" d="M112.68,111.27c1.9-.37,4.56-5.09.32-7.6"/><path class="cls-2" d="M101.42,108c1.05-1.75.41-4.54.41-4.54a15,15,0,0,1-9.07-.5s-1.24,2.24-2.59,2.73"/><path class="cls-2" d="M99.2,68.79c5,2.27,5,5.89,5.26,14.85,0,0-8.74-6.12-8.1-13.18"/><path class="cls-2" d="M88.89,76.69c2.26,3.77-.2,8-.74,12.77a15.55,15.55,0,0,1-3.53-11.61"/><path class="cls-2" d="M73.75,83.08C75.91,89,71.9,91.14,70.86,95c-1-3.83-5-5.94-2.88-11.89"/><line class="cls-2" x1="70.87" y1="64.55" x2="70.87" y2="73.37"/></g></svg>