<svg viewBox="0 0 140 140"><title>Artboard 16</title><g id="_16_fill" data-name="16 fill"><path class="cls-1" d="M70.86,119.37c5.25-14.12,32.5-26.12,47.75-24.37,3.82-38.06-39.12-57.62-47.75-72.62C62.24,37.37,19.29,56.93,23.12,95,38.37,93.24,65.61,105.24,70.86,119.37Z"/></g><g id="_16_stroke" data-name="16 stroke"><path class="cls-2" d="M56,65.78c-.87,2.52,3.1,2.6,3.25,0a3.45,3.45,0,0,0-3.37-3.7c-2.28-.1-2.74,2-2.94,2.8-.84,6.48,8.41,6.82,9.6,20.32-5.27-14.68-20-12.58-26.29-14.33C38.62,77,31,94.52,40.09,97.08"/><path class="cls-2" d="M59,100c-4.62-7.29-18.75-1.29-17.28-21.14,0,0,9.7-.45,14.24,6.26C57.62,88,55.7,92.7,59,100Z"/><path class="cls-2" d="M70.86,119.37c5.25-14.12,32.5-26.12,47.75-24.37,3.82-38.06-39.12-57.62-47.75-72.62C62.24,37.37,19.29,56.93,23.12,95,38.37,93.24,65.61,105.24,70.86,119.37Z"/><path class="cls-2" d="M70.86,119.37C79.33,100.53,86.41,50,70.86,50S62.4,100.53,70.86,119.37Z"/><path class="cls-2" d="M93.92,72.67C102.66,57,73.41,44.11,70.86,36.28,68.32,44.11,39.07,57,47.81,72.67"/><path class="cls-2" d="M85.74,65.78c.88,2.52-3.1,2.6-3.25,0a3.45,3.45,0,0,1,3.37-3.7c2.28-.1,2.74,2,2.94,2.8.84,6.48-8.41,6.82-9.6,20.32,5.27-14.68,20-12.58,26.29-14.33-2.37,6.13,5.26,23.66-3.85,26.22"/><path class="cls-2" d="M82.74,100c4.62-7.29,18.75-1.29,17.28-21.14,0,0-9.7-.45-14.24,6.26C84.12,88,86,92.7,82.74,100Z"/></g></svg>