<svg viewBox=svg viewBox="0 0 140 140"><title>sine_art_2</title><g id="_2_fill" data-name="2 fill"><path class="cls-1" d="M70.86,123.95c35.36-34.8,38.9-70.13,0-106.17C32,53.82,35.5,89.15,70.86,123.95Z"/></g><g id="_2_stroke" data-name="2 stroke"><path class="cls-2" d="M70.86,123.95c35.36-34.8,38.9-70.13,0-106.17C32,53.82,35.5,89.15,70.86,123.95Z"/><path class="cls-2" d="M76.88,117.68a20.45,20.45,0,0,0,1.52-7.56C78.4,102.85,75,97,70.86,97s-7.53,5.89-7.53,13.17a20.45,20.45,0,0,0,1.52,7.56"/><path class="cls-2" d="M86.45,105.62a24.14,24.14,0,0,0,.15-2.69c0-10.73-7-19.43-15.74-19.43s-15.74,8.7-15.74,19.43a24.14,24.14,0,0,0,.15,2.69"/><path class="cls-2" d="M95.43,88.47c-3.26-12.93-13-22.32-24.57-22.32S49.56,75.54,46.3,88.47"/><path class="cls-2" d="M98.45,64.78C92,54.77,82,48.36,70.86,48.36S49.74,54.77,43.28,64.78"/><path class="cls-2" d="M90.07,40.75a27,27,0,0,0-19.21-8.45,27,27,0,0,0-19.21,8.45"/></g></svg>