<svg viewBox=svg viewBox="0 0 140 140"><title>Artboard 23</title><g id="_23_fill" data-name="23 fill"><path class="cls-1" d="M69.68,102.46c-13.87-.18-27.07-.25-36.37-3.24-12.68-4.08-20-12.65-14.4-24.4,6.93-10.92,18-9.58,28.31-1.15C54.78,79.86,62,90.91,69.68,102.46Z"/><circle class="cls-1" cx="44.12" cy="62.71" r="2.73"/><path class="cls-1" d="M72.05,102.46c13.87-.18,27.07-.25,36.37-3.24,12.68-4.08,20-12.65,14.4-24.4-6.93-10.92-18-9.58-28.31-1.15C87,79.86,79.73,90.91,72.05,102.46Z"/><circle class="cls-1" cx="97.61" cy="62.71" r="2.73"/><path class="cls-1" d="M70.86,99.15c8.34-11.28,17.54-21,19.8-32.24,2.76-13.71-2.25-25.78-19.8-27.64C53.31,41.12,48.3,53.2,51.06,66.91,53.32,78.13,62.53,87.87,70.86,99.15Z"/></g><g id="_23_stroke" data-name="23 stroke"><path class="cls-2" d="M63.12,98.89c-17-.31-48.06-2.94-40.7-22.16C34,60.28,53.63,84.77,63.12,98.89Z"/><path class="cls-2" d="M69.68,102.46c-13.87-.18-27.07-.25-36.37-3.24-12.68-4.08-20-12.65-14.4-24.4,6.93-10.92,18-9.58,28.31-1.15C54.78,79.86,62,90.91,69.68,102.46Z"/><circle class="cls-2" cx="44.12" cy="62.71" r="2.73"/><path class="cls-2" d="M78.61,98.89c17-.31,48.06-2.94,40.7-22.16C107.75,60.28,88.1,84.77,78.61,98.89Z"/><path class="cls-2" d="M72.05,102.46c13.87-.18,27.07-.25,36.37-3.24,12.68-4.08,20-12.65,14.4-24.4-6.93-10.92-18-9.58-28.31-1.15C87,79.86,79.73,90.91,72.05,102.46Z"/><circle class="cls-2" cx="97.61" cy="62.71" r="2.73"/><path class="cls-2" d="M70.86,99.15c8.34-11.28,17.54-21,19.8-32.24,2.76-13.71-2.25-25.78-19.8-27.64C53.31,41.12,48.3,53.2,51.06,66.91,53.32,78.13,62.53,87.87,70.86,99.15Z"/><path class="cls-2" d="M70.86,91.61c6.77-8.76,14.48-17.83,15.26-27.12.82-9.7-3.65-18.17-15.26-19.9-11.61,1.73-16.08,10.2-15.26,19.9C56.39,73.78,64.1,82.85,70.86,91.61Z"/></g></svg>