<?xml version="1.0" encoding="UTF-8" standalone="no"?>
<!-- Created with Inkscape (http://www.inkscape.org/) -->

<svg
   width="150mm"
   height="150mm"
   viewBox="0 0 150 150"
   version="1.1"
   id="svg5"
   inkscape:version="1.2 (dc2aedaf03, 2022-05-15)"
   sodipodi:docname="115.svg"
   xmlns:inkscape="http://www.inkscape.org/namespaces/inkscape"
   xmlns:sodipodi="http://sodipodi.sourceforge.net/DTD/sodipodi-0.dtd"
   xmlns="http://www.w3.org/2000/svg"
   xmlns:svg="http://www.w3.org/2000/svg">
  <sodipodi:namedview
     id="namedview7"
     pagecolor="#ffffff"
     bordercolor="#000000"
     borderopacity="0.25"
     inkscape:showpageshadow="2"
     inkscape:pageopacity="0.0"
     inkscape:pagecheckerboard="0"
     inkscape:deskcolor="#d1d1d1"
     inkscape:document-units="mm"
     showgrid="true"
     inkscape:zoom="1.5910634"
     inkscape:cx="354.47989"
     inkscape:cy="161.84144"
     inkscape:window-width="1920"
     inkscape:window-height="1051"
     inkscape:window-x="-9"
     inkscape:window-y="1341"
     inkscape:window-maximized="1"
     inkscape:current-layer="layer1">
    <inkscape:grid
       type="xygrid"
       id="grid9"
       originx="74.999999"
       originy="74.999999"
       units="mm"
       spacingx="5"
       spacingy="5"
       empspacing="15" />
    <inkscape:grid
       type="xygrid"
       id="grid11"
       dotted="false"
       color="#db00e5"
       opacity="0.14901961"
       empcolor="#cb00e5"
       empopacity="0.30196078"
       spacingx="15"
       spacingy="15"
       empspacing="15"
       visible="true"
       units="mm" />
  </sodipodi:namedview>
  <defs
     id="defs2" />
  <g
     inkscape:label="Warstwa 1"
     inkscape:groupmode="layer"
     id="layer1">
    <ellipse
       class="cls-1"
       cx="104.96024"
       cy="88.524757"
       id="circle15552"
       style="fill:none;stroke:#000000;stroke-width:0.91525;stroke-opacity:1"
       rx="2.4930446"
       ry="2.504241" />
    <ellipse
       class="cls-1"
       cx="99.429543"
       cy="67.904381"
       id="circle15556"
       style="fill:none;stroke:#000000;stroke-width:0.91525;stroke-opacity:1"
       rx="2.4930446"
       ry="2.504241" />
    <path
       class="cls-1"
       d="M 75.001359,101.33095 C 82.617473,90.983754 91.01894,82.067555 93.082781,71.757055 95.603221,59.18081 91.028072,48.108945 75.001359,46.402759 58.974643,48.099775 54.399497,59.18081 56.919938,71.757055 c 2.063838,10.292156 10.47444,19.226699 18.081421,29.573895 z"
       id="path15558"
       style="fill:none;stroke:#000000;stroke-width:0.91525;stroke-opacity:1" />
    <path
       class="cls-2"
       d="M 67.933167,101.09245 C 52.408713,100.80809 24.044626,98.395576 30.7658,80.764984 41.340692,65.675325 59.266869,88.140111 67.933167,101.09245 Z"
       id="path15561"
       style="fill:none;stroke:#000000;stroke-width:0.91525;stroke-opacity:1" />
    <path
       class="cls-2"
       d="M 73.923777,104.36723 C 61.257653,104.20213 49.203372,104.13789 40.710583,101.39516 29.131167,97.652558 22.44652,89.791259 27.560459,79.012933 c 6.328495,-10.016964 16.437655,-8.787779 25.852779,-1.054901 6.903815,5.678115 13.49714,15.81433 20.510539,26.409198 z"
       id="path15563"
       style="fill:none;stroke:#000000;stroke-width:0.91525;stroke-opacity:1" />
    <ellipse
       class="cls-2"
       cx="45.09462"
       cy="88.358467"
       id="circle15565"
       style="fill:none;stroke:#000000;stroke-width:0.91525;stroke-opacity:1"
       rx="2.4930446"
       ry="2.504241" />
    <path
       class="cls-2"
       d="M 82.078684,101.09245 C 97.603135,100.80809 125.96722,98.395576 119.24605,80.764984 108.68942,65.675325 90.744979,88.140111 82.078684,101.09245 Z"
       id="path15567"
       style="fill:none;stroke:#000000;stroke-width:0.91525;stroke-opacity:1" />
    <path
       class="cls-2"
       d="m 76.08807,104.36723 c 12.666128,-0.1651 24.72041,-0.22934 33.2132,-2.97207 11.57941,-3.742602 18.26406,-11.603901 13.15012,-22.382227 -6.3285,-10.016964 -16.43765,-8.787779 -25.852777,-1.054901 -6.858155,5.678115 -13.497143,15.81433 -20.510543,26.409198 z"
       id="path15569"
       style="fill:none;stroke:#000000;stroke-width:0.91525;stroke-opacity:1" />
    <ellipse
       class="cls-2"
       cx="74.984413"
       cy="69.899902"
       id="circle15571"
       style="fill:none;stroke:#000000;stroke-width:0.91525;stroke-opacity:1"
       rx="2.4930446"
       ry="2.504241" />
    <path
       class="cls-2"
       d="M 75.001359,101.33095 C 82.617473,90.983754 91.01894,82.067555 93.082781,71.757055 95.603221,59.18081 91.028072,48.108945 75.001359,46.402759 58.974643,48.099775 54.399497,59.18081 56.919938,71.757055 c 2.063838,10.292156 10.47444,19.226699 18.081421,29.573895 z"
       id="path15573"
       style="fill:none;stroke:#000000;stroke-width:0.91525;stroke-opacity:1" />
    <path
       class="cls-2"
       d="M 75.001359,94.414473 C 81.183744,86.378887 88.224538,78.058935 88.936836,69.537178 89.685665,60.639326 85.603646,52.869757 75.001359,51.282821 64.39907,52.869757 60.317053,60.639326 61.065879,69.537178 c 0.721431,8.521757 7.762225,16.841709 13.93548,24.877295 z"
       id="path15575"
       style="fill:none;stroke:#000000;stroke-width:0.91525;stroke-opacity:1" />
    <path
       class="cls-2"
       d="M 75.001359,88.641305 C 79.262061,82.771309 84.114351,76.693584 84.605244,70.46844 85.121313,63.968558 82.308116,58.292888 75.001359,57.133631 67.6946,58.292888 64.881404,63.968558 65.397471,70.46844 c 0.497187,6.225144 5.349477,12.302869 9.603888,18.172865 z"
       id="path16169"
       style="fill:none;stroke:#000000;stroke-width:0.6494;stroke-opacity:1" />
    <path
       class="cls-2"
       d="M 61.463615,97.731862 C 50.388441,97.522931 30.153448,95.750354 34.948346,82.796404 42.492494,71.709387 55.281062,88.215225 61.463615,97.731862 Z"
       id="path16180"
       style="fill:none;stroke:#000000;stroke-width:0.662635;stroke-opacity:1" />
    <path
       class="cls-2"
       d="M 89.551442,97.731862 C 100.62662,97.522931 120.86173,95.750354 116.0668,82.796404 108.52261,71.709387 95.733995,88.215225 89.551442,97.731862 Z"
       id="path16182"
       style="fill:none;stroke:#000000;stroke-width:0.662635;stroke-opacity:1" />
    <ellipse
       class="cls-1"
       cx="45.716778"
       cy="67.904381"
       id="ellipse16184"
       style="fill:none;stroke:#000000;stroke-width:0.91525;stroke-opacity:1"
       rx="2.4930446"
       ry="2.504241" />
  </g>
</svg>
