<svg xmlns="http://www.w3.org/2000/svg" viewBox="0 0 141.73 141.73"><defs><style>.cls-1{fill:current;}.cls-2{fill:none;fill:current;stroke-linecap:round;stroke-linejoin:round;stroke-width:0.75px;}</style></defs><title>Artboard 20</title><g id="_20_fill" data-name="20 fill"><path class="cls-1" d="M122.53,126.47c9.86-63-30-91.63-51.67-111.21C49.24,34.84,9.34,63.46,19.2,126.47Z"/></g><g id="_20_stroke" data-name="20 stroke"><path class="cls-2" d="M53.11,103.11C41.35,93.66,34,107.25,23.5,115.77a43.45,43.45,0,0,0,11.19,10.7"/><path class="cls-2" d="M40.56,101.06C30,98.28,33.8,87.71,30.43,75.73c9.77-4.85,12.43-16.25,23.39-10.92"/><path class="cls-2" d="M49.34,63.46c-.44-1.7.8-6.55.8-6.55s4.13,1.08,5,1.78"/><path class="cls-2" d="M34.27,96.49c-1.75,1.05-3.84,4.19-3.84,4.19s2.91,4,4.61,4.26"/><path class="cls-2" d="M61,86c-4.39-8.89-11.24-4.88-20.9-5.56,0,0,4.35,14,17.16,12.21"/><path class="cls-2" d="M51.58,111.15c-9.14-4.4-12.14,2.37-17.4,6.06,0,0,11.17,8.14,17.74,2.8"/><path class="cls-2" d="M122.53,126.47c9.86-63-30-91.63-51.67-111.21C49.24,34.84,9.34,63.46,19.2,126.47Z"/><path class="cls-2" d="M87.91,126.47c10.52-24.77-17-53.54-17-53.54s-27.56,28.77-17,53.54"/><path class="cls-2" d="M77.25,126.47c7.33-14.58-3.59-23.17-6.39-30.63-2.8,7.46-13.71,16-6.39,30.63"/><path class="cls-2" d="M77.45,81.07c25-8.73-2.05-43.7-6.58-54.81-4.53,11.11-31.59,46.08-6.58,54.81"/><path class="cls-2" d="M88.62,103.11c11.76-9.45,19.13,4.14,29.6,12.66A43.45,43.45,0,0,1,107,126.47"/><path class="cls-2" d="M101.17,101.06c10.58-2.78,6.76-13.35,10.14-25.33-9.77-4.85-12.43-16.25-23.39-10.92"/><path class="cls-2" d="M92.39,63.46c.44-1.7-.8-6.55-.8-6.55s-4.13,1.08-5,1.78"/><path class="cls-2" d="M107.46,96.49c1.75,1.05,3.84,4.19,3.84,4.19s-2.91,4-4.61,4.26"/><path class="cls-2" d="M73.43,75.86c10.8-6.79,0-18.25-2.56-26.55-2.57,8.3-13.36,19.76-2.56,26.55"/><path class="cls-2" d="M80.72,86c4.39-8.89,11.24-4.88,20.9-5.56,0,0-4.35,14-17.16,12.21"/><path class="cls-2" d="M90.15,111.15c9.14-4.4,12.14,2.37,17.4,6.06,0,0-11.17,8.14-17.74,2.8"/></g></svg>