<?xml version="1.0" encoding="UTF-8" standalone="no"?>
<!-- Created with Inkscape (http://www.inkscape.org/) -->

<svg
   width="150mm"
   height="150mm"
   viewBox="0 0 150 150"
   version="1.1"
   id="svg5"
   inkscape:version="1.2 (dc2aedaf03, 2022-05-15)"
   sodipodi:docname="116.svg"
   xmlns:inkscape="http://www.inkscape.org/namespaces/inkscape"
   xmlns:sodipodi="http://sodipodi.sourceforge.net/DTD/sodipodi-0.dtd"
   xmlns="http://www.w3.org/2000/svg"
   xmlns:svg="http://www.w3.org/2000/svg">
  <sodipodi:namedview
     id="namedview7"
     pagecolor="#ffffff"
     bordercolor="#000000"
     borderopacity="0.25"
     inkscape:showpageshadow="2"
     inkscape:pageopacity="0.0"
     inkscape:pagecheckerboard="0"
     inkscape:deskcolor="#d1d1d1"
     inkscape:document-units="mm"
     showgrid="true"
     inkscape:zoom="0.28126294"
     inkscape:cx="-696.85683"
     inkscape:cy="-858.62717"
     inkscape:window-width="1920"
     inkscape:window-height="1051"
     inkscape:window-x="-9"
     inkscape:window-y="1341"
     inkscape:window-maximized="1"
     inkscape:current-layer="layer1">
    <inkscape:grid
       type="xygrid"
       id="grid9"
       originx="74.999999"
       originy="74.999999"
       units="mm"
       spacingx="5"
       spacingy="5"
       empspacing="15" />
    <inkscape:grid
       type="xygrid"
       id="grid11"
       dotted="false"
       color="#db00e5"
       opacity="0.14901961"
       empcolor="#cb00e5"
       empopacity="0.30196078"
       spacingx="15"
       spacingy="15"
       empspacing="15"
       visible="true"
       units="mm" />
  </sodipodi:namedview>
  <defs
     id="defs2" />
  <g
     inkscape:label="Warstwa 1"
     inkscape:groupmode="layer"
     id="layer1">
    <path
       class="cls-1"
       d="M 101.52684,59.66934 82.659428,61.718417 75.000249,44.346944 67.354117,61.718417 48.486701,59.66934 59.694939,74.991737 48.486701,90.301082 67.354117,88.21285 75.013297,105.58432 82.659428,88.21285 101.52684,90.301082 90.318608,74.978685 Z M 89.431343,83.305507 79.17561,82.196134 l -4.162313,9.436195 -4.162313,-9.436195 -10.255733,1.109373 6.093419,-8.326822 -6.093419,-8.326822 10.255733,1.109374 4.162313,-9.436195 4.162313,9.436195 10.255733,-1.109374 -6.093419,8.326822 z"
       id="path14414"
       style="fill:none;stroke:#000000;stroke-width:1.30498;stroke-opacity:1" />
    <path
       class="cls-2"
       d="m 47.116661,74.991737 c -3.810017,3.380324 -12.199885,4.685468 -12.199885,0 0,-4.685469 8.389868,-3.393376 12.199885,0 z"
       id="path14427"
       style="fill:none;stroke:#000000;stroke-width:1.30498;stroke-opacity:1" />
    <path
       class="cls-2"
       d="m 61.482515,98.171105 c 1.030792,4.985655 -2.048536,12.920925 -6.106466,10.571665 -4.05793,-2.34926 1.265656,-8.966337 6.106466,-10.571665 z"
       id="path14433"
       style="fill:none;stroke:#000000;stroke-width:1.30498;stroke-opacity:1" />
    <path
       class="cls-2"
       d="m 61.482515,51.799319 c 1.030792,-4.985652 -2.048536,-12.92093 -6.106466,-10.57167 -4.05793,2.34926 1.265656,8.966343 6.106466,10.57167 z"
       id="path14439"
       style="fill:none;stroke:#000000;stroke-width:1.30498;stroke-opacity:1" />
    <polygon
       class="cls-2"
       points="67.67,76.39 70.86,83.63 74.06,76.39 81.92,77.25 77.25,70.86 81.92,64.48 74.06,65.34 70.86,58.1 67.67,65.34 59.81,64.48 64.48,70.86 59.81,77.25 "
       id="polygon14441"
       style="fill:none;stroke:#000000;stroke-opacity:1"
       transform="matrix(1.3048005,0,0,1.3051445,-17.457918,-17.503853)" />
    <polygon
       class="cls-2"
       points="67.67,76.39 70.86,83.63 74.06,76.39 81.92,77.25 77.25,70.86 81.92,64.48 74.06,65.34 70.86,58.1 67.67,65.34 59.81,64.48 64.48,70.86 59.81,77.25 "
       id="polygon15502"
       style="fill:none;stroke:#000000;stroke-opacity:1"
       transform="matrix(0.62736788,0,0,0.59470157,30.554034,32.865729)" />
    <polygon
       class="cls-2"
       points="65,81.03 70.86,94.34 76.73,81.03 91.19,82.6 82.6,70.86 91.19,59.13 76.73,60.7 70.86,47.39 65,60.7 50.54,59.13 59.13,70.86 50.54,82.6 "
       id="polygon14443"
       style="fill:none;stroke:#000000;stroke-opacity:1"
       transform="matrix(1.3048005,0,0,1.3051445,-17.457918,-17.503853)" />
    <path
       class="cls-2"
       d="m 102.89689,74.991737 c 3.81001,3.380324 12.19988,4.685468 12.19988,0 0,-4.685469 -8.38987,-3.393376 -12.19988,0 z"
       id="path14449"
       style="fill:none;stroke:#000000;stroke-width:1.30498;stroke-opacity:1" />
    <path
       class="cls-2"
       d="m 88.531031,98.171105 c -1.030793,4.985655 2.048537,12.920925 6.106466,10.571665 4.057928,-2.34926 -1.265657,-8.966337 -6.106466,-10.571665 z"
       id="path14455"
       style="fill:none;stroke:#000000;stroke-width:1.30498;stroke-opacity:1" />
    <path
       class="cls-2"
       d="m 88.531031,51.799319 c -1.030793,-4.985652 2.048537,-12.92093 6.106466,-10.57167 4.057928,2.34926 -1.265657,8.966343 -6.106466,10.57167 z"
       id="path14461"
       style="fill:none;stroke:#000000;stroke-width:1.30498;stroke-opacity:1" />
    <path
       class="cls-2"
       d="m 38.068879,54.940447 c -7.666571,1.744297 -19.788721,-2.556965 -16.155414,-8.771906 3.633307,-6.214942 13.741451,1.531371 16.155414,8.771906 z"
       id="path15514"
       style="fill:none;stroke:#000000;stroke-width:1.98513;stroke-opacity:1" />
    <path
       class="cls-2"
       d="M 39.118284,96.015501 C 36.617206,103.36977 26.386136,111.68126 22.834225,105.64742 19.282321,99.613587 31.463116,94.664237 39.118284,96.015501 Z"
       id="path15516"
       style="fill:none;stroke:#000000;stroke-width:1.98513;stroke-opacity:1" />
    <path
       class="cls-2"
       d="m 75.076891,34.506621 c 5.231085,-5.871957 7.3067,-18.611626 0.111366,-18.413213 -7.195333,0.198413 -5.276858,12.803244 -0.111366,18.413213 z"
       id="path15518"
       style="fill:none;stroke:#000000;stroke-width:1.98513;stroke-opacity:1" />
    <path
       class="cls-2"
       d="m 111.93455,95.047292 c 2.42407,7.223218 12.52211,14.986848 16.15541,8.771898 3.63331,-6.214942 -8.47872,-10.533516 -16.15541,-8.771898 z"
       id="path15520"
       style="fill:none;stroke:#000000;stroke-width:1.98513;stroke-opacity:1" />
    <path
       class="cls-2"
       d="m 74.936652,115.4638 c -5.231082,5.87195 -7.306692,18.61162 -0.111364,18.41321 7.195332,-0.19841 5.276856,-12.80324 0.111364,-18.41321 z"
       id="path15522"
       style="fill:none;stroke:#000000;stroke-width:1.98513;stroke-opacity:1" />
    <path
       class="cls-2"
       d="m 110.89526,53.954922 c 2.50108,-7.354269 12.73215,-15.665767 16.28406,-9.631927 3.55191,6.033841 -8.6289,10.98319 -16.28406,9.631927 z"
       id="path15524"
       style="fill:none;stroke:#000000;stroke-width:1.98513;stroke-opacity:1" />
  </g>
</svg>
