<?xml version="1.0" encoding="UTF-8" standalone="no"?>
<!-- Created with Inkscape (http://www.inkscape.org/) -->

<svg
   width="150mm"
   height="150mm"
   viewBox="0 0 150 150"
   version="1.1"
   id="svg5"
   inkscape:version="1.2 (dc2aedaf03, 2022-05-15)"
   sodipodi:docname="117.svg"
   xmlns:inkscape="http://www.inkscape.org/namespaces/inkscape"
   xmlns:sodipodi="http://sodipodi.sourceforge.net/DTD/sodipodi-0.dtd"
   xmlns="http://www.w3.org/2000/svg"
   xmlns:svg="http://www.w3.org/2000/svg">
  <sodipodi:namedview
     id="namedview7"
     pagecolor="#ffffff"
     bordercolor="#000000"
     borderopacity="0.25"
     inkscape:showpageshadow="2"
     inkscape:pageopacity="0.0"
     inkscape:pagecheckerboard="0"
     inkscape:deskcolor="#d1d1d1"
     inkscape:document-units="mm"
     showgrid="true"
     inkscape:zoom="1.5910634"
     inkscape:cx="365.16457"
     inkscape:cy="276.5446"
     inkscape:window-width="1920"
     inkscape:window-height="1051"
     inkscape:window-x="-9"
     inkscape:window-y="1341"
     inkscape:window-maximized="1"
     inkscape:current-layer="layer1">
    <inkscape:grid
       type="xygrid"
       id="grid9"
       originx="74.999999"
       originy="74.999999"
       units="mm"
       spacingx="5"
       spacingy="5"
       empspacing="15" />
    <inkscape:grid
       type="xygrid"
       id="grid11"
       dotted="false"
       color="#db00e5"
       opacity="0.14901961"
       empcolor="#cb00e5"
       empopacity="0.30196078"
       spacingx="15"
       spacingy="15"
       empspacing="15"
       visible="true"
       units="mm" />
  </sodipodi:namedview>
  <defs
     id="defs2" />
  <g
     inkscape:label="Warstwa 1"
     inkscape:groupmode="layer"
     id="layer1">
    <polygon
       class="cls-1"
       points="70.86,15.06 29.67,70.86 70.86,126.67 112.06,70.86 "
       id="polygon12325"
       style="fill:none;stroke:#000000;stroke-opacity:1"
       transform="matrix(0.84961768,0,0,1.0751725,14.791842,-1.1920969)" />
    <polygon
       class="cls-2"
       points="70.86,15.06 29.67,70.86 70.86,126.67 112.06,70.86 "
       id="polygon12334"
       style="fill:none;stroke:#000000;stroke-opacity:1"
       transform="matrix(0.84961768,0,0,1.0751725,14.791842,-1.1920969)" />
    <polygon
       class="cls-2"
       points="70.86,25.11 37.09,70.86 70.86,116.62 104.64,70.86 "
       id="polygon12336"
       style="fill:none;stroke:#000000;stroke-opacity:1"
       transform="matrix(0.84961768,0,0,1.0751725,14.791842,-1.1920969)" />
    <path
       style="fill:none;fill-rule:evenodd;stroke:#000000;stroke-width:0.264583;stroke-opacity:1"
       d="M 74.999997,34.999998 79.999998,44.999999 75,54.999998 69.999999,44.999999 74.999997,34.999998"
       id="path13290" />
    <path
       style="fill:none;fill-rule:evenodd;stroke:#000000;stroke-width:0.264583;stroke-opacity:1"
       d="M 74.999997,115 79.999998,105 75,94.999997 69.999999,105 Z"
       id="path13292" />
    <path
       style="fill:none;fill-rule:evenodd;stroke:#000000;stroke-width:0.264583;stroke-opacity:1"
       d="M 49.999997,75 59.999998,59.999998 69.999999,75 59.999998,89.999999 Z"
       id="path13294" />
    <path
       style="fill:none;fill-rule:evenodd;stroke:#000000;stroke-width:0.264583;stroke-opacity:1"
       d="M 99.999997,74.999997 89.999999,59.999998 79.999998,75 89.999999,89.999999 99.999997,74.999997"
       id="path13296" />
    <path
       style="fill:none;fill-rule:evenodd;stroke:#000000;stroke-width:0.264583;stroke-opacity:1"
       d="M 64.999999,54.999998 75,69.999999 l -3e-6,9.999999 10.000001,14.999999"
       id="path13298" />
    <path
       style="fill:none;fill-rule:evenodd;stroke:#000000;stroke-width:0.264583;stroke-opacity:1"
       d="M 84.999998,54.999998 75,69.999999 l -3e-6,9.999999 -9.999998,14.999999"
       id="path13300" />
  </g>
</svg>
