<svg viewBox="0 0 147 147"><title>Artboard 28</title><g id="_28_fill" data-name="28 fill"><polygon class="cls-1" points="70.86 126.67 112.06 70.86 70.86 15.06 29.67 70.86 70.86 126.67"/></g><g id="_28_stroke" data-name="28 stroke"><circle class="cls-2" cx="70.86" cy="37.75" r="4.76"/><circle class="cls-2" cx="47.94" cy="70.87" r="5.24"/><path class="cls-3" d="M55.57,90.31l-2.39-3.26c15-17.38,0-32.4,0-32.4l2.41-3.24S74.53,69.51,55.57,90.31Z"/><polygon class="cls-2" points="70.86 126.67 112.06 70.86 70.86 15.06 29.67 70.86 70.86 126.67"/><polygon class="cls-2" points="70.86 116.62 104.64 70.86 70.86 25.11 37.09 70.86 70.86 116.62"/><circle class="cls-2" cx="93.79" cy="70.87" r="5.24"/><path class="cls-3" d="M86.16,90.31l2.39-3.26c-15-17.38,0-32.4,0-32.4l-2.41-3.24S67.2,69.51,86.16,90.31Z"/><path class="cls-2" d="M58.15,47.74l2.35-3.27c8.65,5,16.18,3,21.23.51l2.46,3.25C78.12,51.54,68.81,54.22,58.15,47.74Z"/><circle class="cls-2" cx="70.86" cy="103.98" r="4.76"/><path class="cls-2" d="M58.15,94l2.35,3.27c8.65-5,16.18-3,21.23-.51l2.46-3.25C78.12,90.19,68.81,87.51,58.15,94Z"/></g></svg>