<svg xmlns="http://www.w3.org/2000/svg" viewBox="0 0 141.73 141.73"><defs><style>.cls-1{fill:current;}.cls-2{fill:none;fill:current;stroke-linecap:round;stroke-linejoin:round;stroke-width:0.75px;}</style></defs><title>Artboard 6</title><g id="_6_fill" data-name="6 fill"><path class="cls-1" d="M70.86,19.65s56.95,36.54,51.28,102.43H19.59C13.92,56.19,70.86,19.65,70.86,19.65Z"/></g><g id="_6_stroke" data-name="6 stroke"><path class="cls-2" d="M61.07,52.79c-4.55-3.5-10.63-3.63-13,1.09C44.58,60.94,47.5,79.59,58.54,116"/><path class="cls-2" d="M47.62,72.42C40.27,67.76,28.25,75,48.71,116"/><path class="cls-2" d="M38.44,89.39c-6.22-1.78-14.64,6,2.57,26.61"/><path class="cls-2" d="M33.64,105.48c-1.59-.37-8.06,1.58-3.05,10.52"/><path class="cls-2" d="M70.86,19.65s56.95,36.54,51.28,102.43H19.59C13.92,56.19,70.86,19.65,70.86,19.65Z"/><path class="cls-2" d="M70.86,27.63c-.1-.54,49,32.85,45.06,88.37H25.8C21.84,60.48,71,27.09,70.86,27.63Z"/><path class="cls-2" d="M76.81,116c3.44-29.08,10.42-78.81-5.95-78.81S61.48,86.92,64.92,116"/><path class="cls-2" d="M80.66,52.79c4.55-3.5,10.63-3.63,13,1.09,3.49,7.06.57,25.71-10.47,62.12"/><path class="cls-2" d="M94.11,72.42C101.46,67.76,113.48,75,93,116"/><path class="cls-2" d="M103.29,89.39c6.22-1.78,14.64,6-2.57,26.61"/><path class="cls-2" d="M108.09,105.48c1.59-.37,8.06,1.58,3.05,10.52"/></g></svg>