<?xml version="1.0" encoding="UTF-8" standalone="no"?>
<!-- Created with Inkscape (http://www.inkscape.org/) -->

<svg
   width="150mm"
   height="150mm"
   viewBox="0 0 150 150"
   version="1.1"
   id="svg5"
   inkscape:version="1.2 (dc2aedaf03, 2022-05-15)"
   sodipodi:docname="120.svg"
   xmlns:inkscape="http://www.inkscape.org/namespaces/inkscape"
   xmlns:sodipodi="http://sodipodi.sourceforge.net/DTD/sodipodi-0.dtd"
   xmlns="http://www.w3.org/2000/svg"
   xmlns:svg="http://www.w3.org/2000/svg">
  <sodipodi:namedview
     id="namedview7"
     pagecolor="#ffffff"
     bordercolor="#000000"
     borderopacity="0.25"
     inkscape:showpageshadow="2"
     inkscape:pageopacity="0.0"
     inkscape:pagecheckerboard="0"
     inkscape:deskcolor="#d1d1d1"
     inkscape:document-units="mm"
     showgrid="true"
     inkscape:zoom="1.5910634"
     inkscape:cx="242.60503"
     inkscape:cy="305.14182"
     inkscape:window-width="1920"
     inkscape:window-height="1051"
     inkscape:window-x="-9"
     inkscape:window-y="1341"
     inkscape:window-maximized="1"
     inkscape:current-layer="layer1">
    <inkscape:grid
       type="xygrid"
       id="grid9"
       originx="74.999999"
       originy="74.999999"
       units="mm"
       spacingx="5"
       spacingy="5"
       empspacing="15" />
    <inkscape:grid
       type="xygrid"
       id="grid11"
       dotted="false"
       color="#db00e5"
       opacity="0.14901961"
       empcolor="#cb00e5"
       empopacity="0.30196078"
       spacingx="15"
       spacingy="15"
       empspacing="15"
       visible="true"
       units="mm" />
  </sodipodi:namedview>
  <defs
     id="defs2" />
  <g
     inkscape:label="Warstwa 1"
     inkscape:groupmode="layer"
     id="layer1">
    <path
       class="cls-2"
       d="m 75.000003,125.62033 c 26.755897,-37.591101 26.913947,-101.567069 0,-101.567069 -26.913952,0 -26.755901,63.975968 0,101.567069 z"
       id="path5343"
       style="display:inline;fill:none;stroke:#000000;stroke-width:1.12873;stroke-opacity:1" />
    <path
       class="cls-2"
       d="M 75.000003,125.62033 C 47.657053,101.07495 14.262979,57.581679 34.956467,40.845682 c 10.724939,-7.594959 19.745177,-0.485264 21.720824,2.764882 -5.022026,23.034957 0.733802,57.414896 18.322712,82.009766 m 0,0 C 102.33166,101.07495 135.72574,57.581679 115.02096,40.834398 104.30731,33.239438 95.287072,40.349132 93.300136,43.599279 98.649103,78.143502 89.266835,103.41863 75.000003,125.62033 Z"
       id="path5345"
       style="display:inline;fill:none;stroke:#000000;stroke-width:1.12873;stroke-opacity:1"
       sodipodi:nodetypes="cccccccc" />
    <path
       class="cls-2"
       d="M 74.988713,125.62033 C 104.07023,114.3351 144.39601,96.504436 132.20344,76.349016 127.51834,69.284462 120.23666,69.634305 117.45947,71.541508 110.80615,86.433365 99.085844,103.44182 74.988713,125.62033 Z m 0,0 C 45.918484,114.34638 5.5927129,96.560863 17.785275,76.349016 c 4.696395,-7.041984 11.978063,-6.771138 14.74397,-4.807508 9.784861,20.981297 25.180064,38.167362 42.459468,54.078822 z"
       id="path5347"
       style="display:inline;fill:none;stroke:#000000;stroke-width:1.12873;stroke-opacity:1"
       sodipodi:nodetypes="cccccccc" />
    <path
       class="cls-2"
       d="m 74.988713,125.62033 c 14.111763,0.98182 60.737027,0.20313 57.214727,-18.98176 -1.07249,-4.63823 -6.11886,-5.91346 -9.50568,-4.97679 -18.63609,12.72571 -33.171041,18.33948 -47.709047,23.95855 z m 0,0 c -14.111761,0.98182 -60.725734,0.24827 -57.214727,-18.98176 1.061204,-4.63823 6.130149,-5.91346 9.505683,-4.97679 15.072664,10.33787 31.096002,17.98328 47.709044,23.95855 z"
       id="path5349"
       style="display:inline;fill:none;stroke:#000000;stroke-width:1.12873;stroke-opacity:1"
       sodipodi:nodetypes="cccccccc" />
  </g>
</svg>
