<svg xmlns="http://www.w3.org/2000/svg" viewBox="0 0 141.73 141.73"><defs><style>.cls-1{fill:current;}.cls-2{fill:none;fill:current;stroke-linecap:round;stroke-linejoin:round;stroke-width:0.75px;}</style></defs><title>Artboard 7</title><g id="_7_fill" data-name="7 fill"><path class="cls-1" d="M125.31,117.24c5.92-50.66-44.42-80.16-54.45-92.75-10,12.58-60.36,42.08-54.45,92.75Z"/></g><g id="_7_stroke" data-name="7 stroke"><line class="cls-2" x1="32.24" y1="111.85" x2="41.21" y2="112.05"/><line class="cls-2" x1="32.07" y1="106.37" x2="40.86" y2="107.89"/><line class="cls-2" x1="32.94" y1="99.71" x2="41.43" y2="101.8"/><line class="cls-2" x1="34.43" y1="94.32" x2="42.76" y2="96.91"/><line class="cls-2" x1="37.19" y1="87.99" x2="44.49" y2="92.41"/><line class="cls-2" x1="39.97" y1="82.27" x2="46.99" y2="87.53"/><line class="cls-2" x1="43.34" y1="76.87" x2="49.99" y2="82.72"/><line class="cls-2" x1="46.66" y1="72.19" x2="52.98" y2="78.55"/><line class="cls-2" x1="49.63" y1="68.38" x2="56.03" y2="74.85"/><line class="cls-2" x1="52.86" y1="64.51" x2="59.21" y2="71.03"/><line class="cls-2" x1="56.53" y1="60.4" x2="62.42" y2="67.53"/><line class="cls-2" x1="60.22" y1="56.5" x2="65.65" y2="64.16"/><path class="cls-2" d="M64.17,52.49c.06.19,4.63,8.44,4.63,8.44"/><path class="cls-2" d="M24.44,110.14c-.21.83,1,2.4,3.1,1.06,1.44-1,.75-3.06-.79-4.21a5.19,5.19,0,0,0-6.33.54c-2.23,2.08-1.94,7.33.6,9.71"/><path class="cls-2" d="M24.71,98.93c-1.33,1.5.27,3.58,2.74,2.42,2.32-1,1.84-3.67.3-4.82a5.43,5.43,0,0,0-6.64.45c-2.23,2.08-1.79,7.21.75,9.59"/><path class="cls-2" d="M27.73,88.46C26.4,90,28,92,30.47,90.89c2.32-1,1.84-3.67.3-4.82a5.43,5.43,0,0,0-6.64.45c-2.19,2.24-2.09,6.78,0,9.09"/><path class="cls-2" d="M31.57,79.8c-1.33,1.5.76,3.8,3.22,2.64,2.32-1,2.1-4.32.51-5.95-1.36-1.42-4.66-2.18-6.68-.19-2.19,2.24-2.36,6.78-.55,8.85"/><path class="cls-2" d="M38,70.52c-1.33,1.5.51,3.9,2.77,2.89,1.39-.61,1.7-2.68.4-4.76-.87-1.46-3.94-1.86-6-.81-1.45.89-3.77,2.78-3.22,7.27"/><path class="cls-2" d="M44,62.16c-1.75,1.63.56,4.72,3.17,3.29,1.59-.7,2.31-3.06.62-5.42-1.32-1.83-4.64-2.49-6.94-1.29-1.66,1-3.53,3.38-2.9,8.5"/><path class="cls-2" d="M51,53.72c-1.75,1.63.56,4.72,3.17,3.29,1.63-1,2.17-3.16.49-5.52a5.38,5.38,0,0,0-6.59-1.41c-1.66,1-4.14,3-3.52,8.13"/><path class="cls-2" d="M57.15,46.91c-.31,1.71,1.95,3.52,4.05,2.21.36-.34,1.36-2.19-.32-4.55a5.46,5.46,0,0,0-6.67-1.29c-1.64.91-3.22,2.74-2.54,6.37"/><path class="cls-2" d="M63.53,39.81c-.66,1.52.81,3.77,3.37,3.61,1.34,0,3-2.39,1.14-5a6.21,6.21,0,0,0-7.33-1.66,5.27,5.27,0,0,0-2.94,6"/><path class="cls-2" d="M65.22,74.46a6.12,6.12,0,0,0-6.55,1.87c-2.56,3-2.61,8.18,4.55,10.68"/><path class="cls-2" d="M58.33,83.91c-3.4-.91-6.82,2-7.45,5.5-.59,3.23,1.26,7,7.44,7.38"/><path class="cls-2" d="M52.32,94.44c-6.74-.45-10.9,12.69,3.73,12.7"/><path class="cls-2" d="M49.23,105.85c-2.24.53-5.44,8.35-.6,11.39"/><path class="cls-2" d="M125.31,117.24c5.92-50.66-44.42-80.16-54.45-92.75-10,12.58-60.36,42.08-54.45,92.75Z"/><path class="cls-2" d="M112.14,117.24c8.67-31-34.25-68.91-41.28-76.83-7,7.92-49.95,45.83-41.28,76.83"/><path class="cls-2" d="M108.45,117.24c8.67-31-30.56-63.58-37.59-71.5-7,7.92-46.26,40.5-37.59,71.5"/><path class="cls-2" d="M99.11,117.24c9.37-24.33-21.21-50.58-28.24-58.5-7,7.92-37.61,34.17-28.24,58.5"/><path class="cls-2" d="M84.06,117.24c5.53-14.36-4-29.38-13.2-40.91-9.24,11.53-18.72,26.55-13.2,40.91"/><path class="cls-2" d="M78.62,117.24c3.75-12.89,1.49-17.72-7.76-29.25-9.24,11.53-11.51,16.36-7.76,29.25"/><path class="cls-2" d="M73.07,117.24c2.82-4.71,4.17-14.62-2.21-21.31-6.38,6.69-5,16.61-2.21,21.31"/><line class="cls-2" x1="109.49" y1="111.85" x2="100.52" y2="112.05"/><line class="cls-2" x1="109.66" y1="106.37" x2="100.87" y2="107.89"/><line class="cls-2" x1="108.79" y1="99.71" x2="100.3" y2="101.8"/><line class="cls-2" x1="107.3" y1="94.32" x2="98.97" y2="96.91"/><line class="cls-2" x1="104.54" y1="87.99" x2="97.24" y2="92.41"/><line class="cls-2" x1="101.76" y1="82.27" x2="94.74" y2="87.53"/><line class="cls-2" x1="98.39" y1="76.87" x2="91.74" y2="82.72"/><line class="cls-2" x1="95.07" y1="72.19" x2="88.75" y2="78.55"/><line class="cls-2" x1="92.1" y1="68.38" x2="85.7" y2="74.85"/><line class="cls-2" x1="88.87" y1="64.51" x2="82.52" y2="71.03"/><line class="cls-2" x1="85.2" y1="60.4" x2="79.31" y2="67.53"/><line class="cls-2" x1="81.51" y1="56.5" x2="76.08" y2="64.16"/><path class="cls-2" d="M77.56,52.49c-.06.19-4.63,8.44-4.63,8.44"/><path class="cls-2" d="M117.29,110.14c.21.83-1,2.4-3.1,1.06-1.44-1-.75-3.06.79-4.21a5.19,5.19,0,0,1,6.33.54c2.23,2.08,1.94,7.33-.6,9.71"/><path class="cls-2" d="M117,98.93c1.33,1.5-.27,3.58-2.74,2.42-2.32-1-1.84-3.67-.3-4.82a5.43,5.43,0,0,1,6.64.45c2.23,2.08,1.79,7.21-.75,9.59"/><path class="cls-2" d="M114,88.46c1.33,1.5-.27,3.58-2.74,2.42-2.32-1-1.84-3.67-.3-4.82a5.43,5.43,0,0,1,6.64.45c2.19,2.24,2.09,6.78,0,9.09"/><path class="cls-2" d="M110.16,79.8c1.33,1.5-.76,3.8-3.22,2.64-2.32-1-2.1-4.32-.51-5.95,1.36-1.42,4.66-2.18,6.68-.19,2.19,2.24,2.36,6.78.55,8.85"/><path class="cls-2" d="M103.7,70.52c1.33,1.5-.51,3.9-2.77,2.89-1.39-.61-1.7-2.68-.4-4.76.88-1.46,3.94-1.86,6-.81,1.45.89,3.77,2.78,3.22,7.27"/><path class="cls-2" d="M97.72,62.16c1.75,1.63-.56,4.72-3.17,3.29-1.59-.7-2.31-3.06-.62-5.42,1.32-1.83,4.64-2.49,6.94-1.29,1.66,1,3.53,3.38,2.9,8.5"/><path class="cls-2" d="M90.73,53.72c1.75,1.63-.56,4.72-3.17,3.29-1.63-1-2.17-3.16-.49-5.52a5.38,5.38,0,0,1,6.59-1.41c1.66,1,4.14,3,3.52,8.13"/><path class="cls-2" d="M84.58,46.91c.31,1.71-1.95,3.52-4.05,2.21-.36-.34-1.36-2.19.32-4.55a5.46,5.46,0,0,1,6.67-1.29c1.64.91,3.22,2.74,2.54,6.37"/><path class="cls-2" d="M78.2,39.81c.66,1.52-.81,3.77-3.37,3.61-1.34,0-3-2.39-1.14-5A6.21,6.21,0,0,1,81,36.78a5.27,5.27,0,0,1,2.94,6"/><path class="cls-2" d="M75.73,36.83c.72-3.78-4.77-6.21-4.87-7.42C70.79,30.63,65.28,33,66,36.83"/><path class="cls-2" d="M74,80.4C80.69,70.41,72.35,67,70.86,67S61,70.41,67.72,80.4"/><path class="cls-2" d="M76.51,74.46a6.12,6.12,0,0,1,6.55,1.87c2.56,3,2.61,8.18-4.55,10.68"/><path class="cls-2" d="M83.4,83.91c3.4-.91,6.82,2,7.45,5.5.59,3.23-1.26,7-7.44,7.38"/><path class="cls-2" d="M89.41,94.44c6.74-.45,10.9,12.69-3.73,12.7"/><path class="cls-2" d="M92.5,105.85c2.24.53,5.44,8.35.6,11.39"/></g></svg>