<svg xmlns="http://www.w3.org/2000/svg" viewBox="0 0 141.73 141.73"><defs><style>.cls-1{fill:current;}.cls-2{fill:none;fill:current;stroke-linecap:round;stroke-linejoin:round;stroke-width:0.75px;}</style></defs><title>Artboard 9</title><g id="_9_fill" data-name="9 fill"><path class="cls-1" d="M70.86,107.88c20.95,0,51.57-10.16,52.54-22,1.78-19-38.22-52-52.54-52s-54.32,33-52.54,52C19.29,97.72,49.92,107.88,70.86,107.88Z"/></g><g id="_9_stroke" data-name="9 stroke"><path class="cls-2" d="M46.59,72.26c-4-6-5.9-10.05-9.91-7.31C35.24,69.58,39.64,70.23,46.59,72.26Z"/><path class="cls-2" d="M36.17,87.77c-5-5.19-7.68-8.77-11.1-5.33C24.53,87.26,29,87.08,36.17,87.77Z"/><path class="cls-2" d="M60.39,58.17c-1.49-7.08-1.81-11.51-6.54-10.43C50.81,51.52,54.66,53.74,60.39,58.17Z"/><path class="cls-2" d="M62.85,101.12c0-3.36-6-14.25-10.15-10.15S59.49,101.17,62.85,101.12Z"/><path class="cls-2" d="M53.86,68.52c-4.32-.64-4.47-4.23-5.93-7.37,3.56.66,8.34-.07,9.28,3.58"/><path class="cls-2" d="M44.31,82.14c-4.36.12-5.42-2.8-7.17-5.68,3.28.24,7.94-1.61,9.45,2.16"/><path class="cls-2" d="M35.55,95.63c-3.26.09-3.95-2.1-5.25-4.25,2.45.18,5.94-1.2,7.07,1.62"/><path class="cls-2" d="M70.86,107.88c20.95,0,51.57-10.16,52.54-22,1.78-19-38.22-52-52.54-52s-54.32,33-52.54,52C19.29,97.72,49.92,107.88,70.86,107.88Z"/><path class="cls-2" d="M109,99.46C98.31,86,85.87,57.35,70.86,57.35S43.42,86,32.71,99.46"/><path class="cls-2" d="M121.39,90.69c-8.41.95-9-5.88-19.43-1.42,10.22-3.38,6.1-13.67,9.43-15.59-6.08.66-12.67-4.25-19.37.35,9.1-4.87,3.37-12.06,5.62-17.56-5.08,2.33-12-4.71-17.69,4.24,5.36-7.84-6.14-15.28-9.09-21.66-2.95,6.38-14.45,13.82-9.09,21.66-5.65-8.95-12.61-1.91-17.69-4.24C46.34,62,40.61,69.16,49.71,74c-6.7-4.6-13.29.31-19.37-.35,3.33,1.92-.79,12.21,9.43,15.59-10.47-4.46-11,2.37-19.43,1.42"/><path class="cls-2" d="M73.87,57.73c3.06-3-2-6.3-3-9.71-1,3.42-6.07,6.67-3,9.71"/><path class="cls-2" d="M95.14,72.26c4-6,5.9-10.05,9.91-7.31C106.49,69.58,102.09,70.23,95.14,72.26Z"/><path class="cls-2" d="M105.56,87.77c5-5.19,7.68-8.77,11.1-5.33C117.2,87.26,112.76,87.08,105.56,87.77Z"/><path class="cls-2" d="M81.34,58.17c1.49-7.08,1.81-11.51,6.54-10.43C90.92,51.52,87.07,53.74,81.34,58.17Z"/><path class="cls-2" d="M70.86,64.92c17.36,0,7.2,36,0,43-7.2-7-17.36-43,0-43"/><path class="cls-2" d="M70.86,68.52c11.25,0,4.66,23.31,0,27.85C66.2,91.82,59.61,68.52,70.86,68.52Z"/><path class="cls-2" d="M78.88,101.12c0-3.36,6-14.25,10.15-10.15S82.24,101.17,78.88,101.12Z"/><path class="cls-2" d="M79.54,87.11c4.15-4.43,8.91-5,12.73-1.2,6.87,6.87-1,19.26-21.41,22-20.36-2.72-28.28-15.11-21.41-22,3.83-3.83,8.59-3.23,12.73,1.2"/><path class="cls-2" d="M87.87,68.52c4.32-.64,4.47-4.23,5.93-7.37-3.56.66-8.34-.07-9.28,3.58"/><path class="cls-2" d="M97.42,82.14c4.36.12,5.42-2.8,7.17-5.68-3.28.24-7.94-1.61-9.45,2.16"/><path class="cls-2" d="M106.18,95.63c3.26.09,3.95-2.1,5.25-4.25-2.45.18-5.94-1.2-7.07,1.62"/></g></svg>