<svg xmlns="http://www.w3.org/2000/svg" viewBox="0 0 311.5 311.5"><defs><style>.cls-1{opacity:0.5;}.cls-2{fill:current;}.cls-3{fill:#58595b;}</style></defs><title>Landscap_Ipad</title><g id="Landscape_Ipad" data-name="Landscape Ipad"><g class="cls-1"><path class="cls-2" d="M41.42,209.3s0,8,8,8h97s8,0,8-8V71.64s0-8-8-8h-97s-8,0-8,8Z"/><path class="cls-3" d="M101.66,209.38a3.74,3.74,0,1,0-3.74,3.74,3.74,3.74,0,0,0,3.74-3.74"/><rect class="cls-3" x="47.42" y="77.64" width="101" height="124.65"/><path class="cls-3" d="M99,69.73a1.08,1.08,0,1,0-1.08,1.08A1.08,1.08,0,0,0,99,69.73"/></g><path class="cls-2" d="M124.42,134.86s-8,0-8,8v97s0,8,8,8H262.08s8,0,8-8v-97s0-8-8-8Z"/><path class="cls-3" d="M124.34,195.1a3.74,3.74,0,1,0-3.74-3.74,3.74,3.74,0,0,0,3.74,3.74"/><rect class="cls-3" x="131.42" y="140.86" width="124.65" height="101"/><path class="cls-3" d="M264,192.44a1.08,1.08,0,1,0-1.08-1.08,1.08,1.08,0,0,0,1.08,1.08"/><path class="cls-2" d="M209.72,111.85a2.79,2.79,0,0,0-2.63-1.75l-8.12,0A34.45,34.45,0,0,0,189,86.85a33.89,33.89,0,0,0-23.2-9.91s-2.05,0-2.81.11a1.44,1.44,0,0,0-1.31,1.41V86.9c0,.41,0,.79.5,1.07a2.3,2.3,0,0,0,1.1.25l2.53.06a22.65,22.65,0,0,1,21.82,21.83H179a2.74,2.74,0,0,0-2.6,1.72,2.84,2.84,0,0,0,.6,3.1l14,14a2.86,2.86,0,0,0,4,0l14-14a2.87,2.87,0,0,0,.63-3.07"/></g></svg>