<svg xmlns="http://www.w3.org/2000/svg" viewBox="0 0 141.73 141.73"><defs><style>.cls-1{fill:current;}.cls-2{fill:none;fill:current;stroke-linecap:round;stroke-linejoin:round;stroke-width:0.75px;}</style></defs><title>@liam_draws123_1</title><g id="_1_fill" data-name="1 fill"><path class="cls-1" d="M70.86,124.87C101.74,117.26,115.25,103,115,85,115,54.5,80.88,53.2,70.86,16.86,60.85,53.2,26.73,54.5,26.73,85,26.48,103,40,117.26,70.86,124.87Z"/></g><g id="_1_stroke" data-name="1 stroke"><line class="cls-2" x1="44.2" y1="53.86" x2="52.86" y2="62.79"/><line class="cls-2" x1="28.58" y1="73.71" x2="39.62" y2="80.33"/><path class="cls-2" d="M70.86,124.87C101.74,117.26,115.25,103,115,85,115,54.5,80.88,53.2,70.86,16.86,60.85,53.2,26.73,54.5,26.73,85,26.48,103,40,117.26,70.86,124.87Z"/><path class="cls-2" d="M110.71,101.33C103,72.34,83.1,55.54,70.86,48.9,58.63,55.54,38.71,72.34,31,101.33"/><path class="cls-2" d="M99.46,113C95.3,92.69,85.16,74.42,70.86,65,56.57,74.42,46.43,92.69,42.27,113"/><polyline class="cls-2" points="80.27 36.32 70.86 48.9 61.46 36.32"/><line class="cls-2" x1="97.53" y1="53.86" x2="88.87" y2="62.79"/><line class="cls-2" x1="113.15" y1="73.71" x2="102.11" y2="80.33"/><path class="cls-2" d="M79.24,72,70.86,87.19c7.07,10.72,7.6,24.14,0,37.68-7.6-13.54-7.07-27,0-37.68L62.49,72"/><polyline class="cls-2" points="91.81 90.24 70.86 124.86 49.92 90.24"/></g></svg>