<svg xmlns="http://www.w3.org/2000/svg" viewBox="0 0 141.73 141.73"><defs><style>.cls-1{fill:current;}.cls-2{fill:none;fill:current;stroke-linecap:round;stroke-linejoin:round;stroke-width:0.75px;}</style></defs><title>@liam_draws123_3</title><g id="_3_fill" data-name="3 fill"><path class="cls-1" d="M70.86,112.43h51c-4.6-35.5-22.45-62.68-51-83.12-28.58,20.44-46.43,47.62-51,83.13h51"/></g><g id="_3_stroke" data-name="3 stroke"><polyline class="cls-2" points="32.83 71.28 70.86 112.43 24.41 91.32"/><line class="cls-2" x1="30.05" y1="104.32" x2="21.49" y2="102.62"/><line class="cls-2" x1="35.56" y1="87.37" x2="27.82" y2="81.87"/><line class="cls-2" x1="38.47" y1="61.96" x2="44.11" y2="70.75"/><polyline class="cls-2" points="59.48 38.3 70.86 112.43 44.94 53.27 70.86 112.43"/><line class="cls-2" x1="51.48" y1="45.93" x2="54.59" y2="56.59"/><path class="cls-2" d="M70.86,112.43h51c-4.6-35.5-22.45-62.68-51-83.12-28.58,20.44-46.43,47.62-51,83.13h51"/><path class="cls-2" d="M113.36,112.43c-5.14-29.54-19.83-53.07-42.5-71.59C48.19,59.36,33.5,82.89,28.37,112.43"/><polyline class="cls-2" points="108.9 71.28 70.86 112.43 117.32 91.32"/><line class="cls-2" x1="111.68" y1="104.32" x2="120.24" y2="102.62"/><line class="cls-2" x1="106.17" y1="87.37" x2="113.91" y2="81.87"/><line class="cls-2" x1="103.26" y1="61.96" x2="97.62" y2="70.75"/><polyline class="cls-2" points="82.25 38.3 70.86 112.43 96.79 53.27"/><line class="cls-2" x1="90.25" y1="45.93" x2="87.14" y2="56.59"/><line class="cls-2" x1="70.87" y1="29.3" x2="70.87" y2="40.83"/></g></svg>