<svg viewBox="0 0 147 147"><title>Artboard 3</title><g id="_3_fill" data-name="3 fill"><path class="cls-1" d="M70.86,121.65c6.84-14.27,21.24-23.79,37.74-25.84,0-29-17.5-58.26-37.74-75.73C50.63,37.55,33.13,66.83,33.13,95.81,49.62,97.86,64,107.38,70.86,121.65Z"/></g><g id="_3_stroke" data-name="3 stroke"><path class="cls-2" d="M66.64,104.3c-2.23-4-5-7.57-9.75-9.17-.36,2.83-.44,7.56,1.38,11"/><path class="cls-2" d="M70.86,121.65c6.84-14.27,21.24-23.79,37.74-25.84,0-29-17.5-58.26-37.74-75.73C50.63,37.55,33.13,66.83,33.13,95.81,49.62,97.86,64,107.38,70.86,121.65Z"/><path class="cls-2" d="M70.86,121.65c6.16-13.46,5-24,0-36.52C65.87,97.6,64.71,108.19,70.86,121.65Z"/><path class="cls-2" d="M75.09,104.3c2.23-4,5-7.57,9.75-9.17.36,2.83.44,7.56-1.38,11"/><path class="cls-2" d="M91.65,100.91C89.18,88.15,79.73,76.68,70.86,71.32,62,76.68,52.55,88.15,50.08,100.91"/><path class="cls-2" d="M70.86,57.17A83.37,83.37,0,0,1,108.6,95.81c-1.27-19.37-13.89-44.65-37.74-61.09C47,51.16,34.4,76.44,33.13,95.81A83.37,83.37,0,0,1,70.86,57.17Z"/><path class="cls-2" d="M103.93,87.33c1.54-1.33,2.84-2.63,2.26-4.77-.66-1.67-3.31-1.35-5.38.12,1.91-1.37,4.29-3.54,3.42-5.94-.81-2.05-4-.66-6.71,1.68,2.43-2.18,5.2-5.39,4-8-1.16-2.34-4.88.18-8.09,3.44,3.2-3.4,5.87-7.76,4.07-10.88s-6.55.34-10,5.28c3.28-4.62,7.41-9.36,4.65-13.21-2.89-3.62-8.22,2.17-11.67,7.85,4-6.06,7.85-12.57,4-16.75-3.84-3.7-8.25,2.81-11.52,12.13,3.32-9.19,5.84-22-2-21.91-7.89-.11-5.36,12.72-2,21.91-3.27-9.32-7.68-15.83-11.52-12.13-3.86,4.18,0,10.69,4,16.75C57.85,57.18,52.51,51.39,49.62,55,46.87,58.85,51,63.6,54.28,68.21c-3.48-4.94-8.08-8.36-10-5.28s.87,7.48,4.07,10.88c-3.21-3.26-6.93-5.77-8.09-3.44-1.22,2.66,1.55,5.87,4,8-2.67-2.35-5.9-3.74-6.71-1.68-.87,2.41,1.51,4.57,3.42,5.94-2.06-1.47-4.71-1.79-5.38-.12C35,84.7,36.26,86,37.8,87.33"/></g></svg>