<svg xmlns="http://www.w3.org/2000/svg" viewBox="0 0 141.73 141.73"><defs><style>.cls-1{fill:current;}.cls-2{fill:none;fill:current;stroke-linecap:round;stroke-linejoin:round;stroke-width:0.75px;}</style></defs><title>@liam_draws123_4</title><g id="_4_fill" data-name="4 fill"><path class="cls-1" d="M121.89,112.43c-4.6-35.5-22.45-62.68-51-83.12-28.58,20.44-46.43,47.62-51,83.13Z"/></g><g id="_4_stroke" data-name="4 stroke"><line class="cls-2" x1="32.39" y1="102.47" x2="21.81" y2="101.14"/><line class="cls-2" x1="24.98" y1="89.56" x2="35.48" y2="92.2"/><line class="cls-2" x1="39.18" y1="82.97" x2="28.99" y2="79.13"/><line class="cls-2" x1="33.66" y1="69.79" x2="43.37" y2="74.7"/><path class="cls-2" d="M54.38,58.51l-8.11-6.82"/><path class="cls-2" d="M39.52,60.44l9,5.92"/><line class="cls-2" x1="68.12" y1="44.15" x2="62.08" y2="36.08"/><line class="cls-2" x1="54.03" y1="43.36" x2="61.11" y2="50.89"/><path class="cls-2" d="M121.89,112.43c-4.6-35.5-22.45-62.68-51-83.12-28.58,20.44-46.43,47.62-51,83.13Z"/><path class="cls-2" d="M111.42,112.43c-4.85-29-18.87-52.25-40.56-70.68-21.69,18.42-35.7,41.68-40.56,70.68"/><path class="cls-2" d="M91.13,112.43A112.62,112.62,0,0,0,70.86,69.36,112.62,112.62,0,0,0,50.6,112.43"/><line class="cls-2" x1="109.34" y1="102.47" x2="119.92" y2="101.14"/><line class="cls-2" x1="116.75" y1="89.56" x2="106.25" y2="92.2"/><line class="cls-2" x1="102.55" y1="82.97" x2="112.74" y2="79.13"/><line class="cls-2" x1="108.07" y1="69.79" x2="98.36" y2="74.7"/><path class="cls-2" d="M87.35,58.51l8.11-6.82"/><path class="cls-2" d="M102.21,60.44l-9,5.92"/><line class="cls-2" x1="73.61" y1="44.15" x2="79.65" y2="36.08"/><line class="cls-2" x1="87.7" y1="43.36" x2="80.62" y2="50.89"/></g></svg>