<svg xmlns="http://www.w3.org/2000/svg" viewBox="0 0 141.73 141.73"><defs><style>.cls-1{fill:current;}.cls-2{fill:none;fill:current;stroke-linecap:round;stroke-linejoin:round;stroke-width:0.75px;}</style></defs><title>lilz_art_1</title><g id="_1_fill" data-name="1 fill"><path class="cls-1" d="M70.86,18.53c-34.12,0-54.78,21.67-53.7,38.67,1.5,22,25.72,14.26,43.24,10.66,0,15.83-6.48,31-6.25,42.51.15,7.65,2.49,12.83,9.34,12.83H78.23c6.85,0,9.19-5.18,9.34-12.83.23-11.53-6.25-26.68-6.25-42.51,17.52,3.6,41.74,11.39,43.24-10.66C125.65,40.2,105,18.53,70.86,18.53Z"/></g><g id="_1_stroke" data-name="1 stroke"><path class="cls-2" d="M81.33,67.85c0,15.83,6.48,31,6.25,42.51-.15,7.65-2.49,12.83-9.34,12.83H63.5c-6.85,0-9.19-5.18-9.34-12.83-.23-11.53,6.25-26.68,6.25-42.51"/><path class="cls-2" d="M70.86,66.45c16,0,51.87,17.75,53.7-9.25,1.08-17-19.58-38.67-53.7-38.67S16.08,40.2,17.17,57.2C19,84.2,54.91,66.45,70.86,66.45Z"/><circle class="cls-2" cx="57.13" cy="50.14" r="12.92"/><ellipse class="cls-2" cx="97.48" cy="56.1" rx="13.76" ry="11.76"/><path class="cls-2" d="M115.61,35.87A4.48,4.48,0,0,1,114.54,38c-1.89,2.09-5.41,2-7.86-.24s-2.92-5.71-1-7.8a4.43,4.43,0,0,1,1.68-1.16"/><path class="cls-2" d="M24.33,37.92a8.29,8.29,0,0,1,7.45-.43c4.49,2.08,6.06,8.23,3.51,13.74S27,59.51,22.54,57.43a8.58,8.58,0,0,1-4.68-7.19"/><path class="cls-2" d="M92.85,21.86a12,12,0,1,1-19.26-3.29"/><path class="cls-2" d="M55.15,20.15c.26,2.76-1.94,5.73-5.42,7-3.63,1.36-7.41.43-8.9-2.06"/></g></svg>