<svg xmlns="http://www.w3.org/2000/svg" viewBox="0 0 141.73 141.73"><defs><style>.cls-1{fill:current;}.cls-2{fill:none;fill:current;stroke-linecap:round;stroke-linejoin:round;stroke-width:0.75px;}</style></defs><title>Artboard 34</title><g id="_35_fill" data-name="35 fill"><path class="cls-1" d="M70.86,116.12c4.64,1.33,7.52,8.58,7.52,8.58,6-5.17,11-3.5,11-3.5C104.72,80.53,70.86,17,70.86,17S37,80.53,52.35,121.2c0,0,5-1.67,11,3.5C63.35,124.7,66.22,117.45,70.86,116.12Z"/></g><g id="_35_stroke" data-name="35 stroke"><path class="cls-2" d="M70.86,116.12c4.64,1.33,7.52,8.58,7.52,8.58,6-5.17,11-3.5,11-3.5C104.72,80.53,70.86,17,70.86,17S37,80.53,52.35,121.2c0,0,5-1.67,11,3.5C63.35,124.7,66.22,117.45,70.86,116.12Z"/><path class="cls-2" d="M86.36,55.46a27.84,27.84,0,0,0-15.5,12.82,27.84,27.84,0,0,0-15.5-12.82"/><path class="cls-2" d="M90.22,70.16s-13.5,4.5-19.35,17.13C65,74.66,51.51,70.16,51.51,70.16"/><line class="cls-2" x1="70.87" y1="87.28" x2="70.86" y2="116.11"/></g></svg>