<svg viewBox="0 0 147 147"><title>Artboard 2</title><g id="_2_fill" data-name="2 fill"><path class="cls-1" d="M109.84,84c6.09-4.21,12.56-14.76,11.16-23.44-3.81.8-12.72-.54-15.17,3h0a33.07,33.07,0,0,0-2.24-22c-2.47,3.07-12.48,2.47-16.41,6A39.18,39.18,0,0,0,85.38,42C82,33.41,73.93,27.38,70.86,20.08,67.8,27.38,59.78,33.41,56.35,42a39.18,39.18,0,0,0-1.78,5.59c-3.93-3.48-13.94-2.88-16.41-6a33.07,33.07,0,0,0-2.24,22l0,0c-2.44-3.56-11.36-2.22-15.17-3C19.34,69.26,25.8,79.81,31.89,84h0c-9.74,10-8.53,30.07,8.79,35.5,10.73,2.8,19-7.66,13.8-17.49-2.6-4.88-9.19-6-11.3-1.74-2.18,4.67,1.65,6.28,1.65,6.28-.76-1.39-1-2.68,0-3.74,1.65-1.6,4.5-.31,5.56,2.09,2,4.63-2.67,10-8.37,8.46-9.88-3-11.66-22.79,0-26C62.91,83,64.33,116.93,70.86,121.65c6.53-4.72,8-38.63,28.88-34.27,11.66,3.2,9.88,23,0,26-5.7,1.51-10.39-3.83-8.37-8.46,1.07-2.4,3.92-3.69,5.56-2.09,1,1.06.71,2.35,0,3.74,0,0,3.83-1.6,1.65-6.28-2.11-4.23-8.7-3.14-11.3,1.74C82,111.86,90.3,122.31,101,119.51c17.31-5.42,18.53-25.51,8.79-35.5Z"/></g><g id="_2_stroke" data-name="2 stroke"><path class="cls-2" d="M66.42,76.51c-2.32-1.9-5.14-3.34-7.56-3.24-1.47,1.6-2.37,4.54-2.5,7.34"/><path class="cls-2" d="M54.58,47.58c-3.93-3.48-13.95-2.88-16.42-6-5.87,12-3.29,27.06,5.25,36.72"/><path class="cls-2" d="M35.91,63.6c-2.44-3.56-11.36-2.22-15.17-3C19.34,69.26,25.8,79.81,31.89,84"/><path class="cls-2" d="M70.86,121.65c6.53-4.72,8-38.63,28.88-34.27,11.66,3.2,9.88,23,0,26-5.7,1.51-10.39-3.83-8.37-8.46,1.07-2.4,3.92-3.69,5.56-2.09,1,1.06.71,2.35,0,3.74,0,0,3.83-1.6,1.65-6.28-2.11-4.23-8.7-3.14-11.3,1.74C82,111.86,90.3,122.31,101,119.51c21.45-6.72,18.2-36,0-40.59-19.16-5.18-30.17,14.44-30.17,32,0-17.51-11-37.14-30.17-32-18.2,4.63-21.45,33.87,0,40.59,10.73,2.8,19-7.66,13.8-17.49-2.6-4.88-9.19-6-11.3-1.74-2.18,4.67,1.65,6.28,1.65,6.28-.76-1.39-1-2.68,0-3.74,1.65-1.6,4.5-.31,5.56,2.09,2,4.63-2.67,10-8.37,8.46-9.88-3-11.66-22.79,0-26C62.91,83,64.33,116.93,70.86,121.65Z"/><path class="cls-2" d="M78,87.38c1.86-7.23-4.08-12-7.14-17.12-3.06,5.07-9,9.88-7.14,17.12"/><path class="cls-2" d="M75.31,76.51c2.32-1.9,5.14-3.34,7.56-3.24,1.47,1.6,2.37,4.54,2.5,7.34"/><path class="cls-2" d="M81.09,73.45C89.65,62.53,89.23,51.63,85.38,42,82,33.41,73.93,27.38,70.86,20.08,67.8,27.38,59.78,33.41,56.35,42c-3.85,9.65-4.27,20.55,4.29,31.46"/><path class="cls-2" d="M87.15,47.58c3.93-3.48,13.95-2.88,16.42-6,5.87,12,3.29,27.06-5.25,36.72"/><path class="cls-2" d="M105.82,63.6c2.44-3.56,11.36-2.22,15.17-3,1.4,8.68-5.07,19.23-11.16,23.44"/><line class="cls-2" x1="70.86" y1="110.88" x2="70.86" y2="121.65"/></g></svg>