<svg viewBox="0 0 147 147"><title>@liam_draws123_6</title><g id="_6_fill" data-name="6 fill"><path class="cls-1" d="M70.86,124.4c20.65-6,43.94-28.71,49.91-53.92A46.7,46.7,0,0,0,95.55,71c7.28-7.38,14.55-22.9,15.12-32.86a60.94,60.94,0,0,0-21.07,3c-4.84-13.45-12.1-16.66-18.73-23.78C64.24,24.45,57,27.66,52.13,41.11a60.94,60.94,0,0,0-21.07-3c.57,10,7.83,25.48,15.12,32.86A46.7,46.7,0,0,0,21,70.47C26.93,95.68,50.21,118.42,70.86,124.4Z"/></g><g id="_6_stroke" data-name="6 stroke"><polyline class="cls-2" points="32.21 44.88 43.25 47.86 40.21 38.49"/><polygon class="cls-2" points="23.45 78.49 29.64 69.06 38.34 80.4 23.45 78.49"/><line class="cls-2" x1="67.57" y1="83.74" x2="63.58" y2="78.28"/><line class="cls-2" x1="62.89" y1="89.46" x2="58.27" y2="83.41"/><line class="cls-2" x1="59.07" y1="95.79" x2="53.44" y2="89.26"/><line class="cls-2" x1="56.14" y1="102.37" x2="49.09" y2="96.04"/><line class="cls-2" x1="53.91" y1="109.19" x2="45.75" y2="102.94"/><line class="cls-2" x1="60.06" y1="40.6" x2="58.06" y2="37.33"/><line class="cls-2" x1="43.25" y1="53.09" x2="40.52" y2="50.24"/><line class="cls-2" x1="54.25" y1="44.13" x2="52.13" y2="41.11"/><path class="cls-2" d="M70.86,124.4c20.65-6,43.94-28.71,49.91-53.92A46.7,46.7,0,0,0,95.55,71c7.28-7.38,14.55-22.9,15.12-32.86a60.94,60.94,0,0,0-21.07,3c-4.84-13.45-12.1-16.66-18.73-23.78C64.24,24.45,57,27.66,52.13,41.11a60.94,60.94,0,0,0-21.07-3c.57,10,7.83,25.48,15.12,32.86A46.7,46.7,0,0,0,21,70.47C26.93,95.68,50.21,118.42,70.86,124.4Z"/><path class="cls-2" d="M110.92,92.63c-9.18-17.48-22.12-30.94-40.06-39.06C52.92,61.68,40,75.15,30.81,92.63"/><path class="cls-2" d="M106,54.77a111.59,111.59,0,0,0-35.1-24,111.59,111.59,0,0,0-35.1,24"/><path class="cls-2" d="M104.09,58.65C94,48.43,84.14,40.85,70.86,35.08,57.59,40.85,47.77,48.43,37.64,58.65"/><path class="cls-2" d="M104.3,101.37C97,84.37,86.12,71.58,70.86,64c-15.25,7.55-26.11,20.34-33.44,37.34"/><path class="cls-2" d="M97.88,108.06a66.76,66.76,0,0,0-27-35.34,66.76,66.76,0,0,0-27,35.34"/><path class="cls-2" d="M89.26,115.13c-3-14.38-8.76-26.22-18.4-34.52-9.64,8.3-15.41,20.14-18.4,34.52"/><polyline class="cls-2" points="104.09 58.65 70.86 53.57 37.64 58.65"/><polyline class="cls-2" points="95.19 45.19 92.48 48.11 70.86 53.57 49.25 48.11 46.54 45.19"/><polyline class="cls-2" points="83.76 41.88 70.86 53.57 57.97 41.88"/><polyline class="cls-2" points="77.96 34.16 76.19 37.59 70.86 53.57 65.53 37.59 63.77 34.16"/><polyline class="cls-2" points="76.44 22.63 70.86 30.79 65.29 22.63"/><polyline class="cls-2" points="109.52 44.88 98.48 47.86 101.52 38.49"/><polygon class="cls-2" points="118.28 78.49 112.09 69.06 103.39 80.4 118.28 78.49"/><path class="cls-2" d="M104.3,101.37c4-5,6.15-9.27,4.93-11.84-1.39-3-5.6-1.51-9.88,1.94,3.13-2.63,6.86-7.47,4-11.07-2.11-2.81-6.52-1.25-10,2.23,3-2.9,6.34-7.22,2.7-11-2.73-2.76-6.7.43-9.15,3.82,2-3.44,6-7,1.92-10.61-3.4-2.66-6.57.83-9.17,4.55,2.54-3.57,4.83-7.89,1.15-10.38-3.56-2.13-6.81,1.62-8.61,5.78,2.29-4.41,3.93-8.53-1.4-11.18-5.33,2.65-3.69,6.76-1.4,11.18-1.8-4.16-5.05-7.91-8.61-5.78-3.69,2.49-1.39,6.81,1.15,10.38-2.61-3.71-5.78-7.21-9.17-4.55-4.12,3.66-.07,7.17,1.92,10.61C52.3,72,48.32,68.83,45.6,71.59c-3.64,3.82-.25,8.14,2.7,11-3.44-3.47-7.85-5-10-2.23-2.82,3.6.91,8.44,4,11.07-4.28-3.45-8.49-4.92-9.88-1.94-1.22,2.57,1,6.88,4.93,11.84"/><line class="cls-2" x1="74.16" y1="83.74" x2="78.15" y2="78.28"/><line class="cls-2" x1="78.84" y1="89.46" x2="83.46" y2="83.41"/><line class="cls-2" x1="82.66" y1="95.79" x2="88.29" y2="89.26"/><line class="cls-2" x1="85.59" y1="102.37" x2="92.64" y2="96.04"/><line class="cls-2" x1="87.82" y1="109.19" x2="95.98" y2="102.94"/><polyline class="cls-2" points="72.53 31.53 70.86 35.08 69.2 31.53"/><line class="cls-2" x1="81.67" y1="40.6" x2="83.67" y2="37.33"/><line class="cls-2" x1="98.48" y1="53.09" x2="101.21" y2="50.24"/><line class="cls-2" x1="87.48" y1="44.13" x2="89.6" y2="41.11"/></g></svg>