<svg xmlns="http://www.w3.org/2000/svg" viewBox="0 0 141.73 141.73"><defs><style>.cls-1{fill:current;}.cls-2{fill:none;fill:current;stroke-linecap:round;stroke-linejoin:round;stroke-width:0.75px;}</style></defs><title>Artboard 33</title><g id="_34_fill" data-name="34 fill"><path class="cls-1" d="M70.86,88.53c9.24,7.57,13.27,20.32,15.36,35a51,51,0,0,0,25.83-17c3-31.44-10.83-60.87-41.19-88.33C40.5,45.66,26.65,75.09,29.67,106.53a51,51,0,0,0,25.83,17C57.59,108.85,61.62,96.1,70.86,88.53Z"/></g><g id="_34_stroke" data-name="34 stroke"><line class="cls-2" x1="66" y1="93.56" x2="56.57" y2="77.23"/><line class="cls-2" x1="60.35" y1="103.74" x2="50.69" y2="94.67"/><line class="cls-2" x1="56.57" y1="117.14" x2="50.07" y2="113.5"/><circle class="cls-2" cx="44.16" cy="88.59" r="1.13" transform="translate(-48.03 124.63) rotate(-84.85)"/><circle class="cls-2" cx="47.91" cy="92.44" r="1.13" transform="translate(-45.76 137.9) rotate(-88.5)"/><circle class="cls-2" cx="43.04" cy="109.05" r="1.13" transform="translate(-57.32 48.46) rotate(-37.34)"/><circle class="cls-2" cx="46.78" cy="111.81" r="1.13" transform="translate(-2.74 1.19) rotate(-1.41)"/><circle class="cls-2" cx="52.61" cy="68.21" r="1.13" transform="translate(-31.69 85.92) rotate(-64.22)"/><circle class="cls-2" cx="70.86" cy="48.97" r="1.13" transform="translate(-4.05 91.49) rotate(-64.22)"/><circle class="cls-2" cx="70.86" cy="43.21" r="1.13" transform="translate(1.14 88.23) rotate(-64.22)"/><circle class="cls-2" cx="54.86" cy="73.26" r="1.13" transform="translate(-34.97 90.8) rotate(-64.22)"/><path class="cls-2" d="M70.86,88.53c9.24,7.57,13.27,20.32,15.36,35a51,51,0,0,0,25.83-17c3-31.44-10.83-60.87-41.19-88.33C40.5,45.66,26.65,75.09,29.67,106.53a51,51,0,0,0,25.83,17C57.59,108.85,61.62,96.1,70.86,88.53Z"/><path class="cls-2" d="M104.66,114C108.06,83.36,97.22,53,70.86,27.7,44.51,53,33.67,83.36,37.07,114"/><path class="cls-2" d="M86.22,123.53c8.67-3.92,18.54-9.06,19-16.33,0-9.17-5.54-10.76-21.48,3.61,10.24-9.8,21.94-17,19.9-25.51-2.73-10.87-14.88-1-25,12.66,10.6-13.57,21-27.14,16.64-37.46C89,48.53,79,64.11,72.81,90.28,77.46,70.86,86.7,46,77.72,34.78c-1.91-1.91-3.29-2.5-6.85-2.5s-4.94.59-6.85,2.5c-9,11.27.26,36.09,4.9,55.5C62.76,64.11,52.73,48.53,46.45,60.5c-4.37,10.32,6,23.9,16.64,37.46C53,84.28,40.86,74.43,38.13,85.31c-2,8.48,9.66,15.71,19.9,25.51C42.09,96.45,36.59,98,36.55,107.2c.42,7.27,10.29,12.41,19,16.33"/><line class="cls-2" x1="75.73" y1="93.56" x2="85.16" y2="77.23"/><line class="cls-2" x1="81.38" y1="103.74" x2="91.04" y2="94.67"/><line class="cls-2" x1="85.16" y1="117.14" x2="91.66" y2="113.5"/><circle class="cls-2" cx="97.57" cy="88.59" r="1.13" transform="translate(-7.55 9.11) rotate(-5.15)"/><circle class="cls-2" cx="93.82" cy="92.44" r="1.13" transform="translate(-2.39 2.5) rotate(-1.5)"/><circle class="cls-2" cx="98.69" cy="109.05" r="1.13" transform="translate(-47.87 121.36) rotate(-52.66)"/><circle class="cls-2" cx="94.95" cy="111.81" r="1.13" transform="translate(-19.16 203.98) rotate(-88.59)"/><circle class="cls-2" cx="89.12" cy="68.21" r="1.13" transform="translate(-20.79 45.54) rotate(-25.78)"/><circle class="cls-2" cx="86.87" cy="73.26" r="1.13" transform="translate(-23.21 45.07) rotate(-25.78)"/><line class="cls-2" x1="70.86" y1="55.09" x2="70.86" y2="88.53"/></g></svg>