<svg viewBox="0 0 147 147"><title>Artboard 10</title><g id="_10_fill" data-name="10 fill"><path class="cls-1" d="M70.87,121.45C74.72,103.36,90.2,89.32,106.14,85c-10.74-9.68-10.59-19.43,0-29.25C89.31,49.3,77.56,35.61,70.86,20.28c-6.69,15.33-18.45,29-35.27,35.5,10.59,9.82,10.74,19.57,0,29.25C51.53,89.32,67,103.36,70.87,121.45Z"/></g><g id="_10_stroke" data-name="10 stroke"><path class="cls-2" d="M70.87,121.45C74.72,103.36,90.2,89.32,106.14,85c-10.74-9.68-10.59-19.43,0-29.25C89.31,49.3,77.56,35.61,70.86,20.28c-6.69,15.33-18.45,29-35.27,35.5,10.59,9.82,10.74,19.57,0,29.25C51.53,89.32,67,103.36,70.87,121.45Z"/><path class="cls-2" d="M70.86,107.95c2.68-13.54,13.44-22.06,24.52-25.27-7.47-7.25-7.36-17.55,0-24.9-11.7-4.85-19.87-14.1-24.52-25.58C66.21,43.68,58,52.93,46.34,57.78c7.36,7.35,7.47,17.65,0,24.9C57.42,85.89,68.18,94.41,70.86,107.95Z"/><path class="cls-2" d="M89.67,84.84a26,26,0,0,0-37.61,0"/><path class="cls-2" d="M83.68,88.36c-2.75-2.75-7.66-4.5-12.81-4.5s-10.06,1.75-12.81,4.5"/><path class="cls-2" d="M70.86,76.78c3.6-6.75,7-29.52,0-29.52S67.27,70,70.86,76.78Z"/></g></svg>