<svg viewBox="0 0 147 147"><title>Artboard 1</title><g id="_1_fill" data-name="1 fill"><path class="cls-1" d="M110.34,99.69c4.17-.19,11-6,11.68-9.92-3.1-3-7.21-5.2-14.39-4,4-2,10.16-6.8,9.79-12.45-2.86-1.94-10-3.2-14.5-.69,3.71-2.32,8.87-7.39,9.4-11.78-4.27-2.06-10.48-1.53-14.94,1,3.86-2.73,8.15-8.33,7.76-14.05-5.63-1.62-10.33.07-14.41,4,3.11-3,6.51-6.81,4.2-15.66a13.2,13.2,0,0,0-11.2,5.7C85.86,38.45,87,31.31,84.1,28c-4,.66-6.2,3.18-8.28,6.54,2.13-5,2.1-9.88-5-14.1-7,4.22-7.08,9.13-5,14.1-2.08-3.35-4.28-5.88-8.28-6.54-2.92,3.32-1.76,10.46.36,13.8a13.2,13.2,0,0,0-11.2-5.7c-2.3,8.85,1.09,12.68,4.2,15.66-4.08-3.9-8.78-5.59-14.41-4-.39,5.72,3.9,11.33,7.76,14.05-4.46-2.54-10.67-3.07-14.94-1,.53,4.39,5.7,9.46,9.4,11.78-4.46-2.51-11.64-1.25-14.5.69-.36,5.65,5.82,10.43,9.79,12.45-7.17-1.17-11.28,1-14.39,4,.68,4,7.5,9.74,11.68,9.92-5.85-.84-9.7.27-12.66,3,1.84,5.43,5.63,9.07,12.07,10l0,0c.07,2.86.27,5.74.6,8.65,12.37-6.61,25.35-10.91,39.42-10.91s27.05,4.31,39.42,10.91c.33-2.91.52-5.79.6-8.65h0c6.44-.92,10.23-4.56,12.07-10C120,100,116.18,98.85,110.34,99.69Z"/></g><g id="_1_stroke" data-name="1 stroke"><path class="cls-2" d="M64.71,103.22c-9.92-14.36-27-15.84-30.76-2.7-2.51,10.75,5.27,16.5,12.34,14.2,5.37-1.67,5.15-9.64-.38-10.15,2.4,1.75,2.69,4.87.17,6.26-3,1.65-6-2.28-5.67-6s2.67-7.13,7.91-6.31c6.84.87,10.14,11.88,16,12.2"/><path class="cls-2" d="M51.68,92.62c-.72-2.27-.52-6.28.09-7.59a14.52,14.52,0,0,1,9.39,4.61"/><path class="cls-2" d="M47.93,91.67c-1.51-4.39-1.65-9.45-.34-13.09,4.81.39,11.2,2.91,13.65,6.58"/><path class="cls-2" d="M54.75,80.39a12.64,12.64,0,0,1,1.09-8.48,12.41,12.41,0,0,1,6.93,3.64"/><path class="cls-2" d="M70.86,110.4c14.07,0,27.05,4.31,39.42,10.91C114.21,87,100,56.67,70.86,29.78,41.69,56.67,27.52,87,31.44,121.31,43.81,114.7,56.79,110.4,70.86,110.4Z"/><path class="cls-2" d="M110.29,121.31c-.95-31.79-14.55-61-39.42-77.41C46,60.34,32.39,89.51,31.44,121.31"/><path class="cls-2" d="M70.86,110.4c13.08-10.57,12.88-29.62,0-57C58,80.77,57.78,99.83,70.86,110.4Z"/><path class="cls-2" d="M77,103.22c9.92-14.36,27-15.84,30.76-2.7,2.51,10.75-5.27,16.5-12.34,14.2-5.37-1.67-5.15-9.64.38-10.15-2.4,1.75-2.69,4.87-.17,6.26,3,1.65,6-2.28,5.67-6s-2.67-7.13-7.91-6.31c-6.84.87-10.14,11.88-16,12.2"/><path class="cls-2" d="M90.05,92.62c.72-2.27.52-6.28-.09-7.59a14.52,14.52,0,0,0-9.39,4.61"/><path class="cls-2" d="M93.8,91.67c1.51-4.39,1.65-9.45.34-13.09-4.81.39-11.2,2.91-13.65,6.58"/><path class="cls-2" d="M87,80.39a12.64,12.64,0,0,0-1.09-8.48A12.41,12.41,0,0,0,79,75.55"/><path class="cls-2" d="M70.86,110.4c8-9.73,7.88-21.73,0-36C63,88.67,62.86,100.66,70.86,110.4Z"/><path class="cls-2" d="M110.93,112.68c6.44-.92,10.23-4.56,12.07-10-3-2.72-6.81-3.83-12.66-3,4.17-.19,11-6,11.68-9.92-3.1-3-7.21-5.2-14.39-4,4-2,10.16-6.8,9.79-12.45-2.86-1.94-10-3.2-14.5-.69,3.71-2.32,8.87-7.39,9.4-11.78-4.27-2.06-10.48-1.53-14.94,1,3.86-2.73,8.15-8.33,7.76-14.05-5.63-1.62-10.33.07-14.41,4,3.11-3,6.51-6.81,4.2-15.66-4.35-.29-8.83,2.11-11.67,6.37,2.41-2.95,4-10.9.83-14.47-4,.66-6.2,3.18-8.28,6.54,2.13-5,2.1-9.88-5-14.1-7,4.22-7.08,9.13-5,14.1-2.08-3.35-4.28-5.88-8.28-6.54-3.13,3.57-1.58,11.52.83,14.47-2.84-4.26-7.32-6.65-11.67-6.37-2.3,8.85,1.09,12.68,4.2,15.66-4.08-3.9-8.78-5.59-14.41-4-.39,5.72,3.9,11.33,7.76,14.05-4.46-2.54-10.67-3.07-14.94-1,.53,4.39,5.7,9.46,9.4,11.78-4.46-2.51-11.64-1.25-14.5.69-.36,5.65,5.82,10.43,9.79,12.45-7.17-1.17-11.28,1-14.39,4,.68,4,7.5,9.74,11.68,9.92-5.85-.84-9.7.27-12.66,3,1.84,5.43,5.63,9.07,12.07,10"/></g></svg>