<svg xmlns="http://www.w3.org/2000/svg" viewBox="0 0 141.73 141.73"><defs><style>.cls-1{fill:current;}.cls-2{fill:none;fill:current;stroke-linecap:round;stroke-linejoin:round;stroke-width:0.75px;}</style></defs><title>Artboard 37</title><g id="_37_fill" data-name="37 fill"><path class="cls-1" d="M70.86,25.26s18.57,42.22,53.87,57.23c0,0-27.57,5.59-53.87,34C44.56,88.08,17,82.49,17,82.49,52.3,67.48,70.86,25.26,70.86,25.26Z"/></g><g id="_37_stroke" data-name="37 stroke"><path class="cls-2" d="M70.86,25.26s18.57,42.22,53.87,57.23c0,0-27.57,5.59-53.87,34C44.56,88.08,17,82.49,17,82.49,52.3,67.48,70.86,25.26,70.86,25.26Z"/><path class="cls-2" d="M114.55,85.78s-31.15-14-43.69-44.93C58.33,71.75,27.18,85.78,27.18,85.78"/><path class="cls-2" d="M80.29,107.25A24.65,24.65,0,0,1,49.12,91.7a23.87,23.87,0,0,1,15-30.26A21.49,21.49,0,0,1,91.34,74.92,19.34,19.34,0,0,1,79.2,99.43,17.4,17.4,0,0,1,57.14,88.51,15.66,15.66,0,0,1,67,68.66a14.1,14.1,0,0,1,17.87,8.85,12.69,12.69,0,0,1-8,16.08,11.42,11.42,0,0,1-14.47-7.17,10.28,10.28,0,0,1,6.45-13,9.25,9.25,0,0,1,11.72,5.8,8.32,8.32,0,0,1-5.22,10.55"/><path class="cls-2" d="M98.55,75.79c1.63,5.57.09,14.05-3.6,20.26"/><path class="cls-2" d="M67,48.87A32.52,32.52,0,0,1,74.8,49"/><path class="cls-2" d="M35.23,89.2a36.12,36.12,0,0,1-.08-7.85"/><path class="cls-2" d="M42.26,76.48s-3.4,9,.49,17"/><path class="cls-2" d="M62.71,55.72s10.3-2.52,16.87.8"/><path class="cls-2" d="M106.58,81.36s.16,5.79-1.54,8.79"/></g></svg>