<svg viewBox="0 0 147 147"><title>Artboard 41</title><g id="_41_fill" data-name="41 fill"><path class="cls-1" d="M70.88,113.54C94.5,65.86,114.19,61,120.86,55c2.93-1.72,4.77-8,0-12.8a12.21,12.21,0,0,0-16.63-.59v0a11.66,11.66,0,0,0-8.4-9.95c-5.91-1.75-10.36.2-13,5.18l-.17.33v0a12.23,12.23,0,0,0-23.54,0v0l-.17-.34c-2.68-5-7.12-6.94-13-5.18a11.66,11.66,0,0,0-8.4,9.95v0a12.21,12.21,0,0,0-16.63.58c-4.77,4.77-2.93,11.09,0,12.8C27.54,61,47.25,65.86,70.88,113.54Z"/></g><g id="_41_stroke" data-name="41 stroke"><path class="cls-2" d="M70.86,113.54C64.81,68.79,38.15,42.17,38.15,42.17a12.21,12.21,0,0,0-17.27,0c-4.77,4.77-2.93,11.09,0,12.8C27.54,61,47.24,65.86,70.86,113.54Z"/><path class="cls-2" d="M70.86,113.54c6.06-44.75,32.72-71.37,32.72-71.37a12.21,12.21,0,0,1,17.27,0c4.77,4.77,2.93,11.09,0,12.8C114.19,61,94.49,65.86,70.86,113.54Z"/><path class="cls-2" d="M82.64,37.11a12.23,12.23,0,0,0-23.54,0"/><path class="cls-2" d="M104.24,41.56a11.66,11.66,0,0,0-8.4-9.95c-5.91-1.75-10.36.2-13,5.19-6.18,11.43-9.77,42-11.94,76.74-2.17-34.77-5.76-65.32-11.94-76.74-2.68-5-7.12-6.94-13-5.19a11.66,11.66,0,0,0-8.4,9.95"/></g></svg>