<svg xmlns="http://www.w3.org/2000/svg" viewBox="0 0 141.73 141.73"><defs><style>.cls-1{fill:current;}.cls-2{fill:none;fill:current;stroke-linecap:round;stroke-linejoin:round;stroke-width:0.75px;}</style></defs><title>lilz_art_10</title><g id="_10_fill" data-name="10 fill"><path class="cls-1" d="M102.88,100.38c5.88-7,18.38-8.5,20-19.5,0,0-8.12,8.75-14.5,2.88a3.7,3.7,0,0,1,3.25-.5s-.87-6-2.37-8.62a9.67,9.67,0,0,1,2.92,2.08s-1.08-8-4.58-11.75c0,0,3.46.83,5,2.17,0,0-2.42-8.58-12.5-14.08,0,0,4.17-.08,5.75.5,0,0-5.25-6.42-13.25-7.67,0,0,3-2.25,4.25-2.42A22.7,22.7,0,0,0,81.55,42s1.75-3.25,2.92-3.83c0,0-9.08-.75-14.92,2.42A18.55,18.55,0,0,1,72,34.63s-4.83.83-10.67,7a28.12,28.12,0,0,1,.58-3.92,23.38,23.38,0,0,0-7.5,6.58A10,10,0,0,1,54.05,41s-5.83,4.5-6.92,8.08a7.93,7.93,0,0,1-.5-3.25s-4.5,4.75-5.17,11a4.92,4.92,0,0,0-2.37-3.08S38.52,81,26,76.75a3.64,3.64,0,0,0-.27-2,3.51,3.51,0,0,0-2.25-2,3.6,3.6,0,1,0,.4,6.74c.82,2.39,6.32,15.69,28.8,21.19.89.25.45,1.16-.14,1.22-3.94,0-5.1,2-5.42,3.57a1.34,1.34,0,0,0,1.32,1.62H64.87a1,1,0,0,0,1-.88,28.33,28.33,0,0,0,.22-3.46,129.14,129.14,0,0,0,22.05-.37,4.46,4.46,0,0,0-3.36,3.44,1.07,1.07,0,0,0,1,1.27h15.61a1.58,1.58,0,0,0,1.37-.76C103.35,105.44,103.87,103.63,102.88,100.38Z"/></g><g id="_10_stroke" data-name="10 stroke"><path class="cls-2" d="M102.88,100.38c5.88-7,18.38-8.5,20-19.5,0,0-8.12,8.75-14.5,2.88a3.7,3.7,0,0,1,3.25-.5s-.87-6-2.37-8.62a9.67,9.67,0,0,1,2.92,2.08s-1.08-8-4.58-11.75c0,0,3.46.83,5,2.17,0,0-2.42-8.58-12.5-14.08,0,0,4.17-.08,5.75.5,0,0-5.25-6.42-13.25-7.67,0,0,3-2.25,4.25-2.42A22.7,22.7,0,0,0,81.55,42s1.75-3.25,2.92-3.83c0,0-9.08-.75-14.92,2.42A18.55,18.55,0,0,1,72,34.63s-4.83.83-10.67,7a28.12,28.12,0,0,1,.58-3.92,23.38,23.38,0,0,0-7.5,6.58A10,10,0,0,1,54.05,41s-5.83,4.5-6.92,8.08a7.93,7.93,0,0,1-.5-3.25s-4.5,4.75-5.17,11a4.92,4.92,0,0,0-2.37-3.08S38.52,81,26,76.75a3.64,3.64,0,0,0-.27-2,3.51,3.51,0,0,0-2.25-2,3.6,3.6,0,1,0,.4,6.74c.82,2.39,6.32,15.69,28.8,21.19.89.25.45,1.16-.14,1.22-3.94,0-5.1,2-5.42,3.57a1.34,1.34,0,0,0,1.32,1.62H64.87a1,1,0,0,0,1-.88,28.33,28.33,0,0,0,.22-3.46,129.14,129.14,0,0,0,22.05-.37,4.46,4.46,0,0,0-3.36,3.44,1.07,1.07,0,0,0,1,1.27h15.61a1.58,1.58,0,0,0,1.37-.76C103.35,105.44,103.87,103.63,102.88,100.38Z"/><circle class="cls-2" cx="42.56" cy="75.63" r="1.62" transform="translate(-5.46 3.35) rotate(-4.23)"/><path class="cls-2" d="M53.1,57.35a13.3,13.3,0,0,1,5.53-4.22A30.2,30.2,0,0,0,58,57.76"/><path class="cls-2" d="M61.91,46.94a16.42,16.42,0,0,1,3.94-1.5,15.93,15.93,0,0,0-1.09,2.66"/><path class="cls-2" d="M71.07,53.6s2.31-1.56,7.63-.31c0,0-3.75,2.25-4.81,4.31"/><path class="cls-2" d="M67.48,76.85a21.25,21.25,0,0,1,6.94-2.5,11.75,11.75,0,0,0-6.94-1.5"/><path class="cls-2" d="M87.16,75.41a9.28,9.28,0,0,1,4.56,4.28,14.5,14.5,0,0,0-7.06.34"/><path class="cls-2" d="M74.41,86.47a5.45,5.45,0,0,1,4.28,1.72,8.51,8.51,0,0,0-5.12,1.16"/><path class="cls-2" d="M88.2,58.47a10.53,10.53,0,0,1,7.84,2,16.17,16.17,0,0,0-6.91,2.34"/><path class="cls-2" d="M99.63,68.6a8.39,8.39,0,0,1,3.94,3.4,6.8,6.8,0,0,0-4.81.23"/><path class="cls-2" d="M85.82,50.22a8.37,8.37,0,0,1,4.69.38,3.07,3.07,0,0,0-2.34,1.34"/></g></svg>