<svg viewBox="0 0 50 50">
	<path d="M 10,6 C 20,45 20,47 20,47" />
	<path d="M 40,6 C 29,45 29,47 29,47" />
	<path
		d="M 39.756944,7.0023148 C 39.496528,6.9155093 24.94213,1.244213 24.94213,1.244213 L 10.21412,7.0023148 10.821759,9.3460648 25,3.7615741 39.178241,8.9988426 Z" />
	<path style="fill:none;" d="M 37.731482,13.917824 24.971065,9.5196759 11.979167,13.773148" />
	<path
		d="m 36.689815,17.96875 -11.66088,-3.732639 -12.037037,3.84838 0.694445,2.517361 L 25,16.753472 35.99537,20.283565 Z" />
	<path style="fill:none;" d="M 35.040509,23.958333 24.94213,20.659722 14.583333,24.103009" />
	<path
		d="M 34.114583,27.546296 C 33.940972,27.546296 25,25 25,25 l -9.375,3.414352 0.520833,2.285879 8.796297,-3.18287 8.478009,2.28588 z" />
	<path style="fill:none;" d="M 32.233796,34.114583 25,31.134259 l -7.899306,3.125" />
	<path
		d="m 31.30787,37.731482 -6.278935,-2.430556 -7.03125,2.864583 0.462963,1.649306 6.568287,-2.517361 5.873843,2.314815 z" />
	<path style="fill:none;" d="m 29.832176,43.431713 -4.861111,-2.228009 -5.555556,2.430555" />
</svg>