<svg xmlns="http://www.w3.org/2000/svg" viewBox="0 0 141.73 141.73"><defs><style>.cls-1{fill:current;}.cls-2{fill:none;fill:current;stroke-linecap:round;stroke-linejoin:round;stroke-width:0.75px;}</style></defs><title>Artboard 38</title><g id="_38_fill" data-name="38 fill"><path class="cls-1" d="M70.86,110.55c17.8,0,42.69-16.64,53.77-33.53-10-36.46-42.83-20.35-53.77-45.83C59.93,56.66,27.13,40.55,17.1,77,28.18,93.9,53.07,110.55,70.86,110.55Z"/></g><g id="_38_stroke" data-name="38 stroke"><path class="cls-2" d="M50.34,67.37c-9.6,5.57-16.43,13.57-19.5,24.86"/><path class="cls-2" d="M57.74,78C47.93,81.87,41,88.18,38.34,98"/><path class="cls-2" d="M62.89,87.68a23.74,23.74,0,0,0-15.3,16"/><path class="cls-2" d="M66.84,97.25c-5.29,1-9.23,3.78-11,10.2"/><path class="cls-2" d="M70.86,110.55c17.8,0,42.69-16.64,53.77-33.53-10-36.46-42.83-20.35-53.77-45.83C59.93,56.66,27.13,40.55,17.1,77,28.18,93.9,53.07,110.55,70.86,110.55Z"/><path class="cls-2" d="M118.3,85.08c-13-38.71-35.21-21.34-47.44-39.4-12.23,18.06-34.39.68-47.44,39.4"/><path class="cls-2" d="M78.63,52.68s-6,3.35-7.76,9.5c-1.73-6.15-7.76-9.5-7.76-9.5"/><path class="cls-2" d="M88.58,56.07s-10,5.42-17.71,28.17C63.1,61.49,53.15,56.07,53.15,56.07"/><path class="cls-2" d="M99,59.45s-19.28,15-28.14,51.09C62,74.48,42.73,59.45,42.73,59.45"/><path class="cls-2" d="M91.39,67.37c9.6,5.57,16.43,13.57,19.5,24.86"/><path class="cls-2" d="M84,78c9.81,3.89,16.72,10.2,19.4,20.05"/><path class="cls-2" d="M78.84,87.68a23.74,23.74,0,0,1,15.3,16"/><path class="cls-2" d="M74.89,97.25c5.29,1,9.23,3.78,11,10.2"/></g></svg>