<svg xmlns="http://www.w3.org/2000/svg" viewBox="0 0 141.73 141.73"><defs><style>.cls-1{fill:current;}.cls-2{fill:none;fill:current;stroke-linecap:round;stroke-linejoin:round;stroke-width:0.75px;}</style></defs><title>Artboard 2</title><g id="_2_fill" data-name="2 fill"><path class="cls-1" d="M66.17,109.84,21.79,58.42c-4.7-5.83-1.13-15,5.28-18.87,6.76-3.29,16.34-1.61,18.81,5.47Z"/><path class="cls-1" d="M53.36,102.78l-27-12.29C23.45,89,23.2,84.77,25,82.05c2.08-2.54,6.19-3.62,8.46-1.27Z"/><path class="cls-1" d="M70.86,42c5.82-5.25,21.95-10.12,21.95-10.12l-21.95,78-21.95-78S65,36.76,70.86,42"/><path class="cls-1" d="M75.56,109.84l44.37-51.43c4.7-5.83,1.13-15-5.28-18.87-6.76-3.29-16.34-1.61-18.81,5.47Z"/><path class="cls-1" d="M88.37,102.78l27-12.29c2.93-1.45,3.18-5.73,1.35-8.44-2.08-2.54-6.19-3.62-8.46-1.27Z"/></g><g id="_2_stroke" data-name="2 stroke"><path class="cls-2" d="M66.17,109.84,21.79,58.42c-4.7-5.83-1.13-15,5.28-18.87,6.76-3.29,16.34-1.61,18.81,5.47Z"/><path class="cls-2" d="M53.36,102.78l-27-12.29C23.45,89,23.2,84.77,25,82.05c2.08-2.54,6.19-3.62,8.46-1.27Z"/><path class="cls-2" d="M70.86,42c5.82-5.25,21.95-10.12,21.95-10.12l-21.95,78-21.95-78S65,36.76,70.86,42"/><path class="cls-2" d="M75.56,109.84l44.37-51.43c4.7-5.83,1.13-15-5.28-18.87-6.76-3.29-16.34-1.61-18.81,5.47Z"/><path class="cls-2" d="M88.37,102.78l27-12.29c2.93-1.45,3.18-5.73,1.35-8.44-2.08-2.54-6.19-3.62-8.46-1.27Z"/></g></svg>