<svg xmlns="http://www.w3.org/2000/svg" viewBox="0 0 141.73 141.73"><defs><style>.cls-1{fill:current;}.cls-2{fill:none;fill:current;stroke-linecap:round;stroke-linejoin:round;stroke-width:0.75px;}</style></defs><title>sine_art_10</title><g id="_10_fill" data-name="10 fill"><path class="cls-1" d="M121.39,108.37c4.75-25.87-12.25-75-50.52-75s-55.27,49.12-50.52,75Z"/></g><g id="_10_stroke" data-name="10 stroke"><path class="cls-2" d="M121.39,108.37c4.75-25.87-12.25-75-50.52-75s-55.27,49.12-50.52,75Z"/><path class="cls-2" d="M100.22,108.37C103,90.13,93.11,55.5,70.86,55.5S38.75,90.13,41.51,108.37"/><path class="cls-2" d="M50.64,108.37c-2.87-18.12,12.5-21.92,20.23-30.29,6.77-7.33,7.52-17.42,0-17.42s-6.77,10.08,0,17.42c7.72,8.37,23.1,12.17,20.23,30.29"/></g></svg>