<svg viewBox="0 0 147 147"><title>lilz_art_9</title><g id="_9_fill" data-name="9 fill"><circle class="cls-1" cx="70.86" cy="70.87" r="51.81"/></g><g id="_9_stroke" data-name="9 stroke"><path class="cls-2" d="M63.12,104.59c-4.44-6.48-6.12-13-8.06-18.26C51.75,76.08,44,64.46,34.13,67.54c-7.58,2.92-5.5,11.17-2.42,14.38,2.71,2.83,7.67,2.71,9.54.08,2.11-3.06,0-6.48-2.75-6.33-1.62.07-2.5,1.14-2.25,2.18"/><path class="cls-2" d="M56.16,89.46c-.57-8.78,5.77-13.1,7.37-18.22"/><path class="cls-2" d="M55.75,73.21C55.75,57.71,45.64,39,37.5,46c-7.13,7.5,6,11.83,12.26,18.23A25.92,25.92,0,0,1,55.75,73.21Z"/><path class="cls-2" d="M63.91,63.65s.84,1.25,3.69,1.16"/><line class="cls-2" x1="63.53" y1="64.81" x2="64.26" y2="63.99"/><line class="cls-2" x1="65.11" y1="65.66" x2="65.53" y2="64.59"/><line class="cls-2" x1="67.05" y1="65.97" x2="67.05" y2="64.8"/><path class="cls-2" d="M92.48,106c.41-.84-.47-2.06-1.75-2.12-2.37-.06-4.34,1.44-3.62,4.86.78,3.58,8.75,6.47,11.56-.92C99,107,100.85,95.52,88,98.65S70.86,119.4,70.86,119.4,66.5,101.77,53.69,98.65s-11,8.31-10.62,9.19c2.81,7.38,10.78,4.5,11.56.92.72-3.42-1.25-4.92-3.62-4.86-1.28.06-2.16,1.28-1.75,2.13"/><path class="cls-2" d="M78.61,104.59c4.44-6.48,6.12-13,8.06-18.26C90,76.08,97.77,64.46,107.6,67.54c7.58,2.92,5.5,11.17,2.42,14.38-2.71,2.83-7.67,2.71-9.54.08-2.11-3.06,0-6.48,2.75-6.33,1.63.07,2.5,1.14,2.25,2.18"/><path class="cls-2" d="M85.57,89.46c.57-8.78-5.77-13.1-7.37-18.22"/><path class="cls-2" d="M86,73.21C86,57.71,96.09,39,104.23,46c7.13,7.5-6,11.83-12.26,18.23A25.92,25.92,0,0,0,86,73.21Z"/><path class="cls-2" d="M70.86,78.52c4,0,5.76-3.84,7.86-8.44,1.68-3.44,2.56-7.85,1.31-10.94,2-3.44,6.5-2.47,6.22-8.53-4.78-1-5.66,2.34-7.91,3.5-5.25-5.78,20-7.7,15.63-27.86-1.91-.15-.63,5.07-3.7,10.6a.71.71,0,0,1-1.25,0,20.07,20.07,0,0,0-7.22-7.52.51.51,0,0,0-.67.75c3.42,4.33,6,10.31,2.3,13.16a41.63,41.63,0,0,1-5.26,3.27.64.64,0,0,1-.84-.5c-.45-2.68-1.14-6.13-2.19-7.64a.43.43,0,0,0-.79.25c0,4.77.12,10.46-.83,11.68a3.53,3.53,0,0,1-5.31,0c-1-1.21-.87-6.91-.83-11.68a.43.43,0,0,0-.79-.25c-1.05,1.51-1.74,5-2.19,7.64a.64.64,0,0,1-.84.5,41.63,41.63,0,0,1-5.26-3.27c-3.69-2.85-1.12-8.83,2.3-13.16a.51.51,0,0,0-.67-.75,20.07,20.07,0,0,0-7.22,7.52.71.71,0,0,1-1.25,0c-3.07-5.52-1.79-10.75-3.7-10.6C43.38,46.42,68.63,48.33,63.38,54.11c-2.25-1.16-3.12-4.47-7.91-3.5-.28,6.06,4.22,5.09,6.22,8.53-1.25,3.08-.37,7.5,1.31,10.94C65.11,74.68,66.89,78.52,70.86,78.52Z"/><path class="cls-2" d="M77.82,63.65S77,64.9,74.14,64.8"/><line class="cls-2" x1="78.2" y1="64.81" x2="77.47" y2="63.99"/><line class="cls-2" x1="76.62" y1="65.66" x2="76.2" y2="64.59"/><line class="cls-2" x1="74.68" y1="65.97" x2="74.68" y2="64.8"/><circle class="cls-2" cx="70.86" cy="74.43" r="1.91"/><path class="cls-2" d="M70.86,101.83c5.11-7.29,9.23-8.71,9.23-13.3-.07-5.16-6.36-8.18-9.23-2.08-2.86-6.11-9.16-3.08-9.23,2.08C61.64,93.12,65.75,94.54,70.86,101.83Z"/><circle class="cls-2" cx="70.86" cy="70.87" r="51.81"/></g></svg>