<svg xmlns="http://www.w3.org/2000/svg" viewBox="0 0 141.73 141.73"><defs><style>.cls-1{fill:current;}.cls-2{fill:none;fill:current;stroke-linecap:round;stroke-linejoin:round;stroke-width:0.75px;}</style></defs><title>sine_art_5</title><g id="_5_fill" data-name="5 fill"><path class="cls-1" d="M70.86,28.87C58.62,68,14.75,77.24,19.25,112.87H122.48C127,77.24,83.11,68,70.86,28.87Z"/></g><g id="_5_stroke" data-name="5 stroke"><path class="cls-2" d="M70.86,28.87C58.62,68,14.75,77.24,19.25,112.87H122.48C127,77.24,83.11,68,70.86,28.87Z"/><line class="cls-2" x1="64.56" y1="89.21" x2="59.34" y2="69.63"/><line class="cls-2" x1="47.84" y1="80.64" x2="56.63" y2="92.94"/><line class="cls-2" x1="37.61" y1="92.08" x2="50.11" y2="99.89"/><circle class="cls-2" cx="45.37" cy="77.18" r="4.25"/><circle class="cls-2" cx="34" cy="89.83" r="4.25"/><circle class="cls-2" cx="58.25" cy="65.52" r="4.25"/><path class="cls-2" d="M86.71,112.87a15.85,15.85,0,0,0-31.69,0"/><path class="cls-2" d="M113.26,112.87a9,9,0,0,0-17.92,0,24.48,24.48,0,0,0-49,0,9,9,0,0,0-17.92,0"/><line class="cls-2" x1="77.17" y1="89.21" x2="82.39" y2="69.63"/><line class="cls-2" x1="93.89" y1="80.64" x2="85.1" y2="92.94"/><line class="cls-2" x1="104.12" y1="92.08" x2="91.62" y2="99.89"/><circle class="cls-2" cx="96.36" cy="77.18" r="4.25"/><circle class="cls-2" cx="107.73" cy="89.83" r="4.25"/><circle class="cls-2" cx="83.48" cy="65.52" r="4.25"/><circle class="cls-2" cx="70.87" cy="52.72" r="5.14"/><line class="cls-2" x1="70.87" y1="57.86" x2="70.87" y2="88.39"/></g></svg>