<svg xmlns="http://www.w3.org/2000/svg" viewBox="0 0 141.73 141.73"><defs><style>.cls-1{fill:current;}.cls-2{fill:none;fill:current;stroke-linecap:round;stroke-linejoin:round;stroke-width:0.75px;}</style></defs><title>lilz_art_2</title><g id="_2_fill" data-name="2 fill"><path class="cls-1" d="M92.31,68.22a21.49,21.49,0,0,0-4.43-10.67l.11.11,34.91-34.91-2-2-2-2L84.06,53.73l.12.12a21.5,21.5,0,0,0-10.67-4.43h.14V18.82H68.08v30.6h.14a21.5,21.5,0,0,0-10.67,4.43l.12-.12L22.76,18.82l-2,2-2,2L53.73,57.67l.11-.11a21.49,21.49,0,0,0-4.43,10.67v-.14H18.82v5.57h30.6v-.14a21.49,21.49,0,0,0,4.43,10.67l-.11-.11L18.82,119l2,2,2,2L57.67,88l-.12-.12a21.5,21.5,0,0,0,10.67,4.43h-.14v30.6h5.57V92.31h-.14a21.5,21.5,0,0,0,10.67-4.43l-.12.12L119,122.91l2-2,2-2L88,84.06l-.11.11a21.49,21.49,0,0,0,4.43-10.67v.14h30.6V68.08H92.31Z"/></g><g id="_2_stroke" data-name="2 stroke"><polyline class="cls-2" points="57.67 53.73 22.75 18.82 20.79 20.79 18.82 22.76 53.73 57.67"/><polyline class="cls-2" points="73.65 49.42 73.65 18.82 68.08 18.82 68.08 49.42"/><polyline class="cls-2" points="84.06 53.73 118.97 18.82 120.94 20.79 122.91 22.76 88 57.67"/><polyline class="cls-2" points="57.67 88 22.75 122.91 20.79 120.94 18.82 118.97 53.73 84.06"/><polyline class="cls-2" points="49.42 73.65 18.82 73.65 18.82 68.08 49.42 68.08"/><circle class="cls-2" cx="70.86" cy="70.86" r="21.63"/><polyline class="cls-2" points="73.65 92.31 73.65 122.91 68.08 122.91 68.08 92.31"/><polyline class="cls-2" points="84.06 88 118.97 122.91 120.94 120.94 122.91 118.97 88 84.06"/><polyline class="cls-2" points="92.31 73.65 122.91 73.65 122.91 68.08 92.31 68.08"/></g></svg>