<svg viewBox="0 0 147 147"><title>Artboard 11</title><g id="_11_fill" data-name="11 fill"><path class="cls-1" d="M106.91,125c8-43-26.17-88.17-36-108.33C61,36.86,26.82,82,34.82,125Z"/></g><g id="_11_stroke" data-name="11 stroke"><path class="cls-2" d="M54.22,52.87H69.16V72.56H44.78S51.09,57.25,54.22,52.87Z"/><path class="cls-2" d="M56.15,56.25H66V69.18H49.93S54.09,59.12,56.15,56.25Z"/><path class="cls-2" d="M58,59.93h4.36V65.5H55.22A46.23,46.23,0,0,1,58,59.93Z"/><path class="cls-2" d="M58.69,74.86V95.45H38.16a131.14,131.14,0,0,1,5.75-20.58Z"/><path class="cls-2" d="M55.66,77.91V92.29H42.07a95.16,95.16,0,0,1,4.08-14.39Z"/><path class="cls-2" d="M52.66,81.67v7H46.08a46.11,46.11,0,0,1,2-7Z"/><path class="cls-2" d="M58.78,98.28l-21,.08c-1.64,6.69-1.46,15.67,0,24.5l21-.08Z"/><path class="cls-2" d="M55.66,101.36l-15,.06c-1.17,5-1,11.74,0,18.35l15-.06Z"/><path class="cls-2" d="M51.48,104.57l-7.17,0a45.57,45.57,0,0,0,0,12l7.19,0Z"/><path class="cls-2" d="M106.91,125c8-43-26.17-88.17-36-108.33C61,36.86,26.82,82,34.82,125Z"/><path class="cls-2" d="M85.87,50.28c-2.33-3.83-15-27.81-15-27.81s-12.67,24-15,27.81Z"/><path class="cls-2" d="M80.31,47.31c-1-1.57-5.59-9.76-9.45-17.11C67,37.55,62.45,45.74,61.42,47.31Z"/><path class="cls-2" d="M75.19,44.24c-.7-1-2.25-3.64-4.32-7.47-2.07,3.82-3.63,6.45-4.32,7.47Z"/><path class="cls-2" d="M87.51,52.87H72.57V72.56H96.95S90.64,57.25,87.51,52.87Z"/><path class="cls-2" d="M85.58,56.25H75.73V69.18H91.8S87.64,59.12,85.58,56.25Z"/><path class="cls-2" d="M83.76,59.93H79.4V65.5h7.11A46.23,46.23,0,0,0,83.76,59.93Z"/><rect class="cls-2" x="61.42" y="74.86" width="18.89" height="48"/><rect class="cls-2" x="65.12" y="78.53" width="11.5" height="40.67"/><rect class="cls-2" x="68.87" y="82.66" width="4" height="32.42"/><path class="cls-2" d="M83,74.86V95.45h20.54a131.14,131.14,0,0,0-5.75-20.58Z"/><path class="cls-2" d="M86.07,77.91V92.29H99.66a95.16,95.16,0,0,0-4.08-14.39Z"/><path class="cls-2" d="M89.07,81.67v7h6.58a46.11,46.11,0,0,0-2-7Z"/><path class="cls-2" d="M83,98.28l21,.08c1.64,6.69,1.46,15.67,0,24.5l-21-.08Z"/><path class="cls-2" d="M86.07,101.36l15,.06c1.17,5,1,11.74,0,18.35l-15-.06Z"/><path class="cls-2" d="M90.25,104.57l7.17,0a45.57,45.57,0,0,1,0,12l-7.19,0Z"/></g></svg>