<svg xmlns="http://www.w3.org/2000/svg" viewBox="0 0 141.73 141.73"><defs><style>.cls-1{fill:current;}.cls-2{fill:none;fill:current;stroke-linecap:round;stroke-linejoin:round;stroke-width:0.75px;}</style></defs><title>sine_art_7</title><g id="_7_fill" data-name="7 fill"><path class="cls-1" d="M113.12,94.52h0c8.76-6.84,13.26-14.43,8.42-22.43-4.16-6.24-10.61-6-13.06-4.26h0c4.83-11.18,5.32-21.16-2.15-27.2-9.5-6.73-17.49-.43-19.24,2.45h0c-2.49-10.42-7.89-17.33-16.22-17.33S57.14,32.66,54.65,43.07h0c-1.76-2.88-9.75-9.18-19.24-2.45-7.47,6-7,16-2.15,27.2h0c-2.46-1.69-8.91-2-13.06,4.26-4.84,8-.33,15.59,8.42,22.43h0c-3-.83-7.47.3-8.42,4.41-3.12,17,38.18,17.69,50.68,16.82,12.5.87,53.79.22,50.68-16.82C120.6,94.82,116.11,93.68,113.12,94.52Z"/></g><g id="_7_stroke" data-name="7 stroke"><path class="cls-2" d="M70.87,115.75c23.7-33.31,23.84-90,0-90S47.17,82.44,70.87,115.75Z"/><path class="cls-2" d="M87.08,43.07c1.76-2.88,9.75-9.18,19.24-2.45C124.66,55.46,95.08,94,70.87,115.75,46.65,94,17.07,55.46,35.4,40.63c9.5-6.73,17.49-.43,19.24,2.45"/><path class="cls-2" d="M108.48,67.83c2.46-1.69,8.91-2,13.06,4.26,10.8,17.86-24.92,33.66-50.68,43.66C45.11,105.76,9.39,90,20.19,72.09c4.16-6.24,10.61-6,13.06-4.26"/><path class="cls-2" d="M113.12,94.52c3-.83,7.47.3,8.42,4.41,3.12,17-38.18,17.69-50.68,16.82-12.5.87-53.79.22-50.68-16.82.94-4.11,5.43-5.24,8.42-4.41"/></g></svg>