<svg viewBox="0 0 147 147">
    <title>@liam_draws123_8</title>
    <g id="_8_fill" data-name="8 fill">
        <path class="cls-1" d="M119.24,104.59c20.47-33.73-29-36.32-48.37-67.45C51.52,68.27,2,70.86,22.49,104.59Z" />
    </g>
    <g id="_8_stroke" data-name="8 stroke">
        <path class="cls-2" d="M119.24,104.59c20.47-33.73-29-36.32-48.37-67.45C51.52,68.27,2,70.86,22.49,104.59Z" />
        <path class="cls-2" d="M62.34,104.59a4.28,4.28,0,1,1,8.4,0" />
        <path class="cls-2" d="M56.67,104.59a9.91,9.91,0,1,1,19.76,0" />
        <path class="cls-2" d="M49.64,104.59a16.93,16.93,0,1,1,33.81,0" />
        <path class="cls-2" d="M67.64,55.11a3.95,3.95,0,0,1,5.89-.55" />
        <path class="cls-2" d="M64.31,51a9.15,9.15,0,0,1,11-1.57" />
        <path class="cls-2" d="M67.25,42.24a15.52,15.52,0,0,1,7.26,0" />
        <path class="cls-2" d="M93.62,86a3.61,3.61,0,1,1,6.86-.49" />
        <path class="cls-2" d="M97.93,88.19a3.61,3.61,0,0,1-2,0" />
        <path class="cls-2" d="M88.71,83.48A8.36,8.36,0,0,1,105,82.41" />
        <path class="cls-2" d="M82.86,82.65a14.27,14.27,0,0,1,27.68-2.39" />
        <path class="cls-2" d="M89.86,59.34a3.63,3.63,0,0,1,.45-2.66" />
        <path class="cls-2" d="M85.09,57.44a8.42,8.42,0,0,1,1.4-3.62" />
        <path class="cls-2" d="M79.23,56.51A14.37,14.37,0,0,1,81.92,50" />
        <path class="cls-2" d="M73.18,57a20.24,20.24,0,0,1,4.44-11.19" />
        <path class="cls-2" d="M46.83,67.19a3.65,3.65,0,1,1,3.78,2.34" />
        <path class="cls-2" d="M50.36,57.43A8.46,8.46,0,0,1,58.71,66" />
        <path class="cls-2" d="M41.79,65.48a8.45,8.45,0,0,1,.57-2.66" />
        <path class="cls-2" d="M56.46,52.85a14.42,14.42,0,0,1,7.41,8.23" />
        <path class="cls-2" d="M61.28,48.66a20.43,20.43,0,0,1,7.93,9.55" />
        <path class="cls-2" d="M59,83.44a3.13,3.13,0,0,1,4.69,3.66" />
        <path class="cls-2" d="M57.9,79.37a7.08,7.08,0,0,1,5.49-.07,7.26,7.26,0,0,1,4.55,7.62" />
        <path class="cls-2" d="M55.55,74.79A12.39,12.39,0,0,1,73.12,86.2" />
        <path class="cls-2" d="M52.1,70.78a17.54,17.54,0,0,1,26,12.75" />
        <path class="cls-2" d="M76.48,78.34a3.6,3.6,0,0,1,5.18,4.37" />
        <path class="cls-2" d="M73.84,74.39a8.34,8.34,0,0,1,11.33,2.34" />
        <path class="cls-2" d="M69,70.61a14.25,14.25,0,0,1,20.4,2" />
        <path class="cls-2" d="M62.72,68.62a20.19,20.19,0,0,1,28.73-2.45" />
        <path class="cls-2" d="M56.67,69a25,25,0,0,1,37-7.17" />
        <path class="cls-2" d="M115,79.59a3.56,3.56,0,0,1-.24-3.87,3.13,3.13,0,0,1,1.2-1.12" />
        <path class="cls-2" d="M108.89,76.87A7.31,7.31,0,0,1,110,72.78a7.13,7.13,0,0,1,1.48-1.72" />
        <path class="cls-2" d="M102.81,71.73a12.18,12.18,0,0,1,2.9-4.77" />
        <path class="cls-2" d="M96,70.48a17.25,17.25,0,0,1,3.83-7.38" />
        <path class="cls-2" d="M90.12,72.2a21.58,21.58,0,0,1,3.14-9.72,21.31,21.31,0,0,1,1.8-2.5" />
        <path class="cls-2" d="M33.61,85.45A3.95,3.95,0,0,1,41,88.2" />
        <path class="cls-2" d="M29.3,82.49a9.14,9.14,0,0,1,17,4.24" />
        <path class="cls-2" d="M22.94,80.72a15.61,15.61,0,0,1,29.86,6.7" />
        <path class="cls-2" d="M38.81,65A22.13,22.13,0,0,1,59.25,88.49" />
        <path class="cls-2"
            d="M19.94,99.77a3.06,3.06,0,0,1,2-1.14,3.66,3.66,0,0,1,3.76,3.51,4.32,4.32,0,0,1-.43,2.45" />
        <path class="cls-2"
            d="M18.2,94.76a6.82,6.82,0,0,1,3.2-1.23c4.25-.48,8.15,3.16,8.71,8.13a10.41,10.41,0,0,1-.08,2.94" />
        <path class="cls-2" d="M17.77,87.89a11.47,11.47,0,0,1,2.92-.72c5.37-.6,10.42,2.64,13.06,7.8" />
        <path class="cls-2" d="M20.44,80.74c6.9-.57,13.36,3.31,17.19,9.59" />
        <path class="cls-2" d="M112.22,104.59a4.28,4.28,0,0,1,8.27-2.19" />
        <path class="cls-2" d="M106.51,104.59a9.91,9.91,0,0,1,16.61-8.33" />
        <path class="cls-2" d="M100.35,98A16.92,16.92,0,0,1,124,88.42" />
        <path class="cls-2" d="M97,89.41A24,24,0,0,1,120.77,80" />
        <path class="cls-2" d="M82,96.88a3,3,0,1,1,1.43,5.63" />
        <path class="cls-2" d="M80,93.47a7,7,0,0,1,8.27,11.12" />
        <path class="cls-2" d="M76.33,90a11.91,11.91,0,0,1,17.91,14.62" />
        <path class="cls-2" d="M71.52,87.61a16.86,16.86,0,0,1,28,17" />
        <path class="cls-2" d="M45.59,104.59a2.89,2.89,0,0,1,4.3-3.83" />
        <path class="cls-2" d="M41.43,104.59a6.69,6.69,0,0,1,8.9-8,6.76,6.76,0,0,1,.74.34" />
        <path class="cls-2" d="M36.59,104.59A11.42,11.42,0,0,1,52.06,92.2a11.52,11.52,0,0,1,1.5.72" />
        <path class="cls-2" d="M31.8,104.59A16.18,16.18,0,0,1,57.25,89.64" />
    </g>
</svg>