<svg viewBox="0 0 147 147"><title>Artboard 10</title><g id="_10_fill" data-name="10 fill"><rect class="cls-1" x="33.71" y="33.71" width="74.32" height="74.32" transform="translate(-29.35 70.87) rotate(-45)"/></g><g id="_10_stroke" data-name="10 stroke"><line class="cls-2" x1="60.08" y1="37.8" x2="60.08" y2="70.87"/><line class="cls-2" x1="60.08" y1="90.04" x2="60.08" y2="103.93"/><line class="cls-2" x1="65.42" y1="43.19" x2="65.42" y2="109.24"/><line class="cls-2" x1="54.75" y1="43.13" x2="54.75" y2="70.87"/><line class="cls-2" x1="49.41" y1="48.59" x2="49.41" y2="63.2"/><line class="cls-2" x1="44.07" y1="53.91" x2="44.07" y2="63.2"/><line class="cls-2" x1="54.75" y1="67.03" x2="30.8" y2="67.03"/><line class="cls-2" x1="65.42" y1="70.87" x2="27.02" y2="70.87"/><line class="cls-2" x1="54.75" y1="63.2" x2="34.68" y2="63.2"/><line class="cls-2" x1="65.42" y1="74.7" x2="30.85" y2="74.7"/><line class="cls-2" x1="65.42" y1="78.53" x2="34.68" y2="78.53"/><line class="cls-2" x1="65.42" y1="82.37" x2="38.52" y2="82.37"/><line class="cls-2" x1="65.42" y1="86.2" x2="42.35" y2="86.2"/><line class="cls-2" x1="65.42" y1="90.04" x2="46.19" y2="90.04"/><line class="cls-2" x1="60.08" y1="93.87" x2="50.02" y2="93.87"/><line class="cls-2" x1="60.08" y1="97.71" x2="53.86" y2="97.71"/><rect class="cls-3" x="33.71" y="33.71" width="74.32" height="74.32" transform="translate(-29.35 70.87) rotate(-45)"/><rect class="cls-2" x="39.86" y="39.86" width="62.01" height="62.01" transform="translate(-29.35 70.86) rotate(-45)"/><line class="cls-2" x1="81.65" y1="37.8" x2="81.65" y2="70.87"/><line class="cls-2" x1="81.65" y1="90.04" x2="81.65" y2="103.93"/><polyline class="cls-2" points="81.65 37.8 70.86 48.59 60.08 37.8"/><line class="cls-2" x1="78.16" y1="34.31" x2="67.38" y2="45.1"/><line class="cls-2" x1="74.34" y1="30.49" x2="63.56" y2="41.28"/><line class="cls-2" x1="76.31" y1="43.19" x2="76.31" y2="109.24"/><line class="cls-2" x1="86.98" y1="43.13" x2="86.98" y2="70.87"/><line class="cls-2" x1="92.32" y1="48.59" x2="92.32" y2="63.2"/><line class="cls-2" x1="97.66" y1="53.91" x2="97.66" y2="63.2"/><line class="cls-2" x1="86.98" y1="67.03" x2="110.93" y2="67.03"/><line class="cls-2" x1="76.31" y1="70.87" x2="114.71" y2="70.87"/><line class="cls-2" x1="86.98" y1="63.2" x2="107.05" y2="63.2"/><line class="cls-2" x1="76.31" y1="74.7" x2="110.88" y2="74.7"/><line class="cls-2" x1="76.31" y1="78.53" x2="107.05" y2="78.53"/><line class="cls-2" x1="76.31" y1="82.37" x2="103.21" y2="82.37"/><line class="cls-2" x1="76.31" y1="86.2" x2="99.38" y2="86.2"/><line class="cls-2" x1="76.31" y1="90.04" x2="95.54" y2="90.04"/><line class="cls-2" x1="81.65" y1="93.87" x2="91.71" y2="93.87"/><line class="cls-2" x1="81.65" y1="97.71" x2="87.87" y2="97.71"/><line class="cls-2" x1="70.87" y1="48.59" x2="70.86" y2="114.71"/></g></svg>