<svg xmlns="http://www.w3.org/2000/svg" viewBox="0 0 141.73 141.73"><defs><style>.cls-1{fill:current;}.cls-2{fill:none;fill:current;stroke-linecap:round;stroke-linejoin:round;stroke-width:0.75px;}</style></defs><title>Artboard 24</title><g id="_24_fill" data-name="24 fill"><path class="cls-1" d="M104.71,54h0A34.16,34.16,0,0,0,37,54h0a12.19,12.19,0,0,0-1.18,13.7l35,49.54,35-49.54A12.19,12.19,0,0,0,104.71,54Z"/></g><g id="_24_stroke" data-name="24 stroke"><path class="cls-2" d="M70.81,69.79a8.08,8.08,0,1,1,0-16.16"/><circle class="cls-2" cx="46.54" cy="61.71" r="8.08"/><path class="cls-2" d="M70.86,117.27l35-49.54a12.19,12.19,0,1,0-22.81-6,12.22,12.22,0,0,0-24.44,0,12.19,12.19,0,1,0-22.81,6Z"/><path class="cls-2" d="M70.86,106.15,86.55,83.79a5.5,5.5,0,1,0-10.29-2.7,5.39,5.39,0,1,0-10.77,0,5.5,5.5,0,1,0-10.29,2.7Z"/><path class="cls-2" d="M70.92,69.79a8.08,8.08,0,1,0,0-16.16"/><circle class="cls-2" cx="95.19" cy="61.71" r="8.08"/><path class="cls-2" d="M104.72,54A34.16,34.16,0,0,0,37,54"/><path class="cls-2" d="M91.85,49.93a22.72,22.72,0,0,0-42,0"/></g></svg>