<svg xmlns="http://www.w3.org/2000/svg" viewBox="0 0 141.73 141.73"><defs><style>.cls-1{fill:current;}.cls-2{fill:none;fill:current;stroke-linecap:round;stroke-linejoin:round;stroke-width:0.75px;}</style></defs><title>Artboard 25</title><g id="_25_fill" data-name="25 fill"><path class="cls-1" d="M70.86,124.8c24.9-27.87,45.4-42,46.57-63,.58-9.19-2.54-17.66-9.79-25.12C97.27,26.43,76,21.93,70.86,16.93c-5.15,5-26.4,9.5-36.78,19.75C26.83,44.14,23.71,52.61,24.3,61.8,25.47,82.8,46,96.93,70.86,124.8Z"/></g><g id="_25_stroke" data-name="25 stroke"><path class="cls-2" d="M67.47,88.72C56.59,77.47,50.74,72.6,49.92,62.22,49,50.63,58.12,42.77,67.46,52.07Z"/><path class="cls-2" d="M70.86,125c24.9-27.87,45.4-42,46.57-63,.58-9.19-2.54-17.66-9.79-25.12C97.27,26.59,76,22.09,70.86,17.09c-5.15,5-26.4,9.5-36.78,19.75C26.83,44.3,23.71,52.77,24.3,62,25.47,83,46,97.09,70.86,125Z"/><path class="cls-2" d="M70.86,114.22C90,90.47,106.14,78.84,108.57,64.85c2.16-10.21-1.77-18.17-10-24.87-7.63-6.14-22-10.14-27.66-14.39-5.65,4.25-20,8.25-27.66,14.39-8.28,6.69-12.21,14.66-10,24.87C35.59,78.84,51.72,90.47,70.86,114.22Z"/><path class="cls-2" d="M70.86,99c14.74-15.59,24.28-21.5,25.43-36C97.62,46.68,84,35.78,70.86,47.59c-13.09-11.81-26.75-.91-25.43,15.33C46.59,77.47,56.12,83.38,70.86,99Z"/><path class="cls-2" d="M74.27,88.72C85.14,77.47,91,72.6,91.81,62.22c.95-11.59-8.2-19.45-17.54-10.15Z"/><line class="cls-2" x1="70.87" y1="47.59" x2="70.87" y2="98.96"/></g></svg>