<svg viewBox="0 0 147 147"><title>Artboard 8</title><g id="_8_fill" data-name="8 fill"><path class="cls-1" d="M109.24,59.8c4.12-12.45-1.88-20.78-13.9-14.47v.06c2.07-12-2.48-20.23-14.2-14-.51-8.41-3.3-15.06-10.26-15.06S61.11,23,60.6,31.41c-11.72-6.26-16.28,1.95-14.2,14v-.06c-12-6.3-18,2-13.9,14.47-19.85-4.14-17,21.35,11.92,39.32,0,0,18.92,10.22,26.45,26.25,7.53-16,26.45-26.25,26.45-26.25C126.26,81.15,129.08,55.66,109.24,59.8Z"/></g><g id="_8_stroke" data-name="8 stroke"><path class="cls-2" d="M60.61,31.42C39.92,20.37,41.55,54.34,62.51,74.88"/><path class="cls-2" d="M46.39,45.33c-20-10.47-23.34,19.43,8.76,41.52"/><path class="cls-2" d="M44.41,99.12c-29-18-31.78-43.52-11.85-39.31"/><path class="cls-2" d="M70.86,55.6s8.49,27.22,26.45,43.52c0,0-18.92,10.22-26.45,26.25-7.53-16-26.45-26.25-26.45-26.25,18-16.3,26.45-43.52,26.45-43.52"/><path class="cls-2" d="M70.86,113.77c7.12-12,14.84-15.34,14.84-15.34C75.49,87.65,70.86,73.28,70.86,73.28S66.24,87.65,56,98.43C56,98.43,63.75,101.75,70.86,113.77Z"/><path class="cls-2" d="M74.36,64.76c5.34-7.16,13.85-48.4-3.49-48.4S62,57.6,67.37,64.76"/><path class="cls-2" d="M81.12,31.42c20.68-11.05,19.06,22.92-1.91,43.46"/><path class="cls-2" d="M95.34,45.33c20-10.47,23.34,19.43-8.76,41.52"/><path class="cls-2" d="M97.32,99.12c29-18,31.78-43.52,11.85-39.31"/></g></svg>