<svg xmlns="http://www.w3.org/2000/svg" viewBox="0 0 141.73 141.73"><defs><style>.cls-1{fill:current;}.cls-2{fill:none;fill:current;stroke-linecap:round;stroke-linejoin:round;stroke-width:0.75px;}</style></defs><title>lilz_art_3</title><g id="_3_fill" data-name="3 fill"><path class="cls-1" d="M109.33,62.73c-4.75,0-8.1-3.23-8.91-7.87-.82-5.48,2.69-10.78,9.69-11.44,3.66-.36,5.44,1.38,5.53,4.09-.12,2.84-3,4.78-6.62,5.66a10.37,10.37,0,0,0,12-5.48c1.81-4,.25-9.77-5.92-11.4-4.77-1.32-13.62-.64-21,3.31-12,6.48-20.8,23.19-29.43,23.19-4.75,0-8.25-3.29-9-7.94-.82-5.48,2.69-10.78,9.69-11.44,3.66-.36,5.44,1.38,5.53,4.09-.12,2.84-3,4.78-6.62,5.66a10.37,10.37,0,0,0,12-5.48c1.81-4,.25-9.77-5.92-11.4-4.77-1.32-13.62-.64-21,3.31C37.36,46.09,28.63,62.8,20,62.8H18.23V106H123.5V62.8Z"/></g><g id="_3_stroke" data-name="3 stroke"><path class="cls-2" d="M109.33,62.73c-4.75,0-8.1-3.23-8.91-7.87-.82-5.48,2.69-10.78,9.69-11.44,3.66-.36,5.44,1.38,5.53,4.09-.12,2.84-3,4.78-6.62,5.66a10.37,10.37,0,0,0,12-5.48c1.81-4,.25-9.77-5.92-11.4-4.77-1.32-13.62-.64-21,3.31-12,6.48-20.8,23.19-29.43,23.19-4.75,0-8.25-3.29-9-7.94-.82-5.48,2.69-10.78,9.69-11.44,3.66-.36,5.44,1.38,5.53,4.09-.12,2.84-3,4.78-6.62,5.66a10.37,10.37,0,0,0,12-5.48c1.81-4,.25-9.77-5.92-11.4-4.77-1.32-13.62-.64-21,3.31C37.36,46.09,28.63,62.8,20,62.8H18.23V106H123.5V62.8Z"/></g></svg>