<svg viewBox="0 0 147 147"><title>@liam_draws123_5</title><g id="_5_fill" data-name="5 fill"><path class="cls-1" d="M116.57,121.88c15.6-43.06-15.08-47.7-13.06-64.6a2.8,2.8,0,0,0-2.1-3.09C89,51.17,75.75,34.77,70.86,19.85,66,34.77,52.77,51.17,40.31,54.19a2.8,2.8,0,0,0-2.1,3.09c2,16.9-28.66,21.54-13.06,64.6Z"/></g><g id="_5_stroke" data-name="5 stroke"><path class="cls-2" d="M116.57,121.88c15.6-43.06-15.08-47.7-13.06-64.6a2.8,2.8,0,0,0-2.1-3.09C89,51.17,75.75,34.77,70.86,19.85,66,34.77,52.77,51.17,40.31,54.19a2.8,2.8,0,0,0-2.1,3.09c2,16.9-28.66,21.54-13.06,64.6Z"/><path class="cls-2" d="M107.28,121.88c0-30.18-17.79-55.85-36.41-64.95C52.24,66,34.45,91.7,34.45,121.88"/><path class="cls-2" d="M91.59,121.88c.2-20.4-9.19-37.57-20.72-46.07-11.53,8.49-20.93,25.66-20.72,46.07"/><path class="cls-2" d="M96.41,121.88a4.63,4.63,0,0,0,1.16-3.66c-.4-3.18-3-3.93-6.3-3.36,2-.46,5.34-1,5-4.66-.27-2.38-3.54-3.29-6.13-2.43,1.84-.49,4.58-2.09,3.62-5.4-.74-2.51-4-3.13-6-2.89,2-.24,4-1.55,3.08-4.41-1-2.31-3.34-2.34-5.75-1.75,1.53-.57,3.67-2.52,2.24-5.33-1.06-1.88-3.86-2.1-6.11-1.24,2-1,3.4-3.12,1.76-5.38-1.61-2-3.87-1.51-6.21-.21,1.83-1.84,2.94-3.86.78-5.72-1.71-1.36-3.92-.21-5.25,1.51,2.16-2.16.46-5.48-1.44-5.48s-3.61,3.32-1.44,5.48c-1.33-1.71-3.54-2.87-5.25-1.51-2.16,1.86-1,3.88.78,5.72-2.35-1.3-4.6-1.74-6.21.21-1.64,2.25-.25,4.43,1.76,5.38-2.26-.85-5.05-.64-6.11,1.24-1.43,2.81.71,4.76,2.24,5.33-2.4-.59-4.76-.56-5.75,1.75C49.93,97.93,52,99.24,54,99.48c-2-.24-5.28.38-6,2.89-1,3.31,1.78,4.92,3.62,5.4-2.59-.86-5.86.05-6.13,2.43-.32,3.64,3,4.19,5,4.66-3.3-.57-5.89.19-6.3,3.36a4.63,4.63,0,0,0,1.16,3.66"/><line class="cls-2" x1="71.88" y1="93.82" x2="66.61" y2="108.97"/><line class="cls-2" x1="66.85" y1="93.07" x2="62.85" y2="104.56"/><line class="cls-2" x1="61.82" y1="92.32" x2="59.09" y2="100.15"/><line class="cls-2" x1="80.25" y1="107.74" x2="72.73" y2="93.94"/><line class="cls-2" x1="83.17" y1="104.21" x2="78" y2="94.72"/><line class="cls-2" x1="86.09" y1="100.68" x2="83.27" y2="95.5"/><line class="cls-2" x1="66.01" y1="80.04" x2="77.29" y2="81.71"/><line class="cls-2" x1="61.18" y1="85.77" x2="82.68" y2="88.96"/><line class="cls-2" x1="57.48" y1="91.68" x2="86.35" y2="95.96"/><line class="cls-2" x1="117.81" y1="92.18" x2="121.01" y2="100.03"/><line class="cls-2" x1="114.47" y1="94.53" x2="120.22" y2="108.6"/><line class="cls-2" x1="111.54" y1="97.89" x2="114.39" y2="104.86"/><line class="cls-2" x1="102.64" y1="95.43" x2="120.07" y2="109.43"/><line class="cls-2" x1="105.35" y1="104.72" x2="118.66" y2="115.41"/><line class="cls-2" x1="106.76" y1="112.96" x2="116.86" y2="121.08"/><line class="cls-2" x1="20.95" y1="95.51" x2="35.38" y2="109.94"/><line class="cls-2" x1="20.84" y1="103.24" x2="34.61" y2="117.01"/><line class="cls-2" x1="22.34" y1="112.58" x2="31.63" y2="121.88"/><line class="cls-2" x1="68.93" y1="102.31" x2="77.02" y2="101.81"/><line class="cls-2" x1="67.37" y1="106.77" x2="79.32" y2="106.04"/><line class="cls-2" x1="70.48" y1="97.84" x2="74.71" y2="97.58"/><line class="cls-2" x1="68.4" y1="111.08" x2="77.96" y2="110.5"/><line class="cls-2" x1="53.17" y1="101.76" x2="70.31" y2="121.88"/><line class="cls-2" x1="51.45" y1="108.29" x2="63.03" y2="121.88"/><line class="cls-2" x1="55.43" y1="95.85" x2="77.6" y2="121.88"/><line class="cls-2" x1="50.38" y1="115.59" x2="55.74" y2="121.88"/><line class="cls-2" x1="76.28" y1="120.33" x2="89.37" y2="104.5"/><line class="cls-2" x1="81.44" y1="121.88" x2="90.72" y2="110.66"/><line class="cls-2" x1="73.01" y1="116.49" x2="87.55" y2="98.9"/><line class="cls-2" x1="87.89" y1="121.88" x2="91.49" y2="117.52"/><line class="cls-2" x1="102.69" y1="95.58" x2="108.75" y2="88.63"/><line class="cls-2" x1="105.95" y1="98.08" x2="112.8" y2="90.21"/><line class="cls-2" x1="101.02" y1="91.27" x2="104.7" y2="87.04"/><line class="cls-2" x1="109.14" y1="100.65" x2="116.85" y2="91.8"/><line class="cls-2" x1="103.09" y1="76.61" x2="116.36" y2="81.81"/><line class="cls-2" x1="100.98" y1="80.68" x2="119.05" y2="87.77"/><line class="cls-2" x1="105.19" y1="72.54" x2="111.93" y2="75.18"/><line class="cls-2" x1="98.88" y1="84.76" x2="120.46" y2="93.21"/><line class="cls-2" x1="67.88" y1="49.33" x2="91.64" y2="49.33"/><line class="cls-2" x1="68.9" y1="54.24" x2="101.5" y2="54.24"/><line class="cls-2" x1="72.5" y1="44.43" x2="86.02" y2="44.43"/><line class="cls-2" x1="74.84" y1="59.14" x2="103.42" y2="59.14"/><line class="cls-2" x1="60.79" y1="38.57" x2="64.79" y2="57.69"/><line class="cls-2" x1="56.92" y1="43.17" x2="59.5" y2="55.54"/><line class="cls-2" x1="64.51" y1="33.21" x2="69.6" y2="57.58"/><line class="cls-2" x1="52.9" y1="47.08" x2="54.22" y2="53.38"/><line class="cls-2" x1="42.14" y1="54.45" x2="62.02" y2="62.55"/><line class="cls-2" x1="44.87" y1="61.55" x2="57.35" y2="66.64"/><line class="cls-2" x1="47.92" y1="50.82" x2="67.46" y2="58.78"/><line class="cls-2" x1="47.61" y1="68.66" x2="53.27" y2="70.96"/><line class="cls-2" x1="22.14" y1="96.7" x2="42.02" y2="88.35"/><line class="cls-2" x1="26.12" y1="100.67" x2="39.18" y2="95.19"/><line class="cls-2" x1="21.67" y1="91.25" x2="45.94" y2="81.06"/><line class="cls-2" x1="30.09" y1="104.65" x2="37.13" y2="101.69"/><line class="cls-2" x1="65.29" y1="36.94" x2="76.37" y2="31.81"/><line class="cls-2" x1="66.32" y1="41.88" x2="79.05" y2="35.98"/><line class="cls-2" x1="65.61" y1="31.38" x2="74.02" y2="27.49"/><line class="cls-2" x1="69.18" y1="24.32" x2="72.01" y2="23"/><line class="cls-2" x1="67.35" y1="46.82" x2="82.06" y2="40"/><line class="cls-2" x1="88.06" y1="70.5" x2="93.91" y2="59.14"/><line class="cls-2" x1="91.76" y1="75.07" x2="99.98" y2="59.14"/><line class="cls-2" x1="84.12" y1="66.39" x2="87.85" y2="59.14"/><line class="cls-2" x1="79.94" y1="62.73" x2="81.79" y2="59.14"/><line class="cls-2" x1="95.21" y1="80.12" x2="104.07" y2="62.94"/><line class="cls-2" x1="98.4" y1="85.7" x2="107.12" y2="68.78"/><line class="cls-2" x1="35.34" y1="67.67" x2="41.25" y2="83.03"/><line class="cls-2" x1="31.46" y1="73.02" x2="36.14" y2="85.18"/><line class="cls-2" x1="38.27" y1="59.84" x2="46.24" y2="80.56"/><line class="cls-2" x1="41.87" y1="53.74" x2="50.04" y2="74.98"/><line class="cls-2" x1="27.55" y1="78.31" x2="31.02" y2="87.33"/><line class="cls-2" x1="23.99" y1="84.51" x2="25.9" y2="89.48"/></g></svg>