<svg viewBox="0 0 147 147"><title>Artboard 1</title><g id="_1_fill" data-name="1 fill"><path class="cls-1" d="M70.86,120.88c10-10.32,32.81-22.66,55-24.86-6.6-30.61-26.72-61.38-55-75.17C42.62,34.63,22.5,65.41,15.91,96,38.06,98.22,60.89,110.56,70.86,120.88Z"/></g><g id="_1_stroke" data-name="1 stroke"><path class="cls-2" d="M70.86,120.88c10-10.32,32.81-22.66,55-24.86-6.6-30.61-26.72-61.38-55-75.17C42.62,34.63,22.5,65.41,15.91,96,38.06,98.22,60.89,110.56,70.86,120.88Z"/><path class="cls-2" d="M119.34,75.44C98,85.52,82.68,101.5,70.86,120.88,59.05,101.5,43.75,85.52,22.39,75.44"/><path class="cls-2" d="M70.86,81.81c10.48,0,18,10.25,19.07,14.42,3.89-17.93-2.24-56.53-19.07-75.38C54,39.71,47.91,78.3,51.8,96.23,52.9,92.07,60.38,81.81,70.86,81.81Z"/></g></svg>