<svg xmlns="http://www.w3.org/2000/svg" viewBox="0 0 141.73 141.73"><defs><style>.cls-1{fill:current;}.cls-2{fill:none;fill:current;stroke-linecap:round;stroke-linejoin:round;stroke-width:0.75px;}</style></defs><title>Artboard 7</title><g id="_7_fill" data-name="7 fill"><path class="cls-1" d="M70.86,93.81c10,1.81,10.44,13.44,9.94,16.44l8.75,5.25L122,50.06c-3.2-7.54-6.5-12.62-9.89-15.93-17.36-17.89-26.87.18-41.23.18S47,16.25,29.63,34.14c-3.39,3.31-6.69,8.38-9.89,15.93L52.18,115.5l8.75-5.25C60.42,107.25,60.87,95.62,70.86,93.81Z"/></g><g id="_7_stroke" data-name="7 stroke"><path class="cls-2" d="M61.24,88.19c-1.7-8.64-8.48-47.41-20.05-41.87S55.58,81.45,61.24,88.19Z"/><path class="cls-2" d="M70.86,93.81c10,1.81,10.44,13.44,9.94,16.44l8.75,5.25L122,50.06c-3.2-7.54-6.5-12.62-9.89-15.93-17.36-17.89-26.87.18-41.23.18S47,16.25,29.63,34.14c-3.39,3.31-6.69,8.38-9.89,15.93L52.18,115.5l8.75-5.25C60.42,107.25,60.87,95.62,70.86,93.81Z"/><path class="cls-2" d="M70.86,85.31c2.66-7.66,15.5-41.69,0-41.69S68.21,77.65,70.86,85.31Z"/><path class="cls-2" d="M80.49,88.19c1.7-8.64,8.48-47.41,20.05-41.87S86.15,81.45,80.49,88.19Z"/></g></svg>