<svg viewBox="0 0 147 147"><title>Artboard 3</title><g id="_3_fill" data-name="3 fill"><path class="cls-1" d="M114.73,75.52c-.31-2.29-1.87-2.86-3.63-2.85h0c1.65-1.43,2.59-3.09,2.14-4.88a5.33,5.33,0,0,0-3.54-3.61h0a4.28,4.28,0,0,0,.45-4.1c-.87-2.07-2.29-3-4.07-3h0a4.62,4.62,0,0,0-.38-3.85c-1.3-2-3.54-2.14-5.13-2a4.08,4.08,0,0,0-1.06-3.47c-1.16-1.26-3.59-1.35-5-1.13a4,4,0,0,0-.71-3.92c-1.13-1.32-2.72-1.46-5.28-1.09h0a4.11,4.11,0,0,0-1-4.63,4.68,4.68,0,0,0-4.74-.76h0a4.82,4.82,0,0,0-.23-4.16c-.88-1.5-2.74-2.06-5.21-.76h0c1.22-1.87,1.74-3.67.54-5.05-1.26-1.56-4.5-1.24-6.93.9,3.18-3.73,2.64-9.62-.06-9.62s-3.23,5.88-.06,9.62c-2.43-2.15-5.66-2.46-6.93-.9-1.19,1.38-.67,3.17.54,5h0c-2.48-1.3-4.33-.74-5.21.76A4.82,4.82,0,0,0,59,36.22h0a4.68,4.68,0,0,0-4.74.76,4.11,4.11,0,0,0-1,4.62h0c-2.57-.36-4.15-.23-5.28,1.09a4,4,0,0,0-.71,3.92c-1.37-.22-3.8-.12-5,1.13a4.08,4.08,0,0,0-1.06,3.47c-1.59-.14-3.83,0-5.13,2a4.61,4.61,0,0,0-.37,3.86h0c-1.78,0-3.2,1-4.07,3A4.28,4.28,0,0,0,32,64.18h0a5.33,5.33,0,0,0-3.54,3.61c-.45,1.8.49,3.46,2.14,4.88h0c-1.76,0-3.33.56-3.63,2.85-.44,4.35,3.47,6.48,11.31,9h0a61.41,61.41,0,0,0-9.44-2s6.26,41.63,42,41.63,42-41.63,42-41.63a61.41,61.41,0,0,0-9.46,2h0C111.26,82,115.18,79.87,114.73,75.52ZM104.1,74.9s0,0-.05,0Z"/></g><g id="_3_stroke" data-name="3 stroke"><path class="cls-2" d="M70.86,124.2c-35.73,0-42-41.63-42-41.63C46.6,84.85,70.86,96.31,70.86,124.2Z"/><path class="cls-2" d="M70.86,124.2C43.13,112.42,35.48,88.85,35.48,88.85,44.47,90.15,62.19,103.71,70.86,124.2Z"/><path class="cls-2" d="M64.42,31.32c-2.48-1.3-4.33-.74-5.21.76-1.29,2.2-.57,5.36,3.49,9.79"/><path class="cls-2" d="M59,36.23a4.68,4.68,0,0,0-4.74.76c-2.9,2.92-.7,6.41,3.1,10.33"/><path class="cls-2" d="M53.21,41.61c-2.57-.36-4.15-.23-5.28,1.09-2.18,2.63-.4,6.24,3.91,9.91"/><path class="cls-2" d="M47.21,46.63c-1.37-.22-3.8-.12-5,1.13-3.16,3.68,1,7.57,4.28,10.42"/><path class="cls-2" d="M41.18,51.23c-1.59-.14-3.83,0-5.13,2-2.32,4.16,2.19,8.05,6.19,10.55"/><path class="cls-2" d="M39.19,69.75c-4.5-2.92-9.2-5.32-7.58-9.65.87-2.07,2.29-3,4.07-3"/><path class="cls-2" d="M32,64.2A5.33,5.33,0,0,0,28.5,67.8c-.93,3.73,4.07,6.89,9.17,8.54"/><path class="cls-2" d="M70.86,124.2c35.73,0,42-41.63,42-41.63C95.13,84.85,70.86,96.31,70.86,124.2Z"/><path class="cls-2" d="M70.86,124.2c27.74-11.78,35.39-35.35,35.39-35.35C97.26,90.15,79.54,103.71,70.86,124.2Z"/><path class="cls-2" d="M88.2,91.59c0-25.16-17.34-40.47-17.34-40.47S53.53,66.43,53.53,91.59"/><path class="cls-2" d="M76.21,103.94c2.49-21.8-1.51-30.77-5.35-35.64C67,73.17,63,82.14,65.52,103.94"/><path class="cls-2" d="M74,35.35c2.91-3.1,5.91-6.71,3.86-9.07-1.27-1.57-4.55-1.24-7,.95,3.24-3.73,2.72-9.69,0-9.69s-3.24,6,0,9.69c-2.43-2.19-5.71-2.51-7-.95-2.05,2.36.95,6,3.86,9.07"/><path class="cls-2" d="M77.31,31.32c2.48-1.3,4.33-.74,5.21.76,1.29,2.2.57,5.36-3.49,9.79"/><path class="cls-2" d="M82.76,36.23A4.68,4.68,0,0,1,87.5,37c2.9,2.92.7,6.41-3.1,10.33"/><path class="cls-2" d="M88.52,41.61c2.57-.36,4.15-.23,5.28,1.09,2.18,2.63.4,6.24-3.91,9.91"/><path class="cls-2" d="M94.52,46.63c1.37-.22,3.8-.12,5,1.13,3.16,3.68-1,7.57-4.28,10.42"/><path class="cls-2" d="M100.55,51.23c1.59-.14,3.83,0,5.13,2,2.32,4.16-2.19,8.05-6.19,10.55"/><path class="cls-2" d="M102.54,69.75c4.5-2.92,9.2-5.32,7.58-9.65-.87-2.07-2.29-3-4.07-3"/><path class="cls-2" d="M109.69,64.2a5.33,5.33,0,0,1,3.54,3.61c.93,3.73-4.07,6.89-9.17,8.54"/><path class="cls-2" d="M111.1,72.69c1.76,0,3.33.56,3.63,2.85.44,4.35-3.47,6.48-11.31,9,6.2-26.85-29.5-37.34-32.56-57.34-3.06,20-38.75,30.49-32.56,57.34C30.47,82,26.55,79.88,27,75.53c.31-2.29,1.87-2.86,3.63-2.85"/></g></svg>