<svg viewBox="0 0 147 147">
        <path
            d="M121.81,108.26v-.33l.3,0a2.6,2.6,0,1,0-.66-5.11l0-.43.38,0a2.6,2.6,0,1,0-1-5l-.13-.79h.15a2.6,2.6,0,1,0-1.08-5l-.1-.47a2.6,2.6,0,1,0-1.26-5l-.05-.2a2.6,2.6,0,1,0-1.54-4.86l-.12-.33a2.6,2.6,0,1,0-1.83-4.67l-.15-.36a2.6,2.6,0,1,0-2.18-4.65l-.25-.49a2.6,2.6,0,1,0-2.4-4.32s0,0-.09-.14A2.6,2.6,0,1,0,107.05,62l-.13-.18a2.6,2.6,0,1,0-3-4.07l-.15-.21a2.6,2.6,0,1,0-3.22-3.89l-.17-.19A2.6,2.6,0,1,0,97,49.73l-.19-.17A2.6,2.6,0,1,0,93.17,46L93,45.92a2.6,2.6,0,1,0-3.72-3.25l-.23-.16a2.6,2.6,0,1,0-3.87-3.09L84.7,39a2.6,2.6,0,1,0-4-2.85l-.62-.43A2.6,2.6,0,1,0,75.94,33l-.59-.37a2.59,2.59,0,0,0,.71-1.79A2.69,2.69,0,0,0,70.86,30a2.69,2.69,0,0,0-5.19.89,2.59,2.59,0,0,0,.71,1.79l-.59.37a2.6,2.6,0,1,0-4.19,2.73l-.62.43A2.6,2.6,0,1,0,57,39l-.51.38a2.6,2.6,0,1,0-3.87,3.09l.09-.08c-.47.39-.32.23-.32.23a2.6,2.6,0,1,0-3.72,3.25l-.14.13a2.6,2.6,0,1,0-3.64,3.51l-.19.17a2.6,2.6,0,1,0-3.42,3.72l-.17.19a2.6,2.6,0,1,0-3.22,3.89l-.15.21a2.6,2.6,0,1,0-3,4.07l-.13.18A2.6,2.6,0,1,0,32,66.22c-.09.15-.09.14-.09.14a2.6,2.6,0,1,0-2.4,4.32l-.25.49a2.6,2.6,0,1,0-2.18,4.65l-.15.36a2.6,2.6,0,1,0-1.83,4.67l-.12.33A2.6,2.6,0,1,0,23.43,86l-.05.2a2.6,2.6,0,1,0-1.26,5l-.1.47a2.6,2.6,0,1,0-1.08,5h.15l-.13.79a2.6,2.6,0,1,0-1,5l.38,0,0,.43a2.6,2.6,0,1,0-.66,5.11l.3,0v.33a2.69,2.69,0,0,0-2.71,2.6,2.6,2.6,0,0,0,2.6,2.6v0H121.92v0a2.6,2.6,0,0,0,2.6-2.6A2.69,2.69,0,0,0,121.81,108.26Z" />
        <path d="M69.64,85a2.07,2.07,0,0,1-2.92-.88" />
        <path d="M19.81,113.46a2.6,2.6,0,0,1-2.6-2.6,2.69,2.69,0,0,1,2.71-2.6" />
        <path d="M19.93,107.93l-.3,0a2.6,2.6,0,1,1,.66-5.11" />
        <path d="M20.34,102.41l-.38,0a2.6,2.6,0,1,1,1-5" />
        <path d="M21.08,96.65h-.15a2.6,2.6,0,1,1,1.08-5" />
        <path d="M22.11,91.23a2.6,2.6,0,1,1,1.26-5" />
        <path d="M23.43,86A2.6,2.6,0,1,1,25,81.18" />
        <path d="M25.09,80.85a2.6,2.6,0,1,1,1.83-4.67" />
        <path d="M27.07,75.81a2.6,2.6,0,1,1,2.18-4.65" />
        <path d="M29.5,70.68a2.6,2.6,0,1,1,2.4-4.32" />
        <path d="M32,66.22A2.6,2.6,0,1,1,34.68,62" />
        <path d="M34.8,61.81a2.6,2.6,0,1,1,3-4.07" />
        <path d="M37.92,57.53a2.6,2.6,0,1,1,3.22-3.89" />
        <path d="M41.31,53.45a2.6,2.6,0,1,1,3.42-3.72" />
        <path d="M44.92,49.56A2.6,2.6,0,1,1,48.56,46" />
        <path d="M48.7,45.92a2.6,2.6,0,1,1,3.72-3.25" />
        <path d="M52.64,42.51a2.6,2.6,0,1,1,3.87-3.09" />
        <path d="M57,39a2.6,2.6,0,1,1,4-2.85" />
        <path d="M61.6,35.76A2.6,2.6,0,1,1,65.79,33" />
        <path d="M121.92,113.46C122,74.21,102.4,48.09,70.86,30c-31.54,18.1-51.11,44.22-51.06,83.47Z" />
        <path d="M112.19,113.46c-1.33-32.53-16.69-55.68-41.33-72.6-24.64,16.93-40,40.08-41.33,72.6" />
        <path d="M98.48,113.46C96.62,89.34,86.8,70.93,70.86,57.2,54.93,70.93,45.11,89.34,43.25,113.46" />
        <path d="M93.35,113.46C91.58,93.22,83.85,77,70.86,64.41,57.88,77,50.15,93.22,48.38,113.46" />
        <path d="M83.11,113.46a61.83,61.83,0,0,0-12.24-35.7,61.83,61.83,0,0,0-12.24,35.7" />
        <line x1="72.82" y1="66.36" x2="76.78" y2="62.79" />
        <polyline points="74.69 60.68 70.86 64.41 67.04 60.68" />
        <line x1="76.44" y1="70.41" x2="80.66" y2="67.16" />
        <line x1="78.67" y1="64.83" x2="74.59" y2="68.25" />
        <line x1="82.52" y1="78.92" x2="87.14" y2="76.32" />
        <line x1="82.56" y1="69.56" x2="78.22" y2="72.65" />
        <line x1="85.13" y1="83.63" x2="89.93" y2="81.38" />
        <line x1="88.59" y1="78.83" x2="83.88" y2="81.26" />
        <line x1="87.57" y1="88.92" x2="92.5" y2="87.07" />
        <line x1="91.24" y1="84.13" x2="86.38" y2="86.18" />
        <line x1="89.52" y1="94.23" x2="94.56" y2="92.78" />
        <line x1="93.59" y1="89.92" x2="88.61" y2="91.56" />
        <line x1="91.03" y1="99.45" x2="96.13" y2="98.39" />
        <line x1="95.4" y1="95.61" x2="90.33" y2="96.86" />
        <line x1="92.21" y1="104.93" x2="97.34" y2="104.27" />
        <line x1="96.79" y1="101.32" x2="91.67" y2="102.19" />
        <line x1="93.08" y1="110.75" x2="98.21" y2="110.5" />
        <line x1="97.81" y1="107.22" x2="92.67" y2="107.72" />
        <line x1="79.71" y1="74.65" x2="84.14" y2="71.72" />
        <line x1="85.67" y1="73.97" x2="81.13" y2="76.74" />
        <circle cx="70.87" cy="36.14" r="2.14" />
        <circle cx="115.07" cy="94.52" r="2.14" />
        <circle cx="87.63" cy="48.02" r="2.14" />
        <circle cx="79.44" cy="41.27" r="2.14" />
        <circle cx="95.2" cy="55.92" r="2.14" />
        <circle cx="101.76" cy="64.13" r="2.14" />
        <circle cx="107.14" cy="73.32" r="2.14" />
        <circle cx="111.79" cy="83.92" r="2.14" />
        <circle cx="116.35" cy="105.35" r="2.14" />
        <path
            d="M79.51,113.46c-1.06-6-5.54-4.62-8.65,0,4.22-5.42,4.6-15.36,0-15.36s-4.22,9.94,0,15.36c-3.11-4.62-7.59-6-8.65,0" />
        <path d="M70.86,87.83c2.72,0,0-10.07,0-10.07S68.15,87.83,70.86,87.83Z" />
        <path d="M72.09,85A2.07,2.07,0,0,0,75,84.13" />
        <path d="M121.92,113.46a2.6,2.6,0,0,0,2.6-2.6,2.69,2.69,0,0,0-2.71-2.6" />
        <path d="M121.8,107.93l.3,0a2.6,2.6,0,1,0-.66-5.11" />
        <path d="M121.39,102.41l.38,0a2.6,2.6,0,1,0-1-5" />
        <path d="M120.65,96.65h.15a2.6,2.6,0,1,0-1.08-5" />
        <path d="M119.62,91.23a2.6,2.6,0,1,0-1.26-5" />
        <path d="M118.3,86a2.6,2.6,0,1,0-1.54-4.86" />
        <path d="M116.64,80.85a2.6,2.6,0,1,0-1.83-4.67" />
        <path d="M114.66,75.81a2.6,2.6,0,1,0-2.18-4.65" />
        <path d="M112.23,70.68a2.6,2.6,0,1,0-2.4-4.32" />
        <path d="M109.74,66.22A2.6,2.6,0,1,0,107.05,62" />
        <path d="M106.93,61.81a2.6,2.6,0,1,0-3-4.07" />
        <path d="M103.81,57.53a2.6,2.6,0,1,0-3.22-3.89" />
        <path d="M100.42,53.45A2.6,2.6,0,1,0,97,49.73" />
        <path d="M96.81,49.56A2.6,2.6,0,1,0,93.17,46" />
        <path d="M93,45.92a2.6,2.6,0,1,0-3.72-3.25" />
        <path d="M89.09,42.51a2.6,2.6,0,1,0-3.87-3.09" />
        <path d="M84.7,39a2.6,2.6,0,1,0-4-2.85" />
        <path d="M80.13,35.76A2.6,2.6,0,1,0,75.94,33" />
        <path
            d="M75.35,32.65a2.59,2.59,0,0,0,.71-1.79A2.69,2.69,0,0,0,70.86,30a2.69,2.69,0,0,0-5.19.89,2.59,2.59,0,0,0,.71,1.79" />
        <line x1="68.91" y1="66.36" x2="64.95" y2="62.79" />
        <line x1="65.29" y1="70.41" x2="61.07" y2="67.16" />
        <line x1="63.06" y1="64.83" x2="67.14" y2="68.25" />
        <line x1="59.21" y1="78.92" x2="54.59" y2="76.32" />
        <line x1="59.17" y1="69.56" x2="63.51" y2="72.65" />
        <line x1="56.6" y1="83.63" x2="51.8" y2="81.38" />
        <line x1="53.14" y1="78.83" x2="57.85" y2="81.26" />
        <line x1="54.16" y1="88.92" x2="49.23" y2="87.07" />
        <line x1="50.49" y1="84.13" x2="55.35" y2="86.18" />
        <line x1="52.21" y1="94.23" x2="47.17" y2="92.78" />
        <line x1="48.14" y1="89.92" x2="53.12" y2="91.56" />
        <line x1="50.7" y1="99.45" x2="45.6" y2="98.39" />
        <line x1="46.33" y1="95.61" x2="51.4" y2="96.86" />
        <line x1="49.52" y1="104.93" x2="44.39" y2="104.27" />
        <line x1="44.94" y1="101.32" x2="50.06" y2="102.19" />
        <line x1="48.65" y1="110.75" x2="43.52" y2="110.5" />
        <line x1="43.92" y1="107.22" x2="49.06" y2="107.72" />
        <line x1="62.02" y1="74.65" x2="57.59" y2="71.72" />
        <line x1="56.06" y1="73.97" x2="60.6" y2="76.74" />
        <circle cx="26.66" cy="94.52" r="2.14" />
        <circle cx="54.1" cy="48.02" r="2.14" />
        <circle cx="62.29" cy="41.27" r="2.14" />
        <circle cx="46.53" cy="55.92" r="2.14" />
        <circle cx="39.97" cy="64.13" r="2.14" />
        <circle cx="34.59" cy="73.32" r="2.14" />
        <circle cx="29.94" cy="83.92" r="2.14" />
        <circle cx="25.38" cy="105.35" r="2.14" />
</svg>