<svg viewBox="0 0 147 147"><title>Artboard 1</title><g id="_1_fill" data-name="1 fill"><path class="cls-1" d="M70.86,124.09c5.79,4.59,9.56-.47,9.56-.47,4.81,3.34,7.91-.19,7.91-.19,5.22,1.47,7.06-2.28,7.06-2.28,4.53.81,5.94-2.78,5.94-2.78a5.63,5.63,0,0,0,6.56-4.72c4.09-.84,3.69-5.66,3.69-5.66,5.13-2.94,2.41-7.41,2.41-7.41,3.28-4.84,0-7.66,0-7.66,3.28-5.22-1-7.84-1-7.84A6,6,0,0,0,112.3,79c1.88-4.28-1.72-7.62-1.72-7.62a5.69,5.69,0,0,0-2.06-6.09c1.13-4.78-2.25-6.28-2.25-6.28a4.74,4.74,0,0,0-2.66-5.75,5.39,5.39,0,0,0-4-6.41c.72-4.75-2.72-5.75-2.72-5.75.09-5.87-4.69-5.81-4.69-5.81a5.34,5.34,0,0,0-4.09-4.75c-.25-4.66-4.31-4.72-4.31-4.72-.56-7.19-7.34-5.87-7.34-5.87a6.5,6.5,0,0,0-5.59-4.19,6.51,6.51,0,0,0-5.59,4.19s-6.78-1.31-7.34,5.88c0,0-4.06.06-4.31,4.72a5.34,5.34,0,0,0-4.09,4.75s-4.78-.06-4.69,5.81c0,0-3.44,1-2.72,5.75a5.39,5.39,0,0,0-4,6.41A4.74,4.74,0,0,0,35.47,59s-3.37,1.5-2.25,6.28a5.69,5.69,0,0,0-2.06,6.09S27.56,74.68,29.43,79a6,6,0,0,0-.69,6.13s-4.25,2.63-1,7.84c0,0-3.31,2.81,0,7.66,0,0-2.72,4.47,2.41,7.41,0,0-.41,4.81,3.69,5.66a5.63,5.63,0,0,0,6.56,4.72s1.41,3.59,5.94,2.78c0,0,1.84,3.75,7.06,2.28,0,0,3.09,3.53,7.91.19,0,0,3.76,5.06,9.56.47"/></g><g id="_1_stroke" data-name="1 stroke"><path class="cls-2" d="M77.32,70.24s16.26-6.89,12.17-13.17h0C82.9,53.49,77.32,70.24,77.32,70.24Z"/><path class="cls-2" d="M80.9,77S94.4,80.86,95,74.94h0C92.73,69.43,80.9,77,80.9,77Z"/><path class="cls-2" d="M86.86,94.81c1.69.06,4.19-3.75-.34-5.31-5.22-1.37-7,8.88,1.44,9.88,0,0,6.4.25,6.46-7.62S83,78.49,77.32,86"/><path class="cls-2" d="M74.86,23.24c3.24-2.19,11.6,1,2.26,9.68"/><path class="cls-2" d="M80.61,28.71c2.38-1.31,9.13,1.47.63,8.64"/><path class="cls-2" d="M84.77,33.39c2.35-1.58,10,2.1.5,8.62"/><path class="cls-2" d="M89.67,37.35c2.11-.53,9,4-1,9.55"/><path class="cls-2" d="M93.74,42.44c2.57,0,6.49,5.51-1.84,9.5"/><path class="cls-2" d="M95.79,49.12c5.4-1.26,7.94,5.08-.77,8.35"/><path class="cls-2" d="M99.38,54.83c4.54,0,6,5.73-1.51,8.42"/><path class="cls-2" d="M102.22,60.43c4.59.23,6,6.64-2,9.1"/><path class="cls-2" d="M104.71,66.93c4.69.19,5.69,8.1-2.86,8.1"/><path class="cls-2" d="M107.41,73c4.2.29,4.24,7.5-4.56,8"/><path class="cls-2" d="M108.43,79.15c3.39,1.17,4.81,8.17-5.06,7.72"/><path class="cls-2" d="M109.43,85.64c3.84.69,5.34,9.27-6.06,7.11"/><path class="cls-2" d="M110,92.49c3.49,2.54,4.49,10.79-7.76,6.07"/><path class="cls-2" d="M110.16,99.77c4.29,2.59-.55,11.47-9.32,2.54"/><path class="cls-2" d="M108.07,106.2c2.63,3.67-3.37,9.17-9.57-.46"/><path class="cls-2" d="M104.66,111c1,4.52-6,8-9.5-2.49"/><path class="cls-2" d="M99,114.71c.66,4.44-7.75,6-9.09-3.77"/><path class="cls-2" d="M93.57,117.59c-.9,4.94-9.39,3.75-8.52-5.44"/><path class="cls-2" d="M87.31,119.37c-.92,4.75-9.39,2.69-8.2-6.47"/><path class="cls-2" d="M70.86,113.14c-25-.26-34.62-6-32.12-31,1.79-19,16.31-42,32.12-54.92C86.68,40.14,101.19,63.15,103,82.16c2.5,25-7.09,30.72-32.12,31"/><path class="cls-2" d="M70.86,67.83c-8.78-33.25-2.07-33.67,0-33.67S79.65,34.58,70.86,67.83Z"/><path class="cls-2" d="M70.86,113.14c-12.53-36.29-2.55-41.55,0-41.55S83.4,76.85,70.86,113.14Z"/><path class="cls-2" d="M64.41,70.25S48.15,63.36,52.24,57.08h0c6.58-3.58,12.17,13.17,12.17,13.17Z"/><path class="cls-2" d="M60.83,77s-13.5,3.87-14.1-2.06h0C49,69.44,60.83,77,60.83,77Z"/><path class="cls-2" d="M54.87,94.81c-1.69.06-4.19-3.75.34-5.31,5.22-1.37,7,8.88-1.44,9.88,0,0-6.4.25-6.46-7.62S58.77,78.5,64.41,86"/><path class="cls-2" d="M70.86,124.09c5.79,4.59,9.56-.47,9.56-.47,4.81,3.34,7.91-.19,7.91-.19,5.22,1.47,7.06-2.28,7.06-2.28,4.53.81,5.94-2.78,5.94-2.78a5.63,5.63,0,0,0,6.56-4.72c4.09-.84,3.69-5.66,3.69-5.66,5.13-2.94,2.41-7.41,2.41-7.41,3.28-4.84,0-7.66,0-7.66,3.28-5.22-1-7.84-1-7.84A6,6,0,0,0,112.3,79c1.88-4.28-1.72-7.62-1.72-7.62a5.69,5.69,0,0,0-2.06-6.09c1.13-4.78-2.25-6.28-2.25-6.28a4.74,4.74,0,0,0-2.66-5.75,5.39,5.39,0,0,0-4-6.41c.72-4.75-2.72-5.75-2.72-5.75.09-5.87-4.69-5.81-4.69-5.81a5.34,5.34,0,0,0-4.09-4.75c-.25-4.66-4.31-4.72-4.31-4.72-.56-7.19-7.34-5.87-7.34-5.87a6.5,6.5,0,0,0-5.59-4.19,6.51,6.51,0,0,0-5.59,4.19s-6.78-1.31-7.34,5.88c0,0-4.06.06-4.31,4.72a5.34,5.34,0,0,0-4.09,4.75s-4.78-.06-4.69,5.81c0,0-3.44,1-2.72,5.75a5.39,5.39,0,0,0-4,6.41A4.74,4.74,0,0,0,35.47,59s-3.37,1.5-2.25,6.28a5.69,5.69,0,0,0-2.06,6.09S27.56,74.68,29.43,79a6,6,0,0,0-.69,6.13s-4.25,2.63-1,7.84c0,0-3.31,2.81,0,7.66,0,0-2.72,4.47,2.41,7.41,0,0-.41,4.81,3.69,5.66a5.63,5.63,0,0,0,6.56,4.72s1.41,3.59,5.94,2.78c0,0,1.84,3.75,7.06,2.28,0,0,3.09,3.53,7.91.19,0,0,3.76,5.06,9.56.47"/><path class="cls-2" d="M68.79,29c-4.87-8.49,1-9.89,2.08-9.89s6.95,1.39,2.08,9.88"/><path class="cls-2" d="M66.87,23.25c-3.24-2.19-11.6,1-2.26,9.68"/><path class="cls-2" d="M61.12,28.72c-2.38-1.31-9.13,1.47-.63,8.64"/><path class="cls-2" d="M57,33.39c-2.35-1.58-10,2.1-.5,8.62"/><path class="cls-2" d="M52.06,37.36c-2.11-.53-9,4,1,9.55"/><path class="cls-2" d="M48,42.44c-2.57,0-6.49,5.51,1.84,9.5"/><path class="cls-2" d="M45.94,49.13c-5.4-1.26-7.94,5.08.77,8.35"/><path class="cls-2" d="M42.35,54.83c-4.54,0-6,5.73,1.51,8.42"/><path class="cls-2" d="M39.51,60.44c-4.59.23-6,6.64,2,9.1"/><path class="cls-2" d="M37,66.93c-4.69.19-5.69,8.1,2.86,8.1"/><path class="cls-2" d="M34.32,73c-4.2.29-4.24,7.5,4.56,8"/><path class="cls-2" d="M33.3,79.16c-3.39,1.17-4.81,8.17,5.06,7.72"/><path class="cls-2" d="M32.3,85.64c-3.84.69-5.34,9.27,6.06,7.11"/><path class="cls-2" d="M31.69,92.5c-3.49,2.54-4.49,10.79,7.76,6.07"/><path class="cls-2" d="M31.57,99.78c-4.29,2.59.55,11.47,9.32,2.54"/><path class="cls-2" d="M33.66,106.2c-2.63,3.67,3.37,9.17,9.57-.46"/><path class="cls-2" d="M37.07,111c-1,4.52,6,8,9.5-2.49"/><path class="cls-2" d="M42.68,114.72c-.66,4.44,7.75,6,9.09-3.77"/><path class="cls-2" d="M48.16,117.59c.9,4.94,9.39,3.75,8.52-5.44"/><path class="cls-2" d="M54.42,119.37c.92,4.75,9.39,2.69,8.2-6.47"/><path class="cls-2" d="M79.44,117.6c-1.56,8.41-8,5.48-8.57.59-.55,4.89-7,7.83-8.57-.58"/><line class="cls-2" x1="70.86" y1="113.26" x2="70.86" y2="118.31"/></g></svg>