<?xml version="1.0" encoding="UTF-8" standalone="no"?>
<svg
   viewBox="0 0 147 147"
   version="1.1"
   id="svg32"
   xmlns="http://www.w3.org/2000/svg">
  <path
     fill="current"
     d="m 128.125,74.445833 c -1.5,29.299997 -23.7,54.199997 -54.2,54.199997 -29.4,0 -54.2,-24.8 -54.2,-54.199997 0,-27.7 21.6,-51 49,-53.7 32.5,-3.1 57.8,22.1 59.4,53.7 z"
     id="path20" />
  <path
     fill="current"
     d="m 103.025,74.445833 c -1,15.7 -12.6,28.999997 -29,28.999997 -15.7,0 -29,-13.299997 -29,-28.999997 -0.1,-37.6 55.5,-37.2 58,0 z"
     id="path22" />
  <path
     fill="current"
     d="m 64.025,74.445833 c 0,5.3 4.3,9.7 9.6,9.9 5.2,0.2 9,-3.6 10,-8.3 0.2,-0.5 0.3,-1 0.2,-1.6 0,-0.5 -0.1,-1 -0.2,-1.5 -0.9,-4.6 -4.6,-8.5 -9.7,-8.4 -5.3,0 -9.9,4.5 -9.9,9.9 z"
     id="path24" />
  <path
     fill="none"
     stroke="current"
     stroke-width="0.75"
     stroke-miterlimit="10"
     d="m 128.125,74.445833 c -1.5,29.299997 -23.7,54.199997 -54.2,54.199997 -29.4,0 -54.2,-24.8 -54.2,-54.199997 0,-27.7 21.6,-51 49,-53.7 32.5,-3.1 57.8,22.1 59.4,53.7 z"
     id="path26" />
  <path
     fill="none"
     stroke="current"
     stroke-width="0.75"
     stroke-miterlimit="10"
     d="m 103.025,74.445833 c -1,15.7 -12.6,28.999997 -29,28.999997 -15.7,0 -29,-13.299997 -29,-28.999997 -0.1,-37.6 55.5,-37.2 58,0 z"
     id="path28" />
  <path
     fill="none"
     stroke="current"
     stroke-width="0.75"
     stroke-miterlimit="10"
     d="m 64.025,74.445833 c 0,5.3 4.3,9.7 9.6,9.9 5.2,0.2 9,-3.6 10,-8.3 0.2,-0.5 0.3,-1 0.2,-1.6 0,-0.5 -0.1,-1 -0.2,-1.5 -0.9,-4.6 -4.6,-8.5 -9.7,-8.4 -5.3,0 -9.9,4.5 -9.9,9.9 z"
     id="path30" />
</svg>
