<svg xmlns="http://www.w3.org/2000/svg" viewBox="0 0 141.73 141.73"><defs><style>.cls-1{fill:current;}.cls-2{fill:none;fill:current;stroke-linecap:round;stroke-linejoin:round;stroke-width:0.75px;}</style></defs><title>lilz_art_4</title><g id="_4_fill" data-name="4 fill"><path class="cls-1" d="M70.86,123.15c5.09,0,.62-6,1.85-9.35a10.84,10.84,0,0,1,2.85-4c5.75-5.37,21.5.46,33-7.4,5.85-4.07,8.7-9.62,7.46-16.14-1.27-5.59-6.32-7.56-12.58-7.87-10-.46-18.25,8.66-20.38,2.16-1.58-8.21,17-11,22.8-20.19,2.66-4.47,2.58-11.67-.8-15.72-2.6-3.08-8.68-3.05-13.31.28-4.51,3-7.9,7.2-11.52,3.57-1.9-2.42.42-6.48,2.27-11,2.84-6.91,1.42-19-11.63-19s-14.48,12-11.63,19c1.85,4.5,4.17,8.57,2.27,11-3.63,3.63-7-.6-11.52-3.57-4.63-3.33-10.71-3.36-13.31-.28-3.38,4.06-3.46,11.25-.8,15.72,5.8,9.21,24.38,12,22.8,20.19-2.13,6.5-10.38-2.62-20.38-2.16C32,78.73,27,80.71,25.71,86.29c-1.24,6.52,1.61,12.07,7.46,16.14,11.5,7.86,27.25,2,33,7.4a10.84,10.84,0,0,1,2.85,4C70.24,117.19,65.78,123.15,70.86,123.15Z"/></g><g id="_4_stroke" data-name="4 stroke"><path class="cls-2" d="M70.86,123.15c5.09,0,.62-6,1.85-9.35a10.84,10.84,0,0,1,2.85-4c5.75-5.37,21.5.46,33-7.4,5.85-4.07,8.7-9.62,7.46-16.14-1.27-5.59-6.32-7.56-12.58-7.87-10-.46-18.25,8.66-20.38,2.16-1.58-8.21,17-11,22.8-20.19,2.66-4.47,2.58-11.67-.8-15.72-2.6-3.08-8.68-3.05-13.31.28-4.51,3-7.9,7.2-11.52,3.57-1.9-2.42.42-6.48,2.27-11,2.84-6.91,1.42-19-11.63-19s-14.48,12-11.63,19c1.85,4.5,4.17,8.57,2.27,11-3.63,3.63-7-.6-11.52-3.57-4.63-3.33-10.71-3.36-13.31-.28-3.38,4.06-3.46,11.25-.8,15.72,5.8,9.21,24.38,12,22.8,20.19-2.13,6.5-10.38-2.62-20.38-2.16C32,78.73,27,80.71,25.71,86.29c-1.24,6.52,1.61,12.07,7.46,16.14,11.5,7.86,27.25,2,33,7.4a10.84,10.84,0,0,1,2.85,4C70.24,117.19,65.78,123.15,70.86,123.15Z"/><path class="cls-2" d="M102.27,91.26c-.82-.92,0-2.12,1.37-1.73s1.16,2,.33,3c-3.67,4.24-27.15.59-33.1,10.17-6-9.58-29.43-5.94-33.1-10.17-.83-1-.95-2.62.33-3s2.19.8,1.37,1.73"/><path class="cls-2" d="M96.48,53.34c-1.12-.52-.8-2,.57-2.13s1.85,1.36,1.49,2.62C96.85,59.18,77,65.33,70.86,76.08c-6.12-10.75-26-16.9-27.68-22.24-.36-1.26.17-2.78,1.49-2.62s1.69,1.61.57,2.13"/><circle class="cls-2" cx="70.87" cy="30.13" r="1.9"/><line class="cls-2" x1="70.87" y1="32.02" x2="70.87" y2="110.92"/></g></svg>