<svg xmlns="http://www.w3.org/2000/svg" viewBox="0 0 141.73 141.73"><defs><style>.cls-1{fill:current;}.cls-2{fill:none;fill:current;stroke-linecap:round;stroke-linejoin:round;stroke-width:0.75px;}</style></defs><title>Artboard 1</title><g id="_1_fill" data-name="1 fill"><path class="cls-1" d="M70.86,126.31c9.32-25,28.63-27.56,28.63-50.39C99.5,46.6,77,50.12,70.86,15.42,64.7,50.12,42.23,46.6,42.23,75.92,42.23,98.75,61.55,101.35,70.86,126.31Z"/></g><g id="_1_stroke" data-name="1 stroke"><path class="cls-2" d="M70.87,126.31c9.32-25,28.63-27.56,28.63-50.39C99.5,46.6,77,50.12,70.87,15.42,64.7,50.12,42.23,46.6,42.23,75.92,42.23,98.75,61.55,101.35,70.87,126.31Z"/><path class="cls-2" d="M70.87,126.31c4.4-32.67,18.79-29,18.79-49.93,0-22-15-22.83-18.79-43.9-3.75,21.07-18.79,21.9-18.79,43.9C52.08,97.27,66.47,93.65,70.87,126.31Z"/><path class="cls-2" d="M70.87,126.31c3.56-32,8.85-62.27,0-62.27S67.3,94.3,70.87,126.31Z"/></g></svg>