<?xml version="1.0" encoding="utf-8"?>
<!-- Generator: Adobe Illustrator 21.0.0, SVG Export Plug-In . SVG Version: 6.00 Build 0)  -->
<svg version="1.1" id="Ebene_1" xmlns:xlink="http://www.w3.org/1999/xlink" x="0px" y="0px"
	 viewBox="0 0 17.6 17.6" style="enable-background:new 0 0 17.6 17.6;" xml:space="preserve">
<style type="text/css">
	.st0{fill:current;stroke-width:current;stroke:current}
</style>
<g id="Grau6">
</g>
<g id="Ebene_1_1_">
	<g id="Grau4">
		<path class="st0" d="M8.8,15.6C5,15.6,2,12.5,2,8.8S5.1,2,8.8,2s6.8,3.1,6.8,6.8l0,0C15.6,12.6,12.6,15.6,8.8,15.6z M8.8,3.5
			c-2.9,0-5.3,2.4-5.3,5.3s2.4,5.3,5.3,5.3s5.3-2.4,5.3-5.3S11.8,3.5,8.8,3.5z"/>
		<path class="st0" d="M8.8,9.6c0.4,0,0.7-0.3,0.7-0.8c0-0.4-0.3-0.7-0.8-0.7C8.3,8.1,8,8.4,8,8.9C8,9.2,8.4,9.6,8.8,9.6L8.8,9.6"/>
	</g>
</g>
</svg>
