<svg viewBox="0 0 147 147"><title>sine_art_8</title><g id="_8_fill" data-name="8 fill"><path class="cls-1" d="M90.32,59c2.38-4.23.28-10.08-3.3-10.92a7.73,7.73,0,0,0-3.45-9.87c.56-4.39-1.39-6.38-4.78-7.33,1.3-5.18-7.3-4.23-8.06-12.18C69,27,53,30.86,60.23,39.78h0c-6.37,3.37-10.85,8-6.18,15.12h0c-5.71,4.44-8.65,10.17-4,18.24l.28-.29c-3.18,3.85-3.48,7.86,1.69,12l0,0c-2.5,3.38-2.36,6.9,2.47,10.65h0c-1.16,2.59-.39,5.33,3.45,8.22l.18-.16c-1.51,2.43-.77,5.21,3.89,8.4-.49,5.13,5.46,3.78,9.62,11.11,3.24-9.35,15.76-9.48,10.37-20,5.86-3.08,8.27-7.7,5.86-12.79C93,87.46,95.4,80.16,90.32,74.8A10.39,10.39,0,0,0,90.32,59Z"/></g><g id="_8_stroke" data-name="8 stroke"><path class="cls-2" d="M60.23,39.78C53,30.86,69,27,70.72,18.68c.76,8,9.36,7,8.06,12.18-1.75,5-34.91,8.51-24.74,24"/><path class="cls-2" d="M78.79,30.86c3.39,1,5.34,2.94,4.78,7.33A7.73,7.73,0,0,1,87,48.05c3.58.84,5.68,6.69,3.3,10.92a10.39,10.39,0,0,1,0,15.83C95.4,80.16,93,87.46,87.92,90.3c2.4,5.09,0,9.72-5.86,12.79-5,2.66-19.53,4.73-20,8.85-.49,5.13,5.46,3.78,9.62,11.11,3.24-9.35,15.76-9.48,10.37-20"/><path class="cls-2" d="M50.08,73.14C37.34,51.21,81,46.52,83.56,38.19"/><path class="cls-2" d="M52,84.87C34.57,70.8,79.59,58.52,87,48.05"/><path class="cls-2" d="M54.54,95.51c-18-14,29-24.83,35.78-36.53"/><path class="cls-2" d="M58,103.71c-17.18-12.91,26.9-23,32.32-28.91"/><path class="cls-2" d="M62.07,111.95C44.31,99.77,83.41,93.56,87.92,90.3"/></g></svg>