<svg viewBox="0 0 147 147"><title>Artboard 6</title><g id="_6_fill" data-name="6 fill"><path class="cls-1" d="M23.57,61.54,41.8,74A1.6,1.6,0,0,1,42.33,76a32.27,32.27,0,0,0-3.89,15.4L22.09,62.91A1,1,0,0,1,23.57,61.54Z"/><path class="cls-1" d="M74.52,87.43l43.79-29.82a2.82,2.82,0,0,0-.1-4.72L74.29,25.67a6.5,6.5,0,0,0-6.84,0L23.53,52.89a2.82,2.82,0,0,0-.1,4.72L67.21,87.43A6.5,6.5,0,0,0,74.52,87.43Z"/><path class="cls-1" d="M118.16,61.54,99.93,74A1.6,1.6,0,0,0,99.4,76a32.27,32.27,0,0,1,3.89,15.4l16.36-28.51A1,1,0,0,0,118.16,61.54Z"/><path class="cls-1" d="M71.18,117a25.78,25.78,0,0,0,25.29-24.9,25.51,25.51,0,0,0-2.12-11,2.39,2.39,0,0,0-3.53-1l-10.6,7.22a1.69,1.69,0,0,0-.67,1.83,8.9,8.9,0,0,1,.25,2.93A9.07,9.07,0,0,1,71,100.4,9,9,0,0,1,62.17,89.2a1.69,1.69,0,0,0-.67-1.83l-10.6-7.22a2.39,2.39,0,0,0-3.53,1A25.62,25.62,0,0,0,71.18,117Z"/></g><g id="_6_stroke" data-name="6 stroke"><path class="cls-2" d="M23.57,61.54,41.8,74A1.6,1.6,0,0,1,42.33,76a32.27,32.27,0,0,0-3.89,15.4L22.09,62.91A1,1,0,0,1,23.57,61.54Z"/><path class="cls-2" d="M74.52,87.43l43.79-29.82a2.82,2.82,0,0,0-.1-4.72L74.29,25.67a6.5,6.5,0,0,0-6.84,0L23.53,52.89a2.82,2.82,0,0,0-.1,4.72L67.21,87.43A6.5,6.5,0,0,0,74.52,87.43Z"/><path class="cls-2" d="M118.16,61.54,99.93,74A1.6,1.6,0,0,0,99.4,76a32.27,32.27,0,0,1,3.89,15.4l16.36-28.51A1,1,0,0,0,118.16,61.54Z"/><path class="cls-2" d="M71.18,117a25.78,25.78,0,0,0,25.29-24.9,25.51,25.51,0,0,0-2.12-11,2.39,2.39,0,0,0-3.53-1l-10.6,7.22a1.69,1.69,0,0,0-.67,1.83,8.9,8.9,0,0,1,.25,2.93A9.07,9.07,0,0,1,71,100.4,9,9,0,0,1,62.17,89.2a1.69,1.69,0,0,0-.67-1.83l-10.6-7.22a2.39,2.39,0,0,0-3.53,1A25.62,25.62,0,0,0,71.18,117Z"/></g></svg>