<svg xmlns="http://www.w3.org/2000/svg" viewBox="0 0 141.73 141.73"><defs><style>.cls-1{fill:current;}.cls-2{fill:none;fill:current;stroke-linecap:round;stroke-linejoin:round;stroke-width:0.75px;}</style></defs><title>Artboard 4</title><g id="_4_fill" data-name="4 fill"><path class="cls-1" d="M73.88,125.56c62.62-59-28.44-55.35,7.89-107.5-27.5,16.3-24.84,40.67-13.94,56.37C75.28,85.91,83.09,99.77,73.88,125.56Z"/><path class="cls-1" d="M78.3,44.8C76.94,27.43,90,12.44,93.91,17,99,22.11,80,30.16,78.3,44.8Z"/><path class="cls-1" d="M82.49,55.17c-.7-12.7,7.26-29,12.29-24.45C98.74,34.22,84.35,41.45,82.49,55.17Z"/><path class="cls-1" d="M88.49,64.58c-2.48-10.51,2.15-24.1,7-21.34C100.35,46.18,89.38,55.17,88.49,64.58Z"/><path class="cls-1" d="M96.22,74.64c-3.29-3.86-4.27-17.3.3-16.6C101.68,59.09,94.78,68.69,96.22,74.64Z"/><path class="cls-1" d="M70.65,122.57c5.14-31.19-22.6-51.27-26.8-43.06C38.62,90.17,70,93,70.65,122.57Z"/><path class="cls-1" d="M72.15,94.65C69.61,77.22,54.59,61.4,50.39,66.91,46.65,72.89,66.26,77.67,72.15,94.65Z"/></g><g id="_4_stroke" data-name="4 stroke"><path class="cls-2" d="M73.88,125.56c62.62-59-28.44-55.35,7.89-107.5-27.5,16.3-24.84,40.67-13.94,56.37C75.28,85.91,83.09,99.77,73.88,125.56Z"/><path class="cls-2" d="M78.3,44.8C76.94,27.43,90,12.44,93.91,17,99,22.11,80,30.16,78.3,44.8Z"/><path class="cls-2" d="M82.49,55.17c-.7-12.7,7.26-29,12.29-24.45C98.74,34.22,84.35,41.45,82.49,55.17Z"/><path class="cls-2" d="M88.49,64.58c-2.48-10.51,2.15-24.1,7-21.34C100.35,46.18,89.38,55.17,88.49,64.58Z"/><path class="cls-2" d="M96.22,74.64c-3.29-3.86-4.27-17.3.3-16.6C101.68,59.09,94.78,68.69,96.22,74.64Z"/><path class="cls-2" d="M70.65,122.57c5.14-31.19-22.6-51.27-26.8-43.06C38.62,90.17,70,93,70.65,122.57Z"/><path class="cls-2" d="M72.15,94.65C69.61,77.22,54.59,61.4,50.39,66.91,46.65,72.89,66.26,77.67,72.15,94.65Z"/><path class="cls-2" d="M73.88,125.56C98.47,80.22,61,77.67,68.41,51.41,65.82,77.67,110.25,78.31,73.88,125.56Z"/></g></svg>