<svg xmlns="http://www.w3.org/2000/svg" viewBox="0 0 141.73 141.73"><defs><style>.cls-1{fill:current;}.cls-2{fill:none;fill:current;stroke-linecap:round;stroke-linejoin:round;stroke-width:0.75px;}</style></defs><title>Artboard 5</title><g id="_5_fill" data-name="5 fill"><path class="cls-1" d="M53,70.86S47.25,81.51,41.37,81.51a10.64,10.64,0,0,1,0-21.29C47.25,60.22,53,70.86,53,70.86Z"/><path class="cls-1" d="M62.25,85.6S68.6,95.89,65.66,101A10.64,10.64,0,1,1,47.22,90.34C50.16,85.25,62.25,85.6,62.25,85.6Z"/><path class="cls-1" d="M62.25,56.13s6.35-10.29,3.41-15.38A10.64,10.64,0,0,0,47.22,51.39C50.16,56.48,62.25,56.13,62.25,56.13Z"/><path class="cls-1" d="M91.19,59.13,76.73,60.7,70.86,47.39,65,60.7,50.54,59.13l8.59,11.74L50.54,82.6,65,81l5.87,13.31L76.73,81,91.19,82.6,82.6,70.86ZM81.92,77.24l-7.86-.85-3.19,7.23-3.19-7.23-7.86.85,4.67-6.38-4.67-6.38,7.86.85,3.19-7.23,3.19,7.23,7.86-.85-4.67,6.38Z"/><path class="cls-1" d="M88.74,70.86s5.74,10.64,11.61,10.64a10.64,10.64,0,0,0,0-21.29C94.48,60.22,88.74,70.86,88.74,70.86Z"/><path class="cls-1" d="M79.48,85.6S73.13,95.89,76.07,101A10.64,10.64,0,1,0,94.51,90.34C91.57,85.25,79.48,85.6,79.48,85.6Z"/><path class="cls-1" d="M79.48,56.13s-6.35-10.29-3.41-15.38A10.64,10.64,0,0,1,94.51,51.39C91.57,56.48,79.48,56.13,79.48,56.13Z"/></g><g id="_5_stroke" data-name="5 stroke"><path class="cls-2" d="M53,70.86S47.25,81.51,41.37,81.51a10.64,10.64,0,0,1,0-21.29C47.25,60.22,53,70.86,53,70.86Z"/><path class="cls-2" d="M49.49,70.86S45.32,78,41.37,78a7.15,7.15,0,0,1,0-14.29C45.32,63.72,49.49,70.86,49.49,70.86Z"/><path class="cls-2" d="M49.49,70.87c-2.92,2.59-9.35,3.59-9.35,0S46.57,68.27,49.49,70.87Z"/><path class="cls-2" d="M62.25,85.6S68.6,95.89,65.66,101A10.64,10.64,0,1,1,47.22,90.34C50.16,85.25,62.25,85.6,62.25,85.6Z"/><path class="cls-2" d="M60.5,88.63s4.1,7.19,2.13,10.6a7.15,7.15,0,0,1-12.38-7.15C52.22,88.67,60.5,88.63,60.5,88.63Z"/><path class="cls-2" d="M60.5,88.63c.79,3.82-1.57,9.9-4.68,8.1S56.79,89.86,60.5,88.63Z"/><path class="cls-2" d="M62.25,56.13s6.35-10.29,3.41-15.38A10.64,10.64,0,0,0,47.22,51.39C50.16,56.48,62.25,56.13,62.25,56.13Z"/><path class="cls-2" d="M60.5,53.1s4.1-7.19,2.13-10.6a7.15,7.15,0,0,0-12.38,7.15C52.22,53.06,60.5,53.1,60.5,53.1Z"/><path class="cls-2" d="M60.5,53.1c.79-3.82-1.57-9.9-4.68-8.1S56.79,51.87,60.5,53.1Z"/><polygon class="cls-2" points="70.86 83.63 74.06 76.39 81.92 77.25 77.25 70.86 81.92 64.48 74.06 65.34 70.86 58.1 67.67 65.34 59.81 64.48 64.48 70.86 59.81 77.25 67.67 76.39 70.86 83.63"/><polygon class="cls-2" points="70.86 94.34 76.73 81.03 91.19 82.6 82.6 70.86 91.19 59.13 76.73 60.7 70.86 47.39 65 60.7 50.54 59.13 59.13 70.86 50.54 82.6 65 81.03 70.86 94.34"/><path class="cls-2" d="M88.74,70.86s5.74,10.64,11.61,10.64a10.64,10.64,0,0,0,0-21.29C94.48,60.22,88.74,70.86,88.74,70.86Z"/><path class="cls-2" d="M92.24,70.86S96.41,78,100.36,78a7.15,7.15,0,0,0,0-14.29C96.41,63.72,92.24,70.86,92.24,70.86Z"/><path class="cls-2" d="M92.24,70.87c2.92,2.59,9.35,3.59,9.35,0S95.16,68.27,92.24,70.87Z"/><path class="cls-2" d="M79.48,85.6S73.13,95.89,76.07,101A10.64,10.64,0,1,0,94.51,90.34C91.57,85.25,79.48,85.6,79.48,85.6Z"/><path class="cls-2" d="M81.23,88.63s-4.1,7.19-2.13,10.6a7.15,7.15,0,0,0,12.38-7.15C89.51,88.67,81.23,88.63,81.23,88.63Z"/><path class="cls-2" d="M81.23,88.63c-.79,3.82,1.57,9.9,4.68,8.1S84.94,89.86,81.23,88.63Z"/><path class="cls-2" d="M79.48,56.13s-6.35-10.29-3.41-15.38A10.64,10.64,0,0,1,94.51,51.39C91.57,56.48,79.48,56.13,79.48,56.13Z"/><path class="cls-2" d="M81.23,53.1s-4.1-7.19-2.13-10.6a7.15,7.15,0,1,1,12.38,7.15C89.51,53.06,81.23,53.1,81.23,53.1Z"/><path class="cls-2" d="M81.23,53.1c-.79-3.82,1.57-9.9,4.68-8.1S84.94,51.87,81.23,53.1Z"/></g></svg>