<svg viewBox="0 0 147 147"><title>Artboard 10</title><g id="_10_fill" data-name="10 fill"><path class="cls-1" d="M70.86,108.71c32.28,0,47.42,14.68,47.42,14.68-2-39.82-17.23-75-47.42-105.06-30.19,30-45.42,65.24-47.42,105.06C23.45,123.4,38.59,108.71,70.86,108.71Z"/></g><g id="_10_stroke" data-name="10 stroke"><path class="cls-2" d="M70.87,108.71c32.28,0,47.42,14.68,47.42,14.68-2-39.82-17.23-75-47.42-105.06-30.19,30-45.42,65.24-47.42,105.06C23.45,123.4,38.59,108.71,70.87,108.71Z"/><path class="cls-2" d="M70.87,67.19c15.61,2.64,31.4,20.1,47.42,56.2C109.66,83.69,93,59,70.87,44.23,48.77,59,32.07,83.69,23.45,123.4,39.46,87.3,55.26,69.83,70.87,67.19Z"/><path class="cls-2" d="M115.08,116.41a2.34,2.34,0,0,0,1-2.19c-.27-1-1.37-1.36-2.67-1.25,1.28-.65,1.89-1.59,1.55-2.78s-1.75-1.08-3.34-.77c1.47-.8,2.54-1.92,2.11-3.34s-2.45-1.06-4.21-.65c1.39-.67,3.31-2.12,2.48-4.56-.77-2.14-3.66-1.54-5.54-.86,2.07-.75,4.3-2.54,3.49-4.67-.79-2-3.88-1.12-6.33,0,2.32-1.25,4.81-3.3,3.64-6.41-1.12-2.42-4.56-1.28-7.57.57,2.94-2.21,5.61-4.39,4.09-7.75-1.32-2.46-5.52-.49-8.46,2.06,2.47-2,6.14-5.88,4.14-9.63-2-3.16-6.91-.12-9.77,3.54,2.73-3.06,5.79-9.51,3.07-13.14C89.11,61,85.14,66.53,82.28,71.8,85,66.93,88.37,59.37,85.21,56c-4-3.29-9.5,6.57-11,11.95,3.07-9.3,4.94-22.28-3.33-22.28s-6.4,13-3.33,22.28c-1.51-5.37-7-15.24-11-11.95-3.16,3.33.2,10.89,2.93,15.76C56.59,66.53,52.62,61,49,64.59c-2.72,3.63.34,10.08,3.07,13.14-2.86-3.66-7.73-6.71-9.77-3.54-2,3.75,1.67,7.59,4.14,9.63-2.94-2.55-7.14-4.51-8.46-2.06C36.43,85.12,39.1,87.3,42,89.51c-3-1.86-6.45-3-7.57-.57-1.17,3.11,1.33,5.16,3.64,6.41-2.45-1.12-5.55-2-6.33,0-.82,2.13,1.41,3.92,3.49,4.67-1.87-.69-4.77-1.28-5.54.86-.83,2.44,1.09,3.9,2.48,4.56-1.76-.41-3.73-.85-4.21.65s.64,2.53,2.11,3.34c-1.59-.31-2.92-.3-3.34.77s.27,2.13,1.55,2.78c-1.29-.11-2.39.22-2.67,1.25a2.34,2.34,0,0,0,1,2.19"/><path class="cls-2" d="M84.84,109.69a14.22,14.22,0,1,0-27.95,0"/><path class="cls-2" d="M94.13,111.56c.83-4-2-6.9-9.09-5.57,6.05-.66,9.75-5.16,7.61-8.67C90.16,94,86,95.25,82.47,98.84c2.39-2.46,7-7.84,2.3-11.09-3.87-2.54-7.79,1.8-9.6,5.74C78.77,87,78,78.94,70.87,78.94S63,87,66.55,93.5c-1.81-3.94-5.73-8.28-9.6-5.74-4.67,3.25-.09,8.63,2.3,11.09-3.5-3.59-7.69-4.82-10.18-1.52-2.14,3.52,1.56,8,7.61,8.67-7.12-1.33-9.92,1.61-9.09,5.57"/></g></svg>