<?xml version="1.0" encoding="utf-8"?>
<!-- Generator: Adobe Illustrator 21.0.0, SVG Export Plug-In . SVG Version: 6.00 Build 0)  -->
<svg version="1.1" id="Ebene_1" xmlns:xlink="http://www.w3.org/1999/xlink" x="0px" y="0px"
	 viewBox="0 0 17.6 17.6" style="enable-background:new 0 0 17.6 17.6;" xml:space="preserve">
<style type="text/css">
	.st0{fill:current;stroke-width:current;stroke:current}
</style>
<g id="Grau6">
</g>
<g id="Ebene_1_1_">
	<g id="Grau1">
		<path class="st0" d="M8.8,9.6c0.4,0,0.8-0.3,0.8-0.8S9.3,8,8.8,8S8,8.3,8,8.8S8.4,9.6,8.8,9.6"/>
		<path class="st0" d="M8.8,12.6C6.7,12.6,5,10.9,5,8.8S6.7,5,8.8,5s3.8,1.7,3.8,3.8S10.9,12.6,8.8,12.6z M8.8,6.6
			c-1.2,0-2.2,1-2.2,2.2s1,2.2,2.2,2.2S11,10,11,8.8S10,6.6,8.8,6.6z"/>
	</g>
</g>
</svg>
