<svg xmlns="http://www.w3.org/2000/svg" viewBox="0 0 141.73 141.73"><defs><style>.cls-1{fill:current;}.cls-2{fill:none;fill:current;stroke-linecap:round;stroke-linejoin:round;stroke-width:0.75px;}</style></defs><title>Artboard 7</title><g id="_7_fill" data-name="7 fill"><path class="cls-1" d="M70.86,104.52c4.22,9,9.9,16.74,18.9,21.82-11.73-27.17,11.08-35.25,11.08-60,0-26-28.16-32.38-30-50.92-1.81,18.54-30,24.92-30,50.92,0,24.78,22.81,32.85,11.08,60C61,121.26,66.64,113.47,70.86,104.52Z"/></g><g id="_7_stroke" data-name="7 stroke"><path class="cls-2" d="M70.86,104.52c4.22,9,9.9,16.74,18.9,21.82-11.73-27.17,11.08-35.25,11.08-60,0-26-28.16-32.38-30-50.92-1.81,18.54-30,24.92-30,50.92,0,24.78,22.81,32.85,11.08,60C61,121.26,66.64,113.47,70.86,104.52Z"/><path class="cls-2" d="M70.86,89.73c1.86,7.67,4.11,15,9.89,19.83C79.84,92.41,93.42,86,93.42,67.35c0-20.28-17.46-24.5-22.56-37.88-5.1,13.38-22.56,17.6-22.56,37.88C48.31,86,61.89,92.41,61,109.56,66.75,104.73,69,97.41,70.86,89.73Z"/><path class="cls-2" d="M70.86,89.73c7-14.74,12.7-40.55,0-40.55S63.89,75,70.86,89.73Z"/><path class="cls-2" d="M70.86,89.73c4.07-8.6,7.41-30.55,0-30.55S66.8,81.13,70.86,89.73Z"/></g></svg>