<svg xmlns="http://www.w3.org/2000/svg" viewBox="0 0 141.73 141.73"><defs><style>.cls-1{fill:current;}.cls-2{fill:none;fill:current;stroke-linecap:round;stroke-linejoin:round;stroke-width:0.75px;}</style></defs><title>Artboard 8</title><g id="_8_fill" data-name="8 fill"><path class="cls-1" d="M70.86,125.11c22.67,0,34.43-13.21,36.45-31.49,3.62-28.36-30.16-44.28-36.45-77-6.29,32.72-40.06,48.65-36.45,77C36.44,111.9,48.19,125.11,70.86,125.11Z"/></g><g id="_8_stroke" data-name="8 stroke"><path class="cls-2" d="M70.86,125.11c22.67,0,34.43-13.21,36.45-31.49,3.62-28.36-30.16-44.28-36.45-77-6.29,32.72-40.06,48.65-36.45,77C36.44,111.9,48.19,125.11,70.86,125.11Z"/><path class="cls-2" d="M70.86,117.68c17.31,0,34.49-15,26.24-40.86.44,14.44-9.54,21.26-20.39,21.26C85.05,94.93,98,73.42,88,59.4c3.28,12.72-6.3,20.82-12.16,17-5-3.32-1.28-18.73,6.74-22.31C75.93,48.64,71.9,39.19,70.86,28.43c-1,10.76-5.06,20.21-11.71,25.64,8,3.58,11.71,19,6.74,22.31-5.86,3.85-15.44-4.25-12.16-17-10,14,3,35.52,11.29,38.67-10.85,0-20.82-6.82-20.39-21.26C36.38,102.69,53.55,117.68,70.86,117.68Z"/></g></svg>