<svg viewBox="0 0 147 147"><title>Artboard 2</title><g id="_2_fill" data-name="2 fill"><path class="cls-1" d="M70.86,126.64c0-9.2,24.15-20.19,37.46-25.82s17.51-12.33,17.51-22.34-10.19-12.06-10.19-12.06c7.06-25.69-28.8-38.91-44.79-51.33C54.87,27.51,19,40.73,26.07,66.42c0,0-10.19,2.05-10.19,12.06s4.2,16.71,17.51,22.34S70.86,117.43,70.86,126.64Z"/></g><g id="_2_stroke" data-name="2 stroke"><path class="cls-2" d="M64.1,66.33c-4.85-8.24-18.18-22.28-23.19-14S54.55,65.88,64.1,66.33Z"/><path class="cls-2" d="M64.1,66.33c-2.94-5-11-13.51-14.06-8.49S58.31,66.06,64.1,66.33Z"/><path class="cls-2" d="M70.86,126.64c0-9.2,24.15-20.19,37.46-25.82s17.51-12.33,17.51-22.34-10.19-12.06-10.19-12.06c7.06-25.69-28.8-38.91-44.79-51.33C54.87,27.51,19,40.73,26.07,66.42c0,0-10.19,2.05-10.19,12.06s4.2,16.71,17.51,22.34S70.86,117.43,70.86,126.64Z"/><path class="cls-2" d="M112.13,66.23C116,44.1,87.51,31.53,70.86,20.3,54.22,31.53,25.75,44.1,29.6,66.23"/><path class="cls-2" d="M115.66,66.42c-8.73-1.47-14,5.23-14,10.89,0,2.1,1.15,7.16,5.1,7.21,5.29,0,6.1-5.23,6.1-5.23s-3.31,3.06-6.28.54c-3.06-3.15-.22-7.08,1.14-8,.87-.65,5.44-3.57,10.63.85,5.29,4.7,2.64,15.05-5.9,17.4,0,0-12.46,3.69-18,6.3,0,0-20.65,7.71-23.59,28.81-2.94-21.11-23.59-28.81-23.59-28.81-5.56-2.61-18-6.3-18-6.3-8.54-2.35-11.19-12.7-5.9-17.4,5.19-4.42,9.76-1.5,10.63-.85,1.36.92,4.2,4.85,1.14,8-3,2.52-6.28-.54-6.28-.54s.81,5.23,6.1,5.23c4-.05,5.11-5.11,5.1-7.21,0-5.66-5.23-12.36-14-10.89"/><path class="cls-2" d="M70.86,106.74c38.54-24,8.25-48.36,0-25.66C62.61,58.38,32.33,82.75,70.86,106.74Z"/><path class="cls-2" d="M70.86,70.3C77.64,57.78,85.28,30,70.86,30S64.09,57.78,70.86,70.3Z"/><path class="cls-2" d="M70.86,70.3c4.11-7.59,8.74-24.46,0-24.46S66.76,62.7,70.86,70.3Z"/><path class="cls-2" d="M77.63,66.33c4.85-8.24,18.18-22.28,23.19-14S87.18,65.88,77.63,66.33Z"/><path class="cls-2" d="M77.63,66.33c2.94-5,11-13.51,14.06-8.49S83.42,66.06,77.63,66.33Z"/></g></svg>