<svg viewBox="0 0 140 140">
    <path d="M122.81,110.68c-8.12-30-26.81-56-51.95-79.62C45.73,54.66,27,80.69,18.92,110.68Z" />
    <circle cx="53.56" cy="61.21" r="3.25" />
    <circle cx="41.9" cy="76.24" r="3.25" />
    <circle cx="33.28" cy="90.55" r="3.25" />
    <path d="M122.81,110.68c-8.12-30-26.81-56-51.95-79.62C45.73,54.66,27,80.69,18.92,110.68Z" />
    <path class="cls-2"
        d="M108,110.68A8.38,8.38,0,1,0,99.21,96.4a8.38,8.38,0,1,0-8.77-14.28,8.38,8.38,0,1,0-8.77-14.28c5-9-5.68-14.58-10.81-21.62-5.12,7-15.79,12.6-10.81,21.62a8.38,8.38,0,1,0-8.77,14.28A8.38,8.38,0,1,0,42.52,96.4a8.38,8.38,0,1,0-8.77,14.28" />
    <path d="M82.39,110.68c13.5-13.12-7.25-24.21-11.53-45.37-4.28,21.17-25,32.25-11.53,45.38" />
    <circle cx="70.87" cy="39.8" r="3.25" />
    <circle cx="88.17" cy="61.21" r="3.25" />
    <circle cx="99.83" cy="76.24" r="3.25" />
    <circle cx="108.45" cy="90.55" r="3.25" />
</svg>