<svg viewBox="0 0 140 140">
    <path
        d="M108.35,41.47a29,29,0,0,0-5.27,2.3h0A37.19,37.19,0,0,0,91.7,29.16a36.5,36.5,0,0,0-5.92,3.56h0A30.6,30.6,0,0,0,70.86,18.06,30.6,30.6,0,0,0,55.94,32.72h0A36.5,36.5,0,0,0,50,29.16a37.19,37.19,0,0,0-11.37,14.6h0a29,29,0,0,0-5.27-2.3c-14.64,34.75,11.74,82.2,37.48,82.2S123,76.21,108.35,41.47Z" />
    <path d="M38.66,43.76A37.19,37.19,0,0,1,50,29.16s13.38,6,16.38,17.5" />
    <path class="cls-2"
        d="M83.18,65c9.4-19.15,25.17-23.57,25.17-23.57,14.64,34.75-11.74,82.2-37.48,82.2S18.75,76.21,33.38,41.47c0,0,15.76,4.42,25.17,23.57" />
    <path d="M70.86,123.67c26.7-21.39,15.12-62.57,0-84.13C55.74,61.09,44.16,102.27,70.86,123.67Z" />
    <path d="M103.07,43.76A37.19,37.19,0,0,0,91.7,29.16s-13.38,6-16.38,17.5" />
    <path d="M85.79,32.72A30.6,30.6,0,0,0,70.86,18.06,30.6,30.6,0,0,0,55.94,32.72" />
</svg>