<svg viewBox="0 0 147 147"><title>Artboard 9</title><g id="_9_fill" data-name="9 fill"><polygon class="cls-1" points="70.86 123.01 84.92 111.02 104.15 111.02 108.4 91.28 123.13 78.67 113.14 62.19 116.76 42.45 98.28 35.58 89.04 18.72 70.86 25.59 52.69 18.72 43.45 35.58 24.97 42.45 28.59 62.19 18.6 78.67 33.33 91.28 37.58 111.02 56.81 111.02 70.86 123.01"/></g><g id="_9_stroke" data-name="9 stroke"><line class="cls-2" x1="43.45" y1="35.58" x2="52.32" y2="46.82"/><line class="cls-2" x1="28.59" y1="62.18" x2="42.76" y2="64.53"/><line class="cls-2" x1="33.33" y1="91.29" x2="46.51" y2="83.82"/><line class="cls-2" x1="56.81" y1="111.02" x2="61.78" y2="96.56"/><path class="cls-2" d="M55.32,59.47c-3.69-5.27-13.44-14.3-16.49-9.74C36.3,54.6,48.91,58.78,55.32,59.47Z"/><path class="cls-2" d="M52.53,72.19c-6.19-1.76-19.46-2.6-18.93,2.87C34.72,80.44,47.14,75.71,52.53,72.19Z"/><path class="cls-2" d="M59,84C53.17,86.79,42.7,95,46.73,98.71,51.14,102,57.27,90.19,59,84Z"/><path class="cls-2" d="M70.86,87.55c-2.81,5.79-5.94,18.71-.47,19.14C75.88,106.53,73.38,93.48,70.86,87.55Z"/><path class="cls-2" d="M65.47,51.61c.5-6.42-1.28-19.59-6.54-18C53.88,35.76,61,47,65.47,51.61Z"/><line class="cls-2" x1="65.47" y1="51.61" x2="70.87" y2="69.41"/><line class="cls-2" x1="55.32" y1="59.7" x2="70.87" y2="69.41"/><line class="cls-2" x1="52.69" y1="72.11" x2="70.87" y2="69.41"/><line class="cls-2" x1="59.06" y1="83.82" x2="70.87" y2="69.41"/><polygon class="cls-2" points="70.86 123.01 84.92 111.02 104.15 111.02 108.4 91.28 123.13 78.67 113.14 62.19 116.76 42.45 98.28 35.58 89.04 18.72 70.86 25.59 52.69 18.72 43.45 35.58 24.97 42.45 28.59 62.19 18.6 78.67 33.33 91.28 37.58 111.02 56.81 111.02 70.86 123.01"/><polygon class="cls-2" points="70.86 87.19 79.95 96.56 82.67 83.82 95.22 83.82 89.04 72.11 98.97 64.53 86.41 59.47 89.41 46.82 76.3 51.69 70.86 39.98 65.43 51.69 52.32 46.82 55.32 59.47 42.76 64.53 52.69 72.11 46.51 83.82 59.06 83.82 61.78 96.56 70.86 87.19"/><line class="cls-2" x1="98.28" y1="35.58" x2="89.41" y2="46.82"/><line class="cls-2" x1="113.14" y1="62.18" x2="98.97" y2="64.53"/><line class="cls-2" x1="108.4" y1="91.29" x2="95.22" y2="83.82"/><line class="cls-2" x1="84.92" y1="111.02" x2="79.95" y2="96.56"/><path class="cls-2" d="M86.41,59.47c3.69-5.27,13.44-14.3,16.49-9.74C105.43,54.6,92.82,58.78,86.41,59.47Z"/><path class="cls-2" d="M89.2,72.19c6.19-1.76,19.46-2.6,18.93,2.87C107,80.44,94.59,75.71,89.2,72.19Z"/><path class="cls-2" d="M82.77,84C88.56,86.79,99,95,95,98.71,90.59,102,84.46,90.19,82.77,84Z"/><path class="cls-2" d="M76.26,51.61c-.5-6.42,1.28-19.59,6.54-18C87.85,35.76,80.76,47,76.26,51.61Z"/><line class="cls-2" x1="76.26" y1="51.61" x2="70.87" y2="69.41"/><line class="cls-2" x1="86.41" y1="59.7" x2="70.87" y2="69.41"/><line class="cls-2" x1="89.04" y1="72.11" x2="70.87" y2="69.41"/><line class="cls-2" x1="82.67" y1="83.82" x2="70.87" y2="69.41"/><line class="cls-2" x1="70.86" y1="87.19" x2="70.87" y2="69.41"/><line class="cls-2" x1="70.87" y1="25.59" x2="70.87" y2="39.99"/></g></svg>