<svg viewBox="0 0 147 147"><title>@liam_draws123_7</title><g id="_7_fill" data-name="7 fill"><path class="cls-1" d="M106.71,101.3a84.9,84.9,0,0,0-3.12-12.61h18.93C115.16,62,98.71,41.93,70.86,30.3,43,41.93,26.57,62,19.21,88.69H38.14A84.89,84.89,0,0,0,35,101.3H58.13a44.8,44.8,0,0,0-.92,10.12h27.3a44.8,44.8,0,0,0-.92-10.12h23.12Z"/></g><g id="_7_stroke" data-name="7 stroke"><line class="cls-2" x1="65.79" y1="62.26" x2="60.54" y2="57.11"/><line class="cls-2" x1="61.47" y1="66.08" x2="55.53" y2="61.34"/><line class="cls-2" x1="51.04" y1="65.95" x2="57.56" y2="70.17"/><line class="cls-2" x1="50.77" y1="79.56" x2="43.44" y2="76.65"/><line class="cls-2" x1="46.91" y1="71.18" x2="53.91" y2="74.77"/><line class="cls-2" x1="45.75" y1="90.12" x2="38.13" y2="88.69"/><line class="cls-2" x1="40.45" y1="82.66" x2="47.99" y2="84.82"/><line class="cls-2" x1="36.33" y1="94.96" x2="43.92" y2="95.66"/><path class="cls-2" d="M70.86,50.45c-4.09-7.51-16-13.78-18.07-10.09S62.33,50.92,70.86,50.45Z"/><path class="cls-2" d="M60.34,105.16c-1.68,2.82,6.44,6,10.52,6.27C68.73,107.94,62,102.34,60.34,105.16Z"/><circle class="cls-2" cx="34.69" cy="81.71" r="4"/><path class="cls-2" d="M27.29,68.38a4,4,0,1,1-3.43,7"/><circle class="cls-2" cx="33.12" cy="74.61" r="3.14"/><path class="cls-2" d="M42.93,77.59a3.27,3.27,0,1,1,3.35-5.52"/><path class="cls-2" d="M20.49,84.41a3.14,3.14,0,0,1,3.77,4.28"/><circle class="cls-2" cx="38.53" cy="76.36" r="2.43"/><circle class="cls-2" cx="36.83" cy="65.33" r="1.44"/><circle class="cls-2" cx="47.18" cy="57.65" r="1.2"/><circle class="cls-2" cx="58" cy="51.53" r="1.32"/><circle class="cls-2" cx="65.73" cy="37.31" r="1.32"/><circle class="cls-2" cx="45.5" cy="60.7" r="1.85"/><circle class="cls-2" cx="50.89" cy="57.65" r="1.85"/><circle class="cls-2" cx="58.66" cy="55.33" r="2.08"/><path class="cls-2" d="M54.56,62.26a2.9,2.9,0,1,1,3.72-3.35"/><path class="cls-2" d="M38.49,87.65a1.88,1.88,0,1,1,1.32-3.51"/><path class="cls-2" d="M40,83.78a3.4,3.4,0,0,1,2.85-6"/><circle class="cls-2" cx="28.98" cy="78.31" r="2.43" transform="translate(-12.61 5.9) rotate(-9.56)"/><path class="cls-2" d="M30.18,88.7a2.43,2.43,0,1,1,4.48,0"/><circle class="cls-2" cx="38.53" cy="70.3" r="3.54"/><circle class="cls-2" cx="32.04" cy="67.51" r="3.35"/><circle class="cls-2" cx="41.04" cy="62.96" r="2.98"/><path class="cls-2" d="M34.79,56.94a3.51,3.51,0,1,1-3.51,4.83"/><path class="cls-2" d="M39.22,51.76a4.25,4.25,0,1,1-2.35,2.64"/><path class="cls-2" d="M67.05,50.22c0,.1.09.19.12.29a3.8,3.8,0,0,1,.06,2"/><path class="cls-2" d="M62.89,55.39A3.82,3.82,0,0,1,61.2,48.6"/><path class="cls-2" d="M47.29,70.64A3.35,3.35,0,1,1,48.49,69"/><path class="cls-2" d="M50.68,66.36a3.35,3.35,0,1,1,2.92-3.15"/><circle class="cls-2" cx="53.85" cy="53.53" r="2.92"/><circle class="cls-2" cx="47.96" cy="53.53" r="2.79"/><circle class="cls-2" cx="51.35" cy="47.87" r="3.25"/><path class="cls-2" d="M63.19,42.49A3.25,3.25,0,0,1,67.37,39"/><path class="cls-2" d="M68.37,44.7a3.23,3.23,0,0,1-1.58.63"/><path class="cls-2" d="M49.64,42.36a4.22,4.22,0,0,1-5.44,4.5"/><circle class="cls-2" cx="44.38" cy="49.66" r="2.09"/><path class="cls-2" d="M58.31,36.56a2.09,2.09,0,0,1-.68,3.15"/><path class="cls-2" d="M63.65,33.63a2.39,2.39,0,1,1-3.8,2"/><path class="cls-2" d="M67.45,36.05a2.39,2.39,0,0,1-2.86-2.89"/><path class="cls-2" d="M68,31.56a2.38,2.38,0,0,1,.74.55"/><path class="cls-2" d="M53.75,43.87a2.76,2.76,0,0,1-3.86-1.7"/><path class="cls-2" d="M59.83,48a2.54,2.54,0,1,1-4.08-2.35"/><path class="cls-2" d="M58.14,39.88a2.54,2.54,0,1,1,4.4,2.19"/><circle class="cls-2" cx="27.48" cy="84.2" r="3.54"/><path class="cls-2" d="M23.7,75.79a3.17,3.17,0,1,1-2.25,5.75"/><path class="cls-2" d="M103.6,88.69h18.92C115.16,62,98.71,41.93,70.86,30.3,43,41.93,26.57,62,19.21,88.69H38.13"/><path class="cls-2" d="M83.61,101.3h23.1c-3.6-21.08-13.81-38.9-35.85-50.85-22,12-32.25,29.77-35.85,50.85h23.1"/><path class="cls-2" d="M99.24,101.3c-3.7-17.11-12.17-31.86-28.37-42.78C54.66,69.44,46.2,84.19,42.49,101.3"/><path class="cls-2" d="M84.51,111.43q.43-18.36-13.65-34.33-14.08,16-13.65,34.33Z"/><line class="cls-2" x1="75.94" y1="62.26" x2="81.19" y2="57.11"/><polyline class="cls-2" points="75.31 53.05 70.86 58.52 66.42 53.05"/><line class="cls-2" x1="80.26" y1="66.08" x2="86.2" y2="61.34"/><line class="cls-2" x1="90.69" y1="65.95" x2="84.17" y2="70.17"/><line class="cls-2" x1="90.96" y1="79.56" x2="98.29" y2="76.65"/><line class="cls-2" x1="94.82" y1="71.18" x2="87.82" y2="74.77"/><line class="cls-2" x1="95.98" y1="90.12" x2="103.6" y2="88.69"/><line class="cls-2" x1="101.28" y1="82.66" x2="93.74" y2="84.82"/><line class="cls-2" x1="105.4" y1="94.96" x2="97.81" y2="95.66"/><path class="cls-2" d="M70.86,50.45c4.45-7.43,4.94-18.33,0-20.15C65.93,32.12,66.42,43,70.86,50.45Z"/><path class="cls-2" d="M70.86,50.45c4.09-7.51,16-13.78,18.07-10.09S79.4,50.92,70.86,50.45Z"/><path class="cls-2" d="M70.86,111.43c3.48-6.63,6-22.41,0-22.41S67.39,104.8,70.86,111.43Z"/><path class="cls-2" d="M81.39,105.16c1.68,2.82-6.44,6-10.52,6.27C73,107.94,79.71,102.34,81.39,105.16Z"/><circle class="cls-2" cx="107.04" cy="81.71" r="4"/><path class="cls-2" d="M114.44,68.38a4,4,0,1,0,3.43,7"/><circle class="cls-2" cx="108.61" cy="74.61" r="3.14"/><path class="cls-2" d="M98.8,77.59a3.27,3.27,0,1,0-3.35-5.52"/><path class="cls-2" d="M121.24,84.41a3.14,3.14,0,0,0-3.77,4.28"/><circle class="cls-2" cx="103.2" cy="76.36" r="2.43"/><circle class="cls-2" cx="104.9" cy="65.33" r="1.44"/><circle class="cls-2" cx="94.55" cy="57.65" r="1.2"/><circle class="cls-2" cx="83.73" cy="51.53" r="1.32"/><circle class="cls-2" cx="76" cy="37.31" r="1.32"/><circle class="cls-2" cx="96.23" cy="60.7" r="1.85"/><circle class="cls-2" cx="90.84" cy="57.65" r="1.85"/><circle class="cls-2" cx="83.07" cy="55.33" r="2.08"/><path class="cls-2" d="M87.17,62.26a2.9,2.9,0,1,0-3.72-3.35"/><path class="cls-2" d="M103.24,87.65a1.88,1.88,0,1,0-1.32-3.51"/><path class="cls-2" d="M101.76,83.78a3.4,3.4,0,0,0-2.85-6"/><circle class="cls-2" cx="112.75" cy="78.31" r="2.43" transform="matrix(0.17, -0.99, 0.99, 0.17, 16.8, 176.49)"/><path class="cls-2" d="M111.55,88.7a2.43,2.43,0,1,0-4.48,0"/><circle class="cls-2" cx="103.2" cy="70.3" r="3.54"/><circle class="cls-2" cx="109.69" cy="67.51" r="3.35"/><circle class="cls-2" cx="100.69" cy="62.96" r="2.98"/><path class="cls-2" d="M106.94,56.94a3.51,3.51,0,1,0,3.51,4.83"/><path class="cls-2" d="M102.51,51.76a4.25,4.25,0,1,0,2.35,2.64"/><path class="cls-2" d="M74.68,50.22c0,.1-.09.19-.12.29a3.8,3.8,0,0,0-.06,2"/><path class="cls-2" d="M78.84,55.39a3.82,3.82,0,0,0,1.69-6.79"/><path class="cls-2" d="M94.44,70.64A3.35,3.35,0,1,0,93.24,69"/><path class="cls-2" d="M91,66.36a3.35,3.35,0,1,0-2.92-3.15"/><circle class="cls-2" cx="87.88" cy="53.53" r="2.92"/><circle class="cls-2" cx="93.77" cy="53.53" r="2.79"/><circle class="cls-2" cx="90.38" cy="47.87" r="3.25"/><path class="cls-2" d="M78.54,42.49A3.25,3.25,0,0,0,74.36,39"/><path class="cls-2" d="M73.36,44.7a3.23,3.23,0,0,0,1.58.63"/><path class="cls-2" d="M92.09,42.36a4.22,4.22,0,0,0,5.44,4.5"/><circle class="cls-2" cx="97.35" cy="49.66" r="2.09"/><path class="cls-2" d="M83.42,36.56a2.09,2.09,0,0,0,.68,3.15"/><path class="cls-2" d="M78.08,33.63a2.39,2.39,0,1,0,3.8,2"/><path class="cls-2" d="M74.28,36.05a2.39,2.39,0,0,0,2.86-2.89"/><path class="cls-2" d="M73.77,31.56a2.38,2.38,0,0,0-.74.55"/><path class="cls-2" d="M88,43.87a2.76,2.76,0,0,0,3.86-1.7"/><path class="cls-2" d="M81.9,48A2.54,2.54,0,1,0,86,45.66"/><path class="cls-2" d="M83.59,39.88a2.54,2.54,0,1,0-4.4,2.19"/><circle class="cls-2" cx="114.25" cy="84.2" r="3.54"/><path class="cls-2" d="M118,75.79a3.17,3.17,0,1,0,2.25,5.75"/><path class="cls-2" d="M95.29,101.3c-.1-.81,1.14-2.74,3.22-3.09-3.88.15-6.36-3.95-2-6.67-4.62.15-6.12-4.54-2.87-6.95a3.54,3.54,0,0,1-3.36-6.16,4,4,0,0,1-4.41-6.25c-3.44,2.24-6.73-1.34-4-4.48-3.83,1.85-6.59-1.32-5.25-4.85-3.3,1.92-5.79.11-5.79-4.33,0,4.44-2.49,6.25-5.79,4.33,1.34,3.53-1.42,6.7-5.25,4.85,2.77,3.15-.51,6.73-4,4.48a4,4,0,0,1-4.41,6.25,3.54,3.54,0,0,1-3.36,6.16c3.25,2.41,1.75,7.09-2.87,6.95,4.34,2.72,1.87,6.82-2,6.67,2.08.36,3.32,2.29,3.22,3.09"/><path class="cls-2" d="M85.05,101.3c1.15-2.67-.88-4.08-2.58-4.4A3.27,3.27,0,0,0,80.18,91c2.2-3.3.08-5.55-2.82-5.22,2.44-3.15-.46-6.25-3.5-5.08,2.46-3-1.19-5.09-3-3.64-1.81-1.45-5.46.65-3,3.64-3-1.18-5.93,1.92-3.5,5.08-2.9-.33-5,1.93-2.82,5.22a3.27,3.27,0,0,0-2.29,5.86c-1.71.32-3.73,1.73-2.58,4.4"/></g></svg>