<svg xmlns="http://www.w3.org/2000/svg" viewBox="0 0 141.73 141.73"><defs><style>.cls-1{fill:current;}.cls-2{fill:none;fill:current;stroke-linecap:round;stroke-linejoin:round;stroke-width:0.75px;}</style></defs><title>lilz_art_6</title><g id="_6_fill" data-name="6 fill"><path class="cls-1" d="M18.47,76.89c43.29,5.63,30,39.74,62,39.74,24.19,0,23-29.95,42.83-39.74-9.58-.37-15.08-20.38-28.92-3-2.91-1.09-6.49-5.33-10.17-10.95-2-3-3.34-10-5.26-13.48-2.06-3.74-4.25-4.12-6.49-7.68-4.09-6.49-6.2-13.13-7.74-16.67-2.42,4.25,1.08,15.46-2.92,15.54-1.27,1.33,0,11.88,3.17,16.29C48.3,49.18,32.14,45.27,19.34,41.85c-.87,3.58,15.58,11.67,10.25,15.58C35.34,63,44.72,64.06,41.84,68.85c2.58,3.83,14,6,12.5,9.33-2.71,4.13-16.54-6.75-33.25-4.3l8,2.05C25.21,75.72,21.26,75.85,18.47,76.89Z"/></g><g id="_6_stroke" data-name="6 stroke"><path class="cls-2" d="M18.47,76.89c43.29,5.63,30,39.74,62,39.74,24.19,0,23-29.95,42.83-39.74-9.58-.37-15.08-20.38-28.92-3-2.91-1.09-6.49-5.33-10.17-10.95-2-3-3.34-10-5.26-13.48-2.06-3.74-4.25-4.12-6.49-7.68-4.09-6.49-6.2-13.13-7.74-16.67-2.42,4.25,1.08,15.46-2.92,15.54-1.27,1.33,0,11.88,3.17,16.29C48.3,49.18,32.14,45.27,19.34,41.85c-.87,3.58,15.58,11.67,10.25,15.58C35.34,63,44.72,64.06,41.84,68.85c2.58,3.83,14,6,12.5,9.33-2.71,4.13-16.54-6.75-33.25-4.3l8,2.05C25.21,75.72,21.26,75.85,18.47,76.89Z"/><circle class="cls-2" cx="106.66" cy="74.25" r="2.04"/></g></svg>