<svg viewBox="0 0 147 147"><title>sine_art_9</title><g id="_9_fill" data-name="9 fill"><path class="cls-1" d="M70.86,123.05A217.3,217.3,0,0,0,111,66.8c-10-17.06-23.65-33-40.1-48.12C54.42,33.79,40.72,49.74,30.77,66.8A217.3,217.3,0,0,0,70.86,123.05Z"/></g><g id="_9_stroke" data-name="9 stroke"><path class="cls-2" d="M54.94,60.8c1.46,1.35-1.33,3.35-2.58,1.21a3,3,0,0,1,2.79-4.21c1.75-.08,4.17,2.15,2.94,5.25-1.6,3.54-8,4.44-10.19-.44-1.86-5.09,2.38-10.15,8.41-9.48S64.67,61,62,65.52C58.31,71.31,48,68,48,78.48"/><line class="cls-2" x1="67.69" y1="57.94" x2="70.86" y2="60.13"/><line class="cls-2" x1="64.79" y1="61.58" x2="70.86" y2="65.78"/><line class="cls-2" x1="61.17" y1="66.72" x2="70.86" y2="73.42"/><line class="cls-2" x1="57.98" y1="71.89" x2="70.86" y2="80.8"/><line class="cls-2" x1="54.73" y1="77.98" x2="70.86" y2="89.14"/><line class="cls-2" x1="52.09" y1="83.76" x2="70.86" y2="96.74"/><line class="cls-2" x1="59.29" y1="95.53" x2="70.86" y2="103.54"/><path class="cls-2" d="M70.86,123.05A217.3,217.3,0,0,0,111,66.8c-10-17.06-23.65-33-40.1-48.12C54.42,33.79,40.72,49.74,30.77,66.8A217.3,217.3,0,0,0,70.86,123.05Z"/><path class="cls-2" d="M70.86,110A204.26,204.26,0,0,0,100,66.8C92.52,54,82.4,41.83,70.86,30.17,59.33,41.83,49.21,54,41.75,66.8A204.26,204.26,0,0,0,70.86,110Z"/><path class="cls-2" d="M90,84.56A101.52,101.52,0,0,0,70.86,54.3,101.52,101.52,0,0,0,51.76,84.56"/><path class="cls-2" d="M86.79,60.8c-1.46,1.35,1.33,3.35,2.58,1.21a3,3,0,0,0-2.79-4.21c-1.75-.08-4.17,2.15-2.94,5.25,1.6,3.54,8,4.44,10.19-.44,1.86-5.09-2.37-10.15-8.41-9.48S77.06,61,79.76,65.52c3.66,5.8,14,2.49,13.94,13"/><line class="cls-2" x1="75.3" y1="59.48" x2="70.86" y2="62.54"/><line class="cls-2" x1="78.38" y1="63.55" x2="70.86" y2="68.74"/><line class="cls-2" x1="81.98" y1="68.93" x2="70.86" y2="76.61"/><line class="cls-2" x1="85.16" y1="74.42" x2="70.86" y2="84.3"/><line class="cls-2" x1="88.42" y1="80.98" x2="70.86" y2="93.11"/><line class="cls-2" x1="87.38" y1="88.51" x2="70.86" y2="99.93"/><line class="cls-2" x1="70.87" y1="54.3" x2="70.86" y2="110"/></g></svg>