<svg viewBox="0 0 140 140"><title>Artboard 5</title><g id="_5_fill" data-name="5 fill"><path class="cls-1" d="M69,115c-32.24-8-54-31-49-70.62C55.59,53.82,68.25,77,69,115Z"/><path class="cls-1" d="M72.7,115c32.24-8,54-31,49-70.62C86.14,53.82,73.48,77,72.7,115Z"/><path class="cls-1" d="M70.86,89.49a58.61,58.61,0,0,1,30.6-40.15,3.42,3.42,0,0,0,1.32-4.88C98.16,37.2,87.88,26.74,70.86,26.74S43.57,37.2,38.94,44.46a3.42,3.42,0,0,0,1.32,4.88A58.61,58.61,0,0,1,70.86,89.49Z"/></g><g id="_5_stroke" data-name="5 stroke"><path class="cls-2" d="M69,115c-32.24-8-54-31-49-70.62C55.59,53.82,68.25,77,69,115Z"/><circle class="cls-2" cx="31.48" cy="60.79" r="8.5"/><circle class="cls-2" cx="58.34" cy="101.4" r="5.91"/><circle class="cls-2" cx="45.33" cy="81.64" r="13.85"/><path class="cls-2" d="M72.7,115c32.24-8,54-31,49-70.62C86.14,53.82,73.48,77,72.7,115Z"/><circle class="cls-2" cx="110.25" cy="60.79" r="8.5"/><circle class="cls-2" cx="83.39" cy="101.4" r="5.91"/><circle class="cls-2" cx="96.4" cy="81.64" r="13.85"/><path class="cls-2" d="M70.86,89.49a58.61,58.61,0,0,1,30.6-40.15,3.42,3.42,0,0,0,1.32-4.88C98.16,37.2,87.88,26.74,70.86,26.74S43.57,37.2,38.94,44.46a3.42,3.42,0,0,0,1.32,4.88A58.61,58.61,0,0,1,70.86,89.49Z"/><path class="cls-2" d="M70.86,77.07C73.53,64.42,85.1,53.39,94.7,48.34a2.77,2.77,0,0,0,.87-4.23c-4.48-5.38-13.4-10.88-24.7-10.88s-20.21,5.5-24.7,10.88A2.77,2.77,0,0,0,47,48.34C56.63,53.39,68.2,64.42,70.86,77.07Z"/></g></svg>