<svg viewBox="0 0 140 140"><title>Artboard 27</title><g id="_27_fill" data-name="27 fill"><path class="cls-1" d="M70.86,122.22l19.26-19c10,27.7,46.59,1.67,27.81-37.43-7.76-17.41-31-31.56-47.07-46.3C54.79,34.25,31.56,48.4,23.8,65.81,5,104.91,41.6,130.93,51.61,103.24Z"/></g><g id="_27_stroke" data-name="27 stroke"><path class="cls-2" d="M47.75,102.28c-.45,1.08-8.14,10.67-14.11,4.17C29,100.61,36,95.36,38.49,95.09"/><path class="cls-2" d="M36.68,67.23a8.87,8.87,0,0,0-8.8,4.2c-2.77,5.48,4.07,10.14,8.4,11.32"/><path class="cls-2" d="M32.54,81.14c-2.31.55-7.09,2.44-7.23,7.05,0,4.79,8.7,8.64,12.53,7.05"/><circle class="cls-2" cx="63.69" cy="42.96" r="2.47"/><circle class="cls-2" cx="51.76" cy="52.46" r="2.47"/><circle class="cls-2" cx="41.41" cy="62.46" r="2.47"/><circle class="cls-2" cx="33.85" cy="73.8" r="2.47"/><circle class="cls-2" cx="31.38" cy="88.26" r="2.47"/><circle class="cls-2" cx="38.58" cy="102.41" r="2.47"/><path class="cls-2" d="M66.3,73.95c-1-1.79-3.28-3.76-6-3.08-7.1,2.33-2.09,13.53,1.2,22.39"/><path class="cls-2" d="M54.76,95.81c-3.36-4.31-8.64-15.4-3.63-18.11,2.8-1,4.77.79,6.09,3.11"/><path class="cls-2" d="M49.89,86.43c-5.54-2.3-5.84,3.26-1.34,9.86"/><path class="cls-2" d="M70.86,122.22l19.26-19c10,27.7,46.59,1.67,27.81-37.43-7.76-17.41-31-31.56-47.07-46.3C54.79,34.25,31.56,48.4,23.8,65.81,5,104.91,41.6,130.93,51.61,103.24Z"/><path class="cls-2" d="M70.86,98.11a24.57,24.57,0,0,1,12.45,3.72c2.25.47,3.75.7,3.75.7,11.73,1.64,18.57-6.54,18.57-17.69-.5-14.53-14.37-24.66-26-34.12-3.19-2.6-7.39-6.27-8.75-9.14-1.36,2.87-5.56,6.55-8.75,9.14-11.64,9.46-25.5,19.6-26,34.12,0,11.14,6.83,19.33,18.57,17.69,0,0,1.5-.23,3.75-.7A24.57,24.57,0,0,1,70.86,98.11Z"/><path class="cls-2" d="M70.86,92.27c7.17-.45,14.48,2.24,17.72,4.54,7.9.54,10.73-5,10.73-13.15C99.32,69.8,81.63,62,70.86,51.05,60.1,62,42.41,69.8,42.41,83.66c0,8.14,2.83,13.69,10.73,13.15C56.38,94.51,63.69,91.82,70.86,92.27Z"/><path class="cls-2" d="M88.56,96.82,70.86,114.25,53.17,96.82"/><path class="cls-2" d="M70.86,110c7.67-9.7,0-9.13,0-9.13S63.19,100.31,70.86,110Z"/><path class="cls-2" d="M94,102.28c.45,1.08,8.14,10.67,14.11,4.17,4.64-5.84-2.4-11.09-4.86-11.36"/><path class="cls-2" d="M100.54,70.63c4-2.11,8.6-5.93,4.73-12-3.05-4.22-9.42-2.1-13.8,2C95,56.9,98.72,52.9,93.87,48.05c-4.29-3.69-9,0-13.45,3.32,2.81-2.59,6.4-7.9,1.22-12.8-3.23-2.79-8-1.53-10.78,3-2.73-4.54-7.55-5.79-10.78-3-5.17,4.91-1.59,10.22,1.22,12.8-4.43-3.34-9.16-7-13.45-3.32C43,52.9,46.75,56.9,50.27,60.57c-4.38-4.05-10.75-6.18-13.8-2-3.87,6.08.73,9.91,4.73,12"/><path class="cls-2" d="M105.05,67.23a8.87,8.87,0,0,1,8.8,4.2c2.77,5.48-4.07,10.14-8.4,11.32"/><path class="cls-2" d="M109.19,81.14c2.31.55,7.09,2.44,7.23,7.05,0,4.79-8.7,8.64-12.53,7.05"/><circle class="cls-2" cx="78.04" cy="42.96" r="2.47"/><circle class="cls-2" cx="89.97" cy="52.46" r="2.47"/><circle class="cls-2" cx="100.32" cy="62.46" r="2.47"/><circle class="cls-2" cx="107.88" cy="73.8" r="2.47"/><circle class="cls-2" cx="110.35" cy="88.26" r="2.47"/><circle class="cls-2" cx="103.15" cy="102.41" r="2.47"/><path class="cls-2" d="M73.73,92.25c3.48-17,1.66-26.4-2.86-26.75-4.52.35-6.34,9.73-2.86,26.75"/><path class="cls-2" d="M75.43,73.95c1-1.79,3.28-3.76,6-3.08,7.1,2.33,2.09,13.53-1.2,22.39"/><path class="cls-2" d="M87,95.81c3.36-4.31,8.64-15.4,3.63-18.11-2.8-1-4.77.79-6.09,3.11"/><path class="cls-2" d="M91.84,86.43c5.54-2.3,5.84,3.26,1.34,9.86"/></g></svg>