<svg viewBox="0 0 147 147">
        <path class="cls-1" d="M70.86,123.11c-16-18.25-22.12-52.25-52.37-62.29C22,103,47.83,119.95,70.86,123.11" />
        <path class="cls-1" d="M70.86,123.11c37.37-49.33,7-93,0-104.5C63.9,30.07,33.5,73.78,70.86,123.11Z" />
        <path class="cls-1" d="M70.86,123.11c16-18.25,22.12-52.25,52.37-62.29-3.5,42.21-29.33,59.12-52.37,62.29" />
        <path class="cls-2" d="M70.86,123.11c-16-18.25-22.12-52.25-52.37-62.29C22,103,47.83,119.95,70.86,123.11" />
        <circle class="cls-2" cx="37.62" cy="86.45" r="2.17" transform="translate(-52.24 57.94) rotate(-48.88)" />
        <path class="cls-2" d="M70.86,123.11c37.37-49.33,7-93,0-104.5C63.9,30.07,33.5,73.78,70.86,123.11Z" />
        <path class="cls-2" d="M70.86,123.11c16-18.25,22.12-52.25,52.37-62.29-3.5,42.21-29.33,59.12-52.37,62.29" />
        <path class="cls-2" d="M102.83,88.2c-5.94,8.52-12.43,22.75-32,34.92-19.53-12.17-26-26.4-32-34.92" />
        <circle class="cls-2" cx="104.11" cy="86.45" r="2.17" transform="translate(-31.17 89.79) rotate(-41.12)" />
        <circle class="cls-2" cx="70.87" cy="53.68" r="3.52" />
        <line class="cls-2" x1="70.87" y1="57.2" x2="70.86" y2="123.11" />
</svg>