<svg viewBox="0 0 147 147"><title>Artboard 8</title><g id="_8_fill" data-name="8 fill"><path class="cls-1" d="M70.86,123.4c6.43-25,11.14-51,35.81-66.18-17.75-6.5-29.29-19.9-35.81-38.88-6.52,19-18.06,32.39-35.81,38.88C59.73,72.39,64.44,98.36,70.86,123.4"/></g><g id="_8_stroke" data-name="8 stroke"><path class="cls-2" d="M70.86,123.4c6.43-25,11.14-51,35.81-66.18-17.75-6.5-29.29-19.9-35.81-38.88-6.52,19-18.06,32.39-35.81,38.88C59.73,72.39,64.44,98.36,70.86,123.4"/><path class="cls-2" d="M70.86,95.81c4-14.67,11-30.35,20.88-38.59-8.64-3-17.12-12.65-20.88-22.67C67.1,44.57,58.62,54.25,50,57.22,59.83,65.45,66.83,81.14,70.86,95.81Z"/><path class="cls-2" d="M77.63,46.35a42.59,42.59,0,0,1-6.77,8.78L59.09,68"/><path class="cls-2" d="M82.64,68,70.86,55.13a42.59,42.59,0,0,1-6.77-8.78"/><path class="cls-2" d="M77.91,76.55a61.83,61.83,0,0,1-7-11.21,61.83,61.83,0,0,1-7,11.21"/></g></svg>