<svg viewBox="0 0 140 140"><title>Artboard 5</title><g id="_5_fill" data-name="5 fill"><path class="cls-1" d="M86.86,125.92c8-11.18,17-28.72,17-48.82,0-33.85-14.77-61.3-33-61.3s-33,27.44-33,61.3c0,19.92,9.12,37.55,17,48.75Z"/></g><g id="_5_stroke" data-name="5 stroke"><path class="cls-2" d="M86.86,125.92c8-11.18,17-28.72,17-48.82,0-33.85-14.77-61.3-33-61.3s-33,27.44-33,61.3c0,19.92,9.12,37.55,17,48.75Z"/><path class="cls-2" d="M86.86,125.92c3.29-7.85,7.27-18,7.27-29.34C94.13,72,82.55,52,70.86,52S47.6,72,47.6,96.58c0,11.2,4.08,21.44,7.32,29.27Z"/><path class="cls-2" d="M55.56,37c5.18-4,8.58,5.09,8.24,10.8C58.21,46.65,50.38,41,55.56,37Z"/><path class="cls-2" d="M48.54,60.74C44,58.6,49.68,51.48,54.07,49,54.93,53.94,53.12,62.89,48.54,60.74Z"/><circle class="cls-2" cx="45.84" cy="67.76" r="2.79"/><path class="cls-2" d="M70.86,46.51c7-13.8,3.78-20.94,0-20.94S63.85,32.72,70.86,46.51Z"/><path class="cls-2" d="M86.17,37c-5.18-4-8.58,5.09-8.24,10.8C83.52,46.65,91.35,41,86.17,37Z"/><path class="cls-2" d="M93.19,60.74c4.58-2.15-1.14-9.26-5.53-11.79C86.8,53.94,88.61,62.89,93.19,60.74Z"/><circle class="cls-2" cx="95.89" cy="67.76" r="2.79"/><path class="cls-2" d="M70.86,120.38C82,84,79.47,59.69,70.86,59.69s-11.11,24.26,0,60.69"/><path class="cls-2" d="M86.14,84.75s1.14,5.72-.79,9.19c-2.18,4.07-5.57,6.76-6.58,9.78s-.8,5.43-1.5,7.64c-.91,3.24-6.18,5.78-6.4,10.85-.23-5.07-5.49-7.61-6.4-10.85-.71-2.21-.53-4.46-1.5-7.64s-4.4-5.72-6.58-9.78c-1.93-3.47-.79-9.19-.79-9.19"/><path class="cls-2" d="M87.73,106.65s-3.53,1.1-5.64,6.48-5.55,4.67-6.35,4.58c-1.76-.35-4.88,1.24-4.88,8.07,0-6.83-3.12-8.42-4.88-8.07-.79.09-4.23.79-6.35-4.58S54,106.65,54,106.65"/></g></svg>