<svg viewBox="0 0 140 140"><title>Artboard 9</title><g id="_9_fill" data-name="9 fill"><path class="cls-1" d="M73.72,85.44,119.13,56.7a5.33,5.33,0,0,0,0-9L73.72,18.95a5.33,5.33,0,0,0-5.7,0L22.6,47.69a5.33,5.33,0,0,0,0,9L68,85.44A5.33,5.33,0,0,0,73.72,85.44Z"/><path class="cls-1" d="M70.86,123.61c13.12,0,17.7-7.59,17.7-7.59l33.76-52.33a1.59,1.59,0,0,0-2.19-2.21L70.86,92.66,21.6,61.48a1.59,1.59,0,0,0-2.19,2.21L53.16,116S57.75,123.61,70.86,123.61Z"/></g><g id="_9_stroke" data-name="9 stroke"><path class="cls-2" d="M73.72,85.44,119.13,56.7a5.33,5.33,0,0,0,0-9L73.72,18.95a5.33,5.33,0,0,0-5.7,0L22.6,47.69a5.33,5.33,0,0,0,0,9L68,85.44A5.33,5.33,0,0,0,73.72,85.44Z"/><path class="cls-2" d="M70.86,123.61c13.12,0,17.7-7.59,17.7-7.59l33.76-52.33a1.59,1.59,0,0,0-2.19-2.21L70.86,92.66,21.6,61.48a1.59,1.59,0,0,0-2.19,2.21L53.16,116S57.75,123.61,70.86,123.61Z"/><path class="cls-2" d="M73.65,75.64l30.09-19a5.21,5.21,0,0,0,0-8.81l-30.09-19a5.21,5.21,0,0,0-5.58,0L38,47.79a5.21,5.21,0,0,0,0,8.81l30.09,19A5.21,5.21,0,0,0,73.65,75.64Z"/><circle class="cls-2" cx="70.86" cy="108.69" r="10.22"/></g></svg>