<svg viewBox="0 0 147 147"><title>Artboard 40</title><g id="_40_fill" data-name="40 fill"><path class="cls-1" d="M70.86,117.24c8-26.9,23.87-46.38,44.77-61.12C97.76,31.49,70.86,24.49,70.86,24.49s-26.9,7-44.77,31.63C47,70.86,62.87,90.34,70.86,117.24Z"/></g><g id="_40_stroke" data-name="40 stroke"><circle class="cls-2" cx="50.43" cy="66.8" r="2.94"/><circle class="cls-2" cx="51.06" cy="52.73" r="3.31"/><circle class="cls-2" cx="62.55" cy="60.19" r="2.7"/><path class="cls-2" d="M70.86,117.24c8-26.9,23.87-46.38,44.77-61.12C97.76,31.49,70.86,24.49,70.86,24.49s-26.9,7-44.77,31.63C47,70.86,62.87,90.34,70.86,117.24Z"/><path class="cls-2" d="M108.53,61.48C100.12,50,88.86,40,70.86,33.49,52.87,40,41.61,50,33.2,61.48"/><circle class="cls-2" cx="91.3" cy="66.8" r="2.94"/><circle class="cls-2" cx="90.67" cy="52.73" r="3.31"/><circle class="cls-2" cx="79.18" cy="60.19" r="2.7"/><path class="cls-2" d="M89.7,69.26c-5.31,7.92-12.87,22.61-18.83,48-6-25.37-13.52-40.06-18.83-48"/><path class="cls-2" d="M89.7,55.9C81.88,67.61,74,95.55,70.86,117.24,67.72,95.55,59.85,67.61,52,55.9"/><path class="cls-2" d="M78.7,62.84c-2.41,6.52-6.12,33.21-7.83,54.4C69.15,96.05,65.44,69.36,63,62.84"/><circle class="cls-2" cx="70.87" cy="45.49" r="3.08"/><line class="cls-2" x1="70.87" y1="48.58" x2="70.86" y2="117.24"/></g></svg>