<svg viewBox="0 0 147 147"><title>Artboard 8</title><g id="_8_fill" data-name="8 fill"><path class="cls-1" d="M107,126.42c8-78.24-34.57-107-36.09-111.11-1.52,4.15-44,32.87-36.09,111.11Z"/></g><g id="_8_stroke" data-name="8 stroke"><path class="cls-2" d="M68.37,60.57V85.66L53.84,88.12s.18-17.9,4.33-27.54Z"/><path class="cls-2" d="M65,64V83.3l-6.93,1.36S58.21,71.25,60.45,64Z"/><path class="cls-2" d="M54.78,90.46l13.6-2.34V98.58S58.64,97.41,54.78,90.46Z"/><path class="cls-2" d="M60.1,92.2l5.78-.93v4.15S61.64,95,60.1,92.2Z"/><path class="cls-2" d="M54.43,123H68.37V110.57s-10.89.12-15.64-4.91C52.73,105.66,52.85,120.28,54.43,123Z"/><path class="cls-2" d="M57.57,119.62h6.78v-5.83s-5.44.08-7.59-1.76C56.76,112,56.76,118,57.57,119.62Z"/><path class="cls-2" d="M34.42,122.52s4,2.61,11.67,1.75"/><path class="cls-2" d="M34.1,116.93s3.48,2.78,11.17,1.93"/><path class="cls-2" d="M33.83,111.16s3.17,3.34,10.86,2.48"/><path class="cls-2" d="M33.9,105.23s2.67,3.39,10.39,2.86"/><path class="cls-2" d="M33.93,100.43s2.83,2.85,10.18,2.61"/><path class="cls-2" d="M34.32,94.9s2.84,2.85,9.82,2.4"/><path class="cls-2" d="M34.82,89.1s2.86,3.37,9.57,2.91"/><path class="cls-2" d="M35.6,83.44S38.15,85.86,45,85.5"/><path class="cls-2" d="M36.81,76.82s1.64,2.85,8.91,3.28"/><path class="cls-2" d="M38.09,71.27s1.84,3,8.57,3.49"/><path class="cls-2" d="M39.63,65.78a12.68,12.68,0,0,0,8.18,3.75"/><path class="cls-2" d="M41.69,59.6a11.12,11.12,0,0,0,7.78,3.62"/><path class="cls-2" d="M43.8,54.24a9.79,9.79,0,0,0,7.37,3.51"/><path class="cls-2" d="M46.35,48.63a10.08,10.08,0,0,0,6.84,3.46"/><path class="cls-2" d="M49,43.6a8.42,8.42,0,0,0,6.2,3.54"/><path class="cls-2" d="M51.29,39.64s1.18,2.41,5.83,3.1"/><path class="cls-2" d="M54.1,35.28a6,6,0,0,0,5.33,2.62"/><path class="cls-2" d="M56.77,31.54a5.17,5.17,0,0,0,4.62,2.58"/><path class="cls-2" d="M59.51,28a5.07,5.07,0,0,0,4,2.22"/><path class="cls-2" d="M62.2,24.84s.63,1.47,3.36,1.86"/><path class="cls-2" d="M65.27,21.46s.47,1.06,2.68,1.24"/><path class="cls-2" d="M107,126.42c8-78.24-34.57-107-36.09-111.11-1.52,4.15-44,32.87-36.09,111.11Z"/><path class="cls-2" d="M95.26,126.42C106,68.61,77.15,29.11,71.68,19.15a11.42,11.42,0,0,1-.82-3.79,11.41,11.41,0,0,1-.8,3.76C64.63,29,35.71,68.55,46.47,126.42"/><path class="cls-2" d="M70.86,101.15c16.5.07,20.46-11.61,20.46-11.61,0-36.72-20.46-64.17-20.46-64.17S50.41,52.81,50.41,89.54C50.41,89.54,54.36,101.23,70.86,101.15Z"/><path class="cls-2" d="M90.15,126.42c2.57-6.78,1.95-28.78,1.95-28.78S88.38,107,70.86,107s-21.23-9.32-21.23-9.32-.62,22,1.95,28.78"/><path class="cls-2" d="M82.63,57.8C79.68,48.19,76.19,40,70.86,32.31,65.54,40,62,48.19,59.1,57.8Z"/><path class="cls-2" d="M76.19,53.92a39.85,39.85,0,0,0-5.33-12.75,39.85,39.85,0,0,0-5.33,12.75Z"/><path class="cls-2" d="M73.36,60.57V85.66l14.53,2.46s-.18-17.9-4.33-27.54Z"/><path class="cls-2" d="M76.69,64V83.3l6.93,1.36S83.52,71.25,81.28,64Z"/><path class="cls-2" d="M87,90.46l-13.6-2.34V98.58S83.09,97.41,87,90.46Z"/><path class="cls-2" d="M81.63,92.2l-5.78-.93v4.15S80.09,95,81.63,92.2Z"/><path class="cls-2" d="M87.3,123H73.36V110.57s10.89.12,15.64-4.91C89,105.66,88.88,120.28,87.3,123Z"/><path class="cls-2" d="M84.16,119.62H77.38v-5.83s5.44.08,7.59-1.76C85,112,85,118,84.16,119.62Z"/><path class="cls-2" d="M107.31,122.52s-4,2.61-11.67,1.75"/><path class="cls-2" d="M107.63,116.93s-3.48,2.78-11.17,1.93"/><path class="cls-2" d="M107.9,111.16s-3.17,3.34-10.86,2.48"/><path class="cls-2" d="M107.83,105.23s-2.67,3.39-10.39,2.86"/><path class="cls-2" d="M107.8,100.43S105,103.28,97.62,103"/><path class="cls-2" d="M107.41,94.9s-2.84,2.85-9.82,2.4"/><path class="cls-2" d="M106.91,89.1S104,92.47,97.34,92"/><path class="cls-2" d="M106.13,83.44s-2.56,2.43-9.38,2.06"/><path class="cls-2" d="M104.92,76.82s-1.64,2.85-8.91,3.28"/><path class="cls-2" d="M103.64,71.27s-1.84,3-8.57,3.49"/><path class="cls-2" d="M102.1,65.78a12.68,12.68,0,0,1-8.18,3.75"/><path class="cls-2" d="M100,59.6a11.12,11.12,0,0,1-7.78,3.62"/><path class="cls-2" d="M97.93,54.24a9.79,9.79,0,0,1-7.37,3.51"/><path class="cls-2" d="M95.38,48.63a10.08,10.08,0,0,1-6.84,3.46"/><path class="cls-2" d="M92.75,43.6a8.42,8.42,0,0,1-6.2,3.54"/><path class="cls-2" d="M90.44,39.64s-1.18,2.41-5.83,3.1"/><path class="cls-2" d="M87.63,35.28a6,6,0,0,1-5.33,2.62"/><path class="cls-2" d="M85,31.54a5.17,5.17,0,0,1-4.62,2.58"/><path class="cls-2" d="M82.22,28a5.07,5.07,0,0,1-4,2.22"/><path class="cls-2" d="M79.53,24.84s-.63,1.47-3.36,1.86"/><path class="cls-2" d="M76.46,21.46S76,22.52,73.78,22.7"/></g></svg>