<svg viewBox="0 0 150 150">
        <path class="cls-1"
            d="M114.72,118.62c14.05-1.42,6.18-13,6.18-13,4.46-5.42-1.33-12-1.33-12,3.25-5-2.54-11.33-2.54-11.33,4-5.75-5.08-12.25-5.08-12.25,2-8.08-6.58-11.58-6.58-11.58,1.08-7.71-7.17-9.25-7.17-9.25,1-7.67-7.33-9.25-7.33-9.25C89.06,31.28,80,33.24,80,33.24c.35-5.29-8.69-7.5-9.13-10.13-.45,2.63-9.49,4.83-9.13,10.13,0,0-9.06-2-10.85,6.71,0,0-8.33,1.58-7.33,9.25,0,0-8.25,1.54-7.17,9.25,0,0-8.62,3.5-6.58,11.58,0,0-9.12,6.5-5.08,12.25,0,0-5.79,6.38-2.54,11.33,0,0-5.79,6.58-1.33,12,0,0-7.87,11.58,6.18,13Z" />

        <path d="M70.86,38.68C67,43.74,29.79,70,35.23,118.62" />
        <path 
            d="M27.67,111.79c0,3.17,5.58,3,5.73-.87,0,0,.08-4-5.73-4-5.42,0-5.25,5-5.25,6.31,0,.91.48,5.12,3.63,5.41" />
        <path 
            d="M29.32,98.57c-3.4,2.69,1.27,5.15,3.75,3.54,2.19-1.35,3-7-3-8.21-3.87-.79-6.44,2.92-6.69,4.5-.39,1.89-.54,6.49,2.81,8.64" />
        <path 
            d="M30.73,87.46C28.92,90.12,32,92,34.48,90.62c2.31-1.16,3.34-6.19-2.77-7.62A5.92,5.92,0,0,0,25,87.5c-.33,1.23-.48,3.77,2,6.72" />
        <path 
            d="M35.16,76.45c-2.93.06-2.12,4.66,1.13,4.63,4.7-.07,5.53-7-.65-9a6.15,6.15,0,0,0-6.93,3.33A8.13,8.13,0,0,0,29.79,83" />
        <path 
            d="M40,66.33c-2.58.19-1.85,5,1.4,5,4.5.08,5-7.25,0-9.36-3.52-1.39-6.76,1.28-7.8,3.33-.64,1.48-1.31,3.06-.1,6.67" />
        <path 
            d="M46.64,56.09c-2.58.19-1.85,4.89,1.4,4.86,4.5.08,4.76-7-.26-9.15C44.27,50.41,41.29,53,40.25,55c-.64,1.48-1,3.19-.14,6.53" />
        <path 
            d="M53.65,47.14c-2.58.19-2.06,4.53,1.19,4.5,4.5.08,5.31-6.47.29-8.58A6.37,6.37,0,0,0,47.34,46c-.64,1.48-1.13,2.31-.37,5.57" />
        <path 
            d="M61.92,39.78c-2.44.08-2.73,3.77.35,4.15,4.15.31,5.44-3.48,2-7-1.58-1.7-4.93-1.7-7-.35a7.37,7.37,0,0,0-3.6,6" />
        <path d="M54.09,118.62c5.08-23.69-5.17-40.37-5.17-40.37s-10,16-5.17,40.38" />
        <path d="M48.86,118.62c5.51-17.79.44-30.19,0-31.75C48.39,88.36,43.62,100.95,48.86,118.62Z" />
        <path d="M70.86,118.61c5.24-17.67,0-44.13,0-44.13S65.62,100.94,70.86,118.61Z" />
        <path 
            d="M114.72,118.62c14.05-1.42,6.18-13,6.18-13,4.46-5.42-1.33-12-1.33-12,3.25-5-2.54-11.33-2.54-11.33,4-5.75-5.08-12.25-5.08-12.25,2-8.08-6.58-11.58-6.58-11.58,1.08-7.71-7.17-9.25-7.17-9.25,1-7.67-7.33-9.25-7.33-9.25C89.06,31.28,80,33.24,80,33.24c.35-5.29-8.69-7.5-9.13-10.13-.45,2.63-9.49,4.83-9.13,10.13,0,0-9.06-2-10.85,6.71,0,0-8.33,1.58-7.33,9.25,0,0-8.25,1.54-7.17,9.25,0,0-8.62,3.5-6.58,11.58,0,0-9.12,6.5-5.08,12.25,0,0-5.79,6.38-2.54,11.33,0,0-5.79,6.58-1.33,12,0,0-7.87,11.58,6.18,13Z" />
        <path d="M70.86,38.68c3.82,5.06,41.07,31.35,35.63,79.94" />
        <path 
            d="M114.06,111.79c0,3.17-5.58,3-5.73-.87,0,0-.08-4,5.73-4,5.42,0,5.25,5,5.25,6.31,0,.91-.48,5.12-3.62,5.41" />
        <path 
            d="M112.41,98.57c3.4,2.69-1.27,5.15-3.75,3.54-2.19-1.35-3-7,3-8.21,3.88-.79,6.44,2.92,6.69,4.5.39,1.89.54,6.49-2.81,8.64" />
        <path 
            d="M111,87.46c1.82,2.66-1.25,4.53-3.75,3.16-2.31-1.16-3.34-6.19,2.77-7.62a5.92,5.92,0,0,1,6.69,4.5c.33,1.23.48,3.77-2,6.72" />
        <path 
            d="M106.57,76.45c2.93.06,2.12,4.66-1.13,4.63-4.7-.07-5.53-7,.65-9A6.15,6.15,0,0,1,113,75.41,8.13,8.13,0,0,1,111.94,83" />
        <path 
            d="M101.68,66.33c2.58.19,1.85,5-1.4,5-4.5.08-5-7.25,0-9.36,3.52-1.39,6.76,1.28,7.8,3.33.64,1.48,1.31,3.06.1,6.67" />
        <path 
            d="M95.09,56.09c2.58.19,1.85,4.89-1.4,4.86-4.5.08-4.76-7,.26-9.15,3.52-1.39,6.5,1.18,7.54,3.23.64,1.48,1,3.19.14,6.53" />
        <path 
            d="M88.08,47.14c2.58.19,2.06,4.53-1.19,4.5-4.5.08-5.31-6.47-.29-8.58A6.37,6.37,0,0,1,94.39,46c.64,1.48,1.13,2.31.37,5.57" />
        <path 
            d="M79.81,39.78c2.44.08,2.73,3.77-.35,4.15-4.15.31-5.44-3.48-2-7,1.58-1.7,4.93-1.7,7-.35a7.37,7.37,0,0,1,3.6,6" />
        <path d="M77.35,37.06c.81-4.17-4.67-6.5-6.49-9.42-1.82,2.92-7.29,5.25-6.49,9.42" />
        <path d="M87.64,118.62c-5.08-23.69,5.17-40.37,5.17-40.37s10,16,5.17,40.38" />
        <path d="M92.87,118.62c-5.51-17.79-.44-30.19,0-31.75C93.34,88.36,98.11,100.95,92.87,118.62Z" />
        <path d="M80.56,118.62c7.25-37.62-2.83-51.86-9.7-65.79C64,66.75,53.92,81,61.17,118.62" />
        <path d="M75.48,118.62c10.43-30.37-3.25-51.29-4.61-57.06-1.36,5.77-15,26.68-4.61,57.06" />

</svg>