<svg
   viewBox="0 0 150 150">
  <sodipodi:namedview
     id="namedview7"
     pagecolor="#ffffff"
     bordercolor="#000000"
     borderopacity="0.25"
     inkscape:showpageshadow="2"
     inkscape:pageopacity="0.0"
     inkscape:pagecheckerboard="false"
     inkscape:deskcolor="#d1d1d1"
     inkscape:document-units="mm"
     showgrid="true"
     inkscape:lockguides="false"
     showguides="true"
     inkscape:zoom="1.104894"
     inkscape:cx="194.13627"
     inkscape:cy="152.05078"
     inkscape:window-width="1920"
     inkscape:window-height="1057"
     inkscape:window-x="-8"
     inkscape:window-y="-8"
     inkscape:window-maximized="1"
     inkscape:current-layer="layer1">
    <sodipodi:guide
       position="0,150"
       orientation="0,566.92913"
       id="guide132"
       inkscape:locked="false" />
    <sodipodi:guide
       position="150,150"
       orientation="566.92913,0"
       id="guide134"
       inkscape:locked="false" />
    <sodipodi:guide
       position="150,0"
       orientation="0,-566.92913"
       id="guide136"
       inkscape:locked="false" />
    <sodipodi:guide
       position="0,0"
       orientation="-566.92913,0"
       id="guide138"
       inkscape:locked="false" />
    <inkscape:grid
       type="xygrid"
       id="grid140"
       dotted="false"
       empspacing="30"
       units="mm"
       spacingx="0.5"
       spacingy="0.5"
       originx="74.999999"
       originy="74.999999" />
    <sodipodi:guide
       position="74.999999,74.999999"
       orientation="-1,0"
       id="guide142"
       inkscape:locked="false"
       inkscape:label=""
       inkscape:color="rgb(0,134,229)" />
    <sodipodi:guide
       position="74.999999,74.999999"
       orientation="0,1"
       id="guide144"
       inkscape:locked="false"
       inkscape:label=""
       inkscape:color="rgb(0,134,229)" />
    <inkscape:grid
       type="xygrid"
       id="grid246"
       color="#23e500"
       opacity="0.14901961"
       empcolor="#e500b3"
       empopacity="0.30196078"
       empspacing="10"
       originx="74.999999"
       originy="74.999999"
       units="mm"
       spacingx="0.5"
       spacingy="0.5" />
  </sodipodi:namedview>
  <defs
     id="defs2" />
  <g
     inkscape:label="Warstwa 1"
     inkscape:groupmode="layer"
     id="layer1">
    <path
       class="cls-2"
       d="M 74.982582,35.924539 C 70.599357,41.631071 28.345535,71.246383 34.52293,126.0787"
       id="path204"
       style="fill:none;stroke:#000000;stroke-width:1.13165;stroke-opacity:1" />
    <path
       class="cls-2"
       d="m 27.811827,103.46685 c -3.860869,3.03371 1.442149,5.80803 4.258315,3.99232 2.486853,-1.5225 3.406651,-7.89441 -3.40665,-9.259016 -4.394582,-0.890941 -7.312945,3.293096 -7.596833,5.074976 -0.23274,1.12017 -0.566252,6.44005 2.448633,10.2211 2.721896,3.41361 8.704387,5.30659 10.509291,6.45703"
       id="path208"
       style="fill:none;stroke:#000000;stroke-width:1.13165;stroke-opacity:1"
       sodipodi:nodetypes="ccccsc" />
    <path
       class="cls-2"
       d="m 34.443441,78.52052 c -3.327161,0.06764 -2.407368,5.25542 1.283171,5.221584 5.337087,-0.07894 6.279593,-7.894408 -0.738107,-10.149955 -3.184837,-0.731595 -6.454529,0.828796 -7.869365,3.755486 -0.523152,1.424969 -1.139366,6.954605 0.889929,10.902806 2.068689,4.024845 6.797415,6.467279 7.717543,7.714513"
       id="path212"
       style="fill:none;stroke:#000000;stroke-width:1.13165;stroke-opacity:1"
       sodipodi:nodetypes="ccccsc" />
    <path
       class="cls-2"
       d="m 47.479559,55.559064 c -2.92972,0.214274 -2.100772,5.514807 1.589767,5.480976 5.109976,0.09024 5.40522,-7.894408 -0.295236,-10.319123 -3.985783,-1.567601 -7.369721,1.353327 -8.550695,3.608874 -0.380982,0.874987 -1.043392,5.617097 0,9.676516 0.946956,3.684226 3.567035,6.658356 4.031666,8.450483"
       id="path216"
       style="fill:none;stroke:#000000;stroke-width:1.13165;stroke-opacity:1"
       sodipodi:nodetypes="ccccsc" />
    <path
       class="cls-2"
       d="m 64.830764,37.165091 c -2.770745,0.09024 -3.100054,4.251702 0.397425,4.680257 4.712533,0.349606 6.177391,-3.924649 2.271101,-7.894412 -1.79417,-1.917211 -5.598263,-1.917211 -7.948854,-0.394703 -1.22006,0.719347 -4.480518,4.443662 -4.550856,8.873794 -0.06933,4.366597 3.043298,9.434772 2.979281,10.82225"
       id="path220"
       style="fill:none;stroke:#000000;stroke-width:1.13165;stroke-opacity:1"
       sodipodi:nodetypes="ccccsc" />
    <path
       class="cls-2"
       d="m 55.939404,126.0787 c 5.768598,-26.716939 -5.870791,-45.528189 -5.870791,-45.528189 0,0 -11.355505,18.044363 -5.870795,45.539459"
       id="path222"
       style="fill:none;stroke:#000000;stroke-width:1.13165;stroke-opacity:1" />
    <path
       class="cls-2"
       d="m 124.7597,126.06677 c 15.95252,-1.65651 7.01681,-15.16521 7.01681,-15.16521 5.06396,-6.32272 -1.51007,-13.998645 -1.51007,-13.998645 3.69006,-5.832767 -2.88394,-13.217057 -2.88394,-13.217057 4.54163,-6.707685 -5.7679,-14.290288 -5.7679,-14.290288 2.27083,-9.425755 -7.47096,-13.508696 -7.47096,-13.508696 1.22624,-8.99413 -8.14092,-10.790622 -8.14092,-10.790622 1.13543,-8.947469 -8.322542,-10.790626 -8.322542,-10.790626 -2.055092,-10.125688 -12.341905,-7.839243 -12.341905,-7.839243 0.397376,-6.171072 -9.86671,-8.749156 -10.366288,-11.817193 -0.510936,3.068037 -10.77504,5.634454 -10.366292,11.817193 0,0 -10.286813,-2.33311 -12.319196,7.827576 0,0 -9.457963,1.843158 -8.322554,10.790626 0,0 -9.367133,1.796493 -8.140891,10.790626 0,0 -9.787231,4.082937 -7.470995,13.508697 0,0 -10.354938,7.582599 -5.76788,14.290284 0,0 -6.574025,7.442617 -2.883943,13.217062 0,0 -6.574021,7.675916 -1.510096,13.998636 0,0 -8.9356758,13.5087 7.016833,15.16521 z"
       id="path228"
       style="fill:none;stroke:#000000;stroke-width:1.15087;stroke-opacity:1" />
    <path
       class="cls-2"
       d="m 74.982582,35.924539 c 4.337801,5.706532 46.637038,35.355679 40.459658,90.154161"
       id="path230"
       style="fill:none;stroke:#000000;stroke-width:1.13165;stroke-opacity:1" />
    <path
       class="cls-2"
       d="m 82.352304,34.097547 c 0.919793,-4.70281 -5.303023,-7.33052 -7.369722,-10.623619 -2.066702,3.293099 -8.278163,5.920809 -7.369721,10.623619"
       id="path248"
       style="fill:none;stroke:#000000;stroke-width:1.13165;stroke-opacity:1" />
    <path
       class="cls-2"
       d="m 94.037113,126.0787 c -5.768594,-26.716939 5.870795,-45.528189 5.870795,-45.528189 0,0 11.355492,18.044363 5.870772,45.539459"
       id="path250"
       style="fill:none;stroke:#000000;stroke-width:1.13165;stroke-opacity:1" />
    <path
       class="cls-2"
       d="M 85.997418,126.0787 C 94.230156,83.651885 82.78381,67.592399 74.982582,51.882524 67.192707,67.581121 55.746361,83.651885 63.979099,126.0787"
       id="path254"
       style="fill:none;stroke:#000000;stroke-width:1.13165;stroke-opacity:1" />
    <path
       class="cls-2"
       d="m 53.644315,125.92958 c 3.492355,-20.46145 -3.554224,-34.868275 -3.554224,-34.868275 0,0 -6.874713,13.819495 -3.554226,34.876905"
       id="path506"
       style="fill:none;stroke:#000000;stroke-width:0.770568;stroke-opacity:1" />
    <path
       class="cls-2"
       d="m 103.38603,125.92958 c 3.49237,-20.46145 -3.554237,-34.868275 -3.554237,-34.868275 0,0 -6.874717,13.819495 -3.55423,34.876905"
       id="path508"
       style="fill:none;stroke:#000000;stroke-width:0.770568;stroke-opacity:1" />
    <path
       class="cls-2"
       d="M 82.603231,126.25948 C 88.29779,94.353921 80.380389,82.276983 74.984305,70.462957 69.596074,82.268502 61.678673,94.353921 67.373232,126.25948"
       id="path510"
       style="fill:none;stroke:#000000;stroke-width:0.816174;stroke-opacity:1" />
    <path
       class="cls-2"
       d="m 122.12088,103.46685 c 3.86089,3.03371 -1.44216,5.80803 -4.25834,3.99232 -2.48687,-1.5225 -3.40667,-7.89441 3.40667,-9.259016 4.39461,-0.890941 7.31299,3.293096 7.59687,5.074976 0.23274,1.12017 0.56626,6.44005 -2.44864,10.2211 -2.72191,3.41361 -8.70444,5.30659 -10.50935,6.45703"
       id="path608"
       style="fill:none;stroke:#000000;stroke-width:1.13165;stroke-opacity:1"
       sodipodi:nodetypes="ccccsc" />
    <path
       class="cls-2"
       d="m 115.48923,78.52052 c 3.32718,0.06764 2.40738,5.25542 -1.28318,5.221584 -5.33712,-0.07894 -6.27963,-7.894408 0.73811,-10.149955 3.18486,-0.731595 6.45457,0.828796 7.86941,3.755486 0.52316,1.424969 1.13937,6.954605 -0.88993,10.902806 -2.06871,4.024845 -6.79746,6.467279 -7.71759,7.714513"
       id="path610"
       style="fill:none;stroke:#000000;stroke-width:1.13165;stroke-opacity:1"
       sodipodi:nodetypes="ccccsc" />
    <path
       class="cls-2"
       d="m 102.45303,55.559064 c 2.92974,0.214274 2.10079,5.514807 -1.58977,5.480976 -5.10998,0.09024 -5.405224,-7.894408 0.29524,-10.319123 3.9858,-1.567601 7.36976,1.353327 8.55074,3.608874 0.38099,0.874987 1.0434,5.617097 0,9.676516 -0.94696,3.684226 -3.56706,6.658356 -4.03169,8.450483"
       id="path612"
       style="fill:none;stroke:#000000;stroke-width:1.13165;stroke-opacity:1"
       sodipodi:nodetypes="ccccsc" />
    <path
       class="cls-2"
       d="m 85.101818,37.165091 c 2.770745,0.09024 3.100054,4.251702 -0.397425,4.680257 -4.712533,0.349606 -6.177391,-3.924649 -2.271101,-7.894412 1.79417,-1.917211 5.598263,-1.917211 7.948854,-0.394703 1.22006,0.719347 4.480518,4.443662 4.550856,8.873794 0.06933,4.366597 -3.043298,9.434772 -2.979281,10.82225"
       id="path614"
       style="fill:none;stroke:#000000;stroke-width:1.13165;stroke-opacity:1"
       sodipodi:nodetypes="ccccsc" />
  </g>
</svg>
