<svg  viewBox="0 0 140 140"><title>Artboard 13</title><g id="_13_fill" data-name="13 fill"><path class="cls-1" d="M70.86,123.48S93.58,89.75,93.58,70.86,70.86,18.25,70.86,18.25,48.15,52,48.15,70.86,70.86,123.48,70.86,123.48Z"/></g><g id="_13_stroke" data-name="13 stroke"><path class="cls-2" d="M70.86,123.48S93.58,89.75,93.58,70.86,70.86,18.25,70.86,18.25,48.15,52,48.15,70.86,70.86,123.48,70.86,123.48Z"/><path class="cls-2" d="M70.86,114.75s6-1.69,3.69-10.75c0,0,8.88-2.44,5.56-12.94,0,0,8.5-3,4.63-12.06,0,0,3.83-1.39,3.83-8.13s-3.83-8.13-3.83-8.13c3.88-9.06-4.62-12.06-4.62-12.06,3.31-10.5-5.56-12.94-5.56-12.94C76.86,28.67,70.86,27,70.86,27s-6,1.69-3.69,10.75c0,0-8.87,2.44-5.56,12.94,0,0-8.5,3-4.62,12.06,0,0-3.83,1.39-3.83,8.13S57,79,57,79c-3.87,9.06,4.63,12.06,4.63,12.06C58.3,101.56,67.18,104,67.18,104,64.86,113.06,70.86,114.75,70.86,114.75Z"/><path class="cls-2" d="M71.31,100.26a1.37,1.37,0,0,0-2.06-.19c-1.16,1,.09,4.22,3.72,2.56s2.28-6.16-3.41-8.44c-5.47-2.34-8.62-6.28-5.41-11.75A19.45,19.45,0,0,0,67,75.27,4.92,4.92,0,0,0,62.62,70c-3.68-.54-5.06,3.94-1.87,5.13,1.09.19,3.31-.37,1.69-2.56"/><path class="cls-2" d="M64.53,59c.75,2.13-2.92,3.58-3.58-.33-.5-2.67,2.62-5.33,5.71-1.42a6.36,6.36,0,0,1-.5,7.71c-3.21,4.08-.61,6.44-.61,6.44"/><path class="cls-2" d="M69.4,67.17c-1,.42-1.37,1.83.17,2.54s3.08-.92,3-2.33c.25-2-2.83-5.25-6.21-2.79"/><path class="cls-2" d="M66.18,85.55c-.78.78.22,2.09,1.94,1.38,1.39-.66,1.53-2.69.41-4a3,3,0,0,0-4.77.27"/><path class="cls-2" d="M75,58.64c.91.78,0,2.06-1,2a2.12,2.12,0,0,1-1.84-1c-.31-.42-1-3.36,3.06-3.73,4.28-.31,5.47,5.28,2.25,7.35a7.3,7.3,0,0,1-7,.78"/><path class="cls-2" d="M67.5,46.2c2,2.63-1.66,3.47-2.16.84a2.47,2.47,0,0,1,2.38-3.19c.78-.06,4.24,0,3.84,5.5-.44,4.31.21,5.72,2.94,6.68"/><path class="cls-2" d="M72.62,41.86c.12,1.78,1.72,1.78,2.22,1a2.05,2.05,0,0,0-1.38-3.22c-2.16-.5-3.91,1.93-3,5.18"/><path class="cls-2" d="M75.59,78.45c1.16,1.53.25,2.78-1.28,2.47s-2.34-2.78-.87-4.25S79,75.45,79.78,79.8a9.9,9.9,0,0,1-3.09,9.31c-1.94,1.69-5.4,4.06-4.06,6.83"/><path class="cls-2" d="M78.87,70.86A1.43,1.43,0,0,0,81.25,72a2.3,2.3,0,0,0,0-3.59c-1.29-1.28-5.71-1.31-5.66,2.91s1.66,4.84,1.66,4.84"/></g></svg>