<svg xmlns="http://www.w3.org/2000/svg" viewBox="0 0 141.73 141.73"><defs><style>.cls-1{fill:current;}.cls-2{fill:none;fill:current;stroke-linecap:round;stroke-linejoin:round;stroke-width:0.75px;}</style></defs><title>Artboard 6</title><g id="_6_fill" data-name="6 fill"><path class="cls-1" d="M116.55,47.7c-5.65-5.05-12.21-.4-17.46,4.83,5.25-5.9,8.52-15.52.78-20.86-9.22-5.12-16.65,3.47-19.77,11.21,2.33-7.29,2.63-22.57-9.23-22.57S59.31,35.59,61.64,42.88c-3.12-7.74-10.55-16.33-19.77-11.21-7.74,5.34-4.47,15,.78,20.86-5.26-5.23-11.81-9.88-17.46-4.83-5.17,5.61,1.68,16.46,9.4,20.41h0a39,39,0,1,0,72.54,0h0C114.87,64.16,121.72,53.31,116.55,47.7Z"/></g><g id="_6_stroke" data-name="6 stroke"><circle class="cls-2" cx="70.86" cy="82.43" r="39"/><circle class="cls-2" cx="70.86" cy="82.43" r="22.2"/><path class="cls-2" d="M107.15,68.11c7.72-3.95,14.57-14.8,9.4-20.41-6.19-5.54-13.48.58-18.94,6.35,6-5.62,10.71-16.55,2.26-22.37C90,26.21,82.24,36.33,79.53,44.4c2.78-6.39,4.09-24.09-8.67-24.09S59.42,38,62.2,44.4c-2.71-8.06-10.5-18.19-20.34-12.73C33.41,37.5,38.08,48.43,44.12,54c-5.46-5.76-12.75-11.88-18.94-6.35-5.17,5.61,1.68,16.46,9.4,20.41"/></g></svg>