<?xml version="1.0" encoding="UTF-8" standalone="no"?>
<!-- Created with Inkscape (http://www.inkscape.org/) -->

<svg
   width="150mm"
   height="150mm"
   viewBox="0 0 150 150"
   version="1.1"
   id="svg5"
   inkscape:version="1.2 (dc2aedaf03, 2022-05-15)"
   sodipodi:docname="84.svg"
   xmlns:inkscape="http://www.inkscape.org/namespaces/inkscape"
   xmlns:sodipodi="http://sodipodi.sourceforge.net/DTD/sodipodi-0.dtd"
   xmlns="http://www.w3.org/2000/svg"
   xmlns:svg="http://www.w3.org/2000/svg">
  <sodipodi:namedview
     id="namedview7"
     pagecolor="#ffffff"
     bordercolor="#000000"
     borderopacity="0.25"
     inkscape:showpageshadow="2"
     inkscape:pageopacity="0.0"
     inkscape:pagecheckerboard="false"
     inkscape:deskcolor="#d1d1d1"
     inkscape:document-units="mm"
     showgrid="true"
     inkscape:lockguides="false"
     showguides="true"
     inkscape:zoom="0.78127805"
     inkscape:cx="561.25985"
     inkscape:cy="211.19242"
     inkscape:window-width="1920"
     inkscape:window-height="1057"
     inkscape:window-x="-8"
     inkscape:window-y="-8"
     inkscape:window-maximized="1"
     inkscape:current-layer="layer1">
    <sodipodi:guide
       position="0,150"
       orientation="0,566.92913"
       id="guide132"
       inkscape:locked="false" />
    <sodipodi:guide
       position="150,150"
       orientation="566.92913,0"
       id="guide134"
       inkscape:locked="false" />
    <sodipodi:guide
       position="150,0"
       orientation="0,-566.92913"
       id="guide136"
       inkscape:locked="false" />
    <sodipodi:guide
       position="0,0"
       orientation="-566.92913,0"
       id="guide138"
       inkscape:locked="false" />
    <inkscape:grid
       type="xygrid"
       id="grid140"
       dotted="false"
       empspacing="30"
       units="mm"
       spacingx="0.5"
       spacingy="0.5"
       originx="74.999999"
       originy="74.999999" />
    <sodipodi:guide
       position="74.999999,90.73546"
       orientation="-1,0"
       id="guide142"
       inkscape:locked="false"
       inkscape:label=""
       inkscape:color="rgb(0,134,229)" />
    <sodipodi:guide
       position="66.376283,74.999999"
       orientation="0,1"
       id="guide144"
       inkscape:locked="false"
       inkscape:label=""
       inkscape:color="rgb(0,134,229)" />
    <inkscape:grid
       type="xygrid"
       id="grid246"
       color="#23e500"
       opacity="0.14901961"
       empcolor="#e500b3"
       empopacity="0.30196078"
       empspacing="10"
       originx="74.999999"
       originy="74.999999"
       units="mm"
       spacingx="0.5"
       spacingy="0.5" />
  </sodipodi:namedview>
  <defs
     id="defs2">







	















	








	


	

























	




	















	





	

	














	































































































	
	
	
	
	
		
		
	
	
	
		
		
	
	</defs>
  <g
     inkscape:label="Warstwa 1"
     inkscape:groupmode="layer"
     id="layer1">
    <path
       class="cls-1"
       d="m 120.14226,134.95765 a 9.6910656,10.165755 0 0 0 5.84423,-2.0435 C 150.78131,113.24225 117.09685,63.991366 75.003591,15.956236 32.947325,63.991366 -0.7618014,113.24225 24.033024,132.91415 a 9.6910656,10.165755 0 0 0 5.844231,2.0435 z"
       id="path4586"
       style="fill:none;stroke:#000000;stroke-width:1.2628;stroke-opacity:1" />
    <line
       class="cls-2"
       x1="35.93515"
       y1="104.14846"
       x2="48.644249"
       y2="115.47176"
       id="line4589"
       style="fill:none;stroke:#000000;stroke-width:1.07546;stroke-opacity:1" />
    <line
       class="cls-2"
       x1="48.803955"
       y1="84.632996"
       x2="59.197044"
       y2="106.12881"
       id="line4591"
       style="fill:none;stroke:#000000;stroke-width:1.17397;stroke-opacity:1" />
    <line
       class="cls-2"
       x1="34.719425"
       y1="126.0049"
       x2="42.379471"
       y2="128.40034"
       id="line4593"
       style="fill:none;stroke:#000000;stroke-width:0.820652;stroke-opacity:1" />
    <path
       class="cls-2"
       d="m 120.14226,134.95765 a 9.6910656,10.165755 0 0 0 5.84423,-2.0435 C 150.78131,113.24225 117.09685,63.991366 75.003591,15.956236 32.947325,63.991366 -0.7618014,113.24225 24.033024,132.91415 a 9.6910656,10.165755 0 0 0 5.844231,2.0435 z"
       id="path4595"
       style="fill:none;stroke:#000000;stroke-width:1.2628;stroke-opacity:1" />
    <path
       class="cls-2"
       d="m 108.65107,134.94471 a 33.721456,35.373205 0 0 0 -67.294958,0"
       id="path4597"
       style="fill:none;stroke:#000000;stroke-width:1.2628;stroke-opacity:1" />
    <path
       class="cls-2"
       d="m 98.183239,134.94471 a 23.290614,24.431438 0 0 0 -46.334637,0"
       id="path4599"
       style="fill:none;stroke:#000000;stroke-width:1.2628;stroke-opacity:1" />
    <path
       class="cls-2"
       d="m 108.65107,134.94471 c 8.31015,-0.54321 17.26144,-4.85007 15.60927,-11.64018 -1.84944,-7.00997 -10.88703,-6.03995 -19.30815,-2.21163 10.01163,-5.17341 22.27959,-15.79184 16.94087,-23.978764 -5.54832,-7.113441 -16.54632,3.556724 -25.522273,12.933534 C 105.34674,98.873096 115.92553,80.882556 106.67833,75.489274 96.210503,70.535732 89.20729,87.129451 83.942551,103.29636 c 6.510028,-23.784758 6.312755,-55.433106 -8.93896,-55.433106 -15.251716,0 -15.43666,31.648348 -8.93896,55.407246 -5.26474,-16.166916 -12.3296,-32.760635 -22.735783,-27.807093 -9.2472,5.393282 1.331597,23.383822 10.307546,34.558393 -8.975949,-9.33801 -19.973952,-20.008172 -25.522272,-12.933531 -5.338717,8.186921 6.929235,18.844151 16.94087,23.978761 -8.408787,-3.88006 -17.458713,-4.79834 -19.308153,2.21164 -1.639837,6.7901 7.299123,11.09697 15.609273,11.64017"
       id="path4601"
       style="fill:none;stroke:#000000;stroke-width:1.2628;stroke-opacity:1" />
    <line
       class="cls-2"
       x1="114.12522"
       y1="104.24802"
       x2="101.43826"
       y2="115.40215"
       id="line4603"
       style="fill:none;stroke:#000000;stroke-width:1.06647;stroke-opacity:1" />
    <line
       class="cls-2"
       x1="101.32339"
       y1="85.1278"
       x2="90.778885"
       y2="106.15176"
       id="line4605"
       style="fill:none;stroke:#000000;stroke-width:1.16944;stroke-opacity:1" />
    <line
       class="cls-2"
       x1="115.2661"
       y1="125.97654"
       x2="107.64005"
       y2="128.40034"
       id="line4607"
       style="fill:none;stroke:#000000;stroke-width:0.823662;stroke-opacity:1" />
    <line
       class="cls-2"
       x1="75.015923"
       y1="64.999977"
       x2="75.015923"
       y2="102.00301"
       id="line4609"
       style="fill:none;stroke:#000000;stroke-width:1.17315;stroke-opacity:1" />
    <circle
       style="fill:none;fill-opacity:0.207612;stroke:#000000;stroke-width:1.149;stroke-opacity:1"
       id="path6338"
       cx="75"
       cy="60"
       r="5" />
    <circle
       style="fill:none;fill-opacity:0.207612;stroke:#000000;stroke-width:1.149;stroke-opacity:1"
       id="path6340"
       cx="47.5"
       cy="82.499992"
       r="2.5" />
    <circle
       style="fill:none;fill-opacity:0.207612;stroke:#000000;stroke-width:1.149;stroke-opacity:1"
       id="path6342"
       cx="102.5"
       cy="82.499992"
       r="2.5" />
    <circle
       style="fill:none;fill-opacity:0.207612;stroke:#000000;stroke-width:1.149;stroke-opacity:1"
       id="path6344"
       cx="115.91251"
       cy="102.5"
       r="2.5" />
    <circle
       style="fill:none;fill-opacity:0.207612;stroke:#000000;stroke-width:1.149;stroke-opacity:1"
       id="path6346"
       cx="34.087502"
       cy="102.5"
       r="2.5" />
    <circle
       style="fill:none;fill-opacity:0.207612;stroke:#000000;stroke-width:1.149;stroke-opacity:1"
       id="path6348"
       cx="32.5"
       cy="124.85418"
       r="2.5" />
    <circle
       style="fill:none;fill-opacity:0.207612;stroke:#000000;stroke-width:1.149;stroke-opacity:1"
       id="path6350"
       cx="117.5"
       cy="124.85418"
       r="2.5" />
  </g>
</svg>
