<svg viewBox="0 0 140 140"><title>sine_art_3</title><g id="_3_fill" data-name="3 fill"><path class="cls-1" d="M107.47,116.87a7.86,7.86,0,0,0,4.74-1.58C132.32,100.08,105,62,70.86,24.86,36.75,62,9.41,100.08,29.52,115.29a7.86,7.86,0,0,0,4.74,1.58Z"/></g><g id="_3_stroke" data-name="3 stroke"><line class="cls-2" x1="37.42" y1="91.39" x2="49.43" y2="101.75"/><line class="cls-2" x1="48.67" y1="77.28" x2="58.04" y2="94.58"/><line class="cls-2" x1="34.84" y1="108.95" x2="44.4" y2="111.8"/><path class="cls-2" d="M107.47,116.87a7.86,7.86,0,0,0,4.74-1.58C132.32,100.08,105,62,70.86,24.86,36.75,62,9.41,100.08,29.52,115.29a7.86,7.86,0,0,0,4.74,1.58Z"/><path class="cls-2" d="M98.15,116.86a27.35,27.35,0,0,0-54.58,0"/><path class="cls-2" d="M89.66,116.86a18.89,18.89,0,0,0-37.58,0"/><path class="cls-2" d="M98.15,116.86c6.74-.42,14-3.75,12.66-9-1.5-5.42-8.83-4.67-15.66-1.71,8.12-4,18.07-12.21,13.74-18.54-4.5-5.5-13.42,2.75-20.7,10,7.28-8.64,15.86-22.55,8.36-26.72-8.49-3.83-14.17,9-18.44,21.5C83.39,74,83.23,49.53,70.86,49.53S58.34,74,63.61,92.37c-4.27-12.5-10-25.33-18.44-21.5-7.5,4.17,1.08,18.08,8.36,26.72-7.28-7.22-16.2-15.47-20.7-10-4.33,6.33,5.62,14.57,13.74,18.54-6.82-3-14.16-3.71-15.66,1.71-1.33,5.25,5.92,8.58,12.66,9"/><line class="cls-2" x1="104.31" y1="91.39" x2="92.3" y2="101.75"/><line class="cls-2" x1="93.06" y1="77.28" x2="83.69" y2="94.58"/><line class="cls-2" x1="106.89" y1="108.95" x2="97.33" y2="111.8"/><line class="cls-2" x1="70.87" y1="58.24" x2="70.87" y2="91.39"/></g></svg>