<svg  viewBox="0 0 140 140"><title>sine_art_4</title><g id="_4_fill" data-name="4 fill"><path class="cls-1" d="M32.18,123.95A41.86,41.86,0,0,1,52.45,70.51c-7.24-5-8.07-11.54-5.78-18.36C50.86,40,66.83,35.64,70.86,17.78c4,17.86,20,22.21,24.19,34.37,2.29,6.82,1.46,13.32-5.78,18.36a41.86,41.86,0,0,1,20.27,53.43Z"/></g><g id="_4_stroke" data-name="4 stroke"><circle class="cls-2" cx="86.4" cy="81.48" r="4.69"/><path class="cls-2" d="M77.62,99.9A8.45,8.45,0,1,1,89.46,111"/><path class="cls-2" d="M89.43,110.94a8.45,8.45,0,0,1,8.63,13"/><circle class="cls-2" cx="97.68" cy="91.17" r="2.43"/><circle class="cls-2" cx="102.91" cy="104.21" r="3.94"/><path class="cls-2" d="M32.18,123.95A41.86,41.86,0,0,1,52.45,70.51c-7.24-5-8.07-11.54-5.78-18.36C50.86,40,66.83,35.64,70.86,17.78c4,17.86,20,22.21,24.19,34.37,2.29,6.82,1.46,13.32-5.78,18.36a41.86,41.86,0,0,1,20.27,53.43Z"/><path class="cls-2" d="M70.86,67.86c-5.53,0-8.17-4.1-8.53-9.74-.45-8,5.94-13,8.53-23.93,2.58,10.89,9,15.92,8.53,23.93C79,63.76,76.4,67.86,70.86,67.86Z"/><path class="cls-2" d="M51.26,123.95a20.22,20.22,0,1,1,39.21,0"/><path class="cls-2" d="M61.26,123.95a10.81,10.81,0,1,1,19.2,0"/><circle class="cls-2" cx="55.33" cy="81.48" r="4.69"/><path class="cls-2" d="M64.23,99.86a8.45,8.45,0,1,1,13.27,0"/><path class="cls-2" d="M64.11,99.9A8.45,8.45,0,1,0,52.27,111"/><path class="cls-2" d="M52.3,110.94a8.45,8.45,0,0,0-8.63,13"/><circle class="cls-2" cx="44.05" cy="91.17" r="2.43"/><circle class="cls-2" cx="38.82" cy="104.21" r="3.94"/></g></svg>
<?xml version="1.0" encoding="UTF-8" standalone="no"?>
<!-- Created with Inkscape (http://www.inkscape.org/) -->

<svg
   width="150mm"
   height="150mm"
   viewBox="0 0 150 150"
   version="1.1"
   id="svg5"
   inkscape:version="1.2 (dc2aedaf03, 2022-05-15)"
   sodipodi:docname="85.svg"
   xmlns:inkscape="http://www.inkscape.org/namespaces/inkscape"
   xmlns:sodipodi="http://sodipodi.sourceforge.net/DTD/sodipodi-0.dtd"
   xmlns="http://www.w3.org/2000/svg"
   xmlns:svg="http://www.w3.org/2000/svg">
  <sodipodi:namedview
     id="namedview7"
     pagecolor="#ffffff"
     bordercolor="#000000"
     borderopacity="0.25"
     inkscape:showpageshadow="2"
     inkscape:pageopacity="0.0"
     inkscape:pagecheckerboard="false"
     inkscape:deskcolor="#d1d1d1"
     inkscape:document-units="mm"
     showgrid="true"
     inkscape:lockguides="false"
     showguides="true"
     inkscape:zoom="2.209788"
     inkscape:cx="460.90394"
     inkscape:cy="239.38948"
     inkscape:window-width="1920"
     inkscape:window-height="1057"
     inkscape:window-x="-8"
     inkscape:window-y="-8"
     inkscape:window-maximized="1"
     inkscape:current-layer="layer1">
    <sodipodi:guide
       position="0,150"
       orientation="0,566.92913"
       id="guide132"
       inkscape:locked="false" />
    <sodipodi:guide
       position="150,150"
       orientation="566.92913,0"
       id="guide134"
       inkscape:locked="false" />
    <sodipodi:guide
       position="150,0"
       orientation="0,-566.92913"
       id="guide136"
       inkscape:locked="false" />
    <sodipodi:guide
       position="0,0"
       orientation="-566.92913,0"
       id="guide138"
       inkscape:locked="false" />
    <inkscape:grid
       type="xygrid"
       id="grid140"
       dotted="false"
       empspacing="30"
       units="mm"
       spacingx="0.5"
       spacingy="0.5"
       originx="74.999999"
       originy="74.999999" />
    <sodipodi:guide
       position="74.999999,90.73546"
       orientation="-1,0"
       id="guide142"
       inkscape:locked="false"
       inkscape:label=""
       inkscape:color="rgb(0,134,229)" />
    <sodipodi:guide
       position="66.376283,74.999999"
       orientation="0,1"
       id="guide144"
       inkscape:locked="false"
       inkscape:label=""
       inkscape:color="rgb(0,134,229)" />
    <inkscape:grid
       type="xygrid"
       id="grid246"
       color="#23e500"
       opacity="0.14901961"
       empcolor="#e500b3"
       empopacity="0.30196078"
       empspacing="10"
       originx="74.999999"
       originy="74.999999"
       units="mm"
       spacingx="0.5"
       spacingy="0.5" />
  </sodipodi:namedview>
  <defs
     id="defs2">







	















	








	


	

























	




	















	





	

	














	































































































	
	
	
	
	
		
		
	
	
	
		
		
	
	</defs>
  <g
     inkscape:label="Warstwa 1"
     inkscape:groupmode="layer"
     id="layer1">
    <g
       id="_10_stroke"
       data-name="10 stroke"
       transform="matrix(0.26458333,0,0,0.26458333,75.258812,45.393749)"
       style="stroke:#000000;stroke-opacity:1;fill:none">
      <path
         class="cls-2"
         d="M 61,109.9 C 54.77,93.21 52.19,91.18 48.22,93 c -3.31,2 -2.9,5.55 2.28,11.54"
         id="path8537"
         style="stroke:#000000;stroke-opacity:1;fill:none" />
      <path
         class="cls-2"
         d="m 66.5,107.79 c 0.5,-15.71 -4,-20.74 -7.92,-19.62 -3.92,1.12 -4.85,7.87 3.83,21"
         id="path8539"
         style="stroke:#000000;stroke-opacity:1;fill:none" />
      <path
         class="cls-2"
         d="M 70.86,124.54 C 89,104.1 103.71,96.84 109.18,84 c 3.63,-8.56 3,-17.23 -3.77,-26.79 C 99,47.3 75.54,36.1 70.86,28.86 66.19,36.1 42.78,47.3 36.32,57.17 29.51,66.73 28.92,75.4 32.55,83.96 38,96.84 52.74,104.1 70.86,124.54 Z"
         id="path8541"
         style="stroke:#000000;stroke-opacity:1;fill:none" />
      <path
         class="cls-2"
         d="m 83.23,111.85 c -3.24,-3.24 -8.16,-4.52 -12.37,-4.52 -4.21,0 -9.13,1.28 -12.37,4.52"
         id="path8543"
         style="stroke:#000000;stroke-opacity:1;fill:none" />
      <path
         class="cls-2"
         d="M 73.28,107.47 C 78,92.49 75,86.69 70.86,86.69 c -4.14,0 -7.18,5.8 -2.42,20.78"
         id="path8545"
         style="stroke:#000000;stroke-opacity:1;fill:none" />
      <path
         class="cls-2"
         d="M 80.73,109.9 C 87,93.21 89.54,91.18 93.51,93 c 3.31,2 2.9,5.55 -2.28,11.54"
         id="path8547"
         style="stroke:#000000;stroke-opacity:1;fill:none" />
      <path
         class="cls-2"
         d="m 75.23,107.79 c -0.5,-15.71 4,-20.74 7.92,-19.62 3.92,1.12 4.85,7.87 -3.83,21"
         id="path8549"
         style="stroke:#000000;stroke-opacity:1;fill:none" />
      <path
         class="cls-2"
         d="m 92.23,92.58 c 9,-9.5 11.16,-18.52 8.19,-27.67 -3.83,-12 -29.2,-25 -29.56,-36 -0.36,11 -25.72,24.09 -29.56,36 -3,9.15 -0.77,18.18 8.19,27.67"
         id="path8551"
         style="stroke:#000000;stroke-opacity:1;fill:none" />
      <path
         class="cls-2"
         d="m 111.37,73.08 c 4.84,-0.39 11.4,-2.7 9.17,-9.94 -1.58,-4.47 -6.74,-5.68 -12.39,-1.55 4.72,-2.74 9.3,-6.92 4.64,-12.31 -3.85,-4.28 -8.06,-1.33 -11.79,2.92 3.17,-4.21 6.77,-8.7 1.45,-13.2 -4.24,-3.35 -8.51,-0.73 -12.63,4.64 3.56,-4.43 5.55,-10.23 0,-13.12 -4.43,-2.2 -8.82,0.85 -11.5,5.17 6.68,-10.28 -5.18,-12.45 -7.46,-18.5 -2.27,6 -14.17,8.22 -7.44,18.49 -2.68,-4.32 -7.07,-7.36 -11.5,-5.17 -5.55,2.89 -3.56,8.69 0,13.12 -4.12,-5.38 -8.4,-8 -12.63,-4.64 C 34,43.5 37.57,48 40.74,52.2 c -3.75,-4.25 -8,-7.18 -11.82,-2.92 -4.66,5.39 -0.08,9.57 4.64,12.31 -5.64,-4.13 -10.81,-2.92 -12.39,1.55 -2.23,7.24 4.33,9.55 9.17,9.94"
         id="path8553"
         style="stroke:#000000;stroke-opacity:1;fill:none" />
    </g>
  </g>
</svg>
