<svg viewBox="0 0 147 147"><title>sine_art_4</title><g id="_4_fill" data-name="4 fill"><path class="cls-1" d="M32.18,123.95A41.86,41.86,0,0,1,52.45,70.51c-7.24-5-8.07-11.54-5.78-18.36C50.86,40,66.83,35.64,70.86,17.78c4,17.86,20,22.21,24.19,34.37,2.29,6.82,1.46,13.32-5.78,18.36a41.86,41.86,0,0,1,20.27,53.43Z"/></g><g id="_4_stroke" data-name="4 stroke"><circle class="cls-2" cx="86.4" cy="81.48" r="4.69"/><path class="cls-2" d="M77.62,99.9A8.45,8.45,0,1,1,89.46,111"/><path class="cls-2" d="M89.43,110.94a8.45,8.45,0,0,1,8.63,13"/><circle class="cls-2" cx="97.68" cy="91.17" r="2.43"/><circle class="cls-2" cx="102.91" cy="104.21" r="3.94"/><path class="cls-2" d="M32.18,123.95A41.86,41.86,0,0,1,52.45,70.51c-7.24-5-8.07-11.54-5.78-18.36C50.86,40,66.83,35.64,70.86,17.78c4,17.86,20,22.21,24.19,34.37,2.29,6.82,1.46,13.32-5.78,18.36a41.86,41.86,0,0,1,20.27,53.43Z"/><path class="cls-2" d="M70.86,67.86c-5.53,0-8.17-4.1-8.53-9.74-.45-8,5.94-13,8.53-23.93,2.58,10.89,9,15.92,8.53,23.93C79,63.76,76.4,67.86,70.86,67.86Z"/><path class="cls-2" d="M51.26,123.95a20.22,20.22,0,1,1,39.21,0"/><path class="cls-2" d="M61.26,123.95a10.81,10.81,0,1,1,19.2,0"/><circle class="cls-2" cx="55.33" cy="81.48" r="4.69"/><path class="cls-2" d="M64.23,99.86a8.45,8.45,0,1,1,13.27,0"/><path class="cls-2" d="M64.11,99.9A8.45,8.45,0,1,0,52.27,111"/><path class="cls-2" d="M52.3,110.94a8.45,8.45,0,0,0-8.63,13"/><circle class="cls-2" cx="44.05" cy="91.17" r="2.43"/><circle class="cls-2" cx="38.82" cy="104.21" r="3.94"/></g></svg>