<svg  viewBox="0 0 140 140"><title>Artboard 10</title><g id="_10_fill" data-name="10 fill"><path class="cls-1" d="M120.55,63.14c-1.41-4-5.66-5.37-10.56-2.7,3.93-2.71,6.87-6.48,2.82-11.16C108.94,45,104.73,47.95,101,52.2c3.17-4.21,6.77-8.7,1.45-13.2-4.24-3.35-8.51-.73-12.63,4.64h0c3.56-4.43,5.55-10.23,0-13.12-4.43-2.19-8.82.85-11.5,5.16h0C85,25.41,73.14,23.24,70.86,17.19c-2.27,6-14.17,8.22-7.44,18.49h0c-2.68-4.32-7.07-7.36-11.5-5.16-5.55,2.89-3.56,8.69,0,13.12h0c-4.12-5.37-8.4-8-12.63-4.64C34,43.5,37.57,48,40.74,52.2c-3.75-4.25-8-7.18-11.82-2.92-4,4.69-1.12,8.45,2.82,11.16-4.9-2.66-9.15-1.27-10.56,2.7-2.23,7.24,4.33,9.55,9.17,9.94h0A25.67,25.67,0,0,0,32.55,84C38,96.84,52.74,104.1,70.86,124.54,89,104.1,103.71,96.84,109.18,84a25.67,25.67,0,0,0,2.18-10.87h0C116.21,72.69,122.78,70.38,120.55,63.14Z"/></g><g id="_10_stroke" data-name="10 stroke"><path class="cls-2" d="M61,109.9C54.77,93.21,52.19,91.18,48.22,93c-3.31,2-2.9,5.55,2.28,11.54"/><path class="cls-2" d="M66.5,107.79c.5-15.71-4-20.74-7.92-19.62s-4.85,7.87,3.83,21"/><path class="cls-2" d="M70.86,124.54C89,104.1,103.71,96.84,109.18,84c3.63-8.56,3-17.23-3.77-26.79C99,47.3,75.54,36.1,70.86,28.86,66.19,36.1,42.78,47.3,36.32,57.17c-6.81,9.56-7.4,18.23-3.77,26.79C38,96.84,52.74,104.1,70.86,124.54Z"/><path class="cls-2" d="M83.23,111.85c-3.24-3.24-8.16-4.52-12.37-4.52s-9.13,1.28-12.37,4.52"/><path class="cls-2" d="M73.28,107.47C78,92.49,75,86.69,70.86,86.69s-7.18,5.8-2.42,20.78"/><path class="cls-2" d="M80.73,109.9C87,93.21,89.54,91.18,93.51,93c3.31,2,2.9,5.55-2.28,11.54"/><path class="cls-2" d="M75.23,107.79c-.5-15.71,4-20.74,7.92-19.62s4.85,7.87-3.83,21"/><path class="cls-2" d="M92.23,92.58c9-9.5,11.16-18.52,8.19-27.67-3.83-12-29.2-25-29.56-36-.36,11-25.72,24.09-29.56,36-3,9.15-.77,18.18,8.19,27.67"/><path class="cls-2" d="M111.37,73.08c4.84-.39,11.4-2.7,9.17-9.94-1.58-4.47-6.74-5.68-12.39-1.55,4.72-2.74,9.3-6.92,4.64-12.31C108.94,45,104.73,47.95,101,52.2c3.17-4.21,6.77-8.7,1.45-13.2-4.24-3.35-8.51-.73-12.63,4.64,3.56-4.43,5.55-10.23,0-13.12-4.43-2.2-8.82.85-11.5,5.17C85,25.41,73.14,23.24,70.86,17.19c-2.27,6-14.17,8.22-7.44,18.49-2.68-4.32-7.07-7.36-11.5-5.17-5.55,2.89-3.56,8.69,0,13.12-4.12-5.38-8.4-8-12.63-4.64C34,43.5,37.57,48,40.74,52.2c-3.75-4.25-8-7.18-11.82-2.92-4.66,5.39-.08,9.57,4.64,12.31-5.64-4.13-10.81-2.92-12.39,1.55-2.23,7.24,4.33,9.55,9.17,9.94"/></g></svg>