<?xml version="1.0" encoding="UTF-8" standalone="no"?>
<!-- Created with Inkscape (http://www.inkscape.org/) -->

<svg
   width="150mm"
   height="150mm"
   viewBox="0 0 150 150"
   version="1.1"
   id="svg5"
   inkscape:version="1.2 (dc2aedaf03, 2022-05-15)"
   sodipodi:docname="87.svg"
   xmlns:inkscape="http://www.inkscape.org/namespaces/inkscape"
   xmlns:sodipodi="http://sodipodi.sourceforge.net/DTD/sodipodi-0.dtd"
   xmlns="http://www.w3.org/2000/svg"
   xmlns:svg="http://www.w3.org/2000/svg">
  <sodipodi:namedview
     id="namedview7"
     pagecolor="#ffffff"
     bordercolor="#000000"
     borderopacity="0.25"
     inkscape:showpageshadow="2"
     inkscape:pageopacity="0.0"
     inkscape:pagecheckerboard="0"
     inkscape:deskcolor="#d1d1d1"
     inkscape:document-units="mm"
     showgrid="true"
     inkscape:zoom="1.1250518"
     inkscape:cx="407.09238"
     inkscape:cy="315.09662"
     inkscape:window-width="1920"
     inkscape:window-height="1051"
     inkscape:window-x="-9"
     inkscape:window-y="1341"
     inkscape:window-maximized="1"
     inkscape:current-layer="layer1">
    <inkscape:grid
       type="xygrid"
       id="grid9"
       originx="74.999999"
       originy="74.999999"
       units="mm"
       spacingx="5"
       spacingy="5"
       empspacing="15" />
    <inkscape:grid
       type="xygrid"
       id="grid11"
       dotted="false"
       color="#db00e5"
       opacity="0.14901961"
       empcolor="#cb00e5"
       empopacity="0.30196078"
       spacingx="15"
       spacingy="15"
       empspacing="15"
       visible="true"
       units="mm" />
  </sodipodi:namedview>
  <defs
     id="defs2">











































	


	


	


	




















	

	




	




	

















































































	


	






























		
		
	
	
	
	
	
	
	
	
	
		
		
	</defs>
  <g
     inkscape:label="Warstwa 1"
     inkscape:groupmode="layer"
     id="layer1">
    <g
       id="_9_fill"
       data-name="9 fill"
       style="fill:none;stroke:#000000;stroke-opacity:1"
       transform="matrix(1.1057039,0,0,1.2171359,-3.3521201,-10.64364)">
      <path
         class="cls-1"
         d="m 70.86,83.71 c 9.6,45 46.71,42.81 53.11,17.73 7,-29.16 -41.18,-47.34 -53.11,-78.91 -11.93,31.56 -60.13,49.75 -53.1,78.91 6.4,25.09 43.5,27.31 53.1,-17.73 z"
         id="path57513"
         style="fill:none;stroke:#000000;stroke-opacity:1" />
    </g>
    <g
       id="_9_stroke"
       data-name="9 stroke"
       style="fill:none;stroke:#000000;stroke-opacity:1"
       transform="matrix(1.1057039,0,0,1.2171359,-3.3521201,-10.64364)">
      <path
         class="cls-2"
         d="m 66,63.24 c -1.27,-2.29 -4.3,-4.63 -6.87,-2.8 -6.58,5.26 12.06,24.87 -3,51.92"
         id="path57516"
         style="fill:none;stroke:#000000;stroke-opacity:1" />
      <path
         class="cls-2"
         d="M 59.65,73.38 C 58.38,71.09 55.38,68.88 52.8,70.71 46.23,76 63.39,93.55 43.35,118.83"
         id="path57518"
         style="fill:none;stroke:#000000;stroke-opacity:1" />
      <path
         class="cls-2"
         d="m 26.64,115 c 7,-1.09 12.78,-3.62 16.13,-6.06 A 9.28,9.28 0 0 0 44.59,95.37 7.91,7.91 0 0 0 33.49,94 a 6.33,6.33 0 0 0 -1.13,8.88 5.06,5.06 0 0 0 7.1,0.9 4.05,4.05 0 0 0 0.72,-5.68 3.24,3.24 0 0 0 -4.55,-0.58 2.59,2.59 0 0 0 -0.46,3.64 2.07,2.07 0 0 0 2.91,0.37"
         id="path57520"
         style="fill:none;stroke:#000000;stroke-opacity:1" />
      <path
         class="cls-2"
         d="m 70.86,83.71 c 9.6,45 46.71,42.81 53.11,17.73 7,-29.16 -41.18,-47.34 -53.11,-78.91 -11.93,31.56 -60.13,49.75 -53.1,78.91 6.4,25.09 43.5,27.31 53.1,-17.73 z"
         id="path57522"
         style="fill:none;stroke:#000000;stroke-opacity:1" />
      <path
         class="cls-2"
         d="m 70.86,83.71 c 4,-8.58 8.9,-35 0,-35 -8.9,0 -4.04,26.42 0,35 z"
         id="path57524"
         style="fill:none;stroke:#000000;stroke-opacity:1" />
      <path
         class="cls-2"
         d="M 75.7,63.24 C 77,61 80,58.61 82.57,60.44 c 6.58,5.26 -12.06,24.87 3,51.92"
         id="path57526"
         style="fill:none;stroke:#000000;stroke-opacity:1" />
      <path
         class="cls-2"
         d="m 82.08,73.38 c 1.27,-2.29 4.27,-4.5 6.85,-2.67 6.57,5.29 -10.59,22.84 9.45,48.12"
         id="path57528"
         style="fill:none;stroke:#000000;stroke-opacity:1" />
      <path
         class="cls-2"
         d="m 115.09,115 c -7,-1.09 -12.78,-3.62 -16.13,-6.06 a 9.28,9.28 0 0 1 -1.82,-13.57 7.91,7.91 0 0 1 11.1,-1.37 6.33,6.33 0 0 1 1.13,8.88 5.06,5.06 0 0 1 -7.1,0.9 4.05,4.05 0 0 1 -0.72,-5.68 3.24,3.24 0 0 1 4.55,-0.58 2.59,2.59 0 0 1 0.46,3.64 2.07,2.07 0 0 1 -2.91,0.37"
         id="path57530"
         style="fill:none;stroke:#000000;stroke-opacity:1" />
    </g>
  </g>
</svg>
