<?xml version="1.0" encoding="UTF-8" standalone="no"?>
<!-- Created with Inkscape (http://www.inkscape.org/) -->

<svg
   width="150mm"
   height="150mm"
   viewBox="0 0 150 150"
   version="1.1"
   id="svg5"
   inkscape:version="1.2 (dc2aedaf03, 2022-05-15)"
   sodipodi:docname="87.svg"
   xmlns:inkscape="http://www.inkscape.org/namespaces/inkscape"
   xmlns:sodipodi="http://sodipodi.sourceforge.net/DTD/sodipodi-0.dtd"
   xmlns="http://www.w3.org/2000/svg"
   xmlns:svg="http://www.w3.org/2000/svg">
  <sodipodi:namedview
     id="namedview7"
     pagecolor="#ffffff"
     bordercolor="#000000"
     borderopacity="0.25"
     inkscape:showpageshadow="2"
     inkscape:pageopacity="0.0"
     inkscape:pagecheckerboard="false"
     inkscape:deskcolor="#d1d1d1"
     inkscape:document-units="mm"
     showgrid="true"
     inkscape:lockguides="false"
     showguides="true"
     inkscape:zoom="1.5625561"
     inkscape:cx="285.10976"
     inkscape:cy="273.27019"
     inkscape:window-width="1920"
     inkscape:window-height="1057"
     inkscape:window-x="-8"
     inkscape:window-y="-8"
     inkscape:window-maximized="1"
     inkscape:current-layer="layer1">
    <sodipodi:guide
       position="0,150"
       orientation="0,566.92913"
       id="guide132"
       inkscape:locked="false" />
    <sodipodi:guide
       position="150,150"
       orientation="566.92913,0"
       id="guide134"
       inkscape:locked="false" />
    <sodipodi:guide
       position="150,0"
       orientation="0,-566.92913"
       id="guide136"
       inkscape:locked="false" />
    <sodipodi:guide
       position="0,0"
       orientation="-566.92913,0"
       id="guide138"
       inkscape:locked="false" />
    <inkscape:grid
       type="xygrid"
       id="grid140"
       dotted="false"
       empspacing="30"
       units="mm"
       spacingx="0.5"
       spacingy="0.5"
       originx="74.999999"
       originy="74.999999" />
    <sodipodi:guide
       position="74.999999,90.73546"
       orientation="-1,0"
       id="guide142"
       inkscape:locked="false"
       inkscape:label=""
       inkscape:color="rgb(0,134,229)" />
    <sodipodi:guide
       position="66.376283,74.999999"
       orientation="0,1"
       id="guide144"
       inkscape:locked="false"
       inkscape:label=""
       inkscape:color="rgb(0,134,229)" />
    <inkscape:grid
       type="xygrid"
       id="grid246"
       color="#23e500"
       opacity="0.14901961"
       empcolor="#e500b3"
       empopacity="0.30196078"
       empspacing="10"
       originx="74.999999"
       originy="74.999999"
       units="mm"
       spacingx="0.5"
       spacingy="0.5" />
  </sodipodi:namedview>
  <defs
     id="defs2">







	















	








	


	

























	




	















	





	

	














	































































































	
	
	
	
	
		
		
	
	
	
		
		
	
	</defs>
  <g
     inkscape:label="Warstwa 1"
     inkscape:groupmode="layer"
     id="layer1">
    <path
       id="path10989"
       style="fill:none;stroke:#000000;stroke-width:1.26142;stroke-opacity:1;fill-opacity:1"
       class="cls-1"
       d="M 75.000073 15.000118 C 53.925629 15.000118 36.11898 31.389295 33.309078 53.284603 C 29.394649 58.305857 28.81768 65.329633 31.85542 70.978613 L 74.975785 134.96127 L 118.09615 70.978613 C 121.15808 65.347825 120.6155 58.325205 116.72879 53.284603 C 113.91893 31.389295 96.074517 15.000118 75.000073 15.000118 z M 75.000073 21.662244 A 10 10 0 0 1 84.99998 31.662667 A 10 10 0 0 1 75.000073 41.662573 A 10 10 0 0 1 65.000167 31.662667 A 10 10 0 0 1 75.000073 21.662244 z M 54.999744 34.999931 A 5 5 0 0 1 59.999955 40.000142 A 5 5 0 0 1 54.999744 44.999837 A 5 5 0 0 1 50.000049 40.000142 A 5 5 0 0 1 54.999744 34.999931 z M 94.999886 34.999931 A 5 5 0 0 1 100.0001 40.000142 A 5 5 0 0 1 94.999886 44.999837 A 5 5 0 0 1 90.000191 40.000142 A 5 5 0 0 1 94.999886 34.999931 z M 44.999837 52.35391 A 10 10 0 0 1 54.999744 62.354333 A 10 10 0 0 1 44.999837 72.35424 A 10 10 0 0 1 34.999931 62.354333 A 10 10 0 0 1 44.999837 52.35391 z M 75.000073 52.35391 A 10 10 0 0 1 84.99998 62.354333 A 10 10 0 0 1 75.000073 72.35424 A 10 10 0 0 1 65.000167 62.354333 A 10 10 0 0 1 75.000073 52.35391 z M 104.99979 52.35391 A 10 10 0 0 1 115.00022 62.354333 A 10 10 0 0 1 104.99979 72.35424 A 10 10 0 0 1 94.999886 62.354333 A 10 10 0 0 1 104.99979 52.35391 z " />
    <path
       class="cls-2"
       d="M 75.025057,135 118.14561,71.017361 c 4.82984,-8.985388 0.25117,-20.331041 -9.26355,-22.954727 -9.514718,-2.623686 -18.869366,4.623648 -18.882061,14.937365 0,-8.716472 -6.697128,-15.514399 -15.011903,-15.514399 -8.314775,0 -14.988097,6.797927 -14.988097,15.514399 C 59.987305,52.686281 50.60885,45.438946 41.09413,48.062632 31.579409,50.686319 27.000737,62.031973 31.830583,71.017361 Z"
       id="path10996"
       style="fill:none;stroke:#000000;stroke-width:1.26142;stroke-opacity:1"
       sodipodi:nodetypes="ccscscscc" />
    <path
       class="cls-2"
       d="m 59.999999,62.999999 15,72.000001 15,-72.000001"
       id="path10998"
       style="fill:none;stroke:#000000;stroke-width:1.26142;stroke-opacity:1"
       sodipodi:nodetypes="ccc" />
  </g>
</svg>
