<svg xmlns="http://www.w3.org/2000/svg" viewBox="0 0 141.73 141.73"><defs><style>.cls-1{fill:current;}.cls-2{fill:none;fill:current;stroke-linecap:round;stroke-linejoin:round;stroke-width:0.75px;}</style></defs><title>Artboard 9</title><g id="_9_fill" data-name="9 fill"><path class="cls-1" d="M98.24,56.82l.05,0c4.43-2.51,9.48-6.49,6.59-9.9a4.53,4.53,0,0,0-3.8-1.39c2.54-4.1,3.8-8.22,1.53-10.66-1.79-1.6-5.24-.26-6.68,2.76h0c1.61-3.75,2-7.14-.36-8.79-3.33-2.1-6.74,1.31-8.34,5.14h0c1.45-4.71,1.57-8.81-1.88-10.19-4-1.33-7,1.27-8.09,8.46h0c.26-6.81-1-12.71-6.4-12.71s-6.65,5.91-6.4,12.71h0c-1.11-7.19-4.13-9.79-8.09-8.46-3.44,1.38-3.33,5.48-1.88,10.2h0c-1.6-3.83-5-7.24-8.34-5.14-2.4,1.65-2,5-.35,8.79h0c-1.44-3-4.89-4.36-6.68-2.76-2.27,2.44-1,6.55,1.53,10.66A4.53,4.53,0,0,0,36.85,47c-2.9,3.41,2.15,7.39,6.59,9.9l0,0a45.66,45.66,0,0,0-10.61,38s18.39,2.23,38,27.29c19.61-25.06,38-27.29,38-27.29A45.66,45.66,0,0,0,98.24,56.82Z"/></g><g id="_9_stroke" data-name="9 stroke"><line class="cls-2" x1="62.15" y1="45.7" x2="65.41" y2="61.13"/><line class="cls-2" x1="53.58" y1="48.89" x2="58.7" y2="62.81"/><line class="cls-2" x1="45.92" y1="54.34" x2="51.87" y2="66.12"/><line class="cls-2" x1="40.36" y1="60.73" x2="47.05" y2="69.66"/><line class="cls-2" x1="36.27" y1="67.93" x2="42.91" y2="73.71"/><line class="cls-2" x1="33.52" y1="75.92" x2="38.71" y2="79.2"/><line class="cls-2" x1="32.32" y1="83.14" x2="35.59" y2="84.84"/><path class="cls-2" d="M64.47,32.29c-1.11-7.19-4.13-9.79-8.09-8.46-6.43,2.58-.46,14.63,3.48,22.47"/><path class="cls-2" d="M52.92,49.25c-4.61-6.19-11.69-17-6.75-20.36,3.33-2.1,6.74,1.31,8.34,5.14"/><path class="cls-2" d="M47,53.41C41.47,47.87,35.31,39,39.13,34.91c1.79-1.6,5.24-.26,6.68,2.76"/><path class="cls-2" d="M40.65,45.56A4.53,4.53,0,0,0,36.85,47c-2.9,3.41,2.15,7.39,6.59,9.9"/><path class="cls-2" d="M70.86,122.14c19.61-25.06,38-27.29,38-27.29,4.2-22.31-10.23-50.12-38-50.12s-42.19,27.82-38,50.12C32.87,94.84,51.26,97.07,70.86,122.14Z"/><path class="cls-2" d="M90.88,102.91c6-5.31,10.63-21.32,0-27.09-9.45-4.73-16.93,2.49-20,9.32-3.09-6.82-10.57-14.05-20-9.32-10.63,5.77-6,21.78,0,27.09"/><path class="cls-2" d="M108.86,94.84c0-9.32-12.73-34.11-38-34.11s-38,24.8-38,34.11"/><line class="cls-2" x1="79.58" y1="45.7" x2="76.32" y2="61.13"/><line class="cls-2" x1="88.15" y1="48.89" x2="83.03" y2="62.81"/><line class="cls-2" x1="95.81" y1="54.34" x2="89.86" y2="66.12"/><line class="cls-2" x1="101.37" y1="60.73" x2="94.68" y2="69.66"/><line class="cls-2" x1="105.46" y1="67.93" x2="98.82" y2="73.71"/><line class="cls-2" x1="108.21" y1="75.92" x2="103.02" y2="79.2"/><line class="cls-2" x1="109.41" y1="83.14" x2="106.14" y2="84.84"/><path class="cls-2" d="M75.53,45c2-9.72,4.05-25.4-4.66-25.4S64.17,35.27,66.2,45"/><path class="cls-2" d="M77.26,32.29c1.11-7.19,4.13-9.79,8.09-8.46,6.43,2.58.46,14.63-3.48,22.47"/><path class="cls-2" d="M88.81,49.25c4.61-6.19,11.69-17,6.75-20.36-3.33-2.1-6.74,1.31-8.34,5.14"/><path class="cls-2" d="M94.77,53.41c5.49-5.54,11.65-14.41,7.83-18.51-1.79-1.6-5.24-.26-6.68,2.76"/><path class="cls-2" d="M101.08,45.56a4.53,4.53,0,0,1,3.8,1.39c2.9,3.41-2.15,7.39-6.59,9.9"/><line class="cls-2" x1="70.87" y1="60.73" x2="70.87" y2="44.72"/></g></svg>