<?xml version="1.0" encoding="UTF-8" standalone="no"?>
<!-- Created with Inkscape (http://www.inkscape.org/) -->

<svg
   width="150mm"
   height="150mm"
   viewBox="0 0 150 150"
   version="1.1"
   id="svg5"
   inkscape:version="1.2 (dc2aedaf03, 2022-05-15)"
   sodipodi:docname="88.svg"
   xmlns:inkscape="http://www.inkscape.org/namespaces/inkscape"
   xmlns:sodipodi="http://sodipodi.sourceforge.net/DTD/sodipodi-0.dtd"
   xmlns="http://www.w3.org/2000/svg"
   xmlns:svg="http://www.w3.org/2000/svg">
  <sodipodi:namedview
     id="namedview7"
     pagecolor="#ffffff"
     bordercolor="#000000"
     borderopacity="0.25"
     inkscape:showpageshadow="2"
     inkscape:pageopacity="0.0"
     inkscape:pagecheckerboard="false"
     inkscape:deskcolor="#d1d1d1"
     inkscape:document-units="mm"
     showgrid="true"
     inkscape:lockguides="false"
     showguides="true"
     inkscape:zoom="0.78127805"
     inkscape:cx="630.37737"
     inkscape:cy="363.50695"
     inkscape:window-width="1920"
     inkscape:window-height="1057"
     inkscape:window-x="-8"
     inkscape:window-y="-8"
     inkscape:window-maximized="1"
     inkscape:current-layer="layer1">
    <sodipodi:guide
       position="0,150"
       orientation="0,566.92913"
       id="guide132"
       inkscape:locked="false" />
    <sodipodi:guide
       position="150,150"
       orientation="566.92913,0"
       id="guide134"
       inkscape:locked="false" />
    <sodipodi:guide
       position="150,0"
       orientation="0,-566.92913"
       id="guide136"
       inkscape:locked="false" />
    <sodipodi:guide
       position="0,0"
       orientation="-566.92913,0"
       id="guide138"
       inkscape:locked="false" />
    <inkscape:grid
       type="xygrid"
       id="grid140"
       dotted="false"
       empspacing="30"
       units="mm"
       spacingx="0.5"
       spacingy="0.5"
       originx="74.999999"
       originy="74.999999" />
    <sodipodi:guide
       position="74.999999,90.73546"
       orientation="-1,0"
       id="guide142"
       inkscape:locked="false"
       inkscape:label=""
       inkscape:color="rgb(0,134,229)" />
    <sodipodi:guide
       position="66.376283,74.999999"
       orientation="0,1"
       id="guide144"
       inkscape:locked="false"
       inkscape:label=""
       inkscape:color="rgb(0,134,229)" />
    <inkscape:grid
       type="xygrid"
       id="grid246"
       color="#23e500"
       opacity="0.14901961"
       empcolor="#e500b3"
       empopacity="0.30196078"
       empspacing="10"
       originx="74.999999"
       originy="74.999999"
       units="mm"
       spacingx="0.5"
       spacingy="0.5" />
  </sodipodi:namedview>
  <defs
     id="defs2">







	















	








	


	

























	




	















	





	

	














	































































































	
	
	
	
	
		
		
	
	
	
		
		
	
	</defs>
  <g
     inkscape:label="Warstwa 1"
     inkscape:groupmode="layer"
     id="layer1">
    <path
       id="path13554"
       style="fill:none;fill-opacity:1;stroke:#000000;stroke-width:1.08572;stroke-opacity:1"
       class="cls-2"
       d="M 74.995939,15.000118 C 67.604284,43.326502 32.9045,60.193588 24.46569,85.293502 17.094566,107.20137 18.141498,126.81302 32.955611,134.506 c 0.628545,0.31864 1.311891,0.47933 2.001945,0.47077 l 40.048718,0.0119 h 5.174362 l -10.307382,-0.0119 C 58.292994,118.18996 39.382757,108.4534 40.019263,97.763542 40.115712,96.213279 41.086789,94.905196 42.431519,94.514128 53.3781,91.328845 65.438154,115.01668 72.499999,135 63.89176,105.48568 65.616344,57.667798 75.03728,57.667798 c 9.44474,0 11.657288,47.803532 2.962719,77.332202 7.105303,-20.07704 18.655003,-43.672651 29.642531,-40.485872 1.34493,0.390858 2.31625,1.69899 2.41277,3.249414 0.61597,10.678358 -18.30467,20.426808 -29.874664,37.225118 h 34.864024 c 0.69005,0.009 1.3734,-0.15214 2.00194,-0.47077 14.81413,-7.73894 15.86097,-27.30502 8.47959,-49.224388 C 117.06685,60.182109 82.408131,43.315023 74.995939,15.000118 Z m -24.53597,53.185384 c 1.859698,5.2e-5 3.367252,1.686218 3.367236,3.766179 1.6e-5,2.079961 -1.507538,3.766126 -3.367236,3.766178 -1.8599,2.67e-4 -3.367769,-1.685991 -3.367753,-3.766178 -1.6e-5,-2.080187 1.507853,-3.766446 3.367753,-3.766179 z m 49.102946,0 c 1.859905,-2.69e-4 3.367775,1.685991 3.367755,3.766179 2e-5,2.080187 -1.50785,3.766447 -3.367755,3.766178 -1.859698,-5.2e-5 -3.367252,-1.686217 -3.367236,-3.766178 -1.6e-5,-2.079961 1.507538,-3.766127 3.367236,-3.766179 z"
       sodipodi:nodetypes="ccccccccccscccccccccccccccccc" />
    <path
       class="cls-2"
       d="M 52.020232,75.292783 C 60.879979,93.756084 66.176005,111.39789 72.499999,134.5"
       id="path13550"
       style="fill:none;fill-opacity:1;stroke:#000000;stroke-width:1.08572;stroke-opacity:1"
       sodipodi:nodetypes="cc" />
    <path
       class="cls-2"
       d="M 98.002631,75.292783 C 89.153151,93.756084 84.293189,111.87494 77.999999,135"
       id="path13558"
       style="fill:none;fill-opacity:1;stroke:#000000;stroke-width:1.08572;stroke-opacity:1"
       sodipodi:nodetypes="cc" />
  </g>
</svg>
