<?xml version="1.0" encoding="utf-8"?>
<!-- Generator: Adobe Illustrator 21.0.0, SVG Export Plug-In . SVG Version: 6.00 Build 0)  -->
<svg version="1.1" id="Ebene_1" xmlns:xlink="http://www.w3.org/1999/xlink" x="0px" y="0px"
	 viewBox="0 0 17.6 17.6" style="enable-background:new 0 0 17.6 17.6;" xml:space="preserve">
<style type="text/css">
	.st0{fill:current;stroke-width:current;stroke:current}
</style>
<g id="Grau6">
</g>
<g id="Ebene_1_1_">
	<g id="Grau3">
		<path class="st0" d="M8.8,14.7c-3.3,0-5.9-2.6-5.9-5.9s2.6-5.9,5.9-5.9s5.9,2.6,5.9,5.9l0,0C14.7,12.1,12.1,14.7,8.8,14.7z
			 M8.8,4.4c-2.4,0-4.4,2-4.4,4.4s2,4.4,4.4,4.4s4.4-2,4.4-4.4S11.2,4.4,8.8,4.4L8.8,4.4z"/>
		<path class="st0" d="M8.8,9.5c0.4,0,0.7-0.3,0.7-0.8C9.5,8.3,9.2,8,8.7,8C8.3,8,8,8.3,8,8.8C8.1,9.2,8.4,9.6,8.8,9.5L8.8,9.5"/>
	</g>
</g>
</svg>
