<svg viewBox="0 0 140 140"><title>Artboard 6</title><g id="_6_fill" data-name="6 fill"><path class="cls-1" d="M70.86,124.54C82.8,111.92,93.49,98.29,117.17,95c-6.61-11.45-7-22.6,0-33.39-24.09-10.16-37.56-26-46.3-44.43-8.74,18.4-22.21,34.27-46.3,44.43,7,10.8,6.61,21.95,0,33.39C48.24,98.29,58.93,111.92,70.86,124.54Z"/></g><g id="_6_stroke" data-name="6 stroke"><path class="cls-2" d="M70.86,124.54C82.8,111.92,93.49,98.29,117.17,95c-6.61-11.45-7-22.6,0-33.39-24.09-10.16-37.56-26-46.3-44.43-8.74,18.4-22.21,34.27-46.3,44.43,7,10.8,6.61,21.95,0,33.39C48.24,98.29,58.93,111.92,70.86,124.54Z"/><path class="cls-2" d="M70.86,114c9.49-10,18-20.86,36.8-23.47-5.25-9.1-5.57-18,0-26.54C103,65.41,95.23,75.28,95,85.7c-3.79-13.26-1.56-21.89,2.83-29.12C87.36,63.42,81.44,72.59,80,84c-7.38-12-5.73-25.6,5.41-34.53A71.51,71.51,0,0,1,70.86,28.71,71.51,71.51,0,0,1,56.34,49.52C67.48,58.45,69.13,72,61.75,84c-1.46-11.45-7.38-20.62-17.87-27.46,4.39,7.23,6.62,15.85,2.83,29.12C46.5,75.28,38.7,65.41,34.06,64c5.57,8.58,5.25,17.44,0,26.54C52.89,93.17,61.38,104,70.86,114Z"/><path class="cls-2" d="M70.86,114c2.85-6,7-26.47,0-26.47S68,108,70.86,114Z"/></g></svg>