<svg xmlns="http://www.w3.org/2000/svg" viewBox="0 0 141.73 141.73"><defs><style>.cls-1{fill:current;}.cls-2{fill:none;fill:current;stroke-linecap:round;stroke-linejoin:round;stroke-width:0.75px;}</style></defs><title>lilz_art_8</title><g id="_8_fill" data-name="8 fill"><path class="cls-1" d="M70.86,123.12h39a4.6,4.6,0,0,0,1.95-.41c14.43-6.74,15.45-23.78,8.26-42.87-8.24-21.87-42-36.56-49.22-61.22-7.2,24.67-41,39.36-49.22,61.22C14.45,98.92,15.47,116,29.9,122.7a4.6,4.6,0,0,0,1.95.41Z"/></g><g id="_8_stroke" data-name="8 stroke"><path class="cls-2" d="M48.47,71.13C57.1,87.21,62,103,68.16,123.12"/><circle class="cls-2" cx="46.95" cy="68.22" r="3.28"/><path class="cls-2" d="M70.86,123.12h39a4.6,4.6,0,0,0,1.95-.41c14.43-6.74,15.45-23.78,8.26-42.87-8.24-21.87-42-36.56-49.22-61.22-7.2,24.67-41,39.36-49.22,61.22C14.45,98.92,15.47,116,29.9,122.7a4.6,4.6,0,0,0,1.95.41Z"/><path class="cls-2" d="M75.9,123.12C87.17,108.49,105.6,100,105,90.7a3.15,3.15,0,0,0-2.35-2.83c-11.8-3.06-22,15.6-29.06,35.24,11.08-25.69,7.17-67.33-2.7-67.33s-13.78,41.64-2.7,67.33c-7-19.64-17.26-38.31-29.06-35.24a3.15,3.15,0,0,0-2.35,2.83c-.62,9.31,17.8,17.79,29.08,32.41"/><path class="cls-2" d="M93.26,71.13c-8.62,16.08-13.56,31.86-19.69,52"/><circle class="cls-2" cx="94.78" cy="68.22" r="3.28"/></g></svg>