<svg viewBox="0 0 50 50">
    <path id="ellipse795"
        d="M 25 11 A 14 14 0 0 0 11 25 A 14 14 0 0 0 25 39 A 14 14 0 0 0 39 25 A 14 14 0 0 0 25 11 z M 25 12.5 A 12.5 12.5 0 0 1 37.5 25 A 12.5 12.5 0 0 1 25 37.5 A 12.5 12.5 0 0 1 12.5 25 A 12.5 12.5 0 0 1 25 12.5 z " />
    <path id="ellipse799"
        d="M 25 15.5 A 9.5 9.5 0 0 0 15.5 25 A 9.5 9.5 0 0 0 25 34.5 A 9.5 9.5 0 0 0 34.5 25 A 9.5 9.5 0 0 0 25 15.5 z M 25 18.5 A 6.5 6.5 0 0 1 31.5 25 A 6.5 6.5 0 0 1 25 31.5 A 6.5 6.5 0 0 1 18.5 25 A 6.5 6.5 0 0 1 25 18.5 z " />
    <ellipse cx="25" cy="25" rx="3" ry="3" id="ellipse805" />
</svg>