<svg viewBox="0 0 147 147"><title>Artboard 18</title><g id="_18_fill" data-name="18 fill"><path class="cls-1" d="M122.31,122.67C126.05,81.33,115,43,70.86,19.06,26.73,43,15.68,81.33,19.42,122.67Z"/></g><g id="_18_stroke" data-name="18 stroke"><path class="cls-2" d="M30.28,70.86c7-11.73,30.37,10.87,33.4,21.94C50.09,81.43,23.78,82.29,30.28,70.86Z"/><path class="cls-2" d="M46.08,51.41C56.54,47.6,60.25,63.25,59.89,78.28,55.27,67.87,33.74,56.49,46.08,51.41Z"/><path class="cls-2" d="M122.31,122.67C126.05,81.33,115,43,70.86,19.06,26.73,43,15.68,81.33,19.42,122.67Z"/><path class="cls-2" d="M70.86,98.9c4.42-7.52,13.66-65.52,0-69C57.2,33.38,66.45,91.38,70.86,98.9Z"/><path class="cls-2" d="M111.45,70.86c-7-11.73-30.37,10.87-33.4,21.94C91.64,81.43,117.95,82.29,111.45,70.86Z"/><path class="cls-2" d="M95.65,51.41C85.19,47.6,81.48,63.25,81.84,78.28,86.46,67.87,108,56.49,95.65,51.41Z"/><path class="cls-2" d="M75.74,122.67c0-27.15,22.17-31,25.52-30.83,2.36,0,10.13-.23,9.9,8.53-.23,6.17-4.27,10.44-9.6,10.44-6.31-.15-6.31-3.81-6.31-4.65s.07-5.79,4.17-5.41,3.29,4.65,3.29,4.65c4.34-6.63-1.37-8.15-2.59-8.15s-6.86-.15-7.69,8.46,9.52,8.31,9.52,8.31c3,.22,13.74-1.38,13.72-13.72,0-13.79-15.16-11.43-15.16-11.43-31.16,4.42-29.64,33.8-29.64,33.8s1.52-29.38-29.64-33.8c0,0-15.16-2.36-15.16,11.43,0,12.34,10.74,13.94,13.72,13.72,0,0,10.34.18,9.52-8.31s-6.48-8.46-7.69-8.46S34.68,98.77,39,105.4c0,0-.81-4.27,3.29-4.65s4.17,4.57,4.17,5.41,0,4.49-6.31,4.65c-5.33,0-9.37-4.27-9.6-10.44-.23-8.76,7.54-8.53,9.9-8.53C43.82,91.69,66,95.52,66,122.67"/></g></svg>