<svg  viewBox="0 0 140 140"><title>Artboard 2</title><g id="_2_fill" data-name="2 fill"><path class="cls-1" d="M107.31,128.28c40.83-70.17-28.83-58.8-36.45-114.83-7.61,56-77.28,44.67-36.45,114.83Z"/></g><g id="_2_stroke" data-name="2 stroke"><path class="cls-2" d="M56.08,107c-6.33-13.5-13.89-41.71-2-44.58,4.58-.67,7.25,1.92,8.3,6.53"/><path class="cls-2" d="M47,112C39.59,101.2,30.17,78.2,40.42,71.31c3.33-1.83,6.83,1.55,7.4,5.55"/><path class="cls-2" d="M39.81,119.2c-7.55-9.92-14.8-25.42-9-30.75,2.42-1.83,5.07-.08,6.5,2.68"/><path class="cls-2" d="M56.08,79a92.72,92.72,0,0,0,4,26.75"/><path class="cls-2" d="M42.84,86.86c.58,5.42,3.84,15.94,8.57,22.31"/><path class="cls-2" d="M34.42,99.36c1.32,4.35,4.94,11.87,9,15.75"/><circle class="cls-2" cx="55.46" cy="73.85" r="1.89"/><circle class="cls-2" cx="42.39" cy="82.79" r="1.28"/><circle class="cls-2" cx="33.62" cy="95.1" r="0.8"/><path class="cls-2" d="M107.31,128.28c40.83-70.17-28.83-58.8-36.45-114.83-7.61,56-77.28,44.67-36.45,114.83Z"/><path class="cls-2" d="M107.31,128.28c-2.25-5-11.25-23.79-36.45-23.79s-34.2,18.83-36.45,23.79"/><path class="cls-2" d="M100.44,128.28c-5.5-12.46-18.25-18.17-29.57-18.17S46.8,115.82,41.3,128.28"/><path class="cls-2" d="M77.64,105s7.17-57.61-6.77-57.61S64.09,105,64.09,105"/><path class="cls-2" d="M85.65,107c6.33-13.5,13.89-41.71,2-44.58-4.58-.67-7.25,1.92-8.3,6.53"/><path class="cls-2" d="M94.7,112c7.44-10.81,16.86-33.81,6.61-40.69-3.33-1.83-6.83,1.55-7.4,5.55"/><path class="cls-2" d="M101.92,119.2c7.55-9.92,14.8-25.42,9-30.75-2.42-1.83-5.07-.08-6.5,2.68"/><path class="cls-2" d="M85.65,79a92.72,92.72,0,0,1-4,26.75"/><path class="cls-2" d="M98.89,86.86c-.58,5.42-3.84,15.94-8.57,22.31"/><path class="cls-2" d="M107.31,99.36c-1.32,4.35-4.94,11.87-9,15.75"/><circle class="cls-2" cx="86.27" cy="73.85" r="1.89"/><circle class="cls-2" cx="70.87" cy="66.27" r="2.93"/><circle class="cls-2" cx="99.35" cy="82.79" r="1.28"/><circle class="cls-2" cx="108.11" cy="95.1" r="0.8"/><line class="cls-2" x1="70.87" y1="104.49" x2="70.87" y2="72.75"/></g></svg>