<svg viewBox="0 0 140 140"><title>Artboard 6</title><g id="_6_fill" data-name="6 fill"><path class="cls-1" d="M111.25,75.9c1.56-4.87,2.28-9.43,1.78-13-2.74-.78-8.18,0-10.9,1.32v.06c.56-5.54.12-10.62-1.53-14.47a19.59,19.59,0,0,0-9.38,3.35v0a47.41,47.41,0,0,0-4-13.75,16.8,16.8,0,0,0-8.92,3.22h0a63.59,63.59,0,0,0-7.4-12.18,63.59,63.59,0,0,0-7.4,12.18h0a16.8,16.8,0,0,0-8.92-3.22,47.41,47.41,0,0,0-4,13.75v0a19.59,19.59,0,0,0-9.38-3.35c-1.65,3.84-2.09,8.92-1.53,14.47V64.2c-2.72-1.32-8.16-2.09-10.9-1.32-.5,3.59.21,8.15,1.78,13-5.78-3.5-12.35-.63-12.35-.63,3.71,20.54,24.6,36,24.6,36,6.73-13.92,28.14-29.7,28.14-29.7S92.27,97.32,99,111.24c0,0,20.89-15.43,24.6-36C123.6,75.27,117,72.41,111.25,75.9Z"/></g><g id="_6_stroke" data-name="6 stroke"><path class="cls-2" d="M63.47,42.66a16.8,16.8,0,0,0-8.92-3.22c-9.06,19.55-2.7,39,5.23,51.32"/><path class="cls-2" d="M50.53,53.14a19.59,19.59,0,0,0-9.38-3.35c-5,11.53,1,34.16,12.28,47.13"/><path class="cls-2" d="M39.61,64.2c-2.72-1.32-8.16-2.09-10.9-1.32-1.52,10.84,8,30.42,18.56,41.18"/><path class="cls-2" d="M111.14,76c5.8-3.6,12.46-.69,12.46-.69-3.71,20.54-24.6,36-24.6,36-6.73-13.92-28.14-29.7-28.14-29.7s-21.41,15.78-28.14,29.7c0,0-20.89-15.43-24.6-36,0,0,6.66-2.91,12.46.69"/><path class="cls-2" d="M76,85.56c9.95-18.41,8.87-36.77-5.09-55.07-14,18.3-15,36.66-5.09,55.07"/><path class="cls-2" d="M70.86,44.22c6.14,7.44,8.18,24.19,0,37.32C62.68,68.41,64.73,51.66,70.86,44.22Z"/><path class="cls-2" d="M78.26,42.66a16.8,16.8,0,0,1,8.92-3.22c9.06,19.55,2.7,39-5.23,51.32"/><path class="cls-2" d="M91.2,53.14a19.59,19.59,0,0,1,9.38-3.35c5,11.53-1,34.16-12.28,47.13"/><path class="cls-2" d="M102.12,64.2c2.72-1.32,8.16-2.09,10.9-1.32,1.52,10.84-8,30.42-18.56,41.18"/></g></svg>