<?xml version="1.0" encoding="UTF-8" standalone="no"?>
<!-- Created with Inkscape (http://www.inkscape.org/) -->

<svg
   width="150mm"
   height="150mm"
   viewBox="0 0 150 150"
   version="1.1"
   id="svg5"
   inkscape:version="1.2 (dc2aedaf03, 2022-05-15)"
   sodipodi:docname="91.svg"
   xmlns:inkscape="http://www.inkscape.org/namespaces/inkscape"
   xmlns:sodipodi="http://sodipodi.sourceforge.net/DTD/sodipodi-0.dtd"
   xmlns="http://www.w3.org/2000/svg"
   xmlns:svg="http://www.w3.org/2000/svg">
  <sodipodi:namedview
     id="namedview7"
     pagecolor="#ffffff"
     bordercolor="#000000"
     borderopacity="0.25"
     inkscape:showpageshadow="2"
     inkscape:pageopacity="0.0"
     inkscape:pagecheckerboard="false"
     inkscape:deskcolor="#d1d1d1"
     inkscape:document-units="mm"
     showgrid="true"
     inkscape:lockguides="false"
     showguides="true"
     inkscape:zoom="1.104894"
     inkscape:cx="485.56694"
     inkscape:cy="200.01918"
     inkscape:window-width="1920"
     inkscape:window-height="1057"
     inkscape:window-x="-8"
     inkscape:window-y="-8"
     inkscape:window-maximized="1"
     inkscape:current-layer="layer1">
    <sodipodi:guide
       position="0,150"
       orientation="0,566.92913"
       id="guide132"
       inkscape:locked="false" />
    <sodipodi:guide
       position="150,150"
       orientation="566.92913,0"
       id="guide134"
       inkscape:locked="false" />
    <sodipodi:guide
       position="150,0"
       orientation="0,-566.92913"
       id="guide136"
       inkscape:locked="false" />
    <sodipodi:guide
       position="0,0"
       orientation="-566.92913,0"
       id="guide138"
       inkscape:locked="false" />
    <inkscape:grid
       type="xygrid"
       id="grid140"
       dotted="false"
       empspacing="30"
       units="mm"
       spacingx="0.5"
       spacingy="0.5"
       originx="74.999999"
       originy="74.999999" />
    <sodipodi:guide
       position="76.959236,74.310717"
       orientation="-1,0"
       id="guide142"
       inkscape:locked="false"
       inkscape:label=""
       inkscape:color="rgb(0,134,229)" />
    <sodipodi:guide
       position="76.070268,75.030358"
       orientation="0,1"
       id="guide144"
       inkscape:locked="false"
       inkscape:label=""
       inkscape:color="rgb(0,134,229)" />
    <inkscape:grid
       type="xygrid"
       id="grid246"
       color="#23e500"
       opacity="0.14901961"
       empcolor="#e500b3"
       empopacity="0.30196078"
       empspacing="10"
       originx="74.999999"
       originy="74.999999"
       units="mm"
       spacingx="0.5"
       spacingy="0.5" />
  </sodipodi:namedview>
  <defs
     id="defs2" />
  <g
     inkscape:label="Warstwa 1"
     inkscape:groupmode="layer"
     id="layer1">
    <path
       class="cls-2"
       d="M 66.863132,46.27837 C 63.998379,44.19398 58.866984,39.908156 57.043918,42.760099 44.255349,62.766103 54.071734,85.372703 62.801149,98.83391"
       id="path1424"
       style="fill:none;stroke:#000000;stroke-width:1.09671;stroke-opacity:1"
       sodipodi:nodetypes="csc" />
    <path
       class="cls-2"
       d="m 51.493384,56.980089 c -3.066667,-2.082714 -7.066259,-5.758146 -9.200303,-2.911261 -8.353215,11.143468 1.100809,37.32427 13.517931,51.495692"
       id="path1426"
       style="fill:none;stroke:#000000;stroke-width:1.09671;stroke-opacity:1"
       sodipodi:nodetypes="csc" />
    <path
       class="cls-2"
       d="M 39.325151,69.216412 C 36.330951,67.77414 29.62748,65.589272 28.59902,68.371366 24.424961,79.662634 37.405489,101.6092 49.03003,113.3659"
       id="path1428"
       style="fill:none;stroke:#000000;stroke-width:1.09671;stroke-opacity:1"
       sodipodi:nodetypes="csc" />
    <path
       class="cls-2"
       d="m 120.65414,82.115454 c 6.38468,-3.933472 10.39556,-3.543719 12.40062,-0.162686 8.0873,13.637243 -27.07989,39.334712 -27.07989,39.334712 -7.408442,-15.20942 -30.976761,-32.451137 -30.976761,-32.451137 0,0 -23.568315,17.241717 -30.976759,32.451137 0,0 -35.2636681,-25.747908 -27.079894,-39.334712 2.039402,-3.385842 6.076271,-3.615414 12.460961,0.318057"
       id="path1430"
       style="fill:none;stroke:#000000;stroke-width:1.09671;stroke-opacity:1"
       sodipodi:nodetypes="cacccac" />
    <path
       class="cls-2"
       d="M 80.656266,93.152234 C 91.609313,73.0369 90.42044,52.976197 75.05315,32.981053 59.641826,52.976197 58.541019,73.0369 69.450032,93.152234"
       id="path1432"
       style="fill:none;stroke:#000000;stroke-width:1.09671;stroke-opacity:1" />
    <path
       class="cls-2"
       d="m 74.998649,54.968845 c 6.537451,0 5.346358,21.980677 0,33.911485 -5.346361,-11.930808 -6.533444,-33.911485 0,-33.911485 z"
       id="path1434"
       style="fill:none;stroke:#000000;stroke-width:0.770646;stroke-opacity:1"
       sodipodi:nodetypes="scs" />
    <path
       class="cls-2"
       d="m 83.144094,46.27837 c 2.864752,-2.08439 7.996148,-6.370214 9.819213,-3.518271 12.788573,20.006004 2.972184,42.612604 -5.757229,56.073811"
       id="path1436"
       style="fill:none;stroke:#000000;stroke-width:1.09671;stroke-opacity:1"
       sodipodi:nodetypes="csc" />
    <path
       class="cls-2"
       d="m 98.511659,56.967488 c 3.066661,-2.082715 7.068441,-5.745545 9.202491,-2.89866 8.35321,11.143468 -1.10082,37.32427 -13.517937,51.495692"
       id="path1438"
       style="fill:none;stroke:#000000;stroke-width:1.09671;stroke-opacity:1"
       sodipodi:nodetypes="csc" />
    <path
       class="cls-2"
       d="m 110.67876,69.248595 c 2.9942,-1.442273 9.70098,-3.659323 10.72944,-0.877229 4.17407,11.291268 -8.80646,33.237834 -20.43101,44.994534"
       id="path1440"
       style="fill:none;stroke:#000000;stroke-width:1.09671;stroke-opacity:1"
       sodipodi:nodetypes="csc" />
  </g>
</svg>
