<svg viewBox="0 0 147 147"><title>Artboard 42</title><g id="Ebene_77" data-name="Ebene 77"><path class="cls-1" d="M70.86,105.12l53.89,5.6C121,79.13,101.75,53,70.86,31,40,53,20.69,79.13,17,110.71Z"/></g><g id="_42_stroke" data-name="42 stroke"><circle class="cls-2" cx="35.04" cy="101.13" r="3.61"/><circle class="cls-2" cx="48.92" cy="72.42" r="3.61"/><path class="cls-2" d="M70.86,105.12l53.89,5.6C121,79.13,101.75,53,70.86,31,40,53,20.69,79.13,17,110.71Z"/><path class="cls-2" d="M116.66,109.87q-8-43.12-45.79-69.79-37.8,26.66-45.79,69.79"/><path class="cls-2" d="M81.79,106.34c-1.31-7.55-4.42-12.83-10.93-17.09-6.51,4.26-9.62,9.54-10.93,17.09"/><path class="cls-2" d="M76.73,105.73c-.77-3.38-2.44-7.23-5.86-9.2-3.42,2-5.1,5.82-5.86,9.2"/><circle class="cls-2" cx="106.69" cy="101.13" r="3.61"/><circle class="cls-2" cx="92.81" cy="72.42" r="3.61"/><circle class="cls-2" cx="70.87" cy="49.21" r="4.4"/><path class="cls-2" d="M70.86,82.15C80,88.37,85.71,96.47,87.33,106.83c3.07-.7,4.73-3.17,3.76-6.55a5,5,0,0,0-6.73-3.09,4.54,4.54,0,0,0,2.09-7c-1.86-2.39-4.21-2.33-7.19-.67,2.7-1.58,4.32-4.37,1.52-7.31-2.57-2.27-5.43-.78-7.19,2,3.14-4.58.75-9.17-2.73-9.17S65,79.56,68.14,84.15c-1.76-2.75-4.62-4.24-7.19-2-2.8,2.94-1.17,5.73,1.52,7.31-3-1.66-5.33-1.72-7.19.67a4.54,4.54,0,0,0,2.09,7,5,5,0,0,0-6.73,3.09c-1,3.38.69,5.85,3.76,6.55C56,96.47,61.73,88.37,70.86,82.15Z"/></g></svg>