<?xml version="1.0" encoding="UTF-8" standalone="no"?>
<!-- Created with Inkscape (http://www.inkscape.org/) -->

<svg
   width="150mm"
   height="150mm"
   viewBox="0 0 150 150"
   version="1.1"
   id="svg5"
   inkscape:version="1.2 (dc2aedaf03, 2022-05-15)"
   sodipodi:docname="96.svg"
   xmlns:inkscape="http://www.inkscape.org/namespaces/inkscape"
   xmlns:sodipodi="http://sodipodi.sourceforge.net/DTD/sodipodi-0.dtd"
   xmlns="http://www.w3.org/2000/svg"
   xmlns:svg="http://www.w3.org/2000/svg">
  <sodipodi:namedview
     id="namedview7"
     pagecolor="#ffffff"
     bordercolor="#000000"
     borderopacity="0.25"
     inkscape:showpageshadow="2"
     inkscape:pageopacity="0.0"
     inkscape:pagecheckerboard="0"
     inkscape:deskcolor="#d1d1d1"
     inkscape:document-units="mm"
     showgrid="true"
     inkscape:zoom="1.5910634"
     inkscape:cx="334.99607"
     inkscape:cy="787.20934"
     inkscape:window-width="1920"
     inkscape:window-height="1051"
     inkscape:window-x="-9"
     inkscape:window-y="1341"
     inkscape:window-maximized="1"
     inkscape:current-layer="layer1">
    <inkscape:grid
       type="xygrid"
       id="grid9"
       originx="74.999999"
       originy="74.999999"
       units="mm"
       spacingx="5"
       spacingy="5"
       empspacing="15" />
    <inkscape:grid
       type="xygrid"
       id="grid11"
       dotted="false"
       color="#db00e5"
       opacity="0.14901961"
       empcolor="#cb00e5"
       empopacity="0.30196078"
       spacingx="15"
       spacingy="15"
       empspacing="15"
       visible="true"
       units="mm" />
  </sodipodi:namedview>
  <defs
     id="defs2">











































	


	


	


	




















	

	




	




	

















































































	


	






























		
		
	
	
	
	
	
	
	
	
	
		
		
	</defs>
  <g
     inkscape:label="Warstwa 1"
     inkscape:groupmode="layer"
     id="layer1">
    <path
       class="cls-1"
       d="M 74.625655,15.773989 C 52.27338,35.070764 42.074424,37.402233 37.699336,59.017574 34.596849,76.821843 45.246853,98.974502 75.338898,134.0986 105.00539,98.626361 115.38749,76.334849 112.0706,58.569275 107.43524,37.008247 97.197265,34.799969 74.625655,15.773989 Z"
       id="path60620"
       style="fill:none;stroke:#000000;stroke-width:1.18713;stroke-opacity:1" />
    <path
       class="cls-2"
       d="m 81.409082,101.30422 c -0.872349,-7.239373 -1.236519,-11.499432 1.949824,-11.518639 0.420175,-0.0025 3.086389,0.8266 0.996466,4.594328 -3.106681,5.488422 -2.732707,7.502591 -2.732707,7.502591 0.288506,-4.420965 5.58586,-4.70646 9.512363,-7.797015 0.665256,1.927888 4.609392,5.635098 3.133451,10.570335 1.153332,-2.30108 0.203754,-6.859473 1.662231,-8.884684 0.600805,-1.01787 3.081103,-1.986697 3.201647,0.584421"
       id="path60623"
       style="fill:none;stroke:#000000;stroke-width:1.18713;stroke-opacity:1" />
    <path
       class="cls-2"
       d="m 83.1302,111.871 c -0.594542,-3.75155 3.705354,-4.92454 5.460728,-8.03823 0,0 0.222754,5.97547 -2.885561,9.25429"
       id="path60625"
       style="fill:none;stroke:#000000;stroke-width:1.18713;stroke-opacity:1" />
    <path
       class="cls-2"
       d="m 94.703269,81.905075 c 0,0 -3.459987,6.903253 -3.60318,12.192694"
       id="path60627"
       style="fill:none;stroke:#000000;stroke-width:1.18713;stroke-opacity:1" />
    <path
       class="cls-2"
       d="M 94.653124,73.586127 C 90.929857,65.85682 84.499986,66.08877 79.469965,71.999314"
       id="path60629"
       style="fill:none;stroke:#000000;stroke-width:1.18713;stroke-opacity:1" />
    <path
       class="cls-2"
       d="m 101.05785,76.928349 c 0,0 3.12408,-2.60275 6.13925,-0.03701"
       id="path60631"
       style="fill:none;stroke:#000000;stroke-width:1.18713;stroke-opacity:1" />
    <path
       class="cls-2"
       d="m 93.787962,63.666202 c 0,0 4.503984,-15.723823 12.691888,-10.883067"
       id="path60633"
       style="fill:none;stroke:#000000;stroke-width:1.18713;stroke-opacity:1" />
    <path
       class="cls-2"
       d="m 81.899058,54.790746 c 1.922424,-8.318759 15.397076,-11.334066 15.05572,1.744571"
       id="path60635"
       style="fill:none;stroke:#000000;stroke-width:1.18713;stroke-opacity:1" />
    <path
       class="cls-2"
       d="m 102.78771,67.644799 c 0,0 3.51274,-7.8333 0.91576,-8.795666 -2.95961,-1.093005 -4.523049,6.752689 -4.523049,6.752689"
       id="path60637"
       style="fill:none;stroke:#000000;stroke-width:1.18713;stroke-opacity:1" />
    <path
       class="cls-2"
       d="m 90.041051,61.696513 c 0,0 2.089682,-7.67983 -0.621108,-8.158525 -2.71079,-0.478714 -3.0105,7.890624 -3.0105,7.890624"
       id="path60639"
       style="fill:none;stroke:#000000;stroke-width:1.18713;stroke-opacity:1" />
    <path
       class="cls-2"
       d="M 87.380993,48.334145 C 78.735377,41.141638 85.702629,37.115078 89.41325,31.127972"
       id="path60641"
       style="fill:none;stroke:#000000;stroke-width:1.18713;stroke-opacity:1" />
    <path
       class="cls-2"
       d="m 102.57631,51.937311 c -0.74409,-3.38842 -2.674341,-4.113319 -2.04662,-10.347486"
       id="path60643"
       style="fill:none;stroke:#000000;stroke-width:1.18713;stroke-opacity:1" />
    <path
       class="cls-2"
       d="m 94.505526,49.100184 c 1.458948,-0.0088 4.530417,-1.657348 5.900044,-4.865312"
       id="path60645"
       style="fill:none;stroke:#000000;stroke-width:1.18713;stroke-opacity:1" />
    <path
       class="cls-2"
       d="m 91.372904,36.730732 a 2.1129778,2.0425622 89.654634 0 1 2.146213,-2.174236 l 2.347342,2.147149 a 2.3303127,2.2526544 89.654634 1 1 -4.493555,0.02709 z"
       id="path60647"
       style="fill:none;stroke:#000000;stroke-width:1.18713;stroke-opacity:1" />
    <path
       class="cls-2"
       d="M 74.643559,18.744175 C 54.619848,37.073046 45.423929,39.277697 41.567492,59.803243 38.786526,76.724141 48.344291,97.760469 75.309322,131.12848 101.87013,97.437823 111.16187,76.2758 108.18884,59.40166 104.03857,38.924376 94.875104,36.830393 74.643559,18.744175 Z"
       id="path60651"
       style="fill:none;stroke:#000000;stroke-width:1.18713;stroke-opacity:1" />
    <path
       class="cls-2"
       d="m 70.28728,124.80762 a 48.670935,47.048964 89.654634 0 0 4.968868,-4.4371 48.670935,47.048964 89.654634 0 0 5.021999,4.37688"
       id="path60653"
       style="fill:none;stroke:#000000;stroke-width:1.18713;stroke-opacity:1" />
    <path
       class="cls-2"
       d="m 66.616638,120 a 14.488991,14.006141 89.654634 0 1 8.612217,-4.1572 14.488991,14.006141 89.654634 0 1 8.661709,4.05308"
       id="path60655"
       style="fill:none;stroke:#000000;stroke-width:1.18713;stroke-opacity:1" />
    <path
       class="cls-2"
       d="m 62.791862,114.79485 c 3.259262,-3.41255 8.344936,-3.9624 12.406644,-3.98689 4.061706,-0.0245 9.176984,0.46389 12.442134,3.8371"
       id="path60657"
       style="fill:none;stroke:#000000;stroke-width:1.18713;stroke-opacity:1" />
    <path
       class="cls-2"
       d="m 70.310228,111.18759 c -6.00233,-10.16667 2.899639,-14.663702 4.780273,-18.297351 1.912191,3.53834 10.879547,7.951801 5.000211,18.190091"
       id="path60659"
       style="fill:none;stroke:#000000;stroke-width:1.18713;stroke-opacity:1" />
    <path
       class="cls-2"
       d="m 73.868092,110.84013 c -1.286513,-4.3028 1.219581,-8.73713 1.219581,-8.73713 0,0 2.571043,4.40373 1.324823,8.7218"
       id="path60661"
       style="fill:none;stroke:#000000;stroke-width:1.18713;stroke-opacity:1" />
    <path
       class="cls-2"
       d="m 68.862141,101.37985 c 0.785014,-7.249362 1.097796,-11.513502 -2.08854,-11.494295 -0.420178,0.0025 -3.0762,0.863747 -0.941011,4.606007 3.172621,5.450571 2.822956,7.469098 2.822956,7.469098 -0.341781,-4.417162 -5.642192,-4.638775 -9.605672,-7.681771 -0.64196,1.935768 -4.541119,5.690256 -3.005795,10.607341 -1.180985,-2.28701 -0.286429,-6.856517 -1.769212,-8.863999 -0.613038,-1.010553 -3.104831,-1.949409 -3.194374,0.622976"
       id="path60663"
       style="fill:none;stroke:#000000;stroke-width:1.18713;stroke-opacity:1" />
    <path
       class="cls-2"
       d="m 67.268535,111.96661 c 0.549267,-3.75844 -3.764455,-4.87951 -5.55724,-7.97182 0,0 -0.150704,5.97773 2.996914,9.21884"
       id="path60665"
       style="fill:none;stroke:#000000;stroke-width:1.18713;stroke-opacity:1" />
    <path
       class="cls-2"
       d="m 47.715224,90.217773 c 7.040957,-5.355169 11.334868,4.097336 11.334868,4.097336 1.154684,-15.631207 15.988371,-10.057738 16.040409,-1.42487 -0.05233,-8.681166 14.701347,-14.445054 16.044381,1.171095 0,0 4.191324,-9.503652 11.284648,-4.233681"
       id="path60667"
       style="fill:none;stroke:#000000;stroke-width:1.18713;stroke-opacity:1" />
    <path
       class="cls-2"
       d="m 55.311714,82.142521 c 0,0 3.542957,6.861041 3.749905,12.148371"
       id="path60669"
       style="fill:none;stroke:#000000;stroke-width:1.18713;stroke-opacity:1" />
    <path
       class="cls-2"
       d="m 48.447484,89.706238 c -3.291255,-9.639667 1.292786,-12.082176 2.785379,-18.128359 4.325882,3.137407 11.777146,3.889403 13.86251,12.920542 -1.584914,-11.207542 8.662824,-13.18914 9.8436,-16.746124 1.188557,3.542702 11.494455,5.400405 10.044761,16.62624 1.975976,-9.115992 9.406039,-9.945612 13.693928,-13.1108 1.565368,6.027756 6.178078,8.342378 3.003718,18.093463"
       id="path60671"
       style="fill:none;stroke:#000000;stroke-width:1.18713;stroke-opacity:1" />
    <path
       class="cls-2"
       d="m 55.261568,73.823574 c 3.629819,-7.773631 10.062019,-7.619211 15.162927,-1.769735"
       id="path60673"
       style="fill:none;stroke:#000000;stroke-width:1.18713;stroke-opacity:1" />
    <path
       class="cls-2"
       d="m 48.920935,77.242622 c 0,0 -3.155227,-2.564898 -6.139248,0.03701"
       id="path60675"
       style="fill:none;stroke:#000000;stroke-width:1.18713;stroke-opacity:1" />
    <path
       class="cls-2"
       d="m 41.532104,71.358644 c 1.148756,-3.061745 4.913329,-2.033967 4.913329,-2.033967 1.720244,-5.069533 7.56833,-3.064214 7.56833,-3.064214 6.107205,-9.225417 17.237922,-2.204851 17.237922,-2.204851 a 6.0370792,5.835892 89.654634 0 1 7.318073,-0.04411 c 0,0 11.045275,-7.154239 17.204747,1.973085 0,0 5.823485,-2.075675 7.604715,2.972757 0,0 3.77526,-1.073229 4.93749,1.974582"
       id="path60677"
       style="fill:none;stroke:#000000;stroke-width:1.18713;stroke-opacity:1" />
    <path
       class="cls-2"
       d="m 68.126348,62.577232 c -1.01925,-8.373481 -0.578489,-14.642735 6.681229,-14.686496 7.259721,-0.04376 7.776027,6.219725 6.857797,14.604884"
       id="path60679"
       style="fill:none;stroke:#000000;stroke-width:1.18713;stroke-opacity:1" />
    <path
       class="cls-2"
       d="m 56.077108,63.893517 c 0,0 -4.763095,-15.643831 -12.903789,-10.716711"
       id="path60681"
       style="fill:none;stroke:#000000;stroke-width:1.18713;stroke-opacity:1" />
    <path
       class="cls-2"
       d="M 67.811469,54.875664 C 65.788901,46.580685 52.278878,43.728038 52.777874,56.801608"
       id="path60683"
       style="fill:none;stroke:#000000;stroke-width:1.18713;stroke-opacity:1" />
    <path
       class="cls-2"
       d="m 47.079293,67.980601 c 0,0 -3.606924,-7.790384 -1.021726,-8.783987 2.94621,-1.128604 4.604127,6.697671 4.604127,6.697671"
       id="path60685"
       style="fill:none;stroke:#000000;stroke-width:1.18713;stroke-opacity:1" />
    <path
       class="cls-2"
       d="m 59.75332,61.879082 c 0,0 -2.182116,-7.654079 0.522704,-8.165419 2.704824,-0.511358 3.12875,7.853618 3.12875,7.853618"
       id="path60687"
       style="fill:none;stroke:#000000;stroke-width:1.18713;stroke-opacity:1" />
    <path
       class="cls-2"
       d="m 73.077494,62.945837 c 0,0 -1.396301,-8.962853 1.766691,-8.981919 3.162998,-0.01907 1.874841,8.959969 1.874841,8.959969"
       id="path60689"
       style="fill:none;stroke:#000000;stroke-width:1.18713;stroke-opacity:1" />
    <path
       class="cls-2"
       d="M 72.020474,48.306004 C 61.042532,39.521646 69.703285,33.734106 74.702656,28.548207 79.76418,33.673461 88.482255,39.332093 77.622828,48.272233"
       id="path60691"
       style="fill:none;stroke:#000000;stroke-width:1.18713;stroke-opacity:1" />
    <path
       class="cls-2"
       d="m 62.252098,48.485618 c 8.55828,-7.29621 1.54299,-11.238485 -2.239539,-17.180423"
       id="path60693"
       style="fill:none;stroke:#000000;stroke-width:1.18713;stroke-opacity:1" />
    <path
       class="cls-2"
       d="M 47.101314,52.271706 C 47.80451,48.874561 49.725875,48.126446 49.023043,41.9003"
       id="path60695"
       style="fill:none;stroke:#000000;stroke-width:1.18713;stroke-opacity:1" />
    <path
       class="cls-2"
       d="m 55.113971,49.33763 c -1.458947,0.0088 -4.550067,-1.602612 -5.958281,-4.793832"
       id="path60697"
       style="fill:none;stroke:#000000;stroke-width:1.18713;stroke-opacity:1" />
    <path
       class="cls-2"
       d="m 58.120594,36.931172 a 2.1129778,2.0425622 89.654634 0 0 -2.218958,-2.147924 l -2.321284,2.175292 a 2.3303127,2.2526544 89.654634 1 0 4.493552,-0.02709 z"
       id="path60699"
       style="fill:none;stroke:#000000;stroke-width:1.18713;stroke-opacity:1" />
    <path
       class="cls-2"
       d="M 63.471584,35.860538 A 51.798144,50.071957 89.654634 0 1 74.660416,23.47723 51.798144,50.071957 89.654634 0 1 85.997723,35.724754"
       id="path60701"
       style="fill:none;stroke:#000000;stroke-width:1.18713;stroke-opacity:1" />
    <ellipse
       class="cls-2"
       cx="-74.552574"
       cy="-37.365395"
       id="circle60703"
       style="fill:none;stroke:#000000;stroke-width:1.18713;stroke-opacity:1"
       rx="1.9725317"
       ry="2.0405331"
       transform="rotate(179.65463)" />
    <line
       class="cls-2"
       x1="74.996964"
       y1="77.375229"
       x2="75.07914"
       y2="92.938606"
       id="line60705"
       style="fill:none;stroke:#000000;stroke-width:1.18713;stroke-opacity:1" />
  </g>
</svg>
