<svg viewBox=svg viewBox="0 0 140 140"><title>Artboard 15</title><g id="_15_fill" data-name="15 fill"><path class="cls-1" d="M70.86,119.87c19.25-15.87,28-17.75,31.86-35.63,2.75-14.73-6.26-33.13-31.86-62.37C45.26,51.1,36.25,69.51,39,84.24,42.86,102.12,51.62,104,70.86,119.87Z"/></g><g id="_15_stroke" data-name="15 stroke"><path class="cls-2" d="M65.49,49c.71,6,1,9.53-1.73,9.53-.36,0-2.64-.7-.83-3.81,2.69-4.53,2.38-6.2,2.38-6.2-.27,3.66-4.81,3.87-8.19,6.41-.56-1.6-3.92-4.69-2.63-8.77-1,1.9-.21,5.68-1.47,7.35-.52.84-2.65,1.63-2.74-.5"/><path class="cls-2" d="M64.07,40.24c.49,3.11-3.2,4.06-4.72,6.63,0,0-.16-4.95,2.52-7.65"/><path class="cls-2" d="M54,65s3-5.7,3.15-10.08"/><path class="cls-2" d="M54,71.89c3.15,6.42,8.66,6.26,13,1.39"/><path class="cls-2" d="M48.53,69.09s-2.69,2.14-5.26,0"/><path class="cls-2" d="M54.69,80.11s-3.94,13-10.93,8.95"/><path class="cls-2" d="M64.83,87.52C63.14,94.4,51.58,96.83,51.94,86"/><path class="cls-2" d="M47,76.77s-3.05,6.47-.83,7.28c2.53.92,3.91-5.57,3.91-5.57"/><path class="cls-2" d="M57.89,81.76s-1.83,6.35.49,6.76S61,82,61,82"/><path class="cls-2" d="M60.1,92.84c7.37,6,1.38,9.3-1.83,14.24"/><path class="cls-2" d="M47.1,89.78c.62,2.81,2.27,3.42,1.7,8.58"/><path class="cls-2" d="M54,92.17c-1.25,0-3.89,1.35-5.08,4"/><path class="cls-2" d="M56.62,102.43a1.75,1.75,0,0,1-1.85,1.79l-2-1.79a1.93,1.93,0,1,1,3.85,0Z"/><path class="cls-2" d="M70.86,119.87c19.25-15.87,28-17.75,31.86-35.63,2.75-14.73-6.26-33.13-31.86-62.37C45.26,51.1,36.25,69.51,39,84.24,42.86,102.12,51.62,104,70.86,119.87Z"/><path class="cls-2" d="M70.86,117.41C88.11,102.33,96,100.55,99.41,83.57c2.47-14-5.61-31.47-28.54-59.24-22.93,27.77-31,45.25-28.54,59.24C45.78,100.55,53.62,102.33,70.86,117.41Z"/><path class="cls-2" d="M75.14,29.59a40.31,40.31,0,0,0-4.28,3.65,40.31,40.31,0,0,0-4.28-3.65"/><path class="cls-2" d="M78.26,33.59a12,12,0,0,1-7.4,3.4,12,12,0,0,1-7.4-3.4"/><path class="cls-2" d="M81.51,37.92c-2.81,2.81-7.17,3.24-10.65,3.24S63,40.73,60.22,37.92"/><path class="cls-2" d="M75.05,40.87C80.14,49.32,72.49,53,70.86,56c-1.62-2.94-9.28-6.64-4.19-15.09"/><path class="cls-2" d="M72,41.14c1.08,3.57-1.09,7.23-1.09,7.23s-2.18-3.66-1.09-7.23"/><path class="cls-2" d="M76.24,49c-.71,6-1,9.53,1.73,9.53.36,0,2.64-.7.83-3.81-2.69-4.53-2.38-6.2-2.38-6.2.27,3.66,4.81,3.87,8.19,6.41.56-1.6,3.92-4.69,2.63-8.77,1,1.9.21,5.68,1.47,7.35.52.84,2.65,1.63,2.74-.5"/><path class="cls-2" d="M77.66,40.24c-.49,3.11,3.2,4.06,4.72,6.63,0,0,.16-4.95-2.52-7.65"/><path class="cls-2" d="M94.3,58.35c-6.06,4.4-9.69-3.45-9.69-3.45C83.54,67.84,70.86,63.15,70.86,56c0,7.19-12.67,11.89-13.74-1.05,0,0-3.64,7.85-9.69,3.45"/><path class="cls-2" d="M87.75,65s-3-5.7-3.15-10.08"/><path class="cls-2" d="M93.67,58.77c2.77,8-1.17,10-2.48,15C87.5,71.15,81.12,70.49,79.38,63c1.3,9.29-7.49,10.88-8.52,13.82-1-2.94-9.82-4.53-8.52-13.82-1.74,7.54-8.11,8.19-11.8,10.79-1.31-5-5.25-6.94-2.48-15"/><path class="cls-2" d="M87.75,71.89c-3.15,6.42-8.66,6.26-13,1.39"/><path class="cls-2" d="M93.2,69.09s2.69,2.14,5.26,0"/><path class="cls-2" d="M99.5,74c-1,2.53-4.22,1.66-4.22,1.66-1.5,4.19-6.5,2.5-6.5,2.5C83.5,85.77,74,79.9,74,79.9a5,5,0,0,1-6.27,0S58.23,85.77,53,78.18c0,0-5,1.69-6.5-2.5,0,0-3.24.87-4.22-1.66"/><path class="cls-2" d="M76.67,81.14c.83,6.94.42,12.13-5.8,12.13s-6.63-5.19-5.8-12.13"/><path class="cls-2" d="M87,80.11S91,93.09,98,89.05"/><path class="cls-2" d="M76.9,87.52C78.59,94.4,90.15,96.83,89.79,86"/><path class="cls-2" d="M94.73,76.77s3.05,6.47.83,7.28c-2.53.92-3.91-5.57-3.91-5.57"/><path class="cls-2" d="M83.84,81.76s1.83,6.35-.49,6.76S80.71,82,80.71,82"/><path class="cls-2" d="M72.43,80.81s1.15,7.43-1.56,7.43-1.56-7.43-1.56-7.43"/><path class="cls-2" d="M73.26,92.94c9.36,7.33,1.91,12.08-2.4,16.35-4.31-4.27-11.75-9-2.4-16.35"/><path class="cls-2" d="M81.63,92.84c-7.37,6-1.38,9.3,1.83,14.24"/><path class="cls-2" d="M94.63,89.78c-.62,2.81-2.27,3.42-1.7,8.58"/><path class="cls-2" d="M87.75,92.17c1.25,0,3.89,1.35,5.08,4"/><path class="cls-2" d="M85.11,102.43A1.75,1.75,0,0,0,87,104.22l2-1.79a1.93,1.93,0,1,0-3.85,0Z"/><path class="cls-2" d="M80.52,103.29a42.9,42.9,0,0,1-9.65,10.2,42.9,42.9,0,0,1-9.65-10.2"/><circle class="cls-2" cx="70.84" cy="102.36" r="1.69"/><line class="cls-2" x1="70.86" y1="68.85" x2="70.87" y2="55.96"/></g></svg>