<svg viewBox="0 0 140 140"><title>Artboard 9</title><g id="_9_fill" data-name="9 fill"><path class="cls-1" d="M70.86,83.71c9.6,45,46.71,42.81,53.11,17.73,7-29.16-41.18-47.34-53.11-78.91C58.93,54.09,10.73,72.28,17.76,101.44,24.16,126.53,61.26,128.75,70.86,83.71Z"/></g><g id="_9_stroke" data-name="9 stroke"><path class="cls-2" d="M66,63.24c-1.27-2.29-4.3-4.63-6.87-2.8-6.58,5.26,12.06,24.87-3,51.92"/><path class="cls-2" d="M59.65,73.38c-1.27-2.29-4.27-4.5-6.85-2.67C46.23,76,63.39,93.55,43.35,118.83"/><path class="cls-2" d="M26.64,115c7-1.09,12.78-3.62,16.13-6.06a9.28,9.28,0,0,0,1.82-13.57A7.91,7.91,0,0,0,33.49,94a6.33,6.33,0,0,0-1.13,8.88,5.06,5.06,0,0,0,7.1.9,4.05,4.05,0,0,0,.72-5.68,3.24,3.24,0,0,0-4.55-.58,2.59,2.59,0,0,0-.46,3.64,2.07,2.07,0,0,0,2.91.37"/><path class="cls-2" d="M70.86,83.71c9.6,45,46.71,42.81,53.11,17.73,7-29.16-41.18-47.34-53.11-78.91C58.93,54.09,10.73,72.28,17.76,101.44,24.16,126.53,61.26,128.75,70.86,83.71Z"/><path class="cls-2" d="M70.86,83.71c4-8.58,8.9-35,0-35S66.82,75.13,70.86,83.71Z"/><path class="cls-2" d="M75.7,63.24C77,61,80,58.61,82.57,60.44c6.58,5.26-12.06,24.87,3,51.92"/><path class="cls-2" d="M82.08,73.38c1.27-2.29,4.27-4.5,6.85-2.67C95.5,76,78.34,93.55,98.38,118.83"/><path class="cls-2" d="M115.09,115c-7-1.09-12.78-3.62-16.13-6.06a9.28,9.28,0,0,1-1.82-13.57A7.91,7.91,0,0,1,108.24,94a6.33,6.33,0,0,1,1.13,8.88,5.06,5.06,0,0,1-7.1.9,4.05,4.05,0,0,1-.72-5.68,3.24,3.24,0,0,1,4.55-.58,2.59,2.59,0,0,1,.46,3.64,2.07,2.07,0,0,1-2.91.37"/></g></svg>