<?xml version="1.0" encoding="utf-8"?>
<!-- Generator: Adobe Illustrator 21.0.0, SVG Export Plug-In . SVG Version: 6.00 Build 0)  -->
<svg version="1.1" id="Ebene_1" xmlns="http://www.w3.org/2000/svg" xmlns:xlink="http://www.w3.org/1999/xlink" x="0px" y="0px"
	 viewBox="0 0 17.6 17.6" style="enable-background:new 0 0 17.6 17.6;" xml:space="preserve">
<style type="text/css">
	.st0{fill:current;}
</style>
<g id="Grau6">
</g>
<g id="Ebene_1_1_">
	<g id="Grau2">
		<path class="st0" d="M8.8,13.7c-2.7,0-4.9-2.2-4.9-4.9s2.2-4.9,4.9-4.9s4.9,2.2,4.9,4.9l0,0C13.7,11.5,11.5,13.7,8.8,13.7z
			 M8.8,5.4c-1.9,0-3.4,1.5-3.4,3.4s1.5,3.4,3.4,3.4s3.4-1.5,3.4-3.4S10.7,5.4,8.8,5.4z"/>
		<path class="st0" d="M8.8,9.5c0.4,0,0.7-0.4,0.7-0.8S9.1,8,8.7,8S8,8.4,8,8.8C8.1,9.2,8.4,9.6,8.8,9.5L8.8,9.5"/>
	</g>
</g>
</svg>
