<?xml version="1.0" encoding="UTF-8" standalone="no"?>
<!-- Created with Inkscape (http://www.inkscape.org/) -->

<svg
   width="150mm"
   height="150mm"
   viewBox="0 0 150 150"
   version="1.1"
   id="svg5"
   inkscape:version="1.2 (dc2aedaf03, 2022-05-15)"
   sodipodi:docname="96.svg"
   xmlns:inkscape="http://www.inkscape.org/namespaces/inkscape"
   xmlns:sodipodi="http://sodipodi.sourceforge.net/DTD/sodipodi-0.dtd"
   xmlns="http://www.w3.org/2000/svg"
   xmlns:svg="http://www.w3.org/2000/svg">
  <sodipodi:namedview
     id="namedview7"
     pagecolor="#ffffff"
     bordercolor="#000000"
     borderopacity="0.25"
     inkscape:showpageshadow="2"
     inkscape:pageopacity="0.0"
     inkscape:pagecheckerboard="0"
     inkscape:deskcolor="#d1d1d1"
     inkscape:document-units="mm"
     showgrid="true"
     inkscape:zoom="0.28126294"
     inkscape:cx="220.4343"
     inkscape:cy="-364.42768"
     inkscape:window-width="1920"
     inkscape:window-height="1051"
     inkscape:window-x="-9"
     inkscape:window-y="1341"
     inkscape:window-maximized="1"
     inkscape:current-layer="layer1">
    <inkscape:grid
       type="xygrid"
       id="grid9"
       originx="74.999999"
       originy="74.999999"
       units="mm"
       spacingx="5"
       spacingy="5"
       empspacing="15" />
    <inkscape:grid
       type="xygrid"
       id="grid11"
       dotted="false"
       color="#db00e5"
       opacity="0.14901961"
       empcolor="#cb00e5"
       empopacity="0.30196078"
       spacingx="15"
       spacingy="15"
       empspacing="15"
       visible="true"
       units="mm" />
  </sodipodi:namedview>
  <defs
     id="defs2">











































	


	


	


	




















	

	




	




	

















































































	


	






























		
		
	
	
	
	
	
	
	
	
	
		
		
	</defs>
  <g
     inkscape:label="Warstwa 1"
     inkscape:groupmode="layer"
     id="layer1">
    <path
       class="cls-2"
       d="m 69.624337,66.328034 c -1.404244,-2.787241 -4.754526,-5.635339 -7.596185,-3.40798 -7.275532,6.402135 13.334789,30.27017 -3.317112,63.193696"
       id="path57516"
       style="fill:none;stroke:#000000;stroke-width:1.16008;stroke-opacity:1" />
    <path
       class="cls-2"
       d="m 58.715693,126.10455 c -4.477279,3.16355 -7.888672,4.57653 -10.873096,4.86403 -14.181088,1.69144 -26.7531,-14.52007 -18.860755,-25.53397 2.971384,-4.19022 8.465551,-4.93667 12.273313,-1.66748 3.056225,2.60489 3.615605,7.44373 1.249446,10.80817 -1.89285,2.68922 -5.407955,3.1797 -7.850498,1.09542 -1.953265,-1.66761 -2.309599,-4.76199 -0.796107,-6.91333 1.211058,-1.72634 3.465188,-2.04264 5.030953,-0.70594 1.254362,1.06724 1.482357,3.05319 0.508624,4.43038 -0.774143,1.10511 -2.216853,1.30703 -3.217598,0.45034"
       id="path57520"
       style="fill:none;stroke:#000000;stroke-width:1.16008;stroke-opacity:1"
       sodipodi:nodetypes="cccccccccc" />
    <path
       class="cls-2"
       d="M 74.998058,91.242806 C 85.612816,146.01392 126.64549,143.34839 133.72199,112.82263 141.46192,77.330943 88.189106,55.203412 74.998058,16.778432 61.807011,55.191241 8.5120827,77.330943 16.285181,112.82263 c 7.076505,30.53794 48.09812,33.23998 58.712877,-21.579824 z"
       id="path57522"
       style="fill:none;stroke:#000000;stroke-width:1.16008;stroke-opacity:1" />
    <path
       class="cls-2"
       d="m 74.998058,91.242806 c 4.422816,-10.443026 9.840765,-42.599756 0,-42.599756 -9.840764,0 -4.467044,32.15673 0,42.599756 z"
       id="path57524"
       style="fill:none;stroke:#000000;stroke-width:1.16008;stroke-opacity:1" />
    <path
       class="cls-2"
       d="m 80.349665,66.328034 c 1.437415,-2.726384 4.754527,-5.635339 7.596186,-3.40798 7.275532,6.402135 -13.334789,30.27017 3.317112,63.193696"
       id="path57526"
       style="fill:none;stroke:#000000;stroke-width:1.16008;stroke-opacity:1" />
    <path
       class="cls-2"
       d="m 91.407989,126.10455 c 4.477279,3.16355 7.888672,4.57653 10.873101,4.86403 14.18108,1.69144 26.7531,-14.52007 18.86075,-25.53397 -2.97138,-4.19022 -8.46555,-4.93667 -12.27331,-1.66748 -3.05623,2.60489 -3.61561,7.44373 -1.24945,10.80817 1.89285,2.68922 5.40796,3.1797 7.8505,1.09542 1.95327,-1.66761 2.3096,-4.76199 0.79611,-6.91333 -1.21106,-1.72634 -3.46519,-2.04264 -5.03096,-0.70594 -1.25436,1.06724 -1.48235,3.05319 -0.50862,4.43038 0.77414,1.10511 2.21685,1.30703 3.2176,0.45034"
       id="path59225"
       style="fill:none;stroke:#000000;stroke-width:1.16008;stroke-opacity:1"
       sodipodi:nodetypes="cccccccccc" />
    <path
       class="cls-2"
       d="m 60.765005,70.238617 c -1.404244,-2.787241 -4.754526,-5.635339 -7.596185,-3.40798 -7.275532,6.402135 22.19877,25.821223 5.546869,58.744743"
       id="path59227"
       style="fill:none;stroke:#000000;stroke-width:1.16008;stroke-opacity:1"
       sodipodi:nodetypes="ccc" />
    <path
       class="cls-2"
       d="m 54.055734,75.628985 c -1.404244,-2.787241 -4.754526,-5.635339 -7.596185,-3.40798 -7.275532,6.402135 22.19877,25.821223 5.546869,58.744745"
       id="path59229"
       style="fill:none;stroke:#000000;stroke-width:1.16008;stroke-opacity:1"
       sodipodi:nodetypes="ccc" />
    <path
       class="cls-2"
       d="m 89.146073,70.238617 c 1.404244,-2.787241 4.754526,-5.635339 7.596185,-3.40798 7.275552,6.402135 -22.19877,25.821223 -5.546869,58.744743"
       id="path59231"
       style="fill:none;stroke:#000000;stroke-width:1.16008;stroke-opacity:1"
       sodipodi:nodetypes="ccc" />
    <path
       class="cls-2"
       d="m 95.855344,75.628985 c 1.404244,-2.787241 4.754526,-5.635339 7.596206,-3.40798 7.27557,6.402135 -22.198791,25.821223 -5.54689,58.744745"
       id="path59233"
       style="fill:none;stroke:#000000;stroke-width:1.16008;stroke-opacity:1"
       sodipodi:nodetypes="ccc" />
  </g>
</svg>
