<svg viewBox="0 0 147 147"><title>Artboard 5</title><g id="_5_fill" data-name="5 fill"><path class="cls-1" d="M103,60.53l.09-.22c2.08-5.39,3.39-12.79-.18-17.95a10.62,10.62,0,0,1-6.8,5.15v0a22.37,22.37,0,0,0-5.23-15.74c-3,.62-7,4.86-9.08,8.65v0c-1.53-7.35-4.75-14.1-11-19.29-6.23,5.19-9.44,11.94-11,19.29h0c-2.09-3.79-6.11-8-9.08-8.65a22.37,22.37,0,0,0-5.23,15.74v0a10.62,10.62,0,0,1-6.8-5.15c-3.57,5.16-2.26,12.56-.18,17.95l.08.23A34,34,0,0,0,29.2,83.76c0,20.33,19,36.8,41.66,36.8s41.66-16.48,41.66-36.8A34,34,0,0,0,103,60.53Z"/></g><g id="_5_stroke" data-name="5 stroke"><path class="cls-2" d="M59.89,40.44c-2.09-3.79-6.11-8-9.08-8.65-5.33,6.34-6.18,13.84-4.43,22"/><path class="cls-2" d="M38.6,60.31c-2.08-5.39-3.39-12.79.18-17.95a10.62,10.62,0,0,0,6.8,5.15"/><path class="cls-2" d="M70.86,69.17A11.11,11.11,0,1,0,59.76,58.07,11.11,11.11,0,0,0,70.86,69.17"/><ellipse class="cls-2" cx="70.87" cy="69.88" rx="25.89" ry="22.92"/><path class="cls-2" d="M70.86,120.56c22.62,0,41.66-16.48,41.66-36.8S93.49,47,70.86,47,29.2,63.43,29.2,83.76,48.24,120.56,70.86,120.56Z"/><path class="cls-2" d="M82.89,48.38c-.68-10.34-3.6-20.21-12-27.22-8.42,7-11.34,16.88-12,27.22"/><path class="cls-2" d="M78.65,47.51c-.51-8.78-3.9-12.49-7.79-15.72C67,35,63.58,38.73,63.08,47.51"/><path class="cls-2" d="M81.84,40.44c2.09-3.79,6.11-8,9.08-8.65,5.33,6.34,6.18,13.84,4.43,22"/><path class="cls-2" d="M103.13,60.31c2.08-5.39,3.39-12.79-.18-17.95a10.62,10.62,0,0,1-6.8,5.15"/><path class="cls-2" d="M96,64.4c5.72,0,11.86,2.54,13.61,5.92,1.88,5.34-7.82,7.69-13.45,4.4,8,2.79,17.31,9.45,15.69,15.57-3.26,9-14,3.37-21.45-5.4,7.43,8.69,15.42,19.24,8.7,25.78-8.72,7.05-17.27-7.81-20.17-19,3,11.49,3.94,28.06-8.08,28.9h0c-12-.84-11.11-17.41-8.08-28.9-2.89,11.21-11.45,26.08-20.17,19-6.72-6.54,1.28-17.09,8.7-25.78-7.42,8.76-18.19,14.36-21.45,5.4-1.62-6.12,7.73-12.77,15.69-15.57-5.63,3.29-15.33.93-13.45-4.4C33.87,66.95,40,64.4,45.73,64.4"/></g></svg>