<svg viewBox="0 0 140 140"><title>Artboard 7</title><g id="_7_fill" data-name="7 fill"><path class="cls-1" d="M70.86,100.72c11.76,30.47,42,21.47,49.87-2.53,9.91-29.75-21.61-47.36-49.87-76.57C42.6,50.83,11.08,68.44,21,98.19,28.84,122.19,59.11,131.19,70.86,100.72Z"/></g><g id="_7_stroke" data-name="7 stroke"><path class="cls-2" d="M70.86,100.72c-13.37,5.75-22.51,2.18-22.51-7.2a133.29,133.29,0,0,0,16.3,5.39"/><path class="cls-2" d="M70.86,100.72c11.76,30.47,42,21.47,49.87-2.53,9.91-29.75-21.61-47.36-49.87-76.57C42.6,50.83,11.08,68.44,21,98.19,28.84,122.19,59.11,131.19,70.86,100.72Z"/><path class="cls-2" d="M70.86,100.72c14.66,8.48,26.26,6.05,33-2.12,7.07-8.54,4-25.73-3.73-37.53C88.49,42.61,71.28,31.58,70.86,21.63c-.42,10-17.63,21-29.29,39.45-7.69,11.8-10.79,29-3.73,37.53,6.76,8.17,18.36,10.6,33,2.12"/><path class="cls-2" d="M70.86,100.72c10.83-8,10.54-29.86,0-50.69C60.32,70.86,60,92.74,70.86,100.72Z"/><path class="cls-2" d="M78.78,83.42c3.48-6.82,9.09-12.34,12.47-13.52,1.84,2.25,6.14,25.26-20.38,30.82C44.34,95.16,48.64,72.15,50.48,69.9c3.38,1.18,9,6.7,12.47,13.52"/><path class="cls-2" d="M70.86,100.72c13.37,5.75,22.51,2.18,22.51-7.2a133.29,133.29,0,0,1-16.3,5.39"/></g></svg>